<svg width="173" height="46" fill="none" xmlns="http://www.w3.org/2000/svg"><path d="M13.764.304c3.797 0 6.976.363 9.536 1.088 2.603.725 4.544 1.92 5.824 3.584 1.323 1.664 1.984 3.883 1.984 6.656 0 1.792-.341 3.392-1.024 4.8-.64 1.365-1.621 2.517-2.944 3.456-1.28.896-2.859 1.515-4.736 1.856v.32c1.92.299 3.648.853 5.184 1.664 1.579.81 2.816 1.963 3.712 3.456.896 1.493 1.344 3.435 1.344 5.824 0 2.773-.64 5.141-1.92 7.104-1.28 1.92-3.115 3.392-5.504 4.416-2.347.981-5.163 1.472-8.448 1.472H.708V.304h13.056zm1.152 19.456c3.925 0 6.613-.619 8.064-1.856 1.45-1.28 2.176-3.157 2.176-5.632 0-2.517-.896-4.31-2.688-5.376-1.75-1.11-4.565-1.664-8.448-1.664H6.468V19.76h8.448zm-8.448 4.8v16.576h9.216c4.053 0 6.87-.79 8.448-2.368 1.579-1.579 2.368-3.648 2.368-6.208 0-1.621-.363-3.03-1.088-4.224-.683-1.195-1.856-2.112-3.52-2.752-1.621-.683-3.84-1.024-6.656-1.024H6.468zM42.397.304h5.376v25.088c0 1.067-.021 2.24-.064 3.52 0 1.237-.021 2.475-.064 3.712a64.475 64.475 0 01-.192 3.328 61.855 61.855 0 01-.128 2.176h.256L72.733.304h6.4V46h-5.376V21.168c0-1.152.021-2.39.064-3.712.043-1.365.085-2.667.128-3.904.085-1.28.15-2.41.192-3.392.043-.981.085-1.707.128-2.176h-.256L48.797 46h-6.4V.304zM126.402 46h-5.76V24.688H97.218V46h-5.76V.304h5.76v19.328h23.424V.304h5.76V46zm45.838 0h-6.912l-20.672-23.168V46h-5.76V.304h5.76v22.144L164.816.304h6.528l-19.841 22.208L172.24 46z" fill="#9EAABC"/></svg>