<svg width="46" height="46" viewBox="0 0 46 46" fill="none" xmlns="http://www.w3.org/2000/svg">
<g filter="url(#filter0_iii_5504_28845)">
<path d="M3.95711 7.27946C4.05741 5.62806 5.13196 4.34906 6.77249 4.13494C8.03894 3.96965 9.86923 3.83203 12.4531 3.83203C15.037 3.83203 16.8673 3.96965 18.1338 4.13494C19.7743 4.34906 20.8488 5.62806 20.9491 7.27946C21.0209 8.46057 21.0781 10.1316 21.0781 12.457C21.0781 14.7825 21.0209 16.4535 20.9491 17.6346C20.8488 19.286 19.7743 20.565 18.1338 20.7791C16.8673 20.9444 15.037 21.082 12.4531 21.082C9.86923 21.082 8.03894 20.9444 6.77249 20.7791C5.13196 20.565 4.05741 19.286 3.95711 17.6346C3.88536 16.4535 3.82813 14.7825 3.82812 12.457C3.82812 10.1316 3.88536 8.46057 3.95711 7.27946Z" fill="#D0E2F3"/>
<path d="M3.95711 38.7188C4.05741 40.3702 5.13196 41.6492 6.77249 41.8633C8.03894 42.0286 9.86923 42.1662 12.4531 42.1662C15.037 42.1662 16.8673 42.0286 18.1338 41.8633C19.7743 41.6492 20.8488 40.3702 20.9491 38.7188C21.0209 37.5377 21.0781 35.8667 21.0781 33.5412C21.0781 31.2158 21.0209 29.5448 20.9491 28.3637C20.8488 26.7123 19.7743 25.4333 18.1338 25.2192C16.8673 25.0539 15.037 24.9162 12.4531 24.9162C9.86923 24.9162 8.03894 25.0539 6.77249 25.2192C5.13196 25.4333 4.05741 26.7123 3.95711 28.3637C3.88536 29.5448 3.82813 31.2158 3.82812 33.5412C3.82812 35.8667 3.88536 37.5377 3.95711 38.7188Z" fill="#D0E2F3"/>
<path d="M38.7149 3.96101C40.3663 4.06132 41.6453 5.13587 41.8594 6.7764C42.0247 8.04285 42.1623 9.87314 42.1623 12.457C42.1623 15.0409 42.0247 16.8712 41.8594 18.1377C41.6453 19.7782 40.3663 20.8527 38.7149 20.9531C37.5338 21.0248 35.8628 21.082 33.5373 21.082C31.2119 21.082 29.5409 21.0248 28.3598 20.9531C26.7084 20.8527 25.4294 19.7782 25.2152 18.1377C25.05 16.8712 24.9123 15.0409 24.9123 12.457C24.9123 9.87314 25.05 8.04285 25.2152 6.7764C25.4294 5.13587 26.7084 4.06132 28.3598 3.96101C29.5409 3.88927 31.2119 3.83203 33.5373 3.83203C35.8628 3.83203 37.5338 3.88927 38.7149 3.96101Z" fill="#D0E2F3"/>
</g>
<g filter="url(#filter1_i_5504_28845)">
<path d="M32.3738 42.1116C31.3989 42.0139 30.7956 41.1854 30.7583 40.2062C30.7263 39.3688 30.6936 38.142 30.6758 36.4024C28.9361 36.3845 27.7093 36.3518 26.8719 36.3199C25.8927 36.2825 25.0643 35.6793 24.9665 34.7043C24.9336 34.3759 24.9121 33.9897 24.9121 33.541C24.9121 33.0923 24.9336 32.7061 24.9665 32.3777C25.0643 31.4028 25.8927 30.7995 26.8719 30.7622C27.7093 30.7302 28.9361 30.6975 30.6758 30.6797C30.6936 28.94 30.7263 27.7133 30.7583 26.8758C30.7956 25.8967 31.3989 25.0682 32.3738 24.9704C32.7022 24.9375 33.0884 24.916 33.5371 24.916C33.9858 24.916 34.372 24.9375 34.7004 24.9704C35.6754 25.0682 36.2786 25.8967 36.316 26.8758C36.3479 27.7133 36.3806 28.94 36.3985 30.6797C38.1381 30.6975 39.3649 30.7302 40.2023 30.7622C41.1815 30.7995 42.01 31.4028 42.1077 32.3777C42.1406 32.7061 42.1621 33.0923 42.1621 33.541C42.1621 33.9897 42.1406 34.3759 42.1077 34.7043C42.01 35.6793 41.1815 36.2825 40.2023 36.3199C39.3649 36.3518 38.1381 36.3845 36.3985 36.4024C36.3806 38.142 36.3479 39.3688 36.316 40.2062C36.2786 41.1854 35.6754 42.0139 34.7004 42.1116C34.372 42.1445 33.9858 42.166 33.5371 42.166C33.0884 42.166 32.7022 42.1445 32.3738 42.1116Z" fill="url(#paint0_linear_5504_28845)"/>
</g>
<defs>
<filter id="filter0_iii_5504_28845" x="2.82812" y="1.83203" width="40.334" height="41.334" filterUnits="userSpaceOnUse" color-interpolation-filters="sRGB">
<feFlood flood-opacity="0" result="BackgroundImageFix"/>
<feBlend mode="normal" in="SourceGraphic" in2="BackgroundImageFix" result="shape"/>
<feColorMatrix in="SourceAlpha" type="matrix" values="0 0 0 0 0 0 0 0 0 0 0 0 0 0 0 0 0 0 127 0" result="hardAlpha"/>
<feOffset dx="1" dy="1"/>
<feGaussianBlur stdDeviation="1"/>
<feComposite in2="hardAlpha" operator="arithmetic" k2="-1" k3="1"/>
<feColorMatrix type="matrix" values="0 0 0 0 0.534167 0 0 0 0 0.645967 0 0 0 0 0.749167 0 0 0 0.6 0"/>
<feBlend mode="normal" in2="shape" result="effect1_innerShadow_5504_28845"/>
<feColorMatrix in="SourceAlpha" type="matrix" values="0 0 0 0 0 0 0 0 0 0 0 0 0 0 0 0 0 0 127 0" result="hardAlpha"/>
<feOffset dx="-1" dy="-2"/>
<feGaussianBlur stdDeviation="1"/>
<feComposite in2="hardAlpha" operator="arithmetic" k2="-1" k3="1"/>
<feColorMatrix type="matrix" values="0 0 0 0 0.533333 0 0 0 0 0.647059 0 0 0 0 0.74902 0 0 0 0.3 0"/>
<feBlend mode="normal" in2="effect1_innerShadow_5504_28845" result="effect2_innerShadow_5504_28845"/>
<feColorMatrix in="SourceAlpha" type="matrix" values="0 0 0 0 0 0 0 0 0 0 0 0 0 0 0 0 0 0 127 0" result="hardAlpha"/>
<feOffset dx="-1" dy="-2"/>
<feGaussianBlur stdDeviation="1.5"/>
<feComposite in2="hardAlpha" operator="arithmetic" k2="-1" k3="1"/>
<feColorMatrix type="matrix" values="0 0 0 0 1 0 0 0 0 1 0 0 0 0 1 0 0 0 0.4 0"/>
<feBlend mode="screen" in2="effect2_innerShadow_5504_28845" result="effect3_innerShadow_5504_28845"/>
</filter>
<filter id="filter1_i_5504_28845" x="24.9121" y="24.916" width="18.6029" height="18.6029" filterUnits="userSpaceOnUse" color-interpolation-filters="sRGB">
<feFlood flood-opacity="0" result="BackgroundImageFix"/>
<feBlend mode="normal" in="SourceGraphic" in2="BackgroundImageFix" result="shape"/>
<feColorMatrix in="SourceAlpha" type="matrix" values="0 0 0 0 0 0 0 0 0 0 0 0 0 0 0 0 0 0 127 0" result="hardAlpha"/>
<feOffset dx="1.35294" dy="1.35294"/>
<feGaussianBlur stdDeviation="0.676471"/>
<feComposite in2="hardAlpha" operator="arithmetic" k2="-1" k3="1"/>
<feColorMatrix type="matrix" values="0 0 0 0 0 0 0 0 0 0.37028 0 0 0 0 0.74056 0 0 0 0.5 0"/>
<feBlend mode="multiply" in2="shape" result="effect1_innerShadow_5504_28845"/>
</filter>
<linearGradient id="paint0_linear_5504_28845" x1="25.7252" y1="24.916" x2="45.3064" y2="32.8935" gradientUnits="userSpaceOnUse">
<stop stop-color="#0050EC"/>
<stop offset="1" stop-color="#39C7EC"/>
</linearGradient>
</defs>
</svg>
