<svg width="46" height="46" viewBox="0 0 46 46" fill="none" xmlns="http://www.w3.org/2000/svg">
<g filter="url(#filter0_i_5504_28975)">
<path d="M3.83398 14.3757C3.83398 8.29646 8.18296 4.23648 14.2572 3.99162C16.611 3.89674 19.4934 3.83398 23.0007 3.83398C26.5079 3.83398 29.3903 3.89674 31.7441 3.99162C37.8183 4.23648 42.1673 8.29646 42.1673 14.3757C42.1673 20.4548 37.8183 24.5148 31.7441 24.7597C29.3903 24.8546 26.5079 24.9173 23.0007 24.9173C19.4934 24.9173 16.611 24.8546 14.2572 24.7597C8.18297 24.5148 3.83398 20.4548 3.83398 14.3757Z" fill="url(#paint0_linear_5504_28975)"/>
</g>
<g filter="url(#filter1_iii_5504_28975)">
<path d="M20.5212 17.556C20.5893 16.541 21.2029 15.601 22.2146 15.4094C22.4566 15.3635 22.707 15.334 22.9505 15.334C23.2041 15.334 23.4652 15.366 23.7166 15.4152C24.7108 15.6096 25.3211 16.5275 25.4102 17.5244C25.5814 19.4402 25.8389 22.5843 25.8389 24.155C25.8389 24.155 29.3918 24.155 32.875 25.1384C35.096 25.7654 36.4701 27.8173 36.4144 30.0976C36.3607 32.2958 36.0199 35.2822 34.8683 38.4174C34.3398 39.8563 33.0873 40.8718 31.5455 41.03C30.5708 41.13 29.2653 41.209 27.572 41.209C26.0805 41.209 24.8898 41.1477 23.9612 41.0648C22.1371 40.9018 20.5383 39.9557 19.3265 38.5996C16.9273 35.9148 15.0015 33.3085 13.9654 31.8408C13.4084 31.0516 13.1911 29.2861 13.7134 28.4741C14.7536 26.8568 16.411 27.6427 17.958 28.7991C19.3051 29.806 20.062 30.5397 20.062 30.5397C20.062 25.181 20.3521 20.0754 20.5212 17.556Z" fill="#D0E2F3"/>
</g>
<defs>
<filter id="filter0_i_5504_28975" x="3.83398" y="3.83398" width="39.6869" height="22.4369" filterUnits="userSpaceOnUse" color-interpolation-filters="sRGB">
<feFlood flood-opacity="0" result="BackgroundImageFix"/>
<feBlend mode="normal" in="SourceGraphic" in2="BackgroundImageFix" result="shape"/>
<feColorMatrix in="SourceAlpha" type="matrix" values="0 0 0 0 0 0 0 0 0 0 0 0 0 0 0 0 0 0 127 0" result="hardAlpha"/>
<feOffset dx="1.35294" dy="1.35294"/>
<feGaussianBlur stdDeviation="0.676471"/>
<feComposite in2="hardAlpha" operator="arithmetic" k2="-1" k3="1"/>
<feColorMatrix type="matrix" values="0 0 0 0 0 0 0 0 0 0.37028 0 0 0 0 0.74056 0 0 0 0.5 0"/>
<feBlend mode="multiply" in2="shape" result="effect1_innerShadow_5504_28975"/>
</filter>
<filter id="filter1_iii_5504_28975" x="12.416" y="13.334" width="25" height="28.875" filterUnits="userSpaceOnUse" color-interpolation-filters="sRGB">
<feFlood flood-opacity="0" result="BackgroundImageFix"/>
<feBlend mode="normal" in="SourceGraphic" in2="BackgroundImageFix" result="shape"/>
<feColorMatrix in="SourceAlpha" type="matrix" values="0 0 0 0 0 0 0 0 0 0 0 0 0 0 0 0 0 0 127 0" result="hardAlpha"/>
<feOffset dx="1" dy="1"/>
<feGaussianBlur stdDeviation="1"/>
<feComposite in2="hardAlpha" operator="arithmetic" k2="-1" k3="1"/>
<feColorMatrix type="matrix" values="0 0 0 0 0.534167 0 0 0 0 0.645967 0 0 0 0 0.749167 0 0 0 0.6 0"/>
<feBlend mode="normal" in2="shape" result="effect1_innerShadow_5504_28975"/>
<feColorMatrix in="SourceAlpha" type="matrix" values="0 0 0 0 0 0 0 0 0 0 0 0 0 0 0 0 0 0 127 0" result="hardAlpha"/>
<feOffset dx="-1" dy="-2"/>
<feGaussianBlur stdDeviation="1"/>
<feComposite in2="hardAlpha" operator="arithmetic" k2="-1" k3="1"/>
<feColorMatrix type="matrix" values="0 0 0 0 0.533333 0 0 0 0 0.647059 0 0 0 0 0.74902 0 0 0 0.3 0"/>
<feBlend mode="normal" in2="effect1_innerShadow_5504_28975" result="effect2_innerShadow_5504_28975"/>
<feColorMatrix in="SourceAlpha" type="matrix" values="0 0 0 0 0 0 0 0 0 0 0 0 0 0 0 0 0 0 127 0" result="hardAlpha"/>
<feOffset dx="-1" dy="-2"/>
<feGaussianBlur stdDeviation="1.5"/>
<feComposite in2="hardAlpha" operator="arithmetic" k2="-1" k3="1"/>
<feColorMatrix type="matrix" values="0 0 0 0 1 0 0 0 0 1 0 0 0 0 1 0 0 0 0.4 0"/>
<feBlend mode="screen" in2="effect2_innerShadow_5504_28975" result="effect3_innerShadow_5504_28975"/>
</filter>
<linearGradient id="paint0_linear_5504_28975" x1="5.64084" y1="3.83398" x2="38.4014" y2="28.1011" gradientUnits="userSpaceOnUse">
<stop stop-color="#0050EC"/>
<stop offset="1" stop-color="#39C7EC"/>
</linearGradient>
</defs>
</svg>
