<svg width="47" height="48" viewBox="0 0 47 48" fill="none" xmlns="http://www.w3.org/2000/svg">
<g clip-path="url(#clip0_5504_29010)">
<g filter="url(#filter0_i_5504_29010)">
<path fill-rule="evenodd" clip-rule="evenodd" d="M25.4121 30.1572L23.3564 19.8278C23.2016 19.0486 22.8947 18.3074 22.4533 17.6468C22.012 16.9861 21.4448 16.4189 20.7842 15.9774C20.1236 15.536 19.3825 15.229 18.6033 15.074C17.824 14.9191 17.0219 14.9191 16.2426 15.0742L5.94257 17.124C4.36903 17.4376 2.98447 18.3633 2.09336 19.6976C1.20226 21.0318 0.877595 22.6654 1.19076 24.239L3.2464 34.5683C3.55956 36.142 4.48492 37.5268 5.81896 38.4182C7.15301 39.3097 8.7865 39.6348 10.3602 39.322L20.6741 37.2694C22.2447 36.9531 23.6257 36.0265 24.5139 34.6931C25.4022 33.3597 25.7252 31.7284 25.4121 30.1572Z" fill="url(#paint0_linear_5504_29010)"/>
<path fill-rule="evenodd" clip-rule="evenodd" d="M25.4121 30.1572L23.3564 19.8278C23.2016 19.0486 22.8947 18.3074 22.4533 17.6468C22.012 16.9861 21.4448 16.4189 20.7842 15.9774C20.1236 15.536 19.3825 15.229 18.6033 15.074C17.824 14.9191 17.0219 14.9191 16.2426 15.0742L5.94257 17.124C4.36903 17.4376 2.98447 18.3633 2.09336 19.6976C1.20226 21.0318 0.877595 22.6654 1.19076 24.239L3.2464 34.5683C3.55956 36.142 4.48492 37.5268 5.81896 38.4182C7.15301 39.3097 8.7865 39.6348 10.3602 39.322L20.6741 37.2694C22.2447 36.9531 23.6257 36.0265 24.5139 34.6931C25.4022 33.3597 25.7252 31.7284 25.4121 30.1572Z" fill="url(#paint1_linear_5504_29010)"/>
</g>
<path fill-rule="evenodd" clip-rule="evenodd" d="M9.5707 31.7262L8.18525 32.0019L4.67588 25.1274L5.9351 24.8768L8.59876 30.2681L9.12009 24.243L10.2223 24.0236L12.9999 29.3922L13.3965 23.3919L14.6619 23.1401L14.0503 30.8347L12.6649 31.1104L10.0673 26.0997L9.57532 31.7253L9.5707 31.7262ZM20.1504 25.6935C20.4943 25.788 20.8044 25.9783 21.0445 26.2421C21.2845 26.506 21.4447 26.8326 21.5064 27.184C21.5691 27.4617 21.5714 27.7496 21.5131 28.0282C21.4548 28.3068 21.3372 28.5696 21.1684 28.7988C20.8275 29.2752 20.3132 29.5987 19.7362 29.7L16.6143 30.3213L15.1653 23.0399L18.0578 22.4643C18.6155 22.3409 19.1994 22.4427 19.6825 22.7475C19.9196 22.8876 20.1236 23.0772 20.2807 23.3033C20.4379 23.5294 20.5444 23.7868 20.593 24.0578C20.6603 24.3458 20.655 24.646 20.5778 24.9314C20.5005 25.2169 20.3537 25.4787 20.1504 25.6935ZM18.2814 23.5881L16.5789 23.9269L16.9587 25.8357L18.6521 25.4987C18.906 25.4482 19.1295 25.2989 19.2733 25.0835C19.4171 24.8682 19.4696 24.6046 19.419 24.3507C19.3685 24.0967 19.2191 23.8733 19.0038 23.7294C18.7885 23.5856 18.5249 23.5332 18.271 23.5837L18.2814 23.5881ZM17.5905 28.9619L19.5163 28.5787C19.7779 28.516 20.005 28.3544 20.15 28.1279C20.2951 27.9013 20.3468 27.6274 20.2943 27.3636C20.2418 27.0998 20.0892 26.8665 19.8684 26.7128C19.6477 26.5591 19.376 26.4968 19.1104 26.539L17.1753 26.9241L17.5905 28.9619Z" fill="black"/>
<g filter="url(#filter1_iii_5504_29010)">
<path fill-rule="evenodd" clip-rule="evenodd" d="M9.5707 31.7262L8.18525 32.0019L4.67588 25.1274L5.9351 24.8768L8.59876 30.2681L9.12009 24.243L10.2223 24.0236L12.9999 29.3922L13.3965 23.3919L14.6619 23.1401L14.0503 30.8347L12.6649 31.1104L10.0673 26.0997L9.57532 31.7253L9.5707 31.7262ZM20.1504 25.6935C20.4943 25.788 20.8044 25.9783 21.0445 26.2421C21.2845 26.506 21.4447 26.8326 21.5064 27.184C21.5691 27.4617 21.5714 27.7496 21.5131 28.0282C21.4548 28.3068 21.3372 28.5696 21.1684 28.7988C20.8275 29.2752 20.3132 29.5987 19.7362 29.7L16.6143 30.3213L15.1653 23.0399L18.0578 22.4643C18.6155 22.3409 19.1994 22.4427 19.6825 22.7475C19.9196 22.8876 20.1236 23.0772 20.2807 23.3033C20.4379 23.5294 20.5444 23.7868 20.593 24.0578C20.6603 24.3458 20.655 24.646 20.5778 24.9314C20.5005 25.2169 20.3537 25.4787 20.1504 25.6935ZM18.2814 23.5881L16.5789 23.9269L16.9587 25.8357L18.6521 25.4987C18.906 25.4482 19.1295 25.2989 19.2733 25.0835C19.4171 24.8682 19.4696 24.6046 19.419 24.3507C19.3685 24.0967 19.2191 23.8733 19.0038 23.7294C18.7885 23.5856 18.5249 23.5332 18.271 23.5837L18.2814 23.5881ZM17.5905 28.9619L19.5163 28.5787C19.7779 28.516 20.005 28.3544 20.15 28.1279C20.2951 27.9013 20.3468 27.6274 20.2943 27.3636C20.2418 27.0998 20.0892 26.8665 19.8684 26.7128C19.6477 26.5591 19.376 26.4968 19.1104 26.539L17.1753 26.9241L17.5905 28.9619Z" fill="#D0E2F3"/>
</g>
</g>
<g clip-path="url(#clip1_5504_29010)">
<g filter="url(#filter2_i_5504_29010)">
<path d="M23.1802 4.26056C23.5639 2.11678 25.6129 0.689996 27.7567 1.07374L41.5772 3.54771C43.7211 3.93146 45.1478 5.98042 44.7641 8.1242L42.2806 21.9981C41.8968 24.1419 39.8479 25.5686 37.7041 25.1849L23.8835 22.7109C21.7397 22.3272 20.3129 20.2782 20.6967 18.1345L23.1802 4.26056Z" fill="url(#paint2_linear_5504_29010)"/>
</g>
<g filter="url(#filter3_iii_5504_29010)">
<path d="M32.1267 9.06578L28.4193 7.0515L21.6239 13.0695L20.5403 19.1226L27.5423 12.8911L25.95 17.7115L29.7118 19.7356L35.7988 13.1099C35.3163 14.4832 34.3648 17.6177 37.4365 19.1404C39.2546 20.0417 41.2412 19.4412 43.1592 18.1302L44.1776 12.4408C42.1626 14.4996 40.3063 15.9018 39.5359 15.5406C38.2408 14.9333 40.2246 10.9189 41.504 8.33008L41.5239 8.28978L37.3596 6.06055L30.6141 13.441L32.1267 9.06578Z" fill="#D0E2F3"/>
</g>
</g>
<g clip-path="url(#clip2_5504_29010)">
<mask id="mask0_5504_29010" style="mask-type:luminance" maskUnits="userSpaceOnUse" x="21" y="22" width="26" height="25">
<path d="M29.4382 22.3387L42.2872 24.5431C44.8898 24.9896 46.6541 27.4662 46.205 30.0836L44.0006 42.9327C43.5541 45.5352 41.0775 47.2996 38.4601 46.8505L25.611 44.6461C23.0085 44.1996 21.2442 41.723 21.6932 39.1056L23.8976 26.2565C24.3441 23.654 26.8356 21.8922 29.4382 22.3387Z" fill="white"/>
</mask>
<g mask="url(#mask0_5504_29010)">
<g filter="url(#filter4_i_5504_29010)">
<path d="M42.0884 24.509L29.637 22.3728C26.9153 21.9059 24.3305 23.7337 23.8635 26.4554L21.7273 38.9068C21.2604 41.6284 23.0882 44.2133 25.8099 44.6802L38.2613 46.8164C40.983 47.2833 43.5678 45.4555 44.0347 42.7339L46.1709 30.2825C46.6379 27.5608 44.8101 24.9759 42.0884 24.509Z" fill="url(#paint3_linear_5504_29010)"/>
</g>
<g filter="url(#filter5_i_5504_29010)">
<path fill-rule="evenodd" clip-rule="evenodd" d="M33.7782 34.6119L33.6704 33.2769L36.0917 32.1919L38.6487 32.8143L38.8211 34.1299L48.4477 48.8709L29.003 51.2913L33.7782 34.6119Z" fill="#F91155"/>
<path fill-rule="evenodd" clip-rule="evenodd" d="M33.7782 34.6119L33.6704 33.2769L36.0917 32.1919L38.6487 32.8143L38.8211 34.1299L48.4477 48.8709L29.003 51.2913L33.7782 34.6119Z" fill="url(#paint4_linear_5504_29010)"/>
</g>
<g filter="url(#filter6_iii_5504_29010)">
<path fill-rule="evenodd" clip-rule="evenodd" d="M24.5314 36.8535C23.6399 37.0526 22.7974 36.3416 22.8243 35.3818C22.8422 34.7418 23.2914 34.1759 23.9122 34.0375C24.8037 33.8383 25.6462 34.5493 25.6219 35.4943C25.5989 36.164 25.1373 36.7125 24.5314 36.8535ZM24.2409 32.7466C22.5739 32.7362 21.3313 34.2683 21.6532 35.9616C21.8829 37.2105 22.965 38.131 24.2028 38.1443C25.8697 38.1547 27.1123 36.6226 26.7905 34.9293C26.5433 33.6928 25.4638 32.7574 24.2409 32.7466Z" fill="#D0E2F3"/>
</g>
<g filter="url(#filter7_iii_5504_29010)">
<path fill-rule="evenodd" clip-rule="evenodd" d="M28.012 32.4437C27.6224 32.484 27.3601 32.8524 27.4748 33.2548C27.5627 33.5454 27.8546 33.718 28.1499 33.6921L29.8624 33.5266L27.5223 37.3505C27.4398 37.4741 27.5507 37.6309 27.6897 37.6242L31.8738 37.2397C32.1692 37.2139 32.4233 36.9819 32.4594 36.6819C32.4986 36.2753 32.1727 35.9438 31.7831 35.9841L29.6984 36.1776L32.0385 32.3537C32.1209 32.23 32.0126 32.0584 31.8711 32.08L28.012 32.4437Z" fill="#D0E2F3"/>
</g>
<g filter="url(#filter8_iii_5504_29010)">
<path fill-rule="evenodd" clip-rule="evenodd" d="M44.7515 30.8747C44.4757 30.9652 44.3032 31.2571 44.329 31.5524L44.5225 33.637L40.9345 31.2609C40.8108 31.1784 40.6417 31.2719 40.6608 31.4283L41.0571 35.7216C41.083 36.017 41.3001 36.2685 41.6001 36.3047C42.0041 36.3587 42.3382 36.018 42.2979 35.6283L42.1069 33.5288L45.695 35.9049C45.8186 35.9874 45.9878 35.8939 45.9687 35.7376L45.5749 31.4293C45.5197 31.0371 45.139 30.7575 44.7515 30.8747Z" fill="#D0E2F3"/>
</g>
<g filter="url(#filter9_iii_5504_29010)">
<path fill-rule="evenodd" clip-rule="evenodd" d="M36.0425 31.5865C34.005 31.7728 32.4705 33.1323 32.5999 34.6089C32.7442 36.0881 34.493 37.1382 36.5304 36.952C38.5679 36.7657 40.1025 35.4062 39.9731 33.9296C39.8288 32.4504 38.08 31.4003 36.0425 31.5865ZM36.1507 32.8298C37.5504 32.7025 38.6784 33.3554 38.7446 34.0403C38.8134 34.7104 37.8245 35.5665 36.4248 35.6938C35.0251 35.8211 33.8971 35.1683 33.8309 34.4833C33.7621 33.8132 34.7484 32.972 36.1507 32.8298Z" fill="#D0E2F3"/>
</g>
</g>
</g>
<defs>
<filter id="filter0_i_5504_29010" x="1.07422" y="14.957" width="25.9178" height="25.9432" filterUnits="userSpaceOnUse" color-interpolation-filters="sRGB">
<feFlood flood-opacity="0" result="BackgroundImageFix"/>
<feBlend mode="normal" in="SourceGraphic" in2="BackgroundImageFix" result="shape"/>
<feColorMatrix in="SourceAlpha" type="matrix" values="0 0 0 0 0 0 0 0 0 0 0 0 0 0 0 0 0 0 127 0" result="hardAlpha"/>
<feOffset dx="1.46273" dy="1.46273"/>
<feGaussianBlur stdDeviation="0.731363"/>
<feComposite in2="hardAlpha" operator="arithmetic" k2="-1" k3="1"/>
<feColorMatrix type="matrix" values="0 0 0 0 0 0 0 0 0 0.37028 0 0 0 0 0.74056 0 0 0 0.5 0"/>
<feBlend mode="multiply" in2="shape" result="effect1_innerShadow_5504_29010"/>
</filter>
<filter id="filter1_iii_5504_29010" x="3.59464" y="20.2518" width="19.0412" height="12.8313" filterUnits="userSpaceOnUse" color-interpolation-filters="sRGB">
<feFlood flood-opacity="0" result="BackgroundImageFix"/>
<feBlend mode="normal" in="SourceGraphic" in2="BackgroundImageFix" result="shape"/>
<feColorMatrix in="SourceAlpha" type="matrix" values="0 0 0 0 0 0 0 0 0 0 0 0 0 0 0 0 0 0 127 0" result="hardAlpha"/>
<feOffset dx="1.08115" dy="1.08115"/>
<feGaussianBlur stdDeviation="1.08115"/>
<feComposite in2="hardAlpha" operator="arithmetic" k2="-1" k3="1"/>
<feColorMatrix type="matrix" values="0 0 0 0 0.534167 0 0 0 0 0.645967 0 0 0 0 0.749167 0 0 0 0.6 0"/>
<feBlend mode="normal" in2="shape" result="effect1_innerShadow_5504_29010"/>
<feColorMatrix in="SourceAlpha" type="matrix" values="0 0 0 0 0 0 0 0 0 0 0 0 0 0 0 0 0 0 127 0" result="hardAlpha"/>
<feOffset dx="-1.08115" dy="-2.16229"/>
<feGaussianBlur stdDeviation="1.08115"/>
<feComposite in2="hardAlpha" operator="arithmetic" k2="-1" k3="1"/>
<feColorMatrix type="matrix" values="0 0 0 0 0.533333 0 0 0 0 0.647059 0 0 0 0 0.74902 0 0 0 0.3 0"/>
<feBlend mode="normal" in2="effect1_innerShadow_5504_29010" result="effect2_innerShadow_5504_29010"/>
<feColorMatrix in="SourceAlpha" type="matrix" values="0 0 0 0 0 0 0 0 0 0 0 0 0 0 0 0 0 0 127 0" result="hardAlpha"/>
<feOffset dx="-1.08115" dy="-2.16229"/>
<feGaussianBlur stdDeviation="1.62172"/>
<feComposite in2="hardAlpha" operator="arithmetic" k2="-1" k3="1"/>
<feColorMatrix type="matrix" values="0 0 0 0 1 0 0 0 0 1 0 0 0 0 1 0 0 0 0.4 0"/>
<feBlend mode="screen" in2="effect2_innerShadow_5504_29010" result="effect3_innerShadow_5504_29010"/>
</filter>
<filter id="filter2_i_5504_29010" x="20.6348" y="1.01172" width="25.6541" height="25.6991" filterUnits="userSpaceOnUse" color-interpolation-filters="sRGB">
<feFlood flood-opacity="0" result="BackgroundImageFix"/>
<feBlend mode="normal" in="SourceGraphic" in2="BackgroundImageFix" result="shape"/>
<feColorMatrix in="SourceAlpha" type="matrix" values="0 0 0 0 0 0 0 0 0 0 0 0 0 0 0 0 0 0 127 0" result="hardAlpha"/>
<feOffset dx="1.46273" dy="1.46273"/>
<feGaussianBlur stdDeviation="0.731363"/>
<feComposite in2="hardAlpha" operator="arithmetic" k2="-1" k3="1"/>
<feColorMatrix type="matrix" values="0 0 0 0 0 0 0 0 0 0.37028 0 0 0 0 0.74056 0 0 0 0.5 0"/>
<feBlend mode="multiply" in2="shape" result="effect1_innerShadow_5504_29010"/>
</filter>
<filter id="filter3_iii_5504_29010" x="19.4599" y="3.89826" width="25.799" height="16.9192" filterUnits="userSpaceOnUse" color-interpolation-filters="sRGB">
<feFlood flood-opacity="0" result="BackgroundImageFix"/>
<feBlend mode="normal" in="SourceGraphic" in2="BackgroundImageFix" result="shape"/>
<feColorMatrix in="SourceAlpha" type="matrix" values="0 0 0 0 0 0 0 0 0 0 0 0 0 0 0 0 0 0 127 0" result="hardAlpha"/>
<feOffset dx="1.08115" dy="1.08115"/>
<feGaussianBlur stdDeviation="1.08115"/>
<feComposite in2="hardAlpha" operator="arithmetic" k2="-1" k3="1"/>
<feColorMatrix type="matrix" values="0 0 0 0 0.534167 0 0 0 0 0.645967 0 0 0 0 0.749167 0 0 0 0.6 0"/>
<feBlend mode="normal" in2="shape" result="effect1_innerShadow_5504_29010"/>
<feColorMatrix in="SourceAlpha" type="matrix" values="0 0 0 0 0 0 0 0 0 0 0 0 0 0 0 0 0 0 127 0" result="hardAlpha"/>
<feOffset dx="-1.08115" dy="-2.16229"/>
<feGaussianBlur stdDeviation="1.08115"/>
<feComposite in2="hardAlpha" operator="arithmetic" k2="-1" k3="1"/>
<feColorMatrix type="matrix" values="0 0 0 0 0.533333 0 0 0 0 0.647059 0 0 0 0 0.74902 0 0 0 0.3 0"/>
<feBlend mode="normal" in2="effect1_innerShadow_5504_29010" result="effect2_innerShadow_5504_29010"/>
<feColorMatrix in="SourceAlpha" type="matrix" values="0 0 0 0 0 0 0 0 0 0 0 0 0 0 0 0 0 0 127 0" result="hardAlpha"/>
<feOffset dx="-1.08115" dy="-2.16229"/>
<feGaussianBlur stdDeviation="1.62172"/>
<feComposite in2="hardAlpha" operator="arithmetic" k2="-1" k3="1"/>
<feColorMatrix type="matrix" values="0 0 0 0 1 0 0 0 0 1 0 0 0 0 1 0 0 0 0.4 0"/>
<feBlend mode="screen" in2="effect2_innerShadow_5504_29010" result="effect3_innerShadow_5504_29010"/>
</filter>
<filter id="filter4_i_5504_29010" x="21.6543" y="22.3008" width="26.0526" height="26.0506" filterUnits="userSpaceOnUse" color-interpolation-filters="sRGB">
<feFlood flood-opacity="0" result="BackgroundImageFix"/>
<feBlend mode="normal" in="SourceGraphic" in2="BackgroundImageFix" result="shape"/>
<feColorMatrix in="SourceAlpha" type="matrix" values="0 0 0 0 0 0 0 0 0 0 0 0 0 0 0 0 0 0 127 0" result="hardAlpha"/>
<feOffset dx="1.46273" dy="1.46273"/>
<feGaussianBlur stdDeviation="0.731363"/>
<feComposite in2="hardAlpha" operator="arithmetic" k2="-1" k3="1"/>
<feColorMatrix type="matrix" values="0 0 0 0 0 0 0 0 0 0.37028 0 0 0 0 0.74056 0 0 0 0.5 0"/>
<feBlend mode="multiply" in2="shape" result="effect1_innerShadow_5504_29010"/>
</filter>
<filter id="filter5_i_5504_29010" x="29.0039" y="32.1914" width="20.9061" height="20.5623" filterUnits="userSpaceOnUse" color-interpolation-filters="sRGB">
<feFlood flood-opacity="0" result="BackgroundImageFix"/>
<feBlend mode="normal" in="SourceGraphic" in2="BackgroundImageFix" result="shape"/>
<feColorMatrix in="SourceAlpha" type="matrix" values="0 0 0 0 0 0 0 0 0 0 0 0 0 0 0 0 0 0 127 0" result="hardAlpha"/>
<feOffset dx="1.46273" dy="1.46273"/>
<feGaussianBlur stdDeviation="0.731363"/>
<feComposite in2="hardAlpha" operator="arithmetic" k2="-1" k3="1"/>
<feColorMatrix type="matrix" values="0 0 0 0 0 0 0 0 0 0.37028 0 0 0 0 0.74056 0 0 0 0.5 0"/>
<feBlend mode="multiply" in2="shape" result="effect1_innerShadow_5504_29010"/>
</filter>
<filter id="filter6_iii_5504_29010" x="20.5204" y="30.5838" width="7.40253" height="8.64187" filterUnits="userSpaceOnUse" color-interpolation-filters="sRGB">
<feFlood flood-opacity="0" result="BackgroundImageFix"/>
<feBlend mode="normal" in="SourceGraphic" in2="BackgroundImageFix" result="shape"/>
<feColorMatrix in="SourceAlpha" type="matrix" values="0 0 0 0 0 0 0 0 0 0 0 0 0 0 0 0 0 0 127 0" result="hardAlpha"/>
<feOffset dx="1.08115" dy="1.08115"/>
<feGaussianBlur stdDeviation="1.08115"/>
<feComposite in2="hardAlpha" operator="arithmetic" k2="-1" k3="1"/>
<feColorMatrix type="matrix" values="0 0 0 0 0.534167 0 0 0 0 0.645967 0 0 0 0 0.749167 0 0 0 0.6 0"/>
<feBlend mode="normal" in2="shape" result="effect1_innerShadow_5504_29010"/>
<feColorMatrix in="SourceAlpha" type="matrix" values="0 0 0 0 0 0 0 0 0 0 0 0 0 0 0 0 0 0 127 0" result="hardAlpha"/>
<feOffset dx="-1.08115" dy="-2.16229"/>
<feGaussianBlur stdDeviation="1.08115"/>
<feComposite in2="hardAlpha" operator="arithmetic" k2="-1" k3="1"/>
<feColorMatrix type="matrix" values="0 0 0 0 0.533333 0 0 0 0 0.647059 0 0 0 0 0.74902 0 0 0 0.3 0"/>
<feBlend mode="normal" in2="effect1_innerShadow_5504_29010" result="effect2_innerShadow_5504_29010"/>
<feColorMatrix in="SourceAlpha" type="matrix" values="0 0 0 0 0 0 0 0 0 0 0 0 0 0 0 0 0 0 127 0" result="hardAlpha"/>
<feOffset dx="-1.08115" dy="-2.16229"/>
<feGaussianBlur stdDeviation="1.62172"/>
<feComposite in2="hardAlpha" operator="arithmetic" k2="-1" k3="1"/>
<feColorMatrix type="matrix" values="0 0 0 0 1 0 0 0 0 1 0 0 0 0 1 0 0 0 0.4 0"/>
<feBlend mode="screen" in2="effect2_innerShadow_5504_29010" result="effect3_innerShadow_5504_29010"/>
</filter>
<filter id="filter7_iii_5504_29010" x="26.3661" y="29.9158" width="7.17792" height="8.79031" filterUnits="userSpaceOnUse" color-interpolation-filters="sRGB">
<feFlood flood-opacity="0" result="BackgroundImageFix"/>
<feBlend mode="normal" in="SourceGraphic" in2="BackgroundImageFix" result="shape"/>
<feColorMatrix in="SourceAlpha" type="matrix" values="0 0 0 0 0 0 0 0 0 0 0 0 0 0 0 0 0 0 127 0" result="hardAlpha"/>
<feOffset dx="1.08115" dy="1.08115"/>
<feGaussianBlur stdDeviation="1.08115"/>
<feComposite in2="hardAlpha" operator="arithmetic" k2="-1" k3="1"/>
<feColorMatrix type="matrix" values="0 0 0 0 0.534167 0 0 0 0 0.645967 0 0 0 0 0.749167 0 0 0 0.6 0"/>
<feBlend mode="normal" in2="shape" result="effect1_innerShadow_5504_29010"/>
<feColorMatrix in="SourceAlpha" type="matrix" values="0 0 0 0 0 0 0 0 0 0 0 0 0 0 0 0 0 0 127 0" result="hardAlpha"/>
<feOffset dx="-1.08115" dy="-2.16229"/>
<feGaussianBlur stdDeviation="1.08115"/>
<feComposite in2="hardAlpha" operator="arithmetic" k2="-1" k3="1"/>
<feColorMatrix type="matrix" values="0 0 0 0 0.533333 0 0 0 0 0.647059 0 0 0 0 0.74902 0 0 0 0.3 0"/>
<feBlend mode="normal" in2="effect1_innerShadow_5504_29010" result="effect2_innerShadow_5504_29010"/>
<feColorMatrix in="SourceAlpha" type="matrix" values="0 0 0 0 0 0 0 0 0 0 0 0 0 0 0 0 0 0 127 0" result="hardAlpha"/>
<feOffset dx="-1.08115" dy="-2.16229"/>
<feGaussianBlur stdDeviation="1.62172"/>
<feComposite in2="hardAlpha" operator="arithmetic" k2="-1" k3="1"/>
<feColorMatrix type="matrix" values="0 0 0 0 1 0 0 0 0 1 0 0 0 0 1 0 0 0 0.4 0"/>
<feBlend mode="screen" in2="effect2_innerShadow_5504_29010" result="effect3_innerShadow_5504_29010"/>
</filter>
<filter id="filter8_iii_5504_29010" x="39.579" y="28.6854" width="7.47284" height="8.70633" filterUnits="userSpaceOnUse" color-interpolation-filters="sRGB">
<feFlood flood-opacity="0" result="BackgroundImageFix"/>
<feBlend mode="normal" in="SourceGraphic" in2="BackgroundImageFix" result="shape"/>
<feColorMatrix in="SourceAlpha" type="matrix" values="0 0 0 0 0 0 0 0 0 0 0 0 0 0 0 0 0 0 127 0" result="hardAlpha"/>
<feOffset dx="1.08115" dy="1.08115"/>
<feGaussianBlur stdDeviation="1.08115"/>
<feComposite in2="hardAlpha" operator="arithmetic" k2="-1" k3="1"/>
<feColorMatrix type="matrix" values="0 0 0 0 0.534167 0 0 0 0 0.645967 0 0 0 0 0.749167 0 0 0 0.6 0"/>
<feBlend mode="normal" in2="shape" result="effect1_innerShadow_5504_29010"/>
<feColorMatrix in="SourceAlpha" type="matrix" values="0 0 0 0 0 0 0 0 0 0 0 0 0 0 0 0 0 0 127 0" result="hardAlpha"/>
<feOffset dx="-1.08115" dy="-2.16229"/>
<feGaussianBlur stdDeviation="1.08115"/>
<feComposite in2="hardAlpha" operator="arithmetic" k2="-1" k3="1"/>
<feColorMatrix type="matrix" values="0 0 0 0 0.533333 0 0 0 0 0.647059 0 0 0 0 0.74902 0 0 0 0.3 0"/>
<feBlend mode="normal" in2="effect1_innerShadow_5504_29010" result="effect2_innerShadow_5504_29010"/>
<feColorMatrix in="SourceAlpha" type="matrix" values="0 0 0 0 0 0 0 0 0 0 0 0 0 0 0 0 0 0 127 0" result="hardAlpha"/>
<feOffset dx="-1.08115" dy="-2.16229"/>
<feGaussianBlur stdDeviation="1.62172"/>
<feComposite in2="hardAlpha" operator="arithmetic" k2="-1" k3="1"/>
<feColorMatrix type="matrix" values="0 0 0 0 1 0 0 0 0 1 0 0 0 0 1 0 0 0 0.4 0"/>
<feBlend mode="screen" in2="effect2_innerShadow_5504_29010" result="effect3_innerShadow_5504_29010"/>
</filter>
<filter id="filter9_iii_5504_29010" x="31.5107" y="29.4022" width="9.55096" height="8.65164" filterUnits="userSpaceOnUse" color-interpolation-filters="sRGB">
<feFlood flood-opacity="0" result="BackgroundImageFix"/>
<feBlend mode="normal" in="SourceGraphic" in2="BackgroundImageFix" result="shape"/>
<feColorMatrix in="SourceAlpha" type="matrix" values="0 0 0 0 0 0 0 0 0 0 0 0 0 0 0 0 0 0 127 0" result="hardAlpha"/>
<feOffset dx="1.08115" dy="1.08115"/>
<feGaussianBlur stdDeviation="1.08115"/>
<feComposite in2="hardAlpha" operator="arithmetic" k2="-1" k3="1"/>
<feColorMatrix type="matrix" values="0 0 0 0 0.534167 0 0 0 0 0.645967 0 0 0 0 0.749167 0 0 0 0.6 0"/>
<feBlend mode="normal" in2="shape" result="effect1_innerShadow_5504_29010"/>
<feColorMatrix in="SourceAlpha" type="matrix" values="0 0 0 0 0 0 0 0 0 0 0 0 0 0 0 0 0 0 127 0" result="hardAlpha"/>
<feOffset dx="-1.08115" dy="-2.16229"/>
<feGaussianBlur stdDeviation="1.08115"/>
<feComposite in2="hardAlpha" operator="arithmetic" k2="-1" k3="1"/>
<feColorMatrix type="matrix" values="0 0 0 0 0.533333 0 0 0 0 0.647059 0 0 0 0 0.74902 0 0 0 0.3 0"/>
<feBlend mode="normal" in2="effect1_innerShadow_5504_29010" result="effect2_innerShadow_5504_29010"/>
<feColorMatrix in="SourceAlpha" type="matrix" values="0 0 0 0 0 0 0 0 0 0 0 0 0 0 0 0 0 0 127 0" result="hardAlpha"/>
<feOffset dx="-1.08115" dy="-2.16229"/>
<feGaussianBlur stdDeviation="1.62172"/>
<feComposite in2="hardAlpha" operator="arithmetic" k2="-1" k3="1"/>
<feColorMatrix type="matrix" values="0 0 0 0 1 0 0 0 0 1 0 0 0 0 1 0 0 0 0.4 0"/>
<feBlend mode="screen" in2="effect2_innerShadow_5504_29010" result="effect3_innerShadow_5504_29010"/>
</filter>
<linearGradient id="paint0_linear_5504_29010" x1="6.18993" y1="37.6266" x2="20.2939" y2="16.9357" gradientUnits="userSpaceOnUse">
<stop stop-color="#A42C91"/>
<stop offset="1" stop-color="#522A88"/>
</linearGradient>
<linearGradient id="paint1_linear_5504_29010" x1="1.05455" y1="18.0968" x2="28.2641" y2="23.3275" gradientUnits="userSpaceOnUse">
<stop stop-color="#0050EC"/>
<stop offset="1" stop-color="#39C7EC"/>
</linearGradient>
<linearGradient id="paint2_linear_5504_29010" x1="24.8924" y1="0.561019" x2="47.6267" y2="14.9141" gradientUnits="userSpaceOnUse">
<stop stop-color="#0050EC"/>
<stop offset="1" stop-color="#39C7EC"/>
</linearGradient>
<linearGradient id="paint3_linear_5504_29010" x1="25.7605" y1="21.7077" x2="49.3126" y2="36.3684" gradientUnits="userSpaceOnUse">
<stop stop-color="#0050EC"/>
<stop offset="1" stop-color="#39C7EC"/>
</linearGradient>
<linearGradient id="paint4_linear_5504_29010" x1="33.26" y1="31.7061" x2="53.218" y2="43.52" gradientUnits="userSpaceOnUse">
<stop stop-color="#0050EC"/>
<stop offset="1" stop-color="#39C7EC"/>
</linearGradient>
<clipPath id="clip0_5504_29010">
<rect width="22.6066" height="22.6333" fill="white" transform="translate(0 18.3047) rotate(-11.2554)"/>
</clipPath>
<clipPath id="clip1_5504_29010">
<rect width="22.6333" height="22.6333" fill="white" transform="translate(23.6113) rotate(10.1488)"/>
</clipPath>
<clipPath id="clip2_5504_29010">
<rect width="22.6333" height="22.6333" fill="white" transform="translate(24.6934 21.543) rotate(9.73501)"/>
</clipPath>
</defs>
</svg>
