<svg width="46" height="46" viewBox="0 0 46 46" fill="none" xmlns="http://www.w3.org/2000/svg">
<g filter="url(#filter0_iii_5504_28880)">
<path d="M29.7103 8.62435C29.7103 9.71758 29.4488 10.7497 28.9849 11.6617C31.7853 11.8279 35.6731 12.0976 37.0166 12.354C38.6417 12.6641 39.72 13.9589 39.8712 15.6064C39.949 16.4537 40.0277 17.5491 40.0932 18.947C40.143 20.0083 38.7566 20.6949 37.7394 20.3883C37.1695 20.2166 36.5653 20.1243 35.9395 20.1243C32.4992 20.1243 29.7103 22.9132 29.7103 26.3535C29.7103 29.7938 32.4992 32.5827 35.9395 32.5827C36.5773 32.5827 37.1927 32.4868 37.7721 32.3087C38.787 31.9968 40.1757 32.6749 40.135 33.7359C40.0629 35.6146 39.9664 37.0224 39.8712 38.059C39.72 39.7065 38.6417 41.0012 37.0166 41.3114C34.8667 41.7217 29.1926 42.166 23.002 42.166C16.8113 42.166 11.1372 41.7217 8.98735 41.3114C7.36224 41.0012 6.28387 39.7065 6.13266 38.059C5.94506 36.015 5.75195 32.5278 5.75195 26.8327C5.75195 21.1376 5.94506 17.6504 6.13266 15.6064C6.28387 13.9589 7.36224 12.6641 8.98735 12.354C10.3308 12.0976 14.2186 11.8279 17.019 11.6617C16.5551 10.7497 16.2936 9.71758 16.2936 8.62435C16.2936 4.91944 19.297 1.91602 23.002 1.91602C26.7069 1.91602 29.7103 4.91944 29.7103 8.62435Z" fill="#D0E2F3"/>
</g>
<defs>
<filter id="filter0_iii_5504_28880" x="4.75195" y="-0.0839844" width="36.3848" height="43.25" filterUnits="userSpaceOnUse" color-interpolation-filters="sRGB">
<feFlood flood-opacity="0" result="BackgroundImageFix"/>
<feBlend mode="normal" in="SourceGraphic" in2="BackgroundImageFix" result="shape"/>
<feColorMatrix in="SourceAlpha" type="matrix" values="0 0 0 0 0 0 0 0 0 0 0 0 0 0 0 0 0 0 127 0" result="hardAlpha"/>
<feOffset dx="1" dy="1"/>
<feGaussianBlur stdDeviation="1"/>
<feComposite in2="hardAlpha" operator="arithmetic" k2="-1" k3="1"/>
<feColorMatrix type="matrix" values="0 0 0 0 0.534167 0 0 0 0 0.645967 0 0 0 0 0.749167 0 0 0 0.6 0"/>
<feBlend mode="normal" in2="shape" result="effect1_innerShadow_5504_28880"/>
<feColorMatrix in="SourceAlpha" type="matrix" values="0 0 0 0 0 0 0 0 0 0 0 0 0 0 0 0 0 0 127 0" result="hardAlpha"/>
<feOffset dx="-1" dy="-2"/>
<feGaussianBlur stdDeviation="1"/>
<feComposite in2="hardAlpha" operator="arithmetic" k2="-1" k3="1"/>
<feColorMatrix type="matrix" values="0 0 0 0 0.533333 0 0 0 0 0.647059 0 0 0 0 0.74902 0 0 0 0.3 0"/>
<feBlend mode="normal" in2="effect1_innerShadow_5504_28880" result="effect2_innerShadow_5504_28880"/>
<feColorMatrix in="SourceAlpha" type="matrix" values="0 0 0 0 0 0 0 0 0 0 0 0 0 0 0 0 0 0 127 0" result="hardAlpha"/>
<feOffset dx="-1" dy="-2"/>
<feGaussianBlur stdDeviation="1.5"/>
<feComposite in2="hardAlpha" operator="arithmetic" k2="-1" k3="1"/>
<feColorMatrix type="matrix" values="0 0 0 0 1 0 0 0 0 1 0 0 0 0 1 0 0 0 0.4 0"/>
<feBlend mode="screen" in2="effect2_innerShadow_5504_28880" result="effect3_innerShadow_5504_28880"/>
</filter>
</defs>
</svg>
