<svg width="46" height="46" viewBox="0 0 46 46" fill="none" xmlns="http://www.w3.org/2000/svg">
<g filter="url(#filter0_iii_5504_29059)">
<path d="M4.3745 37.6782C4.54446 39.3239 5.62343 40.6265 7.24162 40.971C9.79582 41.5148 14.6106 42.168 23.0026 42.168C31.3946 42.168 36.2094 41.5148 38.7636 40.971C40.3818 40.6265 41.4608 39.3238 41.6307 37.6782C41.8827 35.2381 42.1693 30.758 42.1693 23.0013C42.1693 15.2446 41.8827 10.7645 41.6307 8.32444C41.4608 6.67875 40.3818 5.37609 38.7636 5.0316C36.2094 4.48785 31.3946 3.83464 23.0026 3.83464C14.6106 3.83464 9.79582 4.48785 7.24161 5.0316C5.62343 5.37609 4.54445 6.67875 4.3745 8.32445C4.12251 10.7645 3.83594 15.2447 3.83594 23.0013C3.83594 30.758 4.12251 35.2381 4.3745 37.6782Z" fill="#D0E2F3"/>
</g>
<g filter="url(#filter1_i_5504_29059)">
<path d="M23.0054 19.5516C22.0175 19.5516 21.0924 19.9276 20.3919 20.6147C19.6948 21.3019 19.3082 22.2094 19.3082 23.1785C19.3082 24.1476 19.6948 25.0551 20.3919 25.7423C21.0924 26.4262 22.0175 26.8054 23.0054 26.8054C23.9933 26.8054 24.9184 26.4262 25.6188 25.7423C26.316 25.0551 26.7026 24.1476 26.7026 23.1785C26.7026 22.2094 26.316 21.3019 25.6188 20.6147C25.2767 20.2765 24.8695 20.0084 24.4209 19.8259C23.9722 19.6434 23.4911 19.5502 23.0054 19.5516ZM36.6278 27.1846L34.467 25.3728C34.5694 24.757 34.6222 24.1282 34.6222 23.5026C34.6222 22.8771 34.5694 22.2451 34.467 21.6325L36.6278 19.8207C36.791 19.6836 36.9078 19.501 36.9627 19.2972C37.0176 19.0934 37.008 18.878 36.935 18.6798L36.9053 18.5955C36.3106 16.9642 35.4196 15.4521 34.2753 14.1324L34.2159 14.0643C34.0769 13.9041 33.8917 13.7889 33.6847 13.7339C33.4777 13.6789 33.2585 13.6868 33.0562 13.7564L30.3733 14.6931C29.3821 13.8958 28.2786 13.267 27.0825 12.8294L26.5638 10.0777C26.5246 9.87039 26.4221 9.67968 26.2699 9.5309C26.1176 9.38211 25.9228 9.2823 25.7114 9.24471L25.6221 9.2285C23.9041 8.92383 22.0935 8.92383 20.3754 9.2285L20.2862 9.24471C20.0747 9.2823 19.8799 9.38211 19.7276 9.5309C19.5754 9.67968 19.4729 9.87039 19.4337 10.0777L18.9117 12.8424C17.727 13.2835 16.6233 13.9107 15.6441 14.6996L12.9414 13.7564C12.7391 13.6862 12.5198 13.6781 12.3126 13.7331C12.1055 13.7881 11.9203 13.9036 11.7817 14.0643L11.7222 14.1324C10.58 15.4535 9.68916 16.9652 9.09222 18.5955L9.06248 18.6798C8.9138 19.0849 9.03605 19.5387 9.36975 19.8207L11.557 21.6519C11.4546 22.2613 11.405 22.8836 11.405 23.4994C11.405 24.1217 11.4546 24.744 11.557 25.3469L9.37636 27.1781C9.21313 27.3152 9.0963 27.4978 9.04142 27.7016C8.98653 27.9054 8.99618 28.1207 9.06909 28.319L9.09883 28.4033C9.69685 30.0336 10.579 31.5407 11.7288 32.8664L11.7883 32.9344C11.9272 33.0947 12.1124 33.2099 12.3194 33.2649C12.5265 33.3199 12.7456 33.312 12.948 33.2423L15.6507 32.2992C16.6353 33.0933 17.7322 33.722 18.9183 34.1564L19.4404 36.9211C19.4795 37.1284 19.582 37.3191 19.7343 37.4679C19.8865 37.6167 20.0813 37.7165 20.2928 37.7541L20.382 37.7703C22.117 38.0766 23.8938 38.0766 25.6288 37.7703L25.718 37.7541C25.9294 37.7165 26.1242 37.6167 26.2765 37.4679C26.4287 37.3191 26.5313 37.1284 26.5704 36.9211L27.0891 34.1693C28.2852 33.7285 29.3887 33.103 30.3799 32.3057L33.0628 33.2423C33.2651 33.3125 33.4844 33.3207 33.6915 33.2657C33.8987 33.2107 34.0839 33.0952 34.2225 32.9344L34.2819 32.8664C35.4317 31.5343 36.3139 30.0336 36.9119 28.4033L36.9417 28.319C37.0837 27.9171 36.9615 27.4666 36.6278 27.1846ZM23.0054 28.8765C19.7972 28.8765 17.1969 26.3257 17.1969 23.1785C17.1969 20.0313 19.7972 17.4805 23.0054 17.4805C26.2136 17.4805 28.8138 20.0313 28.8138 23.1785C28.8138 26.3257 26.2136 28.8765 23.0054 28.8765Z" fill="url(#paint0_linear_5504_29059)"/>
</g>
<defs>
<filter id="filter0_iii_5504_29059" x="2.83594" y="1.83398" width="40.334" height="41.334" filterUnits="userSpaceOnUse" color-interpolation-filters="sRGB">
<feFlood flood-opacity="0" result="BackgroundImageFix"/>
<feBlend mode="normal" in="SourceGraphic" in2="BackgroundImageFix" result="shape"/>
<feColorMatrix in="SourceAlpha" type="matrix" values="0 0 0 0 0 0 0 0 0 0 0 0 0 0 0 0 0 0 127 0" result="hardAlpha"/>
<feOffset dx="1" dy="1"/>
<feGaussianBlur stdDeviation="1"/>
<feComposite in2="hardAlpha" operator="arithmetic" k2="-1" k3="1"/>
<feColorMatrix type="matrix" values="0 0 0 0 0.534167 0 0 0 0 0.645967 0 0 0 0 0.749167 0 0 0 0.6 0"/>
<feBlend mode="normal" in2="shape" result="effect1_innerShadow_5504_29059"/>
<feColorMatrix in="SourceAlpha" type="matrix" values="0 0 0 0 0 0 0 0 0 0 0 0 0 0 0 0 0 0 127 0" result="hardAlpha"/>
<feOffset dx="-1" dy="-2"/>
<feGaussianBlur stdDeviation="1"/>
<feComposite in2="hardAlpha" operator="arithmetic" k2="-1" k3="1"/>
<feColorMatrix type="matrix" values="0 0 0 0 0.533333 0 0 0 0 0.647059 0 0 0 0 0.74902 0 0 0 0.3 0"/>
<feBlend mode="normal" in2="effect1_innerShadow_5504_29059" result="effect2_innerShadow_5504_29059"/>
<feColorMatrix in="SourceAlpha" type="matrix" values="0 0 0 0 0 0 0 0 0 0 0 0 0 0 0 0 0 0 127 0" result="hardAlpha"/>
<feOffset dx="-1" dy="-2"/>
<feGaussianBlur stdDeviation="1.5"/>
<feComposite in2="hardAlpha" operator="arithmetic" k2="-1" k3="1"/>
<feColorMatrix type="matrix" values="0 0 0 0 1 0 0 0 0 1 0 0 0 0 1 0 0 0 0.4 0"/>
<feBlend mode="screen" in2="effect2_innerShadow_5504_29059" result="effect3_innerShadow_5504_29059"/>
</filter>
<filter id="filter1_i_5504_29059" x="9" y="9" width="29.3529" height="30.3529" filterUnits="userSpaceOnUse" color-interpolation-filters="sRGB">
<feFlood flood-opacity="0" result="BackgroundImageFix"/>
<feBlend mode="normal" in="SourceGraphic" in2="BackgroundImageFix" result="shape"/>
<feColorMatrix in="SourceAlpha" type="matrix" values="0 0 0 0 0 0 0 0 0 0 0 0 0 0 0 0 0 0 127 0" result="hardAlpha"/>
<feOffset dx="1.35294" dy="1.35294"/>
<feGaussianBlur stdDeviation="2.02941"/>
<feComposite in2="hardAlpha" operator="arithmetic" k2="-1" k3="1"/>
<feColorMatrix type="matrix" values="0 0 0 0 0 0 0 0 0 0.37028 0 0 0 0 0.74056 0 0 0 0.4 0"/>
<feBlend mode="multiply" in2="shape" result="effect1_innerShadow_5504_29059"/>
</filter>
<linearGradient id="paint0_linear_5504_29059" x1="10.3198" y1="9" x2="42.4134" y2="21.6243" gradientUnits="userSpaceOnUse">
<stop stop-color="#39C7EC"/>
<stop offset="0.0001" stop-color="#39C7EC"/>
<stop offset="1" stop-color="#0050EC"/>
</linearGradient>
</defs>
</svg>
