<svg width="46" height="46" viewBox="0 0 46 46" fill="none" xmlns="http://www.w3.org/2000/svg">
<g filter="url(#filter0_iii_5504_28882)">
<path d="M44.0815 6.23177C44.0815 4.90859 43.0088 3.83594 41.6857 3.83594H38.4495C36.6905 3.83594 35.1572 5.03308 34.7306 6.73955L33.5398 11.5026H7.66483C5.54774 11.5026 3.9082 13.2157 4.16526 15.3171C4.37454 17.0279 4.71502 19.3843 5.26899 22.5234C6.70649 30.6693 8.62316 33.5443 8.62316 33.5443C8.62316 33.5443 10.7528 34.5026 20.2296 34.5026C29.7065 34.5026 32.7945 33.5443 32.7945 33.5443C32.7945 33.5443 34.4982 29.2318 36.5213 21.0859C37.4929 17.1739 38.7038 11.4406 39.1314 9.39092C39.2243 8.94563 39.6163 8.6276 40.0711 8.6276H41.6857C43.0088 8.6276 44.0815 7.55495 44.0815 6.23177Z" fill="#D0E2F3"/>
</g>
<g filter="url(#filter1_i_5504_28882)">
<path d="M16.2891 36.416C16.2891 39.5917 13.7147 42.166 10.5391 42.166C7.36343 42.166 4.78906 39.5917 4.78906 36.416C4.78906 33.2404 7.36343 30.666 10.5391 30.666C13.7147 30.666 16.2891 33.2404 16.2891 36.416Z" fill="url(#paint0_linear_5504_28882)"/>
</g>
<g filter="url(#filter2_iii_5504_28882)">
<path d="M14 36.5C14 38.433 12.433 40 10.5 40C8.567 40 7 38.433 7 36.5C7 34.567 8.567 33 10.5 33C12.433 33 14 34.567 14 36.5Z" fill="#D0E2F3"/>
</g>
<g filter="url(#filter3_i_5504_28882)">
<path d="M36.4141 36.416C36.4141 39.5917 33.8397 42.166 30.6641 42.166C27.4884 42.166 24.9141 39.5917 24.9141 36.416C24.9141 33.2404 27.4884 30.666 30.6641 30.666C33.8397 30.666 36.4141 33.2404 36.4141 36.416Z" fill="url(#paint1_linear_5504_28882)"/>
</g>
<g filter="url(#filter4_iii_5504_28882)">
<path d="M34 36.5C34 38.433 32.433 40 30.5 40C28.567 40 27 38.433 27 36.5C27 34.567 28.567 33 30.5 33C32.433 33 34 34.567 34 36.5Z" fill="#D0E2F3"/>
</g>
<g filter="url(#filter5_i_5504_28882)">
<path d="M11.5839 20.304C11.4716 19.1812 12.3532 18.207 13.4816 18.207C14.4614 18.207 15.2818 18.9495 15.3792 19.9244L15.9562 25.6934C16.0684 26.8162 15.1868 27.7904 14.0585 27.7904C13.0787 27.7904 12.2583 27.0479 12.1608 26.073L11.5839 20.304Z" fill="url(#paint2_linear_5504_28882)"/>
</g>
<g filter="url(#filter6_i_5504_28882)">
<path d="M26.5866 19.9244C26.684 18.9495 27.5044 18.207 28.4842 18.207C29.6126 18.207 30.4942 19.1812 30.3819 20.304L29.805 26.073C29.7075 27.0479 28.8871 27.7904 27.9073 27.7904C26.779 27.7904 25.8974 26.8162 26.0097 25.6934L26.5866 19.9244Z" fill="url(#paint3_linear_5504_28882)"/>
</g>
<g filter="url(#filter7_i_5504_28882)">
<path d="M19 20.1027C18.999 19.1229 19.7406 18.3017 20.7154 18.2032C21.838 18.0898 22.8131 18.9704 22.8143 20.0987L22.8203 25.8965C22.8214 26.8763 22.0798 27.6975 21.1049 27.796C19.9823 27.9094 19.0072 27.0288 19.006 25.9005L19 20.1027Z" fill="url(#paint4_linear_5504_28882)"/>
</g>
<defs>
<filter id="filter0_iii_5504_28882" x="3.13867" y="1.83594" width="41.9434" height="33.666" filterUnits="userSpaceOnUse" color-interpolation-filters="sRGB">
<feFlood flood-opacity="0" result="BackgroundImageFix"/>
<feBlend mode="normal" in="SourceGraphic" in2="BackgroundImageFix" result="shape"/>
<feColorMatrix in="SourceAlpha" type="matrix" values="0 0 0 0 0 0 0 0 0 0 0 0 0 0 0 0 0 0 127 0" result="hardAlpha"/>
<feOffset dx="1" dy="1"/>
<feGaussianBlur stdDeviation="1"/>
<feComposite in2="hardAlpha" operator="arithmetic" k2="-1" k3="1"/>
<feColorMatrix type="matrix" values="0 0 0 0 0.534167 0 0 0 0 0.645967 0 0 0 0 0.749167 0 0 0 0.6 0"/>
<feBlend mode="normal" in2="shape" result="effect1_innerShadow_5504_28882"/>
<feColorMatrix in="SourceAlpha" type="matrix" values="0 0 0 0 0 0 0 0 0 0 0 0 0 0 0 0 0 0 127 0" result="hardAlpha"/>
<feOffset dx="-1" dy="-2"/>
<feGaussianBlur stdDeviation="1"/>
<feComposite in2="hardAlpha" operator="arithmetic" k2="-1" k3="1"/>
<feColorMatrix type="matrix" values="0 0 0 0 0.533333 0 0 0 0 0.647059 0 0 0 0 0.74902 0 0 0 0.3 0"/>
<feBlend mode="normal" in2="effect1_innerShadow_5504_28882" result="effect2_innerShadow_5504_28882"/>
<feColorMatrix in="SourceAlpha" type="matrix" values="0 0 0 0 0 0 0 0 0 0 0 0 0 0 0 0 0 0 127 0" result="hardAlpha"/>
<feOffset dx="-1" dy="-2"/>
<feGaussianBlur stdDeviation="1.5"/>
<feComposite in2="hardAlpha" operator="arithmetic" k2="-1" k3="1"/>
<feColorMatrix type="matrix" values="0 0 0 0 1 0 0 0 0 1 0 0 0 0 1 0 0 0 0.4 0"/>
<feBlend mode="screen" in2="effect2_innerShadow_5504_28882" result="effect3_innerShadow_5504_28882"/>
</filter>
<filter id="filter1_i_5504_28882" x="4.78906" y="30.666" width="12.8529" height="12.8529" filterUnits="userSpaceOnUse" color-interpolation-filters="sRGB">
<feFlood flood-opacity="0" result="BackgroundImageFix"/>
<feBlend mode="normal" in="SourceGraphic" in2="BackgroundImageFix" result="shape"/>
<feColorMatrix in="SourceAlpha" type="matrix" values="0 0 0 0 0 0 0 0 0 0 0 0 0 0 0 0 0 0 127 0" result="hardAlpha"/>
<feOffset dx="1.35294" dy="1.35294"/>
<feGaussianBlur stdDeviation="0.676471"/>
<feComposite in2="hardAlpha" operator="arithmetic" k2="-1" k3="1"/>
<feColorMatrix type="matrix" values="0 0 0 0 0 0 0 0 0 0.37028 0 0 0 0 0.74056 0 0 0 0.5 0"/>
<feBlend mode="multiply" in2="shape" result="effect1_innerShadow_5504_28882"/>
</filter>
<filter id="filter2_iii_5504_28882" x="6" y="31" width="9" height="10" filterUnits="userSpaceOnUse" color-interpolation-filters="sRGB">
<feFlood flood-opacity="0" result="BackgroundImageFix"/>
<feBlend mode="normal" in="SourceGraphic" in2="BackgroundImageFix" result="shape"/>
<feColorMatrix in="SourceAlpha" type="matrix" values="0 0 0 0 0 0 0 0 0 0 0 0 0 0 0 0 0 0 127 0" result="hardAlpha"/>
<feOffset dx="1" dy="1"/>
<feGaussianBlur stdDeviation="1"/>
<feComposite in2="hardAlpha" operator="arithmetic" k2="-1" k3="1"/>
<feColorMatrix type="matrix" values="0 0 0 0 0.534167 0 0 0 0 0.645967 0 0 0 0 0.749167 0 0 0 0.6 0"/>
<feBlend mode="normal" in2="shape" result="effect1_innerShadow_5504_28882"/>
<feColorMatrix in="SourceAlpha" type="matrix" values="0 0 0 0 0 0 0 0 0 0 0 0 0 0 0 0 0 0 127 0" result="hardAlpha"/>
<feOffset dx="-1" dy="-2"/>
<feGaussianBlur stdDeviation="1"/>
<feComposite in2="hardAlpha" operator="arithmetic" k2="-1" k3="1"/>
<feColorMatrix type="matrix" values="0 0 0 0 0.533333 0 0 0 0 0.647059 0 0 0 0 0.74902 0 0 0 0.3 0"/>
<feBlend mode="normal" in2="effect1_innerShadow_5504_28882" result="effect2_innerShadow_5504_28882"/>
<feColorMatrix in="SourceAlpha" type="matrix" values="0 0 0 0 0 0 0 0 0 0 0 0 0 0 0 0 0 0 127 0" result="hardAlpha"/>
<feOffset dx="-1" dy="-2"/>
<feGaussianBlur stdDeviation="1.5"/>
<feComposite in2="hardAlpha" operator="arithmetic" k2="-1" k3="1"/>
<feColorMatrix type="matrix" values="0 0 0 0 1 0 0 0 0 1 0 0 0 0 1 0 0 0 0.4 0"/>
<feBlend mode="screen" in2="effect2_innerShadow_5504_28882" result="effect3_innerShadow_5504_28882"/>
</filter>
<filter id="filter3_i_5504_28882" x="24.9141" y="30.666" width="12.8529" height="12.8529" filterUnits="userSpaceOnUse" color-interpolation-filters="sRGB">
<feFlood flood-opacity="0" result="BackgroundImageFix"/>
<feBlend mode="normal" in="SourceGraphic" in2="BackgroundImageFix" result="shape"/>
<feColorMatrix in="SourceAlpha" type="matrix" values="0 0 0 0 0 0 0 0 0 0 0 0 0 0 0 0 0 0 127 0" result="hardAlpha"/>
<feOffset dx="1.35294" dy="1.35294"/>
<feGaussianBlur stdDeviation="0.676471"/>
<feComposite in2="hardAlpha" operator="arithmetic" k2="-1" k3="1"/>
<feColorMatrix type="matrix" values="0 0 0 0 0 0 0 0 0 0.37028 0 0 0 0 0.74056 0 0 0 0.5 0"/>
<feBlend mode="multiply" in2="shape" result="effect1_innerShadow_5504_28882"/>
</filter>
<filter id="filter4_iii_5504_28882" x="26" y="31" width="9" height="10" filterUnits="userSpaceOnUse" color-interpolation-filters="sRGB">
<feFlood flood-opacity="0" result="BackgroundImageFix"/>
<feBlend mode="normal" in="SourceGraphic" in2="BackgroundImageFix" result="shape"/>
<feColorMatrix in="SourceAlpha" type="matrix" values="0 0 0 0 0 0 0 0 0 0 0 0 0 0 0 0 0 0 127 0" result="hardAlpha"/>
<feOffset dx="1" dy="1"/>
<feGaussianBlur stdDeviation="1"/>
<feComposite in2="hardAlpha" operator="arithmetic" k2="-1" k3="1"/>
<feColorMatrix type="matrix" values="0 0 0 0 0.534167 0 0 0 0 0.645967 0 0 0 0 0.749167 0 0 0 0.6 0"/>
<feBlend mode="normal" in2="shape" result="effect1_innerShadow_5504_28882"/>
<feColorMatrix in="SourceAlpha" type="matrix" values="0 0 0 0 0 0 0 0 0 0 0 0 0 0 0 0 0 0 127 0" result="hardAlpha"/>
<feOffset dx="-1" dy="-2"/>
<feGaussianBlur stdDeviation="1"/>
<feComposite in2="hardAlpha" operator="arithmetic" k2="-1" k3="1"/>
<feColorMatrix type="matrix" values="0 0 0 0 0.533333 0 0 0 0 0.647059 0 0 0 0 0.74902 0 0 0 0.3 0"/>
<feBlend mode="normal" in2="effect1_innerShadow_5504_28882" result="effect2_innerShadow_5504_28882"/>
<feColorMatrix in="SourceAlpha" type="matrix" values="0 0 0 0 0 0 0 0 0 0 0 0 0 0 0 0 0 0 127 0" result="hardAlpha"/>
<feOffset dx="-1" dy="-2"/>
<feGaussianBlur stdDeviation="1.5"/>
<feComposite in2="hardAlpha" operator="arithmetic" k2="-1" k3="1"/>
<feColorMatrix type="matrix" values="0 0 0 0 1 0 0 0 0 1 0 0 0 0 1 0 0 0 0.4 0"/>
<feBlend mode="screen" in2="effect2_innerShadow_5504_28882" result="effect3_innerShadow_5504_28882"/>
</filter>
<filter id="filter5_i_5504_28882" x="11.5742" y="18.207" width="5.74357" height="10.9369" filterUnits="userSpaceOnUse" color-interpolation-filters="sRGB">
<feFlood flood-opacity="0" result="BackgroundImageFix"/>
<feBlend mode="normal" in="SourceGraphic" in2="BackgroundImageFix" result="shape"/>
<feColorMatrix in="SourceAlpha" type="matrix" values="0 0 0 0 0 0 0 0 0 0 0 0 0 0 0 0 0 0 127 0" result="hardAlpha"/>
<feOffset dx="1.35294" dy="1.35294"/>
<feGaussianBlur stdDeviation="0.676471"/>
<feComposite in2="hardAlpha" operator="arithmetic" k2="-1" k3="1"/>
<feColorMatrix type="matrix" values="0 0 0 0 0 0 0 0 0 0.37028 0 0 0 0 0.74056 0 0 0 0.5 0"/>
<feBlend mode="multiply" in2="shape" result="effect1_innerShadow_5504_28882"/>
</filter>
<filter id="filter6_i_5504_28882" x="26" y="18.207" width="5.74357" height="10.9369" filterUnits="userSpaceOnUse" color-interpolation-filters="sRGB">
<feFlood flood-opacity="0" result="BackgroundImageFix"/>
<feBlend mode="normal" in="SourceGraphic" in2="BackgroundImageFix" result="shape"/>
<feColorMatrix in="SourceAlpha" type="matrix" values="0 0 0 0 0 0 0 0 0 0 0 0 0 0 0 0 0 0 127 0" result="hardAlpha"/>
<feOffset dx="1.35294" dy="1.35294"/>
<feGaussianBlur stdDeviation="0.676471"/>
<feComposite in2="hardAlpha" operator="arithmetic" k2="-1" k3="1"/>
<feColorMatrix type="matrix" values="0 0 0 0 0 0 0 0 0 0.37028 0 0 0 0 0.74056 0 0 0 0.5 0"/>
<feBlend mode="multiply" in2="shape" result="effect1_innerShadow_5504_28882"/>
</filter>
<filter id="filter7_i_5504_28882" x="19" y="18.1934" width="5.17325" height="10.9662" filterUnits="userSpaceOnUse" color-interpolation-filters="sRGB">
<feFlood flood-opacity="0" result="BackgroundImageFix"/>
<feBlend mode="normal" in="SourceGraphic" in2="BackgroundImageFix" result="shape"/>
<feColorMatrix in="SourceAlpha" type="matrix" values="0 0 0 0 0 0 0 0 0 0 0 0 0 0 0 0 0 0 127 0" result="hardAlpha"/>
<feOffset dx="1.35294" dy="1.35294"/>
<feGaussianBlur stdDeviation="0.676471"/>
<feComposite in2="hardAlpha" operator="arithmetic" k2="-1" k3="1"/>
<feColorMatrix type="matrix" values="0 0 0 0 0 0 0 0 0 0.37028 0 0 0 0 0.74056 0 0 0 0.5 0"/>
<feBlend mode="multiply" in2="shape" result="effect1_innerShadow_5504_28882"/>
</filter>
<linearGradient id="paint0_linear_5504_28882" x1="5.33112" y1="30.666" x2="18.3852" y2="35.9844" gradientUnits="userSpaceOnUse">
<stop stop-color="#0050EC"/>
<stop offset="1" stop-color="#39C7EC"/>
</linearGradient>
<linearGradient id="paint1_linear_5504_28882" x1="25.4561" y1="30.666" x2="38.5102" y2="35.9844" gradientUnits="userSpaceOnUse">
<stop stop-color="#0050EC"/>
<stop offset="1" stop-color="#39C7EC"/>
</linearGradient>
<linearGradient id="paint2_linear_5504_28882" x1="11.7812" y1="18.207" x2="17.3979" y2="19.2556" gradientUnits="userSpaceOnUse">
<stop stop-color="#0050EC"/>
<stop offset="1" stop-color="#39C7EC"/>
</linearGradient>
<linearGradient id="paint3_linear_5504_28882" x1="26.207" y1="18.207" x2="31.8237" y2="19.2556" gradientUnits="userSpaceOnUse">
<stop stop-color="#0050EC"/>
<stop offset="1" stop-color="#39C7EC"/>
</linearGradient>
<linearGradient id="paint4_linear_5504_28882" x1="18.4494" y1="18.4318" x2="24.1431" y2="18.9105" gradientUnits="userSpaceOnUse">
<stop stop-color="#0050EC"/>
<stop offset="1" stop-color="#39C7EC"/>
</linearGradient>
</defs>
</svg>
