<svg width="46" height="46" fill="none" xmlns="http://www.w3.org/2000/svg"><g filter="url(#filter0_iii_5504_28871)"><path d="M33.433 15.747c5.187 1.196 8.692 5.317 8.692 11.002 0 6.6-4.724 11.092-11.318 11.347-2.396.093-5.3.153-8.807.153-3.506 0-6.411-.06-8.807-.153C6.598 37.841 1.875 33.35 1.875 26.75c0-5.685 3.505-9.806 8.692-11.002.564-5.859 4.636-10.035 10.746-10.079a96.468 96.468 0 011.374 0c6.11.044 10.182 4.22 10.746 10.079z" fill="#D0E2F3"/></g><g filter="url(#filter1_i_5504_28871)"><path fill-rule="evenodd" clip-rule="evenodd" d="M17.503 17.483c-1.542 1.083-3.489 2.695-4.822 4.663-.651.962-.023 2.152 1.13 2.291 1.062.128 1.98.193 1.98.193l.318 6.613c.04.816.293 1.681 1.086 1.879.234.058.517.096.858.096.414 0 .743-.056 1.002-.137.687-.214.918-.966.97-1.684.15-2.072.408-6.9.109-12.566-.072-1.364-1.513-2.133-2.631-1.348zm8.413 15.657c1.541-1.083 3.489-2.695 4.822-4.663.651-.961.023-2.152-1.13-2.291-1.062-.128-1.981-.193-1.981-.193l-.317-6.613c-.04-.816-.293-1.68-1.086-1.879a3.539 3.539 0 00-.858-.096c-.414 0-.743.056-1.002.137-.688.214-.919.966-.97 1.684-.15 2.072-.409 6.9-.109 12.566.072 1.364 1.513 2.133 2.63 1.348z" fill="url(#paint0_linear_5504_28871)"/></g><g filter="url(#filter2_i_5504_28871)"><path fill-rule="evenodd" clip-rule="evenodd" d="M42.178 37.668a6.319 6.319 0 10-2.018 2.015l.165.198c.416.502.827.997 1.27 1.486.665.733 1.683.813 2.384.113.7-.699.62-1.716-.114-2.38-.49-.442-.986-.852-1.488-1.267l-.2-.165z" fill="url(#paint1_linear_5504_28871)"/></g><g filter="url(#filter3_iii_5504_28871)"><circle cx="36.857" cy="34.457" r="3.938" fill="#D0E2F3"/></g><defs><filter id="filter0_iii_5504_28871" x=".875" y="3.666" width="42.25" height="35.584" filterUnits="userSpaceOnUse" color-interpolation-filters="sRGB"><feFlood flood-opacity="0" result="BackgroundImageFix"/><feBlend in="SourceGraphic" in2="BackgroundImageFix" result="shape"/><feColorMatrix in="SourceAlpha" values="0 0 0 0 0 0 0 0 0 0 0 0 0 0 0 0 0 0 127 0" result="hardAlpha"/><feOffset dx="1" dy="1"/><feGaussianBlur stdDeviation="1"/><feComposite in2="hardAlpha" operator="arithmetic" k2="-1" k3="1"/><feColorMatrix values="0 0 0 0 0.534167 0 0 0 0 0.645967 0 0 0 0 0.749167 0 0 0 0.6 0"/><feBlend in2="shape" result="effect1_innerShadow_5504_28871"/><feColorMatrix in="SourceAlpha" values="0 0 0 0 0 0 0 0 0 0 0 0 0 0 0 0 0 0 127 0" result="hardAlpha"/><feOffset dx="-1" dy="-2"/><feGaussianBlur stdDeviation="1"/><feComposite in2="hardAlpha" operator="arithmetic" k2="-1" k3="1"/><feColorMatrix values="0 0 0 0 0.533333 0 0 0 0 0.647059 0 0 0 0 0.74902 0 0 0 0.3 0"/><feBlend in2="effect1_innerShadow_5504_28871" result="effect2_innerShadow_5504_28871"/><feColorMatrix in="SourceAlpha" values="0 0 0 0 0 0 0 0 0 0 0 0 0 0 0 0 0 0 127 0" result="hardAlpha"/><feOffset dx="-1" dy="-2"/><feGaussianBlur stdDeviation="1.5"/><feComposite in2="hardAlpha" operator="arithmetic" k2="-1" k3="1"/><feColorMatrix values="0 0 0 0 1 0 0 0 0 1 0 0 0 0 1 0 0 0 0.4 0"/><feBlend mode="screen" in2="effect2_innerShadow_5504_28871" result="effect3_innerShadow_5504_28871"/></filter><filter id="filter1_i_5504_28871" x="12.418" y="17.168" width="19.935" height="17.64" filterUnits="userSpaceOnUse" color-interpolation-filters="sRGB"><feFlood flood-opacity="0" result="BackgroundImageFix"/><feBlend in="SourceGraphic" in2="BackgroundImageFix" result="shape"/><feColorMatrix in="SourceAlpha" values="0 0 0 0 0 0 0 0 0 0 0 0 0 0 0 0 0 0 127 0" result="hardAlpha"/><feOffset dx="1.353" dy="1.353"/><feGaussianBlur stdDeviation=".676"/><feComposite in2="hardAlpha" operator="arithmetic" k2="-1" k3="1"/><feColorMatrix values="0 0 0 0 0 0 0 0 0 0.37028 0 0 0 0 0.74056 0 0 0 0.5 0"/><feBlend mode="multiply" in2="shape" result="effect1_innerShadow_5504_28871"/></filter><filter id="filter2_i_5504_28871" x="30.5" y="28" width="15.316" height="15.316" filterUnits="userSpaceOnUse" color-interpolation-filters="sRGB"><feFlood flood-opacity="0" result="BackgroundImageFix"/><feBlend in="SourceGraphic" in2="BackgroundImageFix" result="shape"/><feColorMatrix in="SourceAlpha" values="0 0 0 0 0 0 0 0 0 0 0 0 0 0 0 0 0 0 127 0" result="hardAlpha"/><feOffset dx="1.353" dy="1.353"/><feGaussianBlur stdDeviation=".676"/><feComposite in2="hardAlpha" operator="arithmetic" k2="-1" k3="1"/><feColorMatrix values="0 0 0 0 0 0 0 0 0 0.37028 0 0 0 0 0.74056 0 0 0 0.5 0"/><feBlend mode="multiply" in2="shape" result="effect1_innerShadow_5504_28871"/></filter><filter id="filter3_iii_5504_28871" x="31.92" y="28.52" width="9.875" height="10.875" filterUnits="userSpaceOnUse" color-interpolation-filters="sRGB"><feFlood flood-opacity="0" result="BackgroundImageFix"/><feBlend in="SourceGraphic" in2="BackgroundImageFix" result="shape"/><feColorMatrix in="SourceAlpha" values="0 0 0 0 0 0 0 0 0 0 0 0 0 0 0 0 0 0 127 0" result="hardAlpha"/><feOffset dx="1" dy="1"/><feGaussianBlur stdDeviation="1"/><feComposite in2="hardAlpha" operator="arithmetic" k2="-1" k3="1"/><feColorMatrix values="0 0 0 0 0.534167 0 0 0 0 0.645967 0 0 0 0 0.749167 0 0 0 0.6 0"/><feBlend in2="shape" result="effect1_innerShadow_5504_28871"/><feColorMatrix in="SourceAlpha" values="0 0 0 0 0 0 0 0 0 0 0 0 0 0 0 0 0 0 127 0" result="hardAlpha"/><feOffset dx="-1" dy="-2"/><feGaussianBlur stdDeviation="1"/><feComposite in2="hardAlpha" operator="arithmetic" k2="-1" k3="1"/><feColorMatrix values="0 0 0 0 0.533333 0 0 0 0 0.647059 0 0 0 0 0.74902 0 0 0 0.3 0"/><feBlend in2="effect1_innerShadow_5504_28871" result="effect2_innerShadow_5504_28871"/><feColorMatrix in="SourceAlpha" values="0 0 0 0 0 0 0 0 0 0 0 0 0 0 0 0 0 0 127 0" result="hardAlpha"/><feOffset dx="-1" dy="-2"/><feGaussianBlur stdDeviation="1.5"/><feComposite in2="hardAlpha" operator="arithmetic" k2="-1" k3="1"/><feColorMatrix values="0 0 0 0 1 0 0 0 0 1 0 0 0 0 1 0 0 0 0.4 0"/><feBlend mode="screen" in2="effect2_innerShadow_5504_28871" result="effect3_innerShadow_5504_28871"/></filter><linearGradient id="paint0_linear_5504_28871" x1="13.294" y1="17.168" x2="33.519" y2="26.569" gradientUnits="userSpaceOnUse"><stop stop-color="#0050EC"/><stop offset="1" stop-color="#39C7EC"/></linearGradient><linearGradient id="paint1_linear_5504_28871" x1="31.158" y1="28" x2="47.008" y2="34.457" gradientUnits="userSpaceOnUse"><stop stop-color="#0050EC"/><stop offset="1" stop-color="#39C7EC"/></linearGradient></defs></svg>