<svg width="34" height="34" fill="none" xmlns="http://www.w3.org/2000/svg"><g filter="url(#filter0_iii_5504_29089)"><path fill-rule="evenodd" clip-rule="evenodd" d="M3 4.35c0-.358.134-.701.373-.955.238-.253.562-.395.9-.395h14c.337 0 .661.142.9.395.238.254.373.597.373.955v6.75h5.09c.836 0 1.664.174 2.436.513a6.36 6.36 0 012.064 1.463 6.789 6.789 0 011.38 2.19A7.1 7.1 0 0131 17.849v5.4c0 .868-.263 1.714-.751 2.412a3.83 3.83 0 01-1.959 1.464 4.06 4.06 0 01-1.345 2.05 3.682 3.682 0 01-2.223.824 3.665 3.665 0 01-2.256-.717 4.03 4.03 0 01-1.43-1.984h-8.07a4.03 4.03 0 01-1.43 1.984A3.665 3.665 0 019.278 30a3.682 3.682 0 01-2.223-.823 4.059 4.059 0 01-1.345-2.05 3.83 3.83 0 01-1.96-1.464A4.216 4.216 0 013 23.248v-5.4h7.636c.338 0 .662-.142.9-.395.239-.253.373-.596.373-.954s-.134-.701-.373-.955a1.237 1.237 0 00-.9-.395H3v-2.7h5.09c.338 0 .662-.142.9-.395.24-.253.374-.597.374-.955s-.134-.701-.373-.954a1.237 1.237 0 00-.9-.396H3v-5.4zm16.546 20.248h1.49a4.043 4.043 0 011.313-1.894 3.686 3.686 0 012.085-.8 3.648 3.648 0 012.153.562 3.977 3.977 0 011.495 1.737 1.403 1.403 0 00.372-.955v-5.4a4.177 4.177 0 00-1.118-2.863 3.71 3.71 0 00-2.7-1.186h-5.09v10.8zm-8.91 1.35c0-.358-.134-.701-.372-.954a1.237 1.237 0 00-.9-.396c-.338 0-.662.142-.9.396a1.392 1.392 0 00-.373.954c0 .358.134.701.373.955.238.253.562.395.9.395.337 0 .66-.142.9-.395.238-.254.372-.597.372-.955zm13.1-.954a1.35 1.35 0 00-.276.437 1.415 1.415 0 00.192 1.373c.187.242.447.407.736.468.289.061.588.014.848-.133.26-.147.463-.385.576-.674a1.42 1.42 0 00.042-.908 1.347 1.347 0 00-.51-.73 1.217 1.217 0 00-1.608.167z" fill="#D0E2F3"/></g><g filter="url(#filter1_i_5504_29089)"><path d="M3 9.5h5.5a1.5 1.5 0 010 3H3v-3z" fill="url(#paint0_linear_5504_29089)"/></g><g filter="url(#filter2_i_5504_29089)"><path d="M3 15h7.5a1.5 1.5 0 010 3H3v-3z" fill="url(#paint1_linear_5504_29089)"/></g><defs><filter id="filter0_iii_5504_29089" x="2" y="1" width="30" height="30" filterUnits="userSpaceOnUse" color-interpolation-filters="sRGB"><feFlood flood-opacity="0" result="BackgroundImageFix"/><feBlend in="SourceGraphic" in2="BackgroundImageFix" result="shape"/><feColorMatrix in="SourceAlpha" values="0 0 0 0 0 0 0 0 0 0 0 0 0 0 0 0 0 0 127 0" result="hardAlpha"/><feOffset dx="1" dy="1"/><feGaussianBlur stdDeviation="1"/><feComposite in2="hardAlpha" operator="arithmetic" k2="-1" k3="1"/><feColorMatrix values="0 0 0 0 0.534167 0 0 0 0 0.645967 0 0 0 0 0.749167 0 0 0 0.6 0"/><feBlend in2="shape" result="effect1_innerShadow_5504_29089"/><feColorMatrix in="SourceAlpha" values="0 0 0 0 0 0 0 0 0 0 0 0 0 0 0 0 0 0 127 0" result="hardAlpha"/><feOffset dx="-1" dy="-2"/><feGaussianBlur stdDeviation="1"/><feComposite in2="hardAlpha" operator="arithmetic" k2="-1" k3="1"/><feColorMatrix values="0 0 0 0 0.533333 0 0 0 0 0.647059 0 0 0 0 0.74902 0 0 0 0.3 0"/><feBlend in2="effect1_innerShadow_5504_29089" result="effect2_innerShadow_5504_29089"/><feColorMatrix in="SourceAlpha" values="0 0 0 0 0 0 0 0 0 0 0 0 0 0 0 0 0 0 127 0" result="hardAlpha"/><feOffset dx="-1" dy="-2"/><feGaussianBlur stdDeviation="1.5"/><feComposite in2="hardAlpha" operator="arithmetic" k2="-1" k3="1"/><feColorMatrix values="0 0 0 0 1 0 0 0 0 1 0 0 0 0 1 0 0 0 0.4 0"/><feBlend mode="screen" in2="effect2_innerShadow_5504_29089" result="effect3_innerShadow_5504_29089"/></filter><filter id="filter1_i_5504_29089" x="3" y="9.5" width="8.353" height="4.353" filterUnits="userSpaceOnUse" color-interpolation-filters="sRGB"><feFlood flood-opacity="0" result="BackgroundImageFix"/><feBlend in="SourceGraphic" in2="BackgroundImageFix" result="shape"/><feColorMatrix in="SourceAlpha" values="0 0 0 0 0 0 0 0 0 0 0 0 0 0 0 0 0 0 127 0" result="hardAlpha"/><feOffset dx="1.353" dy="1.353"/><feGaussianBlur stdDeviation="2.029"/><feComposite in2="hardAlpha" operator="arithmetic" k2="-1" k3="1"/><feColorMatrix values="0 0 0 0 0 0 0 0 0 0.37028 0 0 0 0 0.74056 0 0 0 0.4 0"/><feBlend mode="multiply" in2="shape" result="effect1_innerShadow_5504_29089"/></filter><filter id="filter2_i_5504_29089" x="3" y="15" width="10.353" height="4.353" filterUnits="userSpaceOnUse" color-interpolation-filters="sRGB"><feFlood flood-opacity="0" result="BackgroundImageFix"/><feBlend in="SourceGraphic" in2="BackgroundImageFix" result="shape"/><feColorMatrix in="SourceAlpha" values="0 0 0 0 0 0 0 0 0 0 0 0 0 0 0 0 0 0 127 0" result="hardAlpha"/><feOffset dx="1.353" dy="1.353"/><feGaussianBlur stdDeviation="2.029"/><feComposite in2="hardAlpha" operator="arithmetic" k2="-1" k3="1"/><feColorMatrix values="0 0 0 0 0 0 0 0 0 0.37028 0 0 0 0 0.74056 0 0 0 0.4 0"/><feBlend mode="multiply" in2="shape" result="effect1_innerShadow_5504_29089"/></filter><linearGradient id="paint0_linear_5504_29089" x1="3.33" y1="9.5" x2="8.197" y2="14.127" gradientUnits="userSpaceOnUse"><stop stop-color="#39C7EC"/><stop offset="0" stop-color="#39C7EC"/><stop offset="1" stop-color="#0050EC"/></linearGradient><linearGradient id="paint1_linear_5504_29089" x1="3.424" y1="15" x2="8.201" y2="20.838" gradientUnits="userSpaceOnUse"><stop stop-color="#39C7EC"/><stop offset="0" stop-color="#39C7EC"/><stop offset="1" stop-color="#0050EC"/></linearGradient></defs></svg>