<svg width="34" height="34" fill="none" xmlns="http://www.w3.org/2000/svg"><g filter="url(#filter0_iii_5504_29105)"><path d="M27.915 7.81l-2.3-1.213C23.595 5.533 22.585 5 21.5 5c-1.086 0-2.095.532-4.115 1.597l-.369.195 10.262 5.892 4.618-2.322c-.743-.846-1.941-1.478-3.981-2.554m4.795 4.084l-4.598 2.31v3.509a.869.869 0 01-.862.867.869.869 0 01-.863-.867v-2.642l-4.024 2.023V28c.825-.207 1.765-.701 3.252-1.486l2.3-1.213c2.473-1.305 3.71-1.957 4.398-3.13C33 21 33 19.541 33 16.625v-.135c0-2.188 0-3.556-.29-4.598zM20.637 28V17.092l-10.347-5.2c-.29 1.042-.29 2.41-.29 4.595v.136c0 2.917 0 4.377.687 5.548.687 1.173 1.925 1.826 4.398 3.13l2.3 1.213c1.487.785 2.427 1.28 3.252 1.486zm-9.533-17.637L21.5 15.586l3.923-1.97-10.22-5.868-.118.062c-2.039 1.075-3.238 1.707-3.981 2.554" fill="#D0E2F3"/></g><g filter="url(#filter1_i_5504_29105)"><path fill-rule="evenodd" clip-rule="evenodd" d="M2 13.316c0-.687.557-1.244 1.244-1.244h7.464a1.244 1.244 0 110 2.488H3.244A1.244 1.244 0 012 13.316zm4.977 4.976c0-.687.557-1.244 1.244-1.244h7.464a1.244 1.244 0 010 2.488H8.22a1.244 1.244 0 01-1.244-1.244zm-1.245 3.733a1.244 1.244 0 100 2.488h7.464a1.244 1.244 0 100-2.488H5.732z" fill="url(#paint0_linear_5504_29105)"/></g><defs><filter id="filter0_iii_5504_29105" x="9" y="3" width="25" height="26" filterUnits="userSpaceOnUse" color-interpolation-filters="sRGB"><feFlood flood-opacity="0" result="BackgroundImageFix"/><feBlend in="SourceGraphic" in2="BackgroundImageFix" result="shape"/><feColorMatrix in="SourceAlpha" values="0 0 0 0 0 0 0 0 0 0 0 0 0 0 0 0 0 0 127 0" result="hardAlpha"/><feOffset dx="1" dy="1"/><feGaussianBlur stdDeviation="1"/><feComposite in2="hardAlpha" operator="arithmetic" k2="-1" k3="1"/><feColorMatrix values="0 0 0 0 0.534167 0 0 0 0 0.645967 0 0 0 0 0.749167 0 0 0 0.6 0"/><feBlend in2="shape" result="effect1_innerShadow_5504_29105"/><feColorMatrix in="SourceAlpha" values="0 0 0 0 0 0 0 0 0 0 0 0 0 0 0 0 0 0 127 0" result="hardAlpha"/><feOffset dx="-1" dy="-2"/><feGaussianBlur stdDeviation="1"/><feComposite in2="hardAlpha" operator="arithmetic" k2="-1" k3="1"/><feColorMatrix values="0 0 0 0 0.533333 0 0 0 0 0.647059 0 0 0 0 0.74902 0 0 0 0.3 0"/><feBlend in2="effect1_innerShadow_5504_29105" result="effect2_innerShadow_5504_29105"/><feColorMatrix in="SourceAlpha" values="0 0 0 0 0 0 0 0 0 0 0 0 0 0 0 0 0 0 127 0" result="hardAlpha"/><feOffset dx="-1" dy="-2"/><feGaussianBlur stdDeviation="1.5"/><feComposite in2="hardAlpha" operator="arithmetic" k2="-1" k3="1"/><feColorMatrix values="0 0 0 0 1 0 0 0 0 1 0 0 0 0 1 0 0 0 0.4 0"/><feBlend mode="screen" in2="effect2_innerShadow_5504_29105" result="effect3_innerShadow_5504_29105"/></filter><filter id="filter1_i_5504_29105" x="2" y="12.072" width="16.283" height="13.794" filterUnits="userSpaceOnUse" color-interpolation-filters="sRGB"><feFlood flood-opacity="0" result="BackgroundImageFix"/><feBlend in="SourceGraphic" in2="BackgroundImageFix" result="shape"/><feColorMatrix in="SourceAlpha" values="0 0 0 0 0 0 0 0 0 0 0 0 0 0 0 0 0 0 127 0" result="hardAlpha"/><feOffset dx="1.353" dy="1.353"/><feGaussianBlur stdDeviation="2.029"/><feComposite in2="hardAlpha" operator="arithmetic" k2="-1" k3="1"/><feColorMatrix values="0 0 0 0 0 0 0 0 0 0.37028 0 0 0 0 0.74056 0 0 0 0.4 0"/><feBlend mode="multiply" in2="shape" result="effect1_innerShadow_5504_29105"/></filter><linearGradient id="paint0_linear_5504_29105" x1="2.704" y1="12.072" x2="18.651" y2="19.869" gradientUnits="userSpaceOnUse"><stop stop-color="#39C7EC"/><stop offset="0" stop-color="#39C7EC"/><stop offset="1" stop-color="#0050EC"/></linearGradient></defs></svg>