<svg width="46" height="46" fill="none" xmlns="http://www.w3.org/2000/svg"><g filter="url(#filter0_iii_5504_28981)" fill="#D0E2F3"><path d="M7.187 24.821c-1.652-.09-2.926-1.163-3.12-2.806-.13-1.11-.233-2.654-.233-4.762 0-2.11.103-3.653.234-4.763.193-1.643 1.467-2.716 3.119-2.806a80.676 80.676 0 014.314-.098c1.884 0 3.285.042 4.314.098 1.652.09 2.925 1.163 3.119 2.806.13 1.11.233 2.654.233 4.763 0 2.108-.103 3.652-.233 4.762-.194 1.643-1.467 2.716-3.12 2.806a80.446 80.446 0 01-4.313.098 80.46 80.46 0 01-4.314-.098zm17.25 17.25c-1.652-.09-2.926-1.163-3.12-2.806-.13-1.11-.233-2.654-.233-4.762 0-2.11.103-3.653.234-4.763.193-1.643 1.467-2.716 3.119-2.806a80.677 80.677 0 014.314-.098c1.884 0 3.285.042 4.314.098 1.652.09 2.925 1.163 3.119 2.806.13 1.11.233 2.654.233 4.763 0 2.108-.103 3.652-.233 4.762-.194 1.643-1.467 2.716-3.12 2.806a80.446 80.446 0 01-4.313.098 80.67 80.67 0 01-4.314-.098zM3.932 30.189c.09-1.652 1.163-2.926 2.806-3.12 1.11-.13 2.654-.233 4.763-.233 2.108 0 3.652.103 4.762.234 1.643.193 2.717 1.467 2.806 3.119a80.46 80.46 0 01.098 4.314c0 1.884-.042 3.285-.098 4.314-.09 1.652-1.162 2.925-2.806 3.119-1.11.13-2.654.233-4.762.233-2.109 0-3.653-.103-4.763-.233-1.643-.194-2.716-1.467-2.806-3.12a80.673 80.673 0 01-.098-4.313c0-1.885.042-3.286.098-4.314z"/></g><g filter="url(#filter1_iii_5504_28981)"><path d="M21.28 7.47c.118-1.65 1.194-2.934 2.83-3.183 1.55-.236 3.944-.451 7.516-.451s5.965.215 7.516.451c1.636.249 2.711 1.533 2.83 3.183.104 1.46.195 3.662.195 6.908 0 3.245-.09 5.448-.196 6.907-.118 1.65-1.193 2.934-2.829 3.183-1.55.236-3.944.451-7.516.451s-5.966-.215-7.517-.45c-1.636-.25-2.71-1.534-2.83-3.184-.104-1.459-.195-3.662-.195-6.907 0-3.246.091-5.449.196-6.908z" fill="#D0E2F3"/></g><defs><filter id="filter0_iii_5504_28981" x="2.834" y="7.586" width="34.584" height="35.584" filterUnits="userSpaceOnUse" color-interpolation-filters="sRGB"><feFlood flood-opacity="0" result="BackgroundImageFix"/><feBlend in="SourceGraphic" in2="BackgroundImageFix" result="shape"/><feColorMatrix in="SourceAlpha" values="0 0 0 0 0 0 0 0 0 0 0 0 0 0 0 0 0 0 127 0" result="hardAlpha"/><feOffset dx="1" dy="1"/><feGaussianBlur stdDeviation="1"/><feComposite in2="hardAlpha" operator="arithmetic" k2="-1" k3="1"/><feColorMatrix values="0 0 0 0 0.534167 0 0 0 0 0.645967 0 0 0 0 0.749167 0 0 0 0.6 0"/><feBlend in2="shape" result="effect1_innerShadow_5504_28981"/><feColorMatrix in="SourceAlpha" values="0 0 0 0 0 0 0 0 0 0 0 0 0 0 0 0 0 0 127 0" result="hardAlpha"/><feOffset dx="-1" dy="-2"/><feGaussianBlur stdDeviation="1"/><feComposite in2="hardAlpha" operator="arithmetic" k2="-1" k3="1"/><feColorMatrix values="0 0 0 0 0.533333 0 0 0 0 0.647059 0 0 0 0 0.74902 0 0 0 0.3 0"/><feBlend in2="effect1_innerShadow_5504_28981" result="effect2_innerShadow_5504_28981"/><feColorMatrix in="SourceAlpha" values="0 0 0 0 0 0 0 0 0 0 0 0 0 0 0 0 0 0 127 0" result="hardAlpha"/><feOffset dx="-1" dy="-2"/><feGaussianBlur stdDeviation="1.5"/><feComposite in2="hardAlpha" operator="arithmetic" k2="-1" k3="1"/><feColorMatrix values="0 0 0 0 1 0 0 0 0 1 0 0 0 0 1 0 0 0 0.4 0"/><feBlend mode="screen" in2="effect2_innerShadow_5504_28981" result="effect3_innerShadow_5504_28981"/></filter><filter id="filter1_iii_5504_28981" x="20.084" y="1.836" width="23.084" height="24.084" filterUnits="userSpaceOnUse" color-interpolation-filters="sRGB"><feFlood flood-opacity="0" result="BackgroundImageFix"/><feBlend in="SourceGraphic" in2="BackgroundImageFix" result="shape"/><feColorMatrix in="SourceAlpha" values="0 0 0 0 0 0 0 0 0 0 0 0 0 0 0 0 0 0 127 0" result="hardAlpha"/><feOffset dx="1" dy="1"/><feGaussianBlur stdDeviation="1"/><feComposite in2="hardAlpha" operator="arithmetic" k2="-1" k3="1"/><feColorMatrix values="0 0 0 0 0.534167 0 0 0 0 0.645967 0 0 0 0 0.749167 0 0 0 0.6 0"/><feBlend in2="shape" result="effect1_innerShadow_5504_28981"/><feColorMatrix in="SourceAlpha" values="0 0 0 0 0 0 0 0 0 0 0 0 0 0 0 0 0 0 127 0" result="hardAlpha"/><feOffset dx="-1" dy="-2"/><feGaussianBlur stdDeviation="1"/><feComposite in2="hardAlpha" operator="arithmetic" k2="-1" k3="1"/><feColorMatrix values="0 0 0 0 0.533333 0 0 0 0 0.647059 0 0 0 0 0.74902 0 0 0 0.3 0"/><feBlend in2="effect1_innerShadow_5504_28981" result="effect2_innerShadow_5504_28981"/><feColorMatrix in="SourceAlpha" values="0 0 0 0 0 0 0 0 0 0 0 0 0 0 0 0 0 0 127 0" result="hardAlpha"/><feOffset dx="-1" dy="-2"/><feGaussianBlur stdDeviation="1.5"/><feComposite in2="hardAlpha" operator="arithmetic" k2="-1" k3="1"/><feColorMatrix values="0 0 0 0 1 0 0 0 0 1 0 0 0 0 1 0 0 0 0.4 0"/><feBlend mode="screen" in2="effect2_innerShadow_5504_28981" result="effect3_innerShadow_5504_28981"/></filter></defs></svg>