<svg width="46" height="46" fill="none" xmlns="http://www.w3.org/2000/svg"><g filter="url(#filter0_iii_5504_28894)"><path d="M32.48 17.417l.17.006c6.06.245 10.475 4.305 10.475 10.37 0 6.065-4.415 10.125-10.475 10.37-2.547.102-5.721.172-9.65.172-3.929 0-7.103-.07-9.65-.172-6.06-.245-10.475-4.305-10.475-10.37 0-4.731 2.686-8.242 6.745-9.674.425-6.052 4.539-10.404 10.776-10.449a97.083 97.083 0 011.375 0c5.993.043 10.026 4.063 10.71 9.747z" fill="#D0E2F3"/></g><g filter="url(#filter1_i_5504_28894)"><path d="M32.279 30.76l.312.011c3.31.136 5.743 2.334 5.743 5.647s-2.433 5.51-5.743 5.646a141.22 141.22 0 01-5.757.104c-2.371 0-4.261-.042-5.757-.104-3.31-.136-5.743-2.333-5.743-5.646 0-2.638 1.542-4.569 3.841-5.315.16-3.569 2.534-6.158 6.17-6.184a56.068 56.068 0 01.786 0c3.52.025 5.855 2.45 6.148 5.84z" fill="url(#paint0_linear_5504_28894)"/></g><defs><filter id="filter0_iii_5504_28894" x="1.875" y="5.668" width="42.25" height="33.666" filterUnits="userSpaceOnUse" color-interpolation-filters="sRGB"><feFlood flood-opacity="0" result="BackgroundImageFix"/><feBlend in="SourceGraphic" in2="BackgroundImageFix" result="shape"/><feColorMatrix in="SourceAlpha" values="0 0 0 0 0 0 0 0 0 0 0 0 0 0 0 0 0 0 127 0" result="hardAlpha"/><feOffset dx="1" dy="1"/><feGaussianBlur stdDeviation="1"/><feComposite in2="hardAlpha" operator="arithmetic" k2="-1" k3="1"/><feColorMatrix values="0 0 0 0 0.534167 0 0 0 0 0.645967 0 0 0 0 0.749167 0 0 0 0.6 0"/><feBlend in2="shape" result="effect1_innerShadow_5504_28894"/><feColorMatrix in="SourceAlpha" values="0 0 0 0 0 0 0 0 0 0 0 0 0 0 0 0 0 0 127 0" result="hardAlpha"/><feOffset dx="-1" dy="-2"/><feGaussianBlur stdDeviation="1"/><feComposite in2="hardAlpha" operator="arithmetic" k2="-1" k3="1"/><feColorMatrix values="0 0 0 0 0.533333 0 0 0 0 0.647059 0 0 0 0 0.74902 0 0 0 0.3 0"/><feBlend in2="effect1_innerShadow_5504_28894" result="effect2_innerShadow_5504_28894"/><feColorMatrix in="SourceAlpha" values="0 0 0 0 0 0 0 0 0 0 0 0 0 0 0 0 0 0 127 0" result="hardAlpha"/><feOffset dx="-1" dy="-2"/><feGaussianBlur stdDeviation="1.5"/><feComposite in2="hardAlpha" operator="arithmetic" k2="-1" k3="1"/><feColorMatrix values="0 0 0 0 1 0 0 0 0 1 0 0 0 0 1 0 0 0 0.4 0"/><feBlend mode="screen" in2="effect2_innerShadow_5504_28894" result="effect3_innerShadow_5504_28894"/></filter><filter id="filter1_i_5504_28894" x="15.334" y="24.918" width="24.353" height="18.603" filterUnits="userSpaceOnUse" color-interpolation-filters="sRGB"><feFlood flood-opacity="0" result="BackgroundImageFix"/><feBlend in="SourceGraphic" in2="BackgroundImageFix" result="shape"/><feColorMatrix in="SourceAlpha" values="0 0 0 0 0 0 0 0 0 0 0 0 0 0 0 0 0 0 127 0" result="hardAlpha"/><feOffset dx="1.353" dy="1.353"/><feGaussianBlur stdDeviation=".676"/><feComposite in2="hardAlpha" operator="arithmetic" k2="-1" k3="1"/><feColorMatrix values="0 0 0 0 0 0 0 0 0 0.37028 0 0 0 0 0.74056 0 0 0 0.5 0"/><feBlend mode="multiply" in2="shape" result="effect1_innerShadow_5504_28894"/></filter><linearGradient id="paint0_linear_5504_28894" x1="16.418" y1="24.918" x2="39.924" y2="37.687" gradientUnits="userSpaceOnUse"><stop stop-color="#0050EC"/><stop offset="1" stop-color="#39C7EC"/></linearGradient></defs></svg>