<svg width="46" height="46" fill="none" xmlns="http://www.w3.org/2000/svg"><g filter="url(#filter0_i_5504_28975)"><path d="M3.834 14.376c0-6.08 4.349-10.14 10.423-10.384 2.354-.095 5.236-.158 8.744-.158 3.507 0 6.39.063 8.743.158 6.074.244 10.423 4.304 10.423 10.384 0 6.079-4.349 10.139-10.423 10.384-2.354.095-5.236.157-8.743.157-3.508 0-6.39-.062-8.744-.157-6.074-.245-10.423-4.305-10.423-10.384z" fill="url(#paint0_linear_5504_28975)"/></g><g filter="url(#filter1_iii_5504_28975)"><path d="M20.521 17.556c.068-1.015.682-1.955 1.694-2.147a3.99 3.99 0 01.736-.075c.253 0 .514.032.766.081.994.195 1.604 1.113 1.693 2.11.171 1.915.429 5.06.429 6.63 0 0 3.553 0 7.036.983 2.221.627 3.595 2.68 3.54 4.96-.054 2.198-.395 5.184-1.547 8.32-.528 1.438-1.78 2.454-3.323 2.612-.974.1-2.28.179-3.973.179-1.491 0-2.682-.061-3.61-.144-1.825-.163-3.424-1.11-4.636-2.465a77.73 77.73 0 01-5.36-6.76c-.558-.788-.775-2.554-.253-3.366 1.04-1.617 2.698-.831 4.245.325 1.347 1.007 2.104 1.74 2.104 1.74 0-5.358.29-10.464.46-12.983z" fill="#D0E2F3"/></g><defs><filter id="filter0_i_5504_28975" x="3.834" y="3.834" width="39.687" height="22.437" filterUnits="userSpaceOnUse" color-interpolation-filters="sRGB"><feFlood flood-opacity="0" result="BackgroundImageFix"/><feBlend in="SourceGraphic" in2="BackgroundImageFix" result="shape"/><feColorMatrix in="SourceAlpha" values="0 0 0 0 0 0 0 0 0 0 0 0 0 0 0 0 0 0 127 0" result="hardAlpha"/><feOffset dx="1.353" dy="1.353"/><feGaussianBlur stdDeviation=".676"/><feComposite in2="hardAlpha" operator="arithmetic" k2="-1" k3="1"/><feColorMatrix values="0 0 0 0 0 0 0 0 0 0.37028 0 0 0 0 0.74056 0 0 0 0.5 0"/><feBlend mode="multiply" in2="shape" result="effect1_innerShadow_5504_28975"/></filter><filter id="filter1_iii_5504_28975" x="12.416" y="13.334" width="25" height="28.875" filterUnits="userSpaceOnUse" color-interpolation-filters="sRGB"><feFlood flood-opacity="0" result="BackgroundImageFix"/><feBlend in="SourceGraphic" in2="BackgroundImageFix" result="shape"/><feColorMatrix in="SourceAlpha" values="0 0 0 0 0 0 0 0 0 0 0 0 0 0 0 0 0 0 127 0" result="hardAlpha"/><feOffset dx="1" dy="1"/><feGaussianBlur stdDeviation="1"/><feComposite in2="hardAlpha" operator="arithmetic" k2="-1" k3="1"/><feColorMatrix values="0 0 0 0 0.534167 0 0 0 0 0.645967 0 0 0 0 0.749167 0 0 0 0.6 0"/><feBlend in2="shape" result="effect1_innerShadow_5504_28975"/><feColorMatrix in="SourceAlpha" values="0 0 0 0 0 0 0 0 0 0 0 0 0 0 0 0 0 0 127 0" result="hardAlpha"/><feOffset dx="-1" dy="-2"/><feGaussianBlur stdDeviation="1"/><feComposite in2="hardAlpha" operator="arithmetic" k2="-1" k3="1"/><feColorMatrix values="0 0 0 0 0.533333 0 0 0 0 0.647059 0 0 0 0 0.74902 0 0 0 0.3 0"/><feBlend in2="effect1_innerShadow_5504_28975" result="effect2_innerShadow_5504_28975"/><feColorMatrix in="SourceAlpha" values="0 0 0 0 0 0 0 0 0 0 0 0 0 0 0 0 0 0 127 0" result="hardAlpha"/><feOffset dx="-1" dy="-2"/><feGaussianBlur stdDeviation="1.5"/><feComposite in2="hardAlpha" operator="arithmetic" k2="-1" k3="1"/><feColorMatrix values="0 0 0 0 1 0 0 0 0 1 0 0 0 0 1 0 0 0 0.4 0"/><feBlend mode="screen" in2="effect2_innerShadow_5504_28975" result="effect3_innerShadow_5504_28975"/></filter><linearGradient id="paint0_linear_5504_28975" x1="5.641" y1="3.834" x2="38.401" y2="28.101" gradientUnits="userSpaceOnUse"><stop stop-color="#0050EC"/><stop offset="1" stop-color="#39C7EC"/></linearGradient></defs></svg>