<svg width="46" height="46" fill="none" xmlns="http://www.w3.org/2000/svg"><g filter="url(#filter0_i_5504_28939)"><path d="M4.743 39.14c3.998-1.357 11.516-3.118 17.804-.075.284.137.617.137.901 0 6.288-3.043 13.805-1.282 17.804.075 1.336.453 2.829-.524 2.829-1.935V16.254c0-1.142-.67-2.19-1.757-2.54-5.69-1.825-13.664-1.66-18.94.498a1.02 1.02 0 01-.773 0c-5.277-2.158-13.25-2.323-18.94-.497-1.087.348-1.757 1.398-1.757 2.538v20.952c0 1.411 1.493 2.388 2.83 1.934z" fill="url(#paint0_linear_5504_28939)"/></g><g filter="url(#filter1_iii_5504_28939)"><path d="M5.238 35.827c5.012-1.835 12.064-1.763 16.916.217a2.237 2.237 0 001.69 0c4.851-1.98 11.904-2.052 16.916-.217.663.243 1.405-.228 1.405-.935V12.706c0-.736-.417-1.415-1.103-1.681-5.027-1.952-12.269-1.918-17.218.102a2.236 2.236 0 01-1.69 0c-4.95-2.02-12.192-2.054-17.219-.102-.686.266-1.103.945-1.103 1.68v22.187c0 .707.742 1.178 1.406.935z" fill="#D0E2F3"/></g><path d="M22.041 11.078l.113.046c.542.22 1.149.22 1.69 0l.114-.046v24.917l-.114.046a2.237 2.237 0 01-1.69 0l-.113-.046V11.078z" fill="url(#paint1_linear_5504_28939)"/><g filter="url(#filter2_i_5504_28939)"><path d="M8.922 21.082c-.63.148-1.258-.314-1.258-.96v-.962c0-.628.407-1.19 1.016-1.341a19.974 19.974 0 019.468 0c.61.152 1.016.713 1.016 1.341v.961c0 .647-.628 1.109-1.258.961a20.015 20.015 0 00-8.984 0z" fill="url(#paint2_linear_5504_28939)"/><path d="M8.922 28.749c-.63.148-1.258-.314-1.258-.961v-.961c0-.628.407-1.19 1.016-1.341a19.974 19.974 0 019.468 0c.61.151 1.016.713 1.016 1.34v.962c0 .647-.628 1.109-1.258.961a20.012 20.012 0 00-8.984 0z" fill="url(#paint3_linear_5504_28939)"/></g><g filter="url(#filter3_i_5504_28939)"><path d="M37.074 21.082c.63.148 1.258-.314 1.258-.96v-.962c0-.628-.407-1.19-1.016-1.341a19.973 19.973 0 00-9.468 0c-.61.152-1.016.713-1.016 1.341v.961c0 .647.628 1.109 1.258.961 2.902-.68 6.082-.68 8.984 0z" fill="url(#paint4_linear_5504_28939)"/><path d="M37.074 28.749c.63.148 1.258-.314 1.258-.961v-.961c0-.628-.407-1.19-1.016-1.341a19.973 19.973 0 00-9.468 0c-.61.151-1.016.713-1.016 1.34v.962c0 .647.628 1.109 1.258.961 2.902-.68 6.082-.68 8.984 0z" fill="url(#paint5_linear_5504_28939)"/></g><defs><linearGradient id="paint0_linear_5504_28939" x1="3.902" y1="12.459" x2="43.452" y2="37.818" gradientUnits="userSpaceOnUse"><stop stop-color="#0050EC"/><stop offset="1" stop-color="#39C7EC"/></linearGradient><linearGradient id="paint1_linear_5504_28939" x1="22.131" y1="11.078" x2="24.666" y2="11.157" gradientUnits="userSpaceOnUse"><stop stop-color="#0050EC"/><stop offset="1" stop-color="#39C7EC"/></linearGradient><linearGradient id="paint2_linear_5504_28939" x1="8.206" y1="17.25" x2="21.269" y2="22.559" gradientUnits="userSpaceOnUse"><stop stop-color="#0050EC"/><stop offset="1" stop-color="#39C7EC"/></linearGradient><linearGradient id="paint3_linear_5504_28939" x1="8.206" y1="17.25" x2="21.269" y2="22.559" gradientUnits="userSpaceOnUse"><stop stop-color="#0050EC"/><stop offset="1" stop-color="#39C7EC"/></linearGradient><linearGradient id="paint4_linear_5504_28939" x1="27.374" y1="17.25" x2="40.437" y2="22.559" gradientUnits="userSpaceOnUse"><stop stop-color="#0050EC"/><stop offset="1" stop-color="#39C7EC"/></linearGradient><linearGradient id="paint5_linear_5504_28939" x1="27.374" y1="17.25" x2="40.437" y2="22.559" gradientUnits="userSpaceOnUse"><stop stop-color="#0050EC"/><stop offset="1" stop-color="#39C7EC"/></linearGradient><filter id="filter0_i_5504_28939" x="1.914" y="12.459" width="43.519" height="28.146" filterUnits="userSpaceOnUse" color-interpolation-filters="sRGB"><feFlood flood-opacity="0" result="BackgroundImageFix"/><feBlend in="SourceGraphic" in2="BackgroundImageFix" result="shape"/><feColorMatrix in="SourceAlpha" values="0 0 0 0 0 0 0 0 0 0 0 0 0 0 0 0 0 0 127 0" result="hardAlpha"/><feOffset dx="1.353" dy="1.353"/><feGaussianBlur stdDeviation=".676"/><feComposite in2="hardAlpha" operator="arithmetic" k2="-1" k3="1"/><feColorMatrix values="0 0 0 0 0 0 0 0 0 0.37028 0 0 0 0 0.74056 0 0 0 0.5 0"/><feBlend mode="multiply" in2="shape" result="effect1_innerShadow_5504_28939"/></filter><filter id="filter1_iii_5504_28939" x="2.832" y="7.586" width="40.334" height="29.623" filterUnits="userSpaceOnUse" color-interpolation-filters="sRGB"><feFlood flood-opacity="0" result="BackgroundImageFix"/><feBlend in="SourceGraphic" in2="BackgroundImageFix" result="shape"/><feColorMatrix in="SourceAlpha" values="0 0 0 0 0 0 0 0 0 0 0 0 0 0 0 0 0 0 127 0" result="hardAlpha"/><feOffset dx="1" dy="1"/><feGaussianBlur stdDeviation="1"/><feComposite in2="hardAlpha" operator="arithmetic" k2="-1" k3="1"/><feColorMatrix values="0 0 0 0 0.534167 0 0 0 0 0.645967 0 0 0 0 0.749167 0 0 0 0.6 0"/><feBlend in2="shape" result="effect1_innerShadow_5504_28939"/><feColorMatrix in="SourceAlpha" values="0 0 0 0 0 0 0 0 0 0 0 0 0 0 0 0 0 0 127 0" result="hardAlpha"/><feOffset dx="-1" dy="-2"/><feGaussianBlur stdDeviation="1"/><feComposite in2="hardAlpha" operator="arithmetic" k2="-1" k3="1"/><feColorMatrix values="0 0 0 0 0.533333 0 0 0 0 0.647059 0 0 0 0 0.74902 0 0 0 0.3 0"/><feBlend in2="effect1_innerShadow_5504_28939" result="effect2_innerShadow_5504_28939"/><feColorMatrix in="SourceAlpha" values="0 0 0 0 0 0 0 0 0 0 0 0 0 0 0 0 0 0 127 0" result="hardAlpha"/><feOffset dx="-1" dy="-2"/><feGaussianBlur stdDeviation="1.5"/><feComposite in2="hardAlpha" operator="arithmetic" k2="-1" k3="1"/><feColorMatrix values="0 0 0 0 1 0 0 0 0 1 0 0 0 0 1 0 0 0 0.4 0"/><feBlend mode="screen" in2="effect2_innerShadow_5504_28939" result="effect3_innerShadow_5504_28939"/></filter><filter id="filter2_i_5504_28939" x="7.664" y="17.25" width="12.853" height="12.88" filterUnits="userSpaceOnUse" color-interpolation-filters="sRGB"><feFlood flood-opacity="0" result="BackgroundImageFix"/><feBlend in="SourceGraphic" in2="BackgroundImageFix" result="shape"/><feColorMatrix in="SourceAlpha" values="0 0 0 0 0 0 0 0 0 0 0 0 0 0 0 0 0 0 127 0" result="hardAlpha"/><feOffset dx="1.353" dy="1.353"/><feGaussianBlur stdDeviation=".676"/><feComposite in2="hardAlpha" operator="arithmetic" k2="-1" k3="1"/><feColorMatrix values="0 0 0 0 0 0 0 0 0 0.37028 0 0 0 0 0.74056 0 0 0 0.5 0"/><feBlend mode="multiply" in2="shape" result="effect1_innerShadow_5504_28939"/></filter><filter id="filter3_i_5504_28939" x="26.832" y="17.25" width="12.853" height="12.88" filterUnits="userSpaceOnUse" color-interpolation-filters="sRGB"><feFlood flood-opacity="0" result="BackgroundImageFix"/><feBlend in="SourceGraphic" in2="BackgroundImageFix" result="shape"/><feColorMatrix in="SourceAlpha" values="0 0 0 0 0 0 0 0 0 0 0 0 0 0 0 0 0 0 127 0" result="hardAlpha"/><feOffset dx="1.353" dy="1.353"/><feGaussianBlur stdDeviation=".676"/><feComposite in2="hardAlpha" operator="arithmetic" k2="-1" k3="1"/><feColorMatrix values="0 0 0 0 0 0 0 0 0 0.37028 0 0 0 0 0.74056 0 0 0 0.5 0"/><feBlend mode="multiply" in2="shape" result="effect1_innerShadow_5504_28939"/></filter></defs></svg>