<svg width="47" height="48" fill="none" xmlns="http://www.w3.org/2000/svg"><g clip-path="url(#clip0_5504_29010)"><g filter="url(#filter0_i_5504_29010)" fill-rule="evenodd" clip-rule="evenodd"><path d="M25.412 30.157l-2.056-10.33a6.047 6.047 0 00-7.113-4.753l-10.3 2.05a6.05 6.05 0 00-4.752 7.115l2.055 10.33a6.05 6.05 0 007.114 4.753l10.314-2.053a6.049 6.049 0 004.738-7.112z" fill="url(#paint0_linear_5504_29010)"/><path d="M25.412 30.157l-2.056-10.33a6.047 6.047 0 00-7.113-4.753l-10.3 2.05a6.05 6.05 0 00-4.752 7.115l2.055 10.33a6.05 6.05 0 007.114 4.753l10.314-2.053a6.049 6.049 0 004.738-7.112z" fill="url(#paint1_linear_5504_29010)"/></g><path fill-rule="evenodd" clip-rule="evenodd" d="M9.57 31.726l-1.385.276-3.51-6.875 1.26-.25L8.6 30.268l.521-6.025 1.102-.22L13 29.394l.396-6.001 1.266-.252-.612 7.695-1.385.275-2.598-5.01-.492 5.625-.004.001zm10.58-6.032a1.884 1.884 0 011.356 1.49 1.986 1.986 0 01-.338 1.615c-.34.476-.855.8-1.432.901l-3.122.621-1.449-7.281 2.893-.576a2.167 2.167 0 011.625.284 1.914 1.914 0 01.91 1.31 1.788 1.788 0 01-.443 1.636zm-1.869-2.106l-1.702.339.38 1.909 1.693-.337a.976.976 0 10-.381-1.915l.01.004zm-.69 5.374l1.925-.383a1.04 1.04 0 00-.406-2.04l-1.935.385.415 2.038z" fill="#000"/><g filter="url(#filter1_iii_5504_29010)"><path fill-rule="evenodd" clip-rule="evenodd" d="M9.57 31.726l-1.385.276-3.51-6.875 1.26-.25L8.6 30.268l.521-6.025 1.102-.22L13 29.394l.396-6.001 1.266-.252-.612 7.695-1.385.275-2.598-5.01-.492 5.625-.004.001zm10.58-6.032a1.884 1.884 0 011.356 1.49 1.986 1.986 0 01-.338 1.615c-.34.476-.855.8-1.432.901l-3.122.621-1.449-7.281 2.893-.576a2.167 2.167 0 011.625.284 1.914 1.914 0 01.91 1.31 1.788 1.788 0 01-.443 1.636zm-1.869-2.106l-1.702.339.38 1.909 1.693-.337a.976.976 0 10-.381-1.915l.01.004zm-.69 5.374l1.925-.383a1.04 1.04 0 00-.406-2.04l-1.935.385.415 2.038z" fill="#D0E2F3"/></g></g><g clip-path="url(#clip1_5504_29010)"><g filter="url(#filter2_i_5504_29010)"><path d="M23.18 4.26a3.943 3.943 0 014.577-3.186l13.82 2.474a3.943 3.943 0 013.187 4.576l-2.483 13.874a3.943 3.943 0 01-4.577 3.187l-13.82-2.474a3.943 3.943 0 01-3.187-4.576L23.18 4.26z" fill="url(#paint2_linear_5504_29010)"/></g><g filter="url(#filter3_iii_5504_29010)"><path d="M32.127 9.066L28.419 7.05l-6.795 6.018-1.084 6.054 7.002-6.232-1.592 4.82 3.762 2.025 6.087-6.626c-.483 1.373-1.434 4.508 1.638 6.03 1.818.902 3.804.301 5.722-1.01l1.019-5.69c-2.015 2.06-3.872 3.462-4.642 3.1-1.295-.607.689-4.621 1.968-7.21l.02-.04-4.164-2.23-6.746 7.381 1.513-4.375z" fill="#D0E2F3"/></g></g><g clip-path="url(#clip2_5504_29010)"><mask id="a" style="mask-type:luminance" maskUnits="userSpaceOnUse" x="21" y="22" width="26" height="25"><path d="M29.438 22.339l12.85 2.204a4.8 4.8 0 013.917 5.54l-2.204 12.85a4.8 4.8 0 01-5.54 3.917l-12.85-2.204a4.8 4.8 0 01-3.918-5.54l2.205-12.85a4.81 4.81 0 015.54-3.917z" fill="#fff"/></mask><g mask="url(#a)"><g filter="url(#filter4_i_5504_29010)"><path d="M42.088 24.509l-12.451-2.136a5 5 0 00-5.774 4.082l-2.136 12.452a5 5 0 004.083 5.773l12.451 2.136a5 5 0 005.774-4.082l2.136-12.452a5 5 0 00-4.083-5.773z" fill="url(#paint3_linear_5504_29010)"/></g><g filter="url(#filter5_i_5504_29010)" fill-rule="evenodd" clip-rule="evenodd"><path d="M33.778 34.612l-.108-1.335 2.422-1.085 2.557.622.172 1.316 9.627 14.74-19.445 2.421 4.775-16.68z" fill="#F91155"/><path d="M33.778 34.612l-.108-1.335 2.422-1.085 2.557.622.172 1.316 9.627 14.74-19.445 2.421 4.775-16.68z" fill="url(#paint4_linear_5504_29010)"/></g><g filter="url(#filter6_iii_5504_29010)"><path fill-rule="evenodd" clip-rule="evenodd" d="M24.531 36.853c-.891.2-1.734-.511-1.707-1.471.018-.64.467-1.206 1.088-1.344.892-.2 1.734.511 1.71 1.456a1.435 1.435 0 01-1.09 1.36zm-.29-4.106c-1.667-.01-2.91 1.521-2.588 3.215.23 1.248 1.312 2.169 2.55 2.182 1.667.01 2.91-1.521 2.588-3.215-.248-1.236-1.327-2.172-2.55-2.182z" fill="#D0E2F3"/></g><g filter="url(#filter7_iii_5504_29010)"><path fill-rule="evenodd" clip-rule="evenodd" d="M28.012 32.444a.625.625 0 00-.537.81.64.64 0 00.675.438l1.712-.165-2.34 3.823c-.082.124.029.28.168.274l4.184-.384a.648.648 0 00.585-.558.625.625 0 00-.676-.698l-2.085.194 2.34-3.824c.083-.124-.025-.296-.167-.274l-3.859.364z" fill="#D0E2F3"/></g><g filter="url(#filter8_iii_5504_29010)"><path fill-rule="evenodd" clip-rule="evenodd" d="M44.752 30.875c-.276.09-.449.382-.423.677l.194 2.085-3.589-2.376a.175.175 0 00-.273.167l.396 4.294a.632.632 0 00.543.583.62.62 0 00.698-.677l-.191-2.1 3.588 2.377a.175.175 0 00.274-.167l-.394-4.309c-.055-.392-.436-.671-.824-.554z" fill="#D0E2F3"/></g><g filter="url(#filter9_iii_5504_29010)"><path fill-rule="evenodd" clip-rule="evenodd" d="M36.042 31.587c-2.037.186-3.572 1.545-3.442 3.022.144 1.48 1.893 2.53 3.93 2.343 2.038-.186 3.572-1.546 3.443-3.022-.144-1.48-1.893-2.53-3.93-2.343zm.109 1.243c1.4-.127 2.527.525 2.594 1.21.068.67-.92 1.526-2.32 1.654-1.4.127-2.528-.526-2.594-1.21-.069-.67.917-1.512 2.32-1.654z" fill="#D0E2F3"/></g></g></g><defs><filter id="filter0_i_5504_29010" x="1.074" y="14.957" width="25.918" height="25.943" filterUnits="userSpaceOnUse" color-interpolation-filters="sRGB"><feFlood flood-opacity="0" result="BackgroundImageFix"/><feBlend in="SourceGraphic" in2="BackgroundImageFix" result="shape"/><feColorMatrix in="SourceAlpha" values="0 0 0 0 0 0 0 0 0 0 0 0 0 0 0 0 0 0 127 0" result="hardAlpha"/><feOffset dx="1.463" dy="1.463"/><feGaussianBlur stdDeviation=".731"/><feComposite in2="hardAlpha" operator="arithmetic" k2="-1" k3="1"/><feColorMatrix values="0 0 0 0 0 0 0 0 0 0.37028 0 0 0 0 0.74056 0 0 0 0.5 0"/><feBlend mode="multiply" in2="shape" result="effect1_innerShadow_5504_29010"/></filter><filter id="filter1_iii_5504_29010" x="3.595" y="20.252" width="19.041" height="12.831" filterUnits="userSpaceOnUse" color-interpolation-filters="sRGB"><feFlood flood-opacity="0" result="BackgroundImageFix"/><feBlend in="SourceGraphic" in2="BackgroundImageFix" result="shape"/><feColorMatrix in="SourceAlpha" values="0 0 0 0 0 0 0 0 0 0 0 0 0 0 0 0 0 0 127 0" result="hardAlpha"/><feOffset dx="1.081" dy="1.081"/><feGaussianBlur stdDeviation="1.081"/><feComposite in2="hardAlpha" operator="arithmetic" k2="-1" k3="1"/><feColorMatrix values="0 0 0 0 0.534167 0 0 0 0 0.645967 0 0 0 0 0.749167 0 0 0 0.6 0"/><feBlend in2="shape" result="effect1_innerShadow_5504_29010"/><feColorMatrix in="SourceAlpha" values="0 0 0 0 0 0 0 0 0 0 0 0 0 0 0 0 0 0 127 0" result="hardAlpha"/><feOffset dx="-1.081" dy="-2.162"/><feGaussianBlur stdDeviation="1.081"/><feComposite in2="hardAlpha" operator="arithmetic" k2="-1" k3="1"/><feColorMatrix values="0 0 0 0 0.533333 0 0 0 0 0.647059 0 0 0 0 0.74902 0 0 0 0.3 0"/><feBlend in2="effect1_innerShadow_5504_29010" result="effect2_innerShadow_5504_29010"/><feColorMatrix in="SourceAlpha" values="0 0 0 0 0 0 0 0 0 0 0 0 0 0 0 0 0 0 127 0" result="hardAlpha"/><feOffset dx="-1.081" dy="-2.162"/><feGaussianBlur stdDeviation="1.622"/><feComposite in2="hardAlpha" operator="arithmetic" k2="-1" k3="1"/><feColorMatrix values="0 0 0 0 1 0 0 0 0 1 0 0 0 0 1 0 0 0 0.4 0"/><feBlend mode="screen" in2="effect2_innerShadow_5504_29010" result="effect3_innerShadow_5504_29010"/></filter><filter id="filter2_i_5504_29010" x="20.635" y="1.012" width="25.654" height="25.699" filterUnits="userSpaceOnUse" color-interpolation-filters="sRGB"><feFlood flood-opacity="0" result="BackgroundImageFix"/><feBlend in="SourceGraphic" in2="BackgroundImageFix" result="shape"/><feColorMatrix in="SourceAlpha" values="0 0 0 0 0 0 0 0 0 0 0 0 0 0 0 0 0 0 127 0" result="hardAlpha"/><feOffset dx="1.463" dy="1.463"/><feGaussianBlur stdDeviation=".731"/><feComposite in2="hardAlpha" operator="arithmetic" k2="-1" k3="1"/><feColorMatrix values="0 0 0 0 0 0 0 0 0 0.37028 0 0 0 0 0.74056 0 0 0 0.5 0"/><feBlend mode="multiply" in2="shape" result="effect1_innerShadow_5504_29010"/></filter><filter id="filter3_iii_5504_29010" x="19.46" y="3.898" width="25.799" height="16.919" filterUnits="userSpaceOnUse" color-interpolation-filters="sRGB"><feFlood flood-opacity="0" result="BackgroundImageFix"/><feBlend in="SourceGraphic" in2="BackgroundImageFix" result="shape"/><feColorMatrix in="SourceAlpha" values="0 0 0 0 0 0 0 0 0 0 0 0 0 0 0 0 0 0 127 0" result="hardAlpha"/><feOffset dx="1.081" dy="1.081"/><feGaussianBlur stdDeviation="1.081"/><feComposite in2="hardAlpha" operator="arithmetic" k2="-1" k3="1"/><feColorMatrix values="0 0 0 0 0.534167 0 0 0 0 0.645967 0 0 0 0 0.749167 0 0 0 0.6 0"/><feBlend in2="shape" result="effect1_innerShadow_5504_29010"/><feColorMatrix in="SourceAlpha" values="0 0 0 0 0 0 0 0 0 0 0 0 0 0 0 0 0 0 127 0" result="hardAlpha"/><feOffset dx="-1.081" dy="-2.162"/><feGaussianBlur stdDeviation="1.081"/><feComposite in2="hardAlpha" operator="arithmetic" k2="-1" k3="1"/><feColorMatrix values="0 0 0 0 0.533333 0 0 0 0 0.647059 0 0 0 0 0.74902 0 0 0 0.3 0"/><feBlend in2="effect1_innerShadow_5504_29010" result="effect2_innerShadow_5504_29010"/><feColorMatrix in="SourceAlpha" values="0 0 0 0 0 0 0 0 0 0 0 0 0 0 0 0 0 0 127 0" result="hardAlpha"/><feOffset dx="-1.081" dy="-2.162"/><feGaussianBlur stdDeviation="1.622"/><feComposite in2="hardAlpha" operator="arithmetic" k2="-1" k3="1"/><feColorMatrix values="0 0 0 0 1 0 0 0 0 1 0 0 0 0 1 0 0 0 0.4 0"/><feBlend mode="screen" in2="effect2_innerShadow_5504_29010" result="effect3_innerShadow_5504_29010"/></filter><filter id="filter4_i_5504_29010" x="21.654" y="22.301" width="26.053" height="26.051" filterUnits="userSpaceOnUse" color-interpolation-filters="sRGB"><feFlood flood-opacity="0" result="BackgroundImageFix"/><feBlend in="SourceGraphic" in2="BackgroundImageFix" result="shape"/><feColorMatrix in="SourceAlpha" values="0 0 0 0 0 0 0 0 0 0 0 0 0 0 0 0 0 0 127 0" result="hardAlpha"/><feOffset dx="1.463" dy="1.463"/><feGaussianBlur stdDeviation=".731"/><feComposite in2="hardAlpha" operator="arithmetic" k2="-1" k3="1"/><feColorMatrix values="0 0 0 0 0 0 0 0 0 0.37028 0 0 0 0 0.74056 0 0 0 0.5 0"/><feBlend mode="multiply" in2="shape" result="effect1_innerShadow_5504_29010"/></filter><filter id="filter5_i_5504_29010" x="29.004" y="32.191" width="20.906" height="20.562" filterUnits="userSpaceOnUse" color-interpolation-filters="sRGB"><feFlood flood-opacity="0" result="BackgroundImageFix"/><feBlend in="SourceGraphic" in2="BackgroundImageFix" result="shape"/><feColorMatrix in="SourceAlpha" values="0 0 0 0 0 0 0 0 0 0 0 0 0 0 0 0 0 0 127 0" result="hardAlpha"/><feOffset dx="1.463" dy="1.463"/><feGaussianBlur stdDeviation=".731"/><feComposite in2="hardAlpha" operator="arithmetic" k2="-1" k3="1"/><feColorMatrix values="0 0 0 0 0 0 0 0 0 0.37028 0 0 0 0 0.74056 0 0 0 0.5 0"/><feBlend mode="multiply" in2="shape" result="effect1_innerShadow_5504_29010"/></filter><filter id="filter6_iii_5504_29010" x="20.52" y="30.584" width="7.403" height="8.642" filterUnits="userSpaceOnUse" color-interpolation-filters="sRGB"><feFlood flood-opacity="0" result="BackgroundImageFix"/><feBlend in="SourceGraphic" in2="BackgroundImageFix" result="shape"/><feColorMatrix in="SourceAlpha" values="0 0 0 0 0 0 0 0 0 0 0 0 0 0 0 0 0 0 127 0" result="hardAlpha"/><feOffset dx="1.081" dy="1.081"/><feGaussianBlur stdDeviation="1.081"/><feComposite in2="hardAlpha" operator="arithmetic" k2="-1" k3="1"/><feColorMatrix values="0 0 0 0 0.534167 0 0 0 0 0.645967 0 0 0 0 0.749167 0 0 0 0.6 0"/><feBlend in2="shape" result="effect1_innerShadow_5504_29010"/><feColorMatrix in="SourceAlpha" values="0 0 0 0 0 0 0 0 0 0 0 0 0 0 0 0 0 0 127 0" result="hardAlpha"/><feOffset dx="-1.081" dy="-2.162"/><feGaussianBlur stdDeviation="1.081"/><feComposite in2="hardAlpha" operator="arithmetic" k2="-1" k3="1"/><feColorMatrix values="0 0 0 0 0.533333 0 0 0 0 0.647059 0 0 0 0 0.74902 0 0 0 0.3 0"/><feBlend in2="effect1_innerShadow_5504_29010" result="effect2_innerShadow_5504_29010"/><feColorMatrix in="SourceAlpha" values="0 0 0 0 0 0 0 0 0 0 0 0 0 0 0 0 0 0 127 0" result="hardAlpha"/><feOffset dx="-1.081" dy="-2.162"/><feGaussianBlur stdDeviation="1.622"/><feComposite in2="hardAlpha" operator="arithmetic" k2="-1" k3="1"/><feColorMatrix values="0 0 0 0 1 0 0 0 0 1 0 0 0 0 1 0 0 0 0.4 0"/><feBlend mode="screen" in2="effect2_innerShadow_5504_29010" result="effect3_innerShadow_5504_29010"/></filter><filter id="filter7_iii_5504_29010" x="26.366" y="29.916" width="7.178" height="8.79" filterUnits="userSpaceOnUse" color-interpolation-filters="sRGB"><feFlood flood-opacity="0" result="BackgroundImageFix"/><feBlend in="SourceGraphic" in2="BackgroundImageFix" result="shape"/><feColorMatrix in="SourceAlpha" values="0 0 0 0 0 0 0 0 0 0 0 0 0 0 0 0 0 0 127 0" result="hardAlpha"/><feOffset dx="1.081" dy="1.081"/><feGaussianBlur stdDeviation="1.081"/><feComposite in2="hardAlpha" operator="arithmetic" k2="-1" k3="1"/><feColorMatrix values="0 0 0 0 0.534167 0 0 0 0 0.645967 0 0 0 0 0.749167 0 0 0 0.6 0"/><feBlend in2="shape" result="effect1_innerShadow_5504_29010"/><feColorMatrix in="SourceAlpha" values="0 0 0 0 0 0 0 0 0 0 0 0 0 0 0 0 0 0 127 0" result="hardAlpha"/><feOffset dx="-1.081" dy="-2.162"/><feGaussianBlur stdDeviation="1.081"/><feComposite in2="hardAlpha" operator="arithmetic" k2="-1" k3="1"/><feColorMatrix values="0 0 0 0 0.533333 0 0 0 0 0.647059 0 0 0 0 0.74902 0 0 0 0.3 0"/><feBlend in2="effect1_innerShadow_5504_29010" result="effect2_innerShadow_5504_29010"/><feColorMatrix in="SourceAlpha" values="0 0 0 0 0 0 0 0 0 0 0 0 0 0 0 0 0 0 127 0" result="hardAlpha"/><feOffset dx="-1.081" dy="-2.162"/><feGaussianBlur stdDeviation="1.622"/><feComposite in2="hardAlpha" operator="arithmetic" k2="-1" k3="1"/><feColorMatrix values="0 0 0 0 1 0 0 0 0 1 0 0 0 0 1 0 0 0 0.4 0"/><feBlend mode="screen" in2="effect2_innerShadow_5504_29010" result="effect3_innerShadow_5504_29010"/></filter><filter id="filter8_iii_5504_29010" x="39.579" y="28.685" width="7.473" height="8.706" filterUnits="userSpaceOnUse" color-interpolation-filters="sRGB"><feFlood flood-opacity="0" result="BackgroundImageFix"/><feBlend in="SourceGraphic" in2="BackgroundImageFix" result="shape"/><feColorMatrix in="SourceAlpha" values="0 0 0 0 0 0 0 0 0 0 0 0 0 0 0 0 0 0 127 0" result="hardAlpha"/><feOffset dx="1.081" dy="1.081"/><feGaussianBlur stdDeviation="1.081"/><feComposite in2="hardAlpha" operator="arithmetic" k2="-1" k3="1"/><feColorMatrix values="0 0 0 0 0.534167 0 0 0 0 0.645967 0 0 0 0 0.749167 0 0 0 0.6 0"/><feBlend in2="shape" result="effect1_innerShadow_5504_29010"/><feColorMatrix in="SourceAlpha" values="0 0 0 0 0 0 0 0 0 0 0 0 0 0 0 0 0 0 127 0" result="hardAlpha"/><feOffset dx="-1.081" dy="-2.162"/><feGaussianBlur stdDeviation="1.081"/><feComposite in2="hardAlpha" operator="arithmetic" k2="-1" k3="1"/><feColorMatrix values="0 0 0 0 0.533333 0 0 0 0 0.647059 0 0 0 0 0.74902 0 0 0 0.3 0"/><feBlend in2="effect1_innerShadow_5504_29010" result="effect2_innerShadow_5504_29010"/><feColorMatrix in="SourceAlpha" values="0 0 0 0 0 0 0 0 0 0 0 0 0 0 0 0 0 0 127 0" result="hardAlpha"/><feOffset dx="-1.081" dy="-2.162"/><feGaussianBlur stdDeviation="1.622"/><feComposite in2="hardAlpha" operator="arithmetic" k2="-1" k3="1"/><feColorMatrix values="0 0 0 0 1 0 0 0 0 1 0 0 0 0 1 0 0 0 0.4 0"/><feBlend mode="screen" in2="effect2_innerShadow_5504_29010" result="effect3_innerShadow_5504_29010"/></filter><filter id="filter9_iii_5504_29010" x="31.511" y="29.402" width="9.551" height="8.652" filterUnits="userSpaceOnUse" color-interpolation-filters="sRGB"><feFlood flood-opacity="0" result="BackgroundImageFix"/><feBlend in="SourceGraphic" in2="BackgroundImageFix" result="shape"/><feColorMatrix in="SourceAlpha" values="0 0 0 0 0 0 0 0 0 0 0 0 0 0 0 0 0 0 127 0" result="hardAlpha"/><feOffset dx="1.081" dy="1.081"/><feGaussianBlur stdDeviation="1.081"/><feComposite in2="hardAlpha" operator="arithmetic" k2="-1" k3="1"/><feColorMatrix values="0 0 0 0 0.534167 0 0 0 0 0.645967 0 0 0 0 0.749167 0 0 0 0.6 0"/><feBlend in2="shape" result="effect1_innerShadow_5504_29010"/><feColorMatrix in="SourceAlpha" values="0 0 0 0 0 0 0 0 0 0 0 0 0 0 0 0 0 0 127 0" result="hardAlpha"/><feOffset dx="-1.081" dy="-2.162"/><feGaussianBlur stdDeviation="1.081"/><feComposite in2="hardAlpha" operator="arithmetic" k2="-1" k3="1"/><feColorMatrix values="0 0 0 0 0.533333 0 0 0 0 0.647059 0 0 0 0 0.74902 0 0 0 0.3 0"/><feBlend in2="effect1_innerShadow_5504_29010" result="effect2_innerShadow_5504_29010"/><feColorMatrix in="SourceAlpha" values="0 0 0 0 0 0 0 0 0 0 0 0 0 0 0 0 0 0 127 0" result="hardAlpha"/><feOffset dx="-1.081" dy="-2.162"/><feGaussianBlur stdDeviation="1.622"/><feComposite in2="hardAlpha" operator="arithmetic" k2="-1" k3="1"/><feColorMatrix values="0 0 0 0 1 0 0 0 0 1 0 0 0 0 1 0 0 0 0.4 0"/><feBlend mode="screen" in2="effect2_innerShadow_5504_29010" result="effect3_innerShadow_5504_29010"/></filter><linearGradient id="paint0_linear_5504_29010" x1="6.19" y1="37.627" x2="20.294" y2="16.936" gradientUnits="userSpaceOnUse"><stop stop-color="#A42C91"/><stop offset="1" stop-color="#522A88"/></linearGradient><linearGradient id="paint1_linear_5504_29010" x1="1.055" y1="18.097" x2="28.264" y2="23.328" gradientUnits="userSpaceOnUse"><stop stop-color="#0050EC"/><stop offset="1" stop-color="#39C7EC"/></linearGradient><linearGradient id="paint2_linear_5504_29010" x1="24.892" y1=".561" x2="47.627" y2="14.914" gradientUnits="userSpaceOnUse"><stop stop-color="#0050EC"/><stop offset="1" stop-color="#39C7EC"/></linearGradient><linearGradient id="paint3_linear_5504_29010" x1="25.761" y1="21.708" x2="49.313" y2="36.368" gradientUnits="userSpaceOnUse"><stop stop-color="#0050EC"/><stop offset="1" stop-color="#39C7EC"/></linearGradient><linearGradient id="paint4_linear_5504_29010" x1="33.26" y1="31.706" x2="53.218" y2="43.52" gradientUnits="userSpaceOnUse"><stop stop-color="#0050EC"/><stop offset="1" stop-color="#39C7EC"/></linearGradient><clipPath id="clip0_5504_29010"><path fill="#fff" transform="rotate(-11.255 92.88 9.152)" d="M0 0h22.607v22.633H0z"/></clipPath><clipPath id="clip1_5504_29010"><path fill="#fff" transform="rotate(10.149 11.806 132.95)" d="M0 0h22.633v22.633H0z"/></clipPath><clipPath id="clip2_5504_29010"><path fill="#fff" transform="rotate(9.735 -114.14 155.756)" d="M0 0h22.633v22.633H0z"/></clipPath></defs></svg>