<svg width="46" height="46" fill="none" xmlns="http://www.w3.org/2000/svg"><g filter="url(#filter0_iii_5504_28880)"><path d="M29.71 8.624a6.68 6.68 0 01-.725 3.038c2.8.166 6.688.436 8.032.692 1.625.31 2.703 1.605 2.854 3.252.078.848.157 1.943.222 3.341.05 1.061-1.336 1.748-2.354 1.441a6.23 6.23 0 10.033 11.92c1.015-.311 2.404.367 2.363 1.428a82.343 82.343 0 01-.264 4.323c-.151 1.648-1.23 2.942-2.854 3.252-2.15.41-7.824.855-14.015.855-6.19 0-11.865-.444-14.015-.855-1.625-.31-2.703-1.605-2.854-3.252-.188-2.044-.381-5.531-.381-11.226 0-5.695.193-9.183.38-11.227.152-1.647 1.23-2.942 2.855-3.252 1.344-.256 5.232-.526 8.032-.692A6.708 6.708 0 1129.71 8.625z" fill="#D0E2F3"/></g><defs><filter id="filter0_iii_5504_28880" x="4.752" y="-.084" width="36.385" height="43.25" filterUnits="userSpaceOnUse" color-interpolation-filters="sRGB"><feFlood flood-opacity="0" result="BackgroundImageFix"/><feBlend in="SourceGraphic" in2="BackgroundImageFix" result="shape"/><feColorMatrix in="SourceAlpha" values="0 0 0 0 0 0 0 0 0 0 0 0 0 0 0 0 0 0 127 0" result="hardAlpha"/><feOffset dx="1" dy="1"/><feGaussianBlur stdDeviation="1"/><feComposite in2="hardAlpha" operator="arithmetic" k2="-1" k3="1"/><feColorMatrix values="0 0 0 0 0.534167 0 0 0 0 0.645967 0 0 0 0 0.749167 0 0 0 0.6 0"/><feBlend in2="shape" result="effect1_innerShadow_5504_28880"/><feColorMatrix in="SourceAlpha" values="0 0 0 0 0 0 0 0 0 0 0 0 0 0 0 0 0 0 127 0" result="hardAlpha"/><feOffset dx="-1" dy="-2"/><feGaussianBlur stdDeviation="1"/><feComposite in2="hardAlpha" operator="arithmetic" k2="-1" k3="1"/><feColorMatrix values="0 0 0 0 0.533333 0 0 0 0 0.647059 0 0 0 0 0.74902 0 0 0 0.3 0"/><feBlend in2="effect1_innerShadow_5504_28880" result="effect2_innerShadow_5504_28880"/><feColorMatrix in="SourceAlpha" values="0 0 0 0 0 0 0 0 0 0 0 0 0 0 0 0 0 0 127 0" result="hardAlpha"/><feOffset dx="-1" dy="-2"/><feGaussianBlur stdDeviation="1.5"/><feComposite in2="hardAlpha" operator="arithmetic" k2="-1" k3="1"/><feColorMatrix values="0 0 0 0 1 0 0 0 0 1 0 0 0 0 1 0 0 0 0.4 0"/><feBlend mode="screen" in2="effect2_innerShadow_5504_28880" result="effect3_innerShadow_5504_28880"/></filter></defs></svg>