<svg width="46" height="46" fill="none" xmlns="http://www.w3.org/2000/svg"><g filter="url(#filter0_iii_5504_28987)"><path d="M4.375 37.678c.17 1.646 1.248 2.949 2.867 3.293 2.554.544 7.369 1.197 15.76 1.197 8.393 0 13.207-.653 15.762-1.197 1.618-.344 2.697-1.647 2.867-3.293.252-2.44.538-6.92.538-14.677 0-7.756-.286-12.237-.538-14.677-.17-1.645-1.25-2.948-2.867-3.292-2.555-.544-7.37-1.197-15.761-1.197-8.392 0-13.207.653-15.761 1.197-1.619.344-2.698 1.647-2.867 3.292-.252 2.44-.54 6.92-.54 14.677s.288 12.237.54 14.677z" fill="#D0E2F3"/></g><g filter="url(#filter1_i_5504_28987)"><path d="M4.054 33.29a101.395 101.395 0 017.84-7.25 82.9 82.9 0 012-1.608l4.303 5.737.002.002v.001l.006.007.005.007a2.397 2.397 0 003.72.14c3.303-3.774 5.882-6.352 7.618-7.972a49.888 49.888 0 011.956-1.742c.13-.11.24-.2.33-.272a71.561 71.561 0 00-.032 3.28c.018 1.168.678 2.233 1.845 2.253h.208a5.4 5.4 0 00.63-.047c.99-.136 1.566-1.05 1.683-2.044a37.31 37.31 0 00-.037-8.946 2.397 2.397 0 00-2.091-2.091 37.316 37.316 0 00-8.946-.037c-.994.117-1.908.692-2.044 1.684a5.263 5.263 0 00-.047.837c.02 1.167 1.085 1.827 2.252 1.845a70.17 70.17 0 003.04-.025 56.101 56.101 0 00-2.016 1.802c-1.485 1.386-3.503 3.385-5.991 6.119l-3.994-5.325a2.396 2.396 0 00-3.28-.533l-.01.007-.018.012-.063.044-.229.164c-.197.142-.482.35-.844.623a82.36 82.36 0 00-3.015 2.39 103.936 103.936 0 00-4.976 4.409c.036 2.63.108 4.78.195 6.53z" fill="url(#paint0_linear_5504_28987)"/></g><defs><filter id="filter0_iii_5504_28987" x="2.836" y="1.834" width="40.334" height="41.334" filterUnits="userSpaceOnUse" color-interpolation-filters="sRGB"><feFlood flood-opacity="0" result="BackgroundImageFix"/><feBlend in="SourceGraphic" in2="BackgroundImageFix" result="shape"/><feColorMatrix in="SourceAlpha" values="0 0 0 0 0 0 0 0 0 0 0 0 0 0 0 0 0 0 127 0" result="hardAlpha"/><feOffset dx="1" dy="1"/><feGaussianBlur stdDeviation="1"/><feComposite in2="hardAlpha" operator="arithmetic" k2="-1" k3="1"/><feColorMatrix values="0 0 0 0 0.534167 0 0 0 0 0.645967 0 0 0 0 0.749167 0 0 0 0.6 0"/><feBlend in2="shape" result="effect1_innerShadow_5504_28987"/><feColorMatrix in="SourceAlpha" values="0 0 0 0 0 0 0 0 0 0 0 0 0 0 0 0 0 0 127 0" result="hardAlpha"/><feOffset dx="-1" dy="-2"/><feGaussianBlur stdDeviation="1"/><feComposite in2="hardAlpha" operator="arithmetic" k2="-1" k3="1"/><feColorMatrix values="0 0 0 0 0.533333 0 0 0 0 0.647059 0 0 0 0 0.74902 0 0 0 0.3 0"/><feBlend in2="effect1_innerShadow_5504_28987" result="effect2_innerShadow_5504_28987"/><feColorMatrix in="SourceAlpha" values="0 0 0 0 0 0 0 0 0 0 0 0 0 0 0 0 0 0 127 0" result="hardAlpha"/><feOffset dx="-1" dy="-2"/><feGaussianBlur stdDeviation="1.5"/><feComposite in2="hardAlpha" operator="arithmetic" k2="-1" k3="1"/><feColorMatrix values="0 0 0 0 1 0 0 0 0 1 0 0 0 0 1 0 0 0 0.4 0"/><feBlend mode="screen" in2="effect2_innerShadow_5504_28987" result="effect3_innerShadow_5504_28987"/></filter><filter id="filter1_i_5504_28987" x="3.859" y="12.457" width="33.911" height="22.187" filterUnits="userSpaceOnUse" color-interpolation-filters="sRGB"><feFlood flood-opacity="0" result="BackgroundImageFix"/><feBlend in="SourceGraphic" in2="BackgroundImageFix" result="shape"/><feColorMatrix in="SourceAlpha" values="0 0 0 0 0 0 0 0 0 0 0 0 0 0 0 0 0 0 127 0" result="hardAlpha"/><feOffset dx="1.353" dy="1.353"/><feGaussianBlur stdDeviation="2.029"/><feComposite in2="hardAlpha" operator="arithmetic" k2="-1" k3="1"/><feColorMatrix values="0 0 0 0 0 0 0 0 0 0.37028 0 0 0 0 0.74056 0 0 0 0.4 0"/><feBlend mode="multiply" in2="shape" result="effect1_innerShadow_5504_28987"/></filter><linearGradient id="paint0_linear_5504_28987" x1="5.394" y1="12.457" x2="36.057" y2="31.98" gradientUnits="userSpaceOnUse"><stop stop-color="#0050EC"/><stop offset="1" stop-color="#39C7EC"/></linearGradient></defs></svg>