<svg width="46" height="46" fill="none" xmlns="http://www.w3.org/2000/svg"><g filter="url(#filter0_iii_5504_28955)"><path d="M4.373 8.326C4.543 6.68 5.62 5.377 7.24 5.033 9.794 4.489 14.609 3.836 23 3.836c8.393 0 13.207.653 15.762 1.197 1.618.344 2.697 1.647 2.867 3.293.252 2.44.538 6.92.538 14.677 0 7.756-.286 12.236-.538 14.676-.17 1.646-1.25 2.949-2.867 3.293-2.555.544-7.37 1.197-15.761 1.197-8.392 0-13.207-.653-15.761-1.197-1.619-.344-2.697-1.647-2.867-3.293-.252-2.44-.539-6.92-.539-14.676 0-7.757.287-12.237.539-14.677z" fill="#D0E2F3"/></g><g filter="url(#filter1_i_5504_28955)"><path d="M19.276 32.689c.03.564.27 1.088.786 1.317.55.245 1.47.494 2.937.494 1.467 0 2.388-.25 2.937-.494.517-.23.756-.753.787-1.317.05-.941.11-2.88.11-6.814s-.06-5.873-.11-6.814c-.03-.564-.27-1.088-.787-1.317-.55-.244-1.47-.494-2.937-.494-1.466 0-2.387.25-2.937.494-.516.23-.756.753-.786 1.317-.051.941-.11 2.88-.11 6.814s.059 5.873.11 6.814z" fill="url(#paint0_linear_5504_28955)"/></g><g filter="url(#filter2_i_5504_28955)"><path d="M28.883 32.294c.028.812.36 1.594 1.129 1.854.564.19 1.39.352 2.571.352 1.181 0 2.008-.162 2.572-.352.77-.26 1.1-1.042 1.128-1.854.054-1.602.134-4.73.134-9.294s-.08-7.692-.134-9.294c-.027-.812-.359-1.594-1.128-1.854-.564-.19-1.39-.352-2.572-.352-1.18 0-2.007.162-2.571.352-.77.26-1.101 1.042-1.129 1.854A281.42 281.42 0 0028.75 23c0 4.564.08 7.692.133 9.294z" fill="url(#paint1_linear_5504_28955)"/></g><g filter="url(#filter3_i_5504_28955)"><path d="M9.677 32.69c.038.564.287 1.087.803 1.316.55.245 1.47.494 2.937.494 1.467 0 2.388-.25 2.937-.494.517-.23.766-.752.804-1.316.046-.688.093-1.89.093-3.94s-.047-3.252-.093-3.94c-.038-.563-.288-1.087-.804-1.316-.55-.244-1.47-.494-2.937-.494-1.466 0-2.387.25-2.937.494-.516.23-.765.753-.803 1.316-.046.688-.093 1.89-.093 3.94s.047 3.252.093 3.94z" fill="url(#paint2_linear_5504_28955)"/></g><defs><filter id="filter0_iii_5504_28955" x="2.834" y="1.836" width="40.334" height="41.334" filterUnits="userSpaceOnUse" color-interpolation-filters="sRGB"><feFlood flood-opacity="0" result="BackgroundImageFix"/><feBlend in="SourceGraphic" in2="BackgroundImageFix" result="shape"/><feColorMatrix in="SourceAlpha" values="0 0 0 0 0 0 0 0 0 0 0 0 0 0 0 0 0 0 127 0" result="hardAlpha"/><feOffset dx="1" dy="1"/><feGaussianBlur stdDeviation="1"/><feComposite in2="hardAlpha" operator="arithmetic" k2="-1" k3="1"/><feColorMatrix values="0 0 0 0 0.534167 0 0 0 0 0.645967 0 0 0 0 0.749167 0 0 0 0.6 0"/><feBlend in2="shape" result="effect1_innerShadow_5504_28955"/><feColorMatrix in="SourceAlpha" values="0 0 0 0 0 0 0 0 0 0 0 0 0 0 0 0 0 0 127 0" result="hardAlpha"/><feOffset dx="-1" dy="-2"/><feGaussianBlur stdDeviation="1"/><feComposite in2="hardAlpha" operator="arithmetic" k2="-1" k3="1"/><feColorMatrix values="0 0 0 0 0.533333 0 0 0 0 0.647059 0 0 0 0 0.74902 0 0 0 0.3 0"/><feBlend in2="effect1_innerShadow_5504_28955" result="effect2_innerShadow_5504_28955"/><feColorMatrix in="SourceAlpha" values="0 0 0 0 0 0 0 0 0 0 0 0 0 0 0 0 0 0 127 0" result="hardAlpha"/><feOffset dx="-1" dy="-2"/><feGaussianBlur stdDeviation="1.5"/><feComposite in2="hardAlpha" operator="arithmetic" k2="-1" k3="1"/><feColorMatrix values="0 0 0 0 1 0 0 0 0 1 0 0 0 0 1 0 0 0 0.4 0"/><feBlend mode="screen" in2="effect2_innerShadow_5504_28955" result="effect3_innerShadow_5504_28955"/></filter><filter id="filter1_i_5504_28955" x="19.166" y="17.25" width="9.019" height="18.603" filterUnits="userSpaceOnUse" color-interpolation-filters="sRGB"><feFlood flood-opacity="0" result="BackgroundImageFix"/><feBlend in="SourceGraphic" in2="BackgroundImageFix" result="shape"/><feColorMatrix in="SourceAlpha" values="0 0 0 0 0 0 0 0 0 0 0 0 0 0 0 0 0 0 127 0" result="hardAlpha"/><feOffset dx="1.353" dy="1.353"/><feGaussianBlur stdDeviation=".676"/><feComposite in2="hardAlpha" operator="arithmetic" k2="-1" k3="1"/><feColorMatrix values="0 0 0 0 0 0 0 0 0 0.37028 0 0 0 0 0.74056 0 0 0 0.5 0"/><feBlend mode="multiply" in2="shape" result="effect1_innerShadow_5504_28955"/></filter><filter id="filter2_i_5504_28955" x="28.75" y="11.5" width="9.019" height="24.353" filterUnits="userSpaceOnUse" color-interpolation-filters="sRGB"><feFlood flood-opacity="0" result="BackgroundImageFix"/><feBlend in="SourceGraphic" in2="BackgroundImageFix" result="shape"/><feColorMatrix in="SourceAlpha" values="0 0 0 0 0 0 0 0 0 0 0 0 0 0 0 0 0 0 127 0" result="hardAlpha"/><feOffset dx="1.353" dy="1.353"/><feGaussianBlur stdDeviation=".676"/><feComposite in2="hardAlpha" operator="arithmetic" k2="-1" k3="1"/><feColorMatrix values="0 0 0 0 0 0 0 0 0 0.37028 0 0 0 0 0.74056 0 0 0 0.5 0"/><feBlend mode="multiply" in2="shape" result="effect1_innerShadow_5504_28955"/></filter><filter id="filter3_i_5504_28955" x="9.584" y="23" width="9.019" height="12.853" filterUnits="userSpaceOnUse" color-interpolation-filters="sRGB"><feFlood flood-opacity="0" result="BackgroundImageFix"/><feBlend in="SourceGraphic" in2="BackgroundImageFix" result="shape"/><feColorMatrix in="SourceAlpha" values="0 0 0 0 0 0 0 0 0 0 0 0 0 0 0 0 0 0 127 0" result="hardAlpha"/><feOffset dx="1.353" dy="1.353"/><feGaussianBlur stdDeviation=".676"/><feComposite in2="hardAlpha" operator="arithmetic" k2="-1" k3="1"/><feColorMatrix values="0 0 0 0 0 0 0 0 0 0.37028 0 0 0 0 0.74056 0 0 0 0.5 0"/><feBlend mode="multiply" in2="shape" result="effect1_innerShadow_5504_28955"/></filter><linearGradient id="paint0_linear_5504_28955" x1="19.527" y1="34.5" x2="29.352" y2="32.721" gradientUnits="userSpaceOnUse"><stop stop-color="#0050EC"/><stop offset="1" stop-color="#39C7EC"/></linearGradient><linearGradient id="paint1_linear_5504_28955" x1="29.111" y1="34.5" x2="39.075" y2="33.147" gradientUnits="userSpaceOnUse"><stop stop-color="#0050EC"/><stop offset="1" stop-color="#39C7EC"/></linearGradient><linearGradient id="paint2_linear_5504_28955" x1="9.945" y1="34.5" x2="19.395" y2="31.933" gradientUnits="userSpaceOnUse"><stop stop-color="#0050EC"/><stop offset="1" stop-color="#39C7EC"/></linearGradient></defs></svg>