<svg width="46" height="46" fill="none" xmlns="http://www.w3.org/2000/svg"><g filter="url(#filter0_iii_5504_28906)"><path d="M15.867 3.897s-2.347.897-6.659 5.21c-4.297 4.296-5.198 6.647-5.204 6.664a141.66 141.66 0 00-.17 7.232c0 8.323.578 13.128 1.065 15.698.313 1.65 1.601 2.782 3.272 2.963 2.255.243 6.235.505 12.913.505s10.658-.262 12.913-.505c1.67-.18 2.959-1.312 3.272-2.963.487-2.57 1.065-7.375 1.065-15.698 0-8.324-.578-13.129-1.065-15.699-.313-1.65-1.601-2.782-3.272-2.962-2.255-.244-6.235-.506-12.913-.506-1.964 0-3.695.023-5.217.06z" fill="#D0E2F3"/></g><g filter="url(#filter1_i_5504_28906)"><path d="M4.002 15.773c2.76.694 6.018.74 8.832-.12a3.87 3.87 0 002.52-2.468c1-2.933 1.247-6.523.512-9.287 0 0-2.347.898-6.66 5.21-4.312 4.313-5.204 6.665-5.204 6.665z" fill="url(#paint0_linear_5504_28906)"/></g><g filter="url(#filter2_i_5504_28906)"><path d="M41.375 23.533a3.833 3.833 0 000-5.42l-2.942-2.943a3.833 3.833 0 00-5.421 0L22.209 25.973a3.833 3.833 0 00-1.123 2.71v4.86c0 1.058.858 1.916 1.917 1.916h4.859a3.833 3.833 0 002.71-1.123l10.803-10.803z" fill="url(#paint1_linear_5504_28906)"/></g><defs><filter id="filter0_iii_5504_28906" x="2.834" y="1.836" width="36.5" height="41.334" filterUnits="userSpaceOnUse" color-interpolation-filters="sRGB"><feFlood flood-opacity="0" result="BackgroundImageFix"/><feBlend in="SourceGraphic" in2="BackgroundImageFix" result="shape"/><feColorMatrix in="SourceAlpha" values="0 0 0 0 0 0 0 0 0 0 0 0 0 0 0 0 0 0 127 0" result="hardAlpha"/><feOffset dx="1" dy="1"/><feGaussianBlur stdDeviation="1"/><feComposite in2="hardAlpha" operator="arithmetic" k2="-1" k3="1"/><feColorMatrix values="0 0 0 0 0.534167 0 0 0 0 0.645967 0 0 0 0 0.749167 0 0 0 0.6 0"/><feBlend in2="shape" result="effect1_innerShadow_5504_28906"/><feColorMatrix in="SourceAlpha" values="0 0 0 0 0 0 0 0 0 0 0 0 0 0 0 0 0 0 127 0" result="hardAlpha"/><feOffset dx="-1" dy="-2"/><feGaussianBlur stdDeviation="1"/><feComposite in2="hardAlpha" operator="arithmetic" k2="-1" k3="1"/><feColorMatrix values="0 0 0 0 0.533333 0 0 0 0 0.647059 0 0 0 0 0.74902 0 0 0 0.3 0"/><feBlend in2="effect1_innerShadow_5504_28906" result="effect2_innerShadow_5504_28906"/><feColorMatrix in="SourceAlpha" values="0 0 0 0 0 0 0 0 0 0 0 0 0 0 0 0 0 0 127 0" result="hardAlpha"/><feOffset dx="-1" dy="-2"/><feGaussianBlur stdDeviation="1.5"/><feComposite in2="hardAlpha" operator="arithmetic" k2="-1" k3="1"/><feColorMatrix values="0 0 0 0 1 0 0 0 0 1 0 0 0 0 1 0 0 0 0.4 0"/><feBlend mode="screen" in2="effect2_innerShadow_5504_28906" result="effect3_innerShadow_5504_28906"/></filter><filter id="filter1_i_5504_28906" x="4.002" y="3.898" width="13.642" height="13.749" filterUnits="userSpaceOnUse" color-interpolation-filters="sRGB"><feFlood flood-opacity="0" result="BackgroundImageFix"/><feBlend in="SourceGraphic" in2="BackgroundImageFix" result="shape"/><feColorMatrix in="SourceAlpha" values="0 0 0 0 0 0 0 0 0 0 0 0 0 0 0 0 0 0 127 0" result="hardAlpha"/><feOffset dx="1.353" dy="1.353"/><feGaussianBlur stdDeviation=".676"/><feComposite in2="hardAlpha" operator="arithmetic" k2="-1" k3="1"/><feColorMatrix values="0 0 0 0 0 0 0 0 0 0.37028 0 0 0 0 0.74056 0 0 0 0.5 0"/><feBlend mode="multiply" in2="shape" result="effect1_innerShadow_5504_28906"/></filter><filter id="filter2_i_5504_28906" x="21.086" y="14.047" width="22.765" height="22.765" filterUnits="userSpaceOnUse" color-interpolation-filters="sRGB"><feFlood flood-opacity="0" result="BackgroundImageFix"/><feBlend in="SourceGraphic" in2="BackgroundImageFix" result="shape"/><feColorMatrix in="SourceAlpha" values="0 0 0 0 0 0 0 0 0 0 0 0 0 0 0 0 0 0 127 0" result="hardAlpha"/><feOffset dx="1.353" dy="1.353"/><feGaussianBlur stdDeviation=".676"/><feComposite in2="hardAlpha" operator="arithmetic" k2="-1" k3="1"/><feColorMatrix values="0 0 0 0 0 0 0 0 0 0.37028 0 0 0 0 0.74056 0 0 0 0.5 0"/><feBlend mode="multiply" in2="shape" result="effect1_innerShadow_5504_28906"/></filter><linearGradient id="paint0_linear_5504_28906" x1="15.712" y1="3.898" x2="1.728" y2="9.546" gradientUnits="userSpaceOnUse"><stop stop-color="#0050EC"/><stop offset="1" stop-color="#39C7EC"/></linearGradient><linearGradient id="paint1_linear_5504_28906" x1="22.095" y1="14.047" x2="46.401" y2="23.949" gradientUnits="userSpaceOnUse"><stop stop-color="#0050EC"/><stop offset="1" stop-color="#39C7EC"/></linearGradient></defs></svg>