<svg width="46" height="46" fill="none" xmlns="http://www.w3.org/2000/svg"><g filter="url(#filter0_iii_5504_28990)"><path d="M4.375 37.678c.17 1.646 1.248 2.949 2.867 3.293 2.554.544 7.369 1.197 15.76 1.197 8.393 0 13.207-.653 15.762-1.197 1.618-.344 2.697-1.647 2.867-3.293.252-2.44.538-6.92.538-14.677 0-7.756-.286-12.237-.538-14.677-.17-1.645-1.25-2.948-2.867-3.292-2.555-.544-7.37-1.197-15.761-1.197-8.392 0-13.207.653-15.761 1.197-1.619.344-2.698 1.647-2.867 3.292-.252 2.44-.54 6.92-.54 14.677s.288 12.237.54 14.677z" fill="#D0E2F3"/></g><g filter="url(#filter1_i_5504_28990)"><path d="M23.099 11.85c.723-2.265 3.84-2.48 4.934-.48l.139.287 4.635 11.338h3.529c.68 0 1.334.255 1.828.712a2.572 2.572 0 01.214 3.572 2.685 2.685 0 01-1.73.917l-.312.018H31.02a2.74 2.74 0 01-1.373-.367 2.664 2.664 0 01-.99-1l-.139-.287-2.541-6.221-4.412 13.812c-.69 2.16-3.614 2.487-4.82.665l-.16-.274-3.238-6.328H9.665a2.7 2.7 0 01-1.828-.712 2.586 2.586 0 01-.831-1.744 2.57 2.57 0 01.617-1.828 2.685 2.685 0 011.73-.917l.312-.018h5.319c.906 0 1.744.444 2.24 1.172l.168.287 1.035 2.025 4.673-14.63z" fill="#121212"/><path d="M23.099 11.85c.723-2.265 3.84-2.48 4.934-.48l.139.287 4.635 11.338h3.529c.68 0 1.334.255 1.828.712a2.572 2.572 0 01.214 3.572 2.685 2.685 0 01-1.73.917l-.312.018H31.02a2.74 2.74 0 01-1.373-.367 2.664 2.664 0 01-.99-1l-.139-.287-2.541-6.221-4.412 13.812c-.69 2.16-3.614 2.487-4.82.665l-.16-.274-3.238-6.328H9.665a2.7 2.7 0 01-1.828-.712 2.586 2.586 0 01-.831-1.744 2.57 2.57 0 01.617-1.828 2.685 2.685 0 011.73-.917l.312-.018h5.319c.906 0 1.744.444 2.24 1.172l.168.287 1.035 2.025 4.673-14.63z" fill="url(#paint0_linear_5504_28990)"/></g><defs><filter id="filter0_iii_5504_28990" x="2.836" y="1.834" width="40.334" height="41.334" filterUnits="userSpaceOnUse" color-interpolation-filters="sRGB"><feFlood flood-opacity="0" result="BackgroundImageFix"/><feBlend in="SourceGraphic" in2="BackgroundImageFix" result="shape"/><feColorMatrix in="SourceAlpha" values="0 0 0 0 0 0 0 0 0 0 0 0 0 0 0 0 0 0 127 0" result="hardAlpha"/><feOffset dx="1" dy="1"/><feGaussianBlur stdDeviation="1"/><feComposite in2="hardAlpha" operator="arithmetic" k2="-1" k3="1"/><feColorMatrix values="0 0 0 0 0.534167 0 0 0 0 0.645967 0 0 0 0 0.749167 0 0 0 0.6 0"/><feBlend in2="shape" result="effect1_innerShadow_5504_28990"/><feColorMatrix in="SourceAlpha" values="0 0 0 0 0 0 0 0 0 0 0 0 0 0 0 0 0 0 127 0" result="hardAlpha"/><feOffset dx="-1" dy="-2"/><feGaussianBlur stdDeviation="1"/><feComposite in2="hardAlpha" operator="arithmetic" k2="-1" k3="1"/><feColorMatrix values="0 0 0 0 0.533333 0 0 0 0 0.647059 0 0 0 0 0.74902 0 0 0 0.3 0"/><feBlend in2="effect1_innerShadow_5504_28990" result="effect2_innerShadow_5504_28990"/><feColorMatrix in="SourceAlpha" values="0 0 0 0 0 0 0 0 0 0 0 0 0 0 0 0 0 0 127 0" result="hardAlpha"/><feOffset dx="-1" dy="-2"/><feGaussianBlur stdDeviation="1.5"/><feComposite in2="hardAlpha" operator="arithmetic" k2="-1" k3="1"/><feColorMatrix values="0 0 0 0 1 0 0 0 0 1 0 0 0 0 1 0 0 0 0.4 0"/><feBlend mode="screen" in2="effect2_innerShadow_5504_28990" result="effect3_innerShadow_5504_28990"/></filter><filter id="filter1_i_5504_28990" x="7" y="10" width="33.353" height="27.353" filterUnits="userSpaceOnUse" color-interpolation-filters="sRGB"><feFlood flood-opacity="0" result="BackgroundImageFix"/><feBlend in="SourceGraphic" in2="BackgroundImageFix" result="shape"/><feColorMatrix in="SourceAlpha" values="0 0 0 0 0 0 0 0 0 0 0 0 0 0 0 0 0 0 127 0" result="hardAlpha"/><feOffset dx="1.353" dy="1.353"/><feGaussianBlur stdDeviation="2.029"/><feComposite in2="hardAlpha" operator="arithmetic" k2="-1" k3="1"/><feColorMatrix values="0 0 0 0 0 0 0 0 0 0.37028 0 0 0 0 0.74056 0 0 0 0.4 0"/><feBlend mode="multiply" in2="shape" result="effect1_innerShadow_5504_28990"/></filter><linearGradient id="paint0_linear_5504_28990" x1="8.508" y1="10" x2="42.353" y2="26.97" gradientUnits="userSpaceOnUse"><stop stop-color="#0050EC"/><stop offset="1" stop-color="#39C7EC"/></linearGradient></defs></svg>