<svg width="46" height="46" fill="none" xmlns="http://www.w3.org/2000/svg"><g filter="url(#filter0_iii_5504_29065)"><path d="M4.375 37.678c.17 1.646 1.248 2.949 2.867 3.293 2.554.544 7.369 1.197 15.76 1.197 8.393 0 13.207-.653 15.762-1.197 1.618-.344 2.697-1.647 2.867-3.293.252-2.44.538-6.92.538-14.677 0-7.756-.286-12.237-.538-14.677-.17-1.645-1.25-2.948-2.867-3.292-2.555-.544-7.37-1.197-15.761-1.197-8.392 0-13.207.653-15.761 1.197-1.619.344-2.698 1.647-2.867 3.292-.252 2.44-.54 6.92-.54 14.677s.288 12.237.54 14.677z" fill="#D0E2F3"/></g><g filter="url(#filter1_i_5504_29065)"><path fill-rule="evenodd" clip-rule="evenodd" d="M15.461 21.923a6.462 6.462 0 110-12.923 6.462 6.462 0 010 12.923zm3.231-6.461a3.23 3.23 0 11-6.46 0 3.23 3.23 0 016.46 0zM30.538 37a6.462 6.462 0 110-12.923 6.462 6.462 0 010 12.923zm3.231-6.462a3.231 3.231 0 11-6.462 0 3.231 3.231 0 016.462 0zm1.68-17.704a1.615 1.615 0 00-2.283-2.283L10.551 33.166a1.615 1.615 0 102.283 2.283l22.615-22.615z" fill="url(#paint0_linear_5504_29065)"/></g><defs><filter id="filter0_iii_5504_29065" x="2.836" y="1.834" width="40.334" height="41.334" filterUnits="userSpaceOnUse" color-interpolation-filters="sRGB"><feFlood flood-opacity="0" result="BackgroundImageFix"/><feBlend in="SourceGraphic" in2="BackgroundImageFix" result="shape"/><feColorMatrix in="SourceAlpha" values="0 0 0 0 0 0 0 0 0 0 0 0 0 0 0 0 0 0 127 0" result="hardAlpha"/><feOffset dx="1" dy="1"/><feGaussianBlur stdDeviation="1"/><feComposite in2="hardAlpha" operator="arithmetic" k2="-1" k3="1"/><feColorMatrix values="0 0 0 0 0.534167 0 0 0 0 0.645967 0 0 0 0 0.749167 0 0 0 0.6 0"/><feBlend in2="shape" result="effect1_innerShadow_5504_29065"/><feColorMatrix in="SourceAlpha" values="0 0 0 0 0 0 0 0 0 0 0 0 0 0 0 0 0 0 127 0" result="hardAlpha"/><feOffset dx="-1" dy="-2"/><feGaussianBlur stdDeviation="1"/><feComposite in2="hardAlpha" operator="arithmetic" k2="-1" k3="1"/><feColorMatrix values="0 0 0 0 0.533333 0 0 0 0 0.647059 0 0 0 0 0.74902 0 0 0 0.3 0"/><feBlend in2="effect1_innerShadow_5504_29065" result="effect2_innerShadow_5504_29065"/><feColorMatrix in="SourceAlpha" values="0 0 0 0 0 0 0 0 0 0 0 0 0 0 0 0 0 0 127 0" result="hardAlpha"/><feOffset dx="-1" dy="-2"/><feGaussianBlur stdDeviation="1.5"/><feComposite in2="hardAlpha" operator="arithmetic" k2="-1" k3="1"/><feColorMatrix values="0 0 0 0 1 0 0 0 0 1 0 0 0 0 1 0 0 0 0.4 0"/><feBlend mode="screen" in2="effect2_innerShadow_5504_29065" result="effect3_innerShadow_5504_29065"/></filter><filter id="filter1_i_5504_29065" x="9" y="9" width="29.353" height="29.353" filterUnits="userSpaceOnUse" color-interpolation-filters="sRGB"><feFlood flood-opacity="0" result="BackgroundImageFix"/><feBlend in="SourceGraphic" in2="BackgroundImageFix" result="shape"/><feColorMatrix in="SourceAlpha" values="0 0 0 0 0 0 0 0 0 0 0 0 0 0 0 0 0 0 127 0" result="hardAlpha"/><feOffset dx="1.353" dy="1.353"/><feGaussianBlur stdDeviation=".676"/><feComposite in2="hardAlpha" operator="arithmetic" k2="-1" k3="1"/><feColorMatrix values="0 0 0 0 0 0 0 0 0 0.37028 0 0 0 0 0.74056 0 0 0 0.5 0"/><feBlend mode="multiply" in2="shape" result="effect1_innerShadow_5504_29065"/></filter><linearGradient id="paint0_linear_5504_29065" x1="10.32" y1="9" x2="42.104" y2="21.949" gradientUnits="userSpaceOnUse"><stop stop-color="#39C7EC"/><stop offset="0" stop-color="#39C7EC"/><stop offset="1" stop-color="#0050EC"/></linearGradient></defs></svg>