<svg width="46" height="46" fill="none" xmlns="http://www.w3.org/2000/svg"><g filter="url(#filter0_iii_5504_28838)"><path d="M11.277 29.478c.052-.482.464-.726.954-.726h8.742c.323 4.188.59 7.465.59 7.465h2.877s.262-3.277.58-7.465h8.755c.49 0 .9.244.953.726l1.22 6.94 3.346-.404-.752-6.94c-.26-2.41-2.317-4.115-4.767-4.115h-8.469c.205-2.718.408-5.568.562-7.707h-5.753c.154 2.139.36 4.99.567 7.707H12.23c-2.45 0-4.507 1.706-4.768 4.115l-.752 6.94 3.345.405 1.221-6.941z" fill="#D0E2F3"/></g><g filter="url(#filter1_i_5504_28838)"><path d="M14.504 16.68c.1 1.65 1.175 2.93 2.815 3.144 1.267.165 3.097.303 5.681.303s4.414-.138 5.68-.303c1.641-.214 2.716-1.493 2.816-3.145.072-1.18.129-2.852.129-5.177 0-2.325-.057-3.997-.129-5.178-.1-1.651-1.175-2.93-2.815-3.144-1.267-.165-3.097-.303-5.681-.303s-4.414.138-5.68.303c-1.641.214-2.716 1.493-2.816 3.144-.072 1.181-.129 2.853-.129 5.178 0 2.325.057 3.996.129 5.178z" fill="url(#paint0_linear_5504_28838)"/></g><g filter="url(#filter2_i_5504_28838)"><path d="M32.608 40.057c.047 1.653 1.115 2.904 2.766 3.01.553.037 1.215.06 2.004.06.788 0 1.45-.023 2.003-.06 1.651-.106 2.72-1.357 2.766-3.01a61.66 61.66 0 00.022-1.722c0-.666-.008-1.236-.022-1.721-.046-1.654-1.115-2.904-2.766-3.011a30.979 30.979 0 00-2.003-.06c-.789 0-1.45.024-2.004.06-1.65.107-2.72 1.357-2.766 3.011a61.236 61.236 0 00-.022 1.721c0 .667.008 1.236.022 1.722z" fill="url(#paint1_linear_5504_28838)"/></g><g filter="url(#filter3_i_5504_28838)"><path d="M18.233 40.057c.047 1.653 1.115 2.904 2.766 3.01.553.037 1.215.06 2.004.06.788 0 1.45-.023 2.003-.06 1.651-.106 2.72-1.357 2.766-3.01a61.66 61.66 0 00.022-1.722c0-.666-.008-1.236-.022-1.721-.046-1.654-1.115-2.904-2.766-3.011a30.979 30.979 0 00-2.003-.06c-.789 0-1.45.024-2.004.06-1.65.107-2.72 1.357-2.766 3.011a61.236 61.236 0 00-.022 1.721c0 .667.008 1.236.022 1.722z" fill="url(#paint2_linear_5504_28838)"/></g><g filter="url(#filter4_i_5504_28838)"><path d="M3.858 40.057c.047 1.653 1.115 2.904 2.766 3.01.553.037 1.215.06 2.004.06.788 0 1.45-.023 2.003-.06 1.651-.106 2.72-1.357 2.766-3.01a61.66 61.66 0 00.022-1.722c0-.666-.008-1.236-.022-1.721-.046-1.654-1.115-2.904-2.766-3.011a30.979 30.979 0 00-2.003-.06c-.789 0-1.45.024-2.004.06-1.65.107-2.72 1.357-2.766 3.011a61.42 61.42 0 00-.022 1.721c0 .667.008 1.236.022 1.722z" fill="url(#paint3_linear_5504_28838)"/></g><defs><filter id="filter0_iii_5504_28838" x="5.711" y="15.252" width="34.584" height="22.166" filterUnits="userSpaceOnUse" color-interpolation-filters="sRGB"><feFlood flood-opacity="0" result="BackgroundImageFix"/><feBlend in="SourceGraphic" in2="BackgroundImageFix" result="shape"/><feColorMatrix in="SourceAlpha" values="0 0 0 0 0 0 0 0 0 0 0 0 0 0 0 0 0 0 127 0" result="hardAlpha"/><feOffset dx="1" dy="1"/><feGaussianBlur stdDeviation="1"/><feComposite in2="hardAlpha" operator="arithmetic" k2="-1" k3="1"/><feColorMatrix values="0 0 0 0 0.534167 0 0 0 0 0.645967 0 0 0 0 0.749167 0 0 0 0.6 0"/><feBlend in2="shape" result="effect1_innerShadow_5504_28838"/><feColorMatrix in="SourceAlpha" values="0 0 0 0 0 0 0 0 0 0 0 0 0 0 0 0 0 0 127 0" result="hardAlpha"/><feOffset dx="-1" dy="-2"/><feGaussianBlur stdDeviation="1"/><feComposite in2="hardAlpha" operator="arithmetic" k2="-1" k3="1"/><feColorMatrix values="0 0 0 0 0.533333 0 0 0 0 0.647059 0 0 0 0 0.74902 0 0 0 0.3 0"/><feBlend in2="effect1_innerShadow_5504_28838" result="effect2_innerShadow_5504_28838"/><feColorMatrix in="SourceAlpha" values="0 0 0 0 0 0 0 0 0 0 0 0 0 0 0 0 0 0 127 0" result="hardAlpha"/><feOffset dx="-1" dy="-2"/><feGaussianBlur stdDeviation="1.5"/><feComposite in2="hardAlpha" operator="arithmetic" k2="-1" k3="1"/><feColorMatrix values="0 0 0 0 1 0 0 0 0 1 0 0 0 0 1 0 0 0 0.4 0"/><feBlend mode="screen" in2="effect2_innerShadow_5504_28838" result="effect3_innerShadow_5504_28838"/></filter><filter id="filter1_i_5504_28838" x="14.375" y="2.877" width="18.603" height="18.603" filterUnits="userSpaceOnUse" color-interpolation-filters="sRGB"><feFlood flood-opacity="0" result="BackgroundImageFix"/><feBlend in="SourceGraphic" in2="BackgroundImageFix" result="shape"/><feColorMatrix in="SourceAlpha" values="0 0 0 0 0 0 0 0 0 0 0 0 0 0 0 0 0 0 127 0" result="hardAlpha"/><feOffset dx="1.353" dy="1.353"/><feGaussianBlur stdDeviation="2.029"/><feComposite in2="hardAlpha" operator="arithmetic" k2="-1" k3="1"/><feColorMatrix values="0 0 0 0 0 0 0 0 0 0.37028 0 0 0 0 0.74056 0 0 0 0.4 0"/><feBlend mode="multiply" in2="shape" result="effect1_innerShadow_5504_28838"/></filter><filter id="filter2_i_5504_28838" x="32.586" y="33.543" width="10.937" height="10.937" filterUnits="userSpaceOnUse" color-interpolation-filters="sRGB"><feFlood flood-opacity="0" result="BackgroundImageFix"/><feBlend in="SourceGraphic" in2="BackgroundImageFix" result="shape"/><feColorMatrix in="SourceAlpha" values="0 0 0 0 0 0 0 0 0 0 0 0 0 0 0 0 0 0 127 0" result="hardAlpha"/><feOffset dx="1.353" dy="1.353"/><feGaussianBlur stdDeviation="2.029"/><feComposite in2="hardAlpha" operator="arithmetic" k2="-1" k3="1"/><feColorMatrix values="0 0 0 0 0 0 0 0 0 0.37028 0 0 0 0 0.74056 0 0 0 0.4 0"/><feBlend mode="multiply" in2="shape" result="effect1_innerShadow_5504_28838"/></filter><filter id="filter3_i_5504_28838" x="18.211" y="33.543" width="10.937" height="10.937" filterUnits="userSpaceOnUse" color-interpolation-filters="sRGB"><feFlood flood-opacity="0" result="BackgroundImageFix"/><feBlend in="SourceGraphic" in2="BackgroundImageFix" result="shape"/><feColorMatrix in="SourceAlpha" values="0 0 0 0 0 0 0 0 0 0 0 0 0 0 0 0 0 0 127 0" result="hardAlpha"/><feOffset dx="1.353" dy="1.353"/><feGaussianBlur stdDeviation="2.029"/><feComposite in2="hardAlpha" operator="arithmetic" k2="-1" k3="1"/><feColorMatrix values="0 0 0 0 0 0 0 0 0 0.37028 0 0 0 0 0.74056 0 0 0 0.4 0"/><feBlend mode="multiply" in2="shape" result="effect1_innerShadow_5504_28838"/></filter><filter id="filter4_i_5504_28838" x="3.836" y="33.543" width="10.937" height="10.937" filterUnits="userSpaceOnUse" color-interpolation-filters="sRGB"><feFlood flood-opacity="0" result="BackgroundImageFix"/><feBlend in="SourceGraphic" in2="BackgroundImageFix" result="shape"/><feColorMatrix in="SourceAlpha" values="0 0 0 0 0 0 0 0 0 0 0 0 0 0 0 0 0 0 127 0" result="hardAlpha"/><feOffset dx="1.353" dy="1.353"/><feGaussianBlur stdDeviation="2.029"/><feComposite in2="hardAlpha" operator="arithmetic" k2="-1" k3="1"/><feColorMatrix values="0 0 0 0 0 0 0 0 0 0.37028 0 0 0 0 0.74056 0 0 0 0.4 0"/><feBlend mode="multiply" in2="shape" result="effect1_innerShadow_5504_28838"/></filter><linearGradient id="paint0_linear_5504_28838" x1="15.188" y1="20.127" x2="34.769" y2="12.149" gradientUnits="userSpaceOnUse"><stop stop-color="#0050EC"/><stop offset="1" stop-color="#39C7EC"/></linearGradient><linearGradient id="paint1_linear_5504_28838" x1="33.038" y1="43.127" x2="43.916" y2="38.695" gradientUnits="userSpaceOnUse"><stop stop-color="#0050EC"/><stop offset="1" stop-color="#39C7EC"/></linearGradient><linearGradient id="paint2_linear_5504_28838" x1="18.663" y1="43.127" x2="29.541" y2="38.695" gradientUnits="userSpaceOnUse"><stop stop-color="#0050EC"/><stop offset="1" stop-color="#39C7EC"/></linearGradient><linearGradient id="paint3_linear_5504_28838" x1="4.288" y1="43.127" x2="15.166" y2="38.695" gradientUnits="userSpaceOnUse"><stop stop-color="#0050EC"/><stop offset="1" stop-color="#39C7EC"/></linearGradient></defs></svg>