<svg width="365" height="164" fill="none" xmlns="http://www.w3.org/2000/svg"><mask id="a" style="mask-type:luminance" maskUnits="userSpaceOnUse" x="54" y="58" width="257" height="49"><path d="M54 58h256.529v49H54V58z" fill="#fff"/></mask><g mask="url(#a)" fill="#9EAABC"><path d="M109.606 67.411H96.41l-3.303 6.609h12.28v3.758h-9.375a4.708 4.708 0 00-3.31 1.396 4.762 4.762 0 00-1.377 3.335v10.28a4.561 4.561 0 001.384 3.322 4.48 4.48 0 003.303 1.409h13.594a4.743 4.743 0 003.312-1.401 4.808 4.808 0 001.394-3.33V72.14a4.8 4.8 0 00-1.394-3.33 4.74 4.74 0 00-3.312-1.4zm-4.22 23.638h-5.188v-6.661h5.188v6.661zm41.838-23.638a4.455 4.455 0 00-3.286 1.409 4.5 4.5 0 00-1.401 3.323v25.446h8.943V74.022h4.306l3.269-6.61h-11.832.001zm29.818-.002h-13.594a4.457 4.457 0 00-3.305 1.41 4.512 4.512 0 00-1.401 3.322V92.79a4.842 4.842 0 001.403 3.321 4.778 4.778 0 003.303 1.409h13.594a4.742 4.742 0 003.3-1.406 4.792 4.792 0 001.387-3.323V72.14a4.508 4.508 0 00-1.384-3.323 4.466 4.466 0 00-3.303-1.407zm-4.238 23.64h-5.188V74.021h5.188V91.05zM193.3 58h-8.891v6.575h8.891V58zm0 9.411h-8.891v30.161h8.891v-30.16zm86.116 0h-13.595a4.74 4.74 0 00-3.312 1.4 4.799 4.799 0 00-1.393 3.33V92.79a4.794 4.794 0 001.393 3.33 4.74 4.74 0 003.312 1.402h13.213l3.269-6.472h-12.28v-3.826l.294-.104h9.08a4.487 4.487 0 003.305-1.392 4.511 4.511 0 001.33-3.375V72.141a4.475 4.475 0 00-1.382-3.323 4.487 4.487 0 00-3.234-1.407zm-4.239 6.609v6.592h-5.188v-6.696h5.188v.104zm-21.983-6.61H239.6a4.746 4.746 0 00-3.312 1.4 4.798 4.798 0 00-1.392 3.331c0-1.286-.121 1.879-.121 1.879v32.893h8.907v-9.324h9.391a4.699 4.699 0 003.323-1.427 4.78 4.78 0 001.348-3.374V72.142a4.4 4.4 0 00-1.247-3.323 4.467 4.467 0 00-3.303-1.409zm-4.357 23.639h-5.19V74.021h5.19V91.05zm61.694-23.621h-9.323l-3.563 6.87-3.598-6.87h-9.339l8.232 15.081-8.232 15.063h9.339l3.598-6.87 3.563 6.87h9.323L302.28 82.51l8.251-15.081zm-83.16-.017h-25.648a4.477 4.477 0 00-3.304 1.409 4.542 4.542 0 00-1.383 3.323c0-1.288-.123 1.877-.123 1.877v23.57h8.908V74.02h4.238v23.57h8.891V74.02h4.237v23.57h8.959V72.142a4.576 4.576 0 00-1.384-3.321 4.462 4.462 0 00-3.391-1.409zm-87.532 4.661a4.69 4.69 0 00-1.271-3.203 4.64 4.64 0 00-3.105-1.458h-13.837a4.743 4.743 0 00-3.312 1.4 4.798 4.798 0 00-1.393 3.33V92.79a4.803 4.803 0 001.393 3.33 4.745 4.745 0 003.312 1.402h9.356v2.835h-8.924l-3.303 6.574h16.535a4.495 4.495 0 003.304-1.373 4.483 4.483 0 001.383-3.323V73.953s-.138-3.167-.138-1.88zm-8.805 18.977h-5.187V74.021h5.189l-.002 17.028zM86.102 67.323s-21.376-1.53-26.636 4.089c-5.257 5.615-5.603 14.695-5.465 21.374 0 0 11.034-12.453 19.683-16.21 0 0-12.903 11.601-18.161 20.141l2.819.574c2.355.484 4.757.7 7.16.644 5.811-.174 12.731-1.27 16.5-6.21 4.256-5.547 3.98-12.907 3.998-19.534.033-.435.102-4.87.102-4.87v.002z"/></g></svg>