<svg width="365" height="164" fill="none" xmlns="http://www.w3.org/2000/svg"><path d="M91.6 99L79.85 67.7h-.2a38.8 38.8 0 01.15 2.55 91.36 91.36 0 01.15 3.4c.033 1.2.05 2.433.05 3.7V99h-4.15V63.3h6.65l11 29.25h.2l11.2-29.25h6.6V99h-4.45V77.05c0-1.167.017-2.317.05-3.45a84.6 84.6 0 01.15-3.25c.067-1.033.117-1.9.15-2.6h-.2L95.3 99h-3.7zm60.761-17.9c0 2.767-.35 5.283-1.05 7.55-.7 2.233-1.75 4.167-3.15 5.8-1.366 1.633-3.083 2.883-5.15 3.75-2.033.867-4.4 1.3-7.1 1.3-2.8 0-5.233-.433-7.3-1.3-2.066-.9-3.783-2.15-5.15-3.75-1.366-1.633-2.383-3.583-3.05-5.85-.666-2.267-1-4.783-1-7.55 0-3.667.6-6.867 1.8-9.6 1.2-2.733 3.017-4.867 5.45-6.4 2.467-1.533 5.567-2.3 9.3-2.3 3.567 0 6.567.767 9 2.3 2.434 1.5 4.267 3.633 5.5 6.4 1.267 2.733 1.9 5.95 1.9 9.65zm-28.2 0c0 3 .417 5.583 1.25 7.75.834 2.167 2.117 3.833 3.85 5 1.767 1.167 3.984 1.75 6.65 1.75 2.7 0 4.9-.583 6.6-1.75 1.734-1.167 3.017-2.833 3.85-5 .834-2.167 1.25-4.75 1.25-7.75 0-4.5-.933-8.017-2.8-10.55-1.866-2.567-4.816-3.85-8.85-3.85-2.7 0-4.933.583-6.7 1.75-1.733 1.133-3.016 2.783-3.85 4.95-.833 2.133-1.25 4.7-1.25 7.7zm59.186-17.8V95h4.55v13.4h-4.3V99h-24.55v9.4h-4.3V95h2.75c1.2-2.067 2.334-4.383 3.4-6.95a73.944 73.944 0 002.9-8.05 87.144 87.144 0 002.05-8.5 60.886 60.886 0 001-8.2h16.5zm-12.55 4.05c-.133 1.933-.466 4.117-1 6.55a77.974 77.974 0 01-1.95 7.5 82.72 82.72 0 01-2.6 7.35c-.933 2.367-1.933 4.45-3 6.25h16.65V67.35h-8.1zm38.021 21.5c-1.067 2.367-2.15 4.35-3.25 5.95-1.067 1.567-2.334 2.75-3.8 3.55-1.467.767-3.334 1.15-5.6 1.15-.934 0-1.817-.067-2.65-.2-.8-.133-1.534-.317-2.2-.55V94.3c.666.3 1.383.55 2.15.75.766.167 1.566.25 2.4.25 1.233 0 2.283-.167 3.15-.5.9-.367 1.683-.95 2.35-1.75.7-.8 1.35-1.867 1.95-3.2l-13.75-26.55h4.95l9.95 19.65c.133.233.266.517.4.85.133.3.266.617.4.95.166.333.3.65.4.95h.2c.1-.233.2-.5.3-.8.133-.333.25-.65.35-.95.133-.333.25-.617.35-.85l8.6-19.8h4.75l-11.4 25.55zM248.279 99h-4.5V67.25h-11.3c-.234 1.833-.484 3.767-.75 5.8-.267 2-.55 3.983-.85 5.95a324.086 324.086 0 01-.8 5.55 95.627 95.627 0 01-.8 4.55c-.434 2.233-.967 4.133-1.6 5.7-.634 1.567-1.484 2.75-2.55 3.55-1.034.8-2.4 1.2-4.1 1.2-.567 0-1.15-.067-1.75-.2a8.111 8.111 0 01-1.5-.4V95.2a8.88 8.88 0 001.25.45c.466.1.966.15 1.5.15 1 0 1.783-.4 2.35-1.2.6-.833 1.066-1.85 1.4-3.05.333-1.233.616-2.45.85-3.65.2-.967.433-2.25.7-3.85.266-1.633.55-3.533.85-5.7.333-2.167.666-4.517 1-7.05a375.63 375.63 0 001.05-8h19.55V99zm9.7 0V63.3h4.5v15.1h6.7c3.333 0 5.983.45 7.95 1.35 1.967.9 3.383 2.117 4.25 3.65s1.3 3.25 1.3 5.15c0 2.1-.483 3.933-1.45 5.5-.933 1.567-2.35 2.783-4.25 3.65s-4.317 1.3-7.25 1.3h-11.75zm11.3-3.85c2.9 0 5.083-.533 6.55-1.6 1.467-1.1 2.2-2.767 2.2-5 0-1.533-.367-2.75-1.1-3.65-.7-.933-1.75-1.6-3.15-2-1.367-.4-3.083-.6-5.15-.6h-6.15v12.85h6.8z" fill="#9EAABC"/></svg>