<svg width="90" height="24" fill="none" xmlns="http://www.w3.org/2000/svg"><path fill-rule="evenodd" clip-rule="evenodd" d="M0 0v22.4L22.4 0H0z" fill="#92CFAE"/><path fill-rule="evenodd" clip-rule="evenodd" d="M1.602 24h22.4V1.6L1.602 24z" fill="#2A8288"/><path fill-rule="evenodd" clip-rule="evenodd" d="M36.581 11.48c2.605 0 3.99-1.276 3.99-3.659v-.134c0-2.551-1.451-3.558-3.99-3.558h-2.703v7.35h2.703zM28.571 0h8.142c5.736 0 9 2.584 9 7.653v.134c0 5.069-3.461 7.486-8.835 7.486h-3V24H28.57V0zM56.28 19.871c2.556 0 3.85-1.141 3.85-3.323v-.134c0-2.148-1.294-3.323-3.979-3.323h-2.976v6.78h3.105zM56.474 24H48V0h15.073v4.23h-9.865l-.033 5.034h3.461c5.337 0 8.507 2.384 8.507 7.183v.135C65.143 21.28 62.2 24 56.474 24zM69 .034h5.573v10.324L83.173 0h5.917l-9.736 11.363L89.572 24H83.07l-8.497-10.76V24H69V.034z" fill="#000"/></svg>