<svg width="46" height="46" viewBox="0 0 46 46" fill="none" xmlns="http://www.w3.org/2000/svg">
<g filter="url(#filter0_iiiiii_5504_28897)">
<path d="M22.5 5C29.7186 5 33.8134 9.92769 34.4079 15.8804H34.5873C39.5804 15.8804 43.3373 20.4031 42.9718 25.2591C41 37 29 41 16.7907 33.1875H10.4101C5.76431 33.1875 2 29.313 2 24.5339C2 19.7549 5.76687 15.8804 10.4101 15.8804H10.5921C11.1917 9.88925 15.2814 5 22.5 5Z" fill="#121212"/>
<path d="M22.5 5C29.7186 5 33.8134 9.92769 34.4079 15.8804H34.5873C39.5804 15.8804 43.3373 20.4031 42.9718 25.2591C41 37 29 41 16.7907 33.1875H10.4101C5.76431 33.1875 2 29.313 2 24.5339C2 19.7549 5.76687 15.8804 10.4101 15.8804H10.5921C11.1917 9.88925 15.2814 5 22.5 5Z" fill="#D0E2F3"/>
</g>
<g filter="url(#filter1_i_5504_28897)">
<path d="M28.5312 19C31.5895 19 34.5225 20.2149 36.6851 22.3774C38.8476 24.54 40.0625 27.473 40.0625 30.5312C40.0625 33.5895 38.8476 36.5225 36.6851 38.6851C34.5225 40.8476 31.5895 42.0625 28.5312 42.0625C25.473 42.0625 22.54 40.8476 20.3774 38.6851C18.2149 36.5225 17 33.5895 17 30.5312C17 27.473 18.2149 24.54 20.3774 22.3774C22.54 20.2149 25.473 19 28.5312 19ZM32.6364 31.5511C32.9069 31.8216 33.2737 31.9736 33.6562 31.9736C34.0388 31.9736 34.4056 31.8216 34.6761 31.5511C34.9466 31.2806 35.0986 30.9138 35.0986 30.5312C35.0986 30.1487 34.9466 29.7819 34.6761 29.5114L29.5511 24.3864C29.4173 24.2522 29.2584 24.1457 29.0834 24.0731C28.9084 24.0004 28.7207 23.963 28.5312 23.963C28.3418 23.963 28.1541 24.0004 27.9791 24.0731C27.8041 24.1457 27.6452 24.2522 27.5114 24.3864L22.3864 29.5114C22.2524 29.6453 22.1462 29.8043 22.0737 29.9793C22.0012 30.1543 21.9639 30.3418 21.9639 30.5312C21.9639 30.7207 22.0012 30.9082 22.0737 31.0832C22.1462 31.2582 22.2524 31.4172 22.3864 31.5511C22.5203 31.6851 22.6793 31.7913 22.8543 31.8638C23.0293 31.9363 23.2168 31.9736 23.4062 31.9736C23.5957 31.9736 23.7832 31.9363 23.9582 31.8638C24.1332 31.7913 24.2922 31.6851 24.4261 31.5511L27.25 28.7272V35.6562C27.25 35.9961 27.385 36.322 27.6253 36.5622C27.8656 36.8025 28.1914 36.9375 28.5312 36.9375C28.8711 36.9375 29.1969 36.8025 29.4372 36.5622C29.6775 36.322 29.8125 35.9961 29.8125 35.6562V28.7272L32.6364 31.5511Z" fill="#121212"/>
<path d="M28.5312 19C31.5895 19 34.5225 20.2149 36.6851 22.3774C38.8476 24.54 40.0625 27.473 40.0625 30.5312C40.0625 33.5895 38.8476 36.5225 36.6851 38.6851C34.5225 40.8476 31.5895 42.0625 28.5312 42.0625C25.473 42.0625 22.54 40.8476 20.3774 38.6851C18.2149 36.5225 17 33.5895 17 30.5312C17 27.473 18.2149 24.54 20.3774 22.3774C22.54 20.2149 25.473 19 28.5312 19ZM32.6364 31.5511C32.9069 31.8216 33.2737 31.9736 33.6562 31.9736C34.0388 31.9736 34.4056 31.8216 34.6761 31.5511C34.9466 31.2806 35.0986 30.9138 35.0986 30.5312C35.0986 30.1487 34.9466 29.7819 34.6761 29.5114L29.5511 24.3864C29.4173 24.2522 29.2584 24.1457 29.0834 24.0731C28.9084 24.0004 28.7207 23.963 28.5312 23.963C28.3418 23.963 28.1541 24.0004 27.9791 24.0731C27.8041 24.1457 27.6452 24.2522 27.5114 24.3864L22.3864 29.5114C22.2524 29.6453 22.1462 29.8043 22.0737 29.9793C22.0012 30.1543 21.9639 30.3418 21.9639 30.5312C21.9639 30.7207 22.0012 30.9082 22.0737 31.0832C22.1462 31.2582 22.2524 31.4172 22.3864 31.5511C22.5203 31.6851 22.6793 31.7913 22.8543 31.8638C23.0293 31.9363 23.2168 31.9736 23.4062 31.9736C23.5957 31.9736 23.7832 31.9363 23.9582 31.8638C24.1332 31.7913 24.2922 31.6851 24.4261 31.5511L27.25 28.7272V35.6562C27.25 35.9961 27.385 36.322 27.6253 36.5622C27.8656 36.8025 28.1914 36.9375 28.5312 36.9375C28.8711 36.9375 29.1969 36.8025 29.4372 36.5622C29.6775 36.322 29.8125 35.9961 29.8125 35.6562V28.7272L32.6364 31.5511Z" fill="url(#paint0_linear_5504_28897)"/>
</g>
<defs>
<filter id="filter0_iiiiii_5504_28897" x="1" y="3" width="42.9961" height="35.2246" filterUnits="userSpaceOnUse" color-interpolation-filters="sRGB">
<feFlood flood-opacity="0" result="BackgroundImageFix"/>
<feBlend mode="normal" in="SourceGraphic" in2="BackgroundImageFix" result="shape"/>
<feColorMatrix in="SourceAlpha" type="matrix" values="0 0 0 0 0 0 0 0 0 0 0 0 0 0 0 0 0 0 127 0" result="hardAlpha"/>
<feOffset dx="1" dy="1"/>
<feGaussianBlur stdDeviation="1"/>
<feComposite in2="hardAlpha" operator="arithmetic" k2="-1" k3="1"/>
<feColorMatrix type="matrix" values="0 0 0 0 0.534167 0 0 0 0 0.645967 0 0 0 0 0.749167 0 0 0 0.6 0"/>
<feBlend mode="normal" in2="shape" result="effect1_innerShadow_5504_28897"/>
<feColorMatrix in="SourceAlpha" type="matrix" values="0 0 0 0 0 0 0 0 0 0 0 0 0 0 0 0 0 0 127 0" result="hardAlpha"/>
<feOffset dx="-1" dy="-2"/>
<feGaussianBlur stdDeviation="1"/>
<feComposite in2="hardAlpha" operator="arithmetic" k2="-1" k3="1"/>
<feColorMatrix type="matrix" values="0 0 0 0 0.533333 0 0 0 0 0.647059 0 0 0 0 0.74902 0 0 0 0.3 0"/>
<feBlend mode="normal" in2="effect1_innerShadow_5504_28897" result="effect2_innerShadow_5504_28897"/>
<feColorMatrix in="SourceAlpha" type="matrix" values="0 0 0 0 0 0 0 0 0 0 0 0 0 0 0 0 0 0 127 0" result="hardAlpha"/>
<feOffset dx="-1" dy="-2"/>
<feGaussianBlur stdDeviation="1.5"/>
<feComposite in2="hardAlpha" operator="arithmetic" k2="-1" k3="1"/>
<feColorMatrix type="matrix" values="0 0 0 0 1 0 0 0 0 1 0 0 0 0 1 0 0 0 0.4 0"/>
<feBlend mode="screen" in2="effect2_innerShadow_5504_28897" result="effect3_innerShadow_5504_28897"/>
<feColorMatrix in="SourceAlpha" type="matrix" values="0 0 0 0 0 0 0 0 0 0 0 0 0 0 0 0 0 0 127 0" result="hardAlpha"/>
<feOffset dx="1" dy="1"/>
<feGaussianBlur stdDeviation="1"/>
<feComposite in2="hardAlpha" operator="arithmetic" k2="-1" k3="1"/>
<feColorMatrix type="matrix" values="0 0 0 0 0.534167 0 0 0 0 0.645967 0 0 0 0 0.749167 0 0 0 0.6 0"/>
<feBlend mode="normal" in2="effect3_innerShadow_5504_28897" result="effect4_innerShadow_5504_28897"/>
<feColorMatrix in="SourceAlpha" type="matrix" values="0 0 0 0 0 0 0 0 0 0 0 0 0 0 0 0 0 0 127 0" result="hardAlpha"/>
<feOffset dx="-1" dy="-2"/>
<feGaussianBlur stdDeviation="1"/>
<feComposite in2="hardAlpha" operator="arithmetic" k2="-1" k3="1"/>
<feColorMatrix type="matrix" values="0 0 0 0 0.533333 0 0 0 0 0.647059 0 0 0 0 0.74902 0 0 0 0.3 0"/>
<feBlend mode="normal" in2="effect4_innerShadow_5504_28897" result="effect5_innerShadow_5504_28897"/>
<feColorMatrix in="SourceAlpha" type="matrix" values="0 0 0 0 0 0 0 0 0 0 0 0 0 0 0 0 0 0 127 0" result="hardAlpha"/>
<feOffset dx="-1" dy="-2"/>
<feGaussianBlur stdDeviation="1.5"/>
<feComposite in2="hardAlpha" operator="arithmetic" k2="-1" k3="1"/>
<feColorMatrix type="matrix" values="0 0 0 0 1 0 0 0 0 1 0 0 0 0 1 0 0 0 0.4 0"/>
<feBlend mode="screen" in2="effect5_innerShadow_5504_28897" result="effect6_innerShadow_5504_28897"/>
</filter>
<filter id="filter1_i_5504_28897" x="17" y="19" width="24.4154" height="24.4154" filterUnits="userSpaceOnUse" color-interpolation-filters="sRGB">
<feFlood flood-opacity="0" result="BackgroundImageFix"/>
<feBlend mode="normal" in="SourceGraphic" in2="BackgroundImageFix" result="shape"/>
<feColorMatrix in="SourceAlpha" type="matrix" values="0 0 0 0 0 0 0 0 0 0 0 0 0 0 0 0 0 0 127 0" result="hardAlpha"/>
<feOffset dx="1.35294" dy="1.35294"/>
<feGaussianBlur stdDeviation="0.676471"/>
<feComposite in2="hardAlpha" operator="arithmetic" k2="-1" k3="1"/>
<feColorMatrix type="matrix" values="0 0 0 0 0 0 0 0 0 0.37028 0 0 0 0 0.74056 0 0 0 0.5 0"/>
<feBlend mode="multiply" in2="shape" result="effect1_innerShadow_5504_28897"/>
</filter>
<linearGradient id="paint0_linear_5504_28897" x1="18.0871" y1="19" x2="44.2663" y2="29.6656" gradientUnits="userSpaceOnUse">
<stop stop-color="#0050EC"/>
<stop offset="1" stop-color="#39C7EC"/>
</linearGradient>
</defs>
</svg>
