<svg width="46" height="46" viewBox="0 0 46 46" fill="none" xmlns="http://www.w3.org/2000/svg">
<g filter="url(#filter0_iii_5504_28856)">
<path d="M4.26761 8.2632C4.45227 6.12057 6.02416 4.51697 8.16559 4.319C10.785 4.07684 15.1401 3.83203 22.0423 3.83203C28.9446 3.83203 33.2996 4.07684 35.919 4.319C38.0605 4.51697 39.6324 6.12057 39.817 8.26319C40.0338 10.7787 40.2507 14.8519 40.2507 21.082C40.2507 27.3121 40.0338 31.3853 39.817 33.9009C39.6324 36.0435 38.0605 37.6471 35.919 37.8451C33.2996 38.0872 28.9446 38.332 22.0423 38.332C15.1401 38.332 10.785 38.0872 8.16559 37.8451C6.02416 37.6471 4.45227 36.0435 4.26761 33.9009C4.05082 31.3853 3.83398 27.3121 3.83398 21.082C3.83398 14.8519 4.05082 10.7787 4.26761 8.2632Z" fill="#D0E2F3"/>
</g>
<g filter="url(#filter1_i_5504_28856)">
<path fill-rule="evenodd" clip-rule="evenodd" d="M40.0365 11.4987H4.05078C4.11732 10.2127 4.19313 9.14273 4.26893 8.2632C4.45359 6.12057 6.02547 4.51697 8.16691 4.319C10.7864 4.07684 15.1414 3.83203 22.0436 3.83203C28.9459 3.83203 33.3009 4.07684 35.9204 4.319C38.0618 4.51697 39.6337 6.12057 39.8183 8.26319C39.8941 9.14273 39.9699 10.2127 40.0365 11.4987Z" fill="url(#paint0_linear_5504_28856)"/>
</g>
<g filter="url(#filter2_i_5504_28856)">
<path d="M9.58398 17.8214C9.58398 17.076 10.1526 16.4592 10.8971 16.4217C12.0883 16.3618 14.09 16.291 16.9022 16.291C19.3568 16.291 20.8851 16.3449 21.798 16.3985C22.4953 16.4394 23.0007 17.0137 23.0007 17.7122V18.7031C23.0007 19.4016 22.4953 19.9759 21.798 20.0169C20.8851 20.0704 19.3568 20.1243 16.9022 20.1243C14.09 20.1243 12.0883 20.0536 10.8971 19.9936C10.1526 19.9562 9.58398 19.3394 9.58398 18.5939V17.8214Z" fill="url(#paint1_linear_5504_28856)"/>
</g>
<g filter="url(#filter3_i_5504_28856)">
<path d="M9.58398 25.3231C9.58398 24.6494 10.056 24.0879 10.7279 24.0389C11.3306 23.995 12.203 23.957 13.4173 23.957C14.6316 23.957 15.504 23.995 16.1067 24.0389C16.7787 24.0879 17.2507 24.6494 17.2507 25.3231V26.4243C17.2507 27.098 16.7787 27.6595 16.1067 27.7085C15.504 27.7524 14.6316 27.7904 13.4173 27.7904C12.203 27.7904 11.3306 27.7524 10.7279 27.7085C10.056 27.6595 9.58398 27.098 9.58398 26.4243V25.3231Z" fill="url(#paint2_linear_5504_28856)"/>
</g>
<g filter="url(#filter4_i_5504_28856)">
<path d="M23.1854 27.3877C23.3247 25.8044 24.3093 24.5419 25.883 24.3193C27.2608 24.1244 29.377 23.957 32.5814 23.957C35.7857 23.957 37.9019 24.1244 39.2798 24.3193C40.8535 24.5419 41.8381 25.8044 41.9773 27.3877C42.0774 28.5257 42.1647 29.9874 42.1647 31.6237C42.1647 35.9498 39.8815 39.9978 36.035 41.9775C34.75 42.6388 33.496 43.1237 32.5814 43.1237C31.6668 43.1237 30.4128 42.6388 29.1278 41.9775C25.2812 39.9978 22.998 35.9498 22.998 31.6237C22.998 29.9874 23.0854 28.5257 23.1854 27.3877Z" fill="url(#paint3_linear_5504_28856)"/>
</g>
<g filter="url(#filter5_iii_5504_28856)">
<path fill-rule="evenodd" clip-rule="evenodd" d="M38.0022 29.0183C38.4743 29.5002 38.5495 30.2474 38.1668 30.803C36.2203 33.6288 34.4652 35.5058 33.4363 36.5052C32.8772 37.0483 32.0395 37.1216 31.4135 36.6571C30.5187 35.9931 29.1834 34.8543 27.8853 33.1884C27.5262 32.7275 27.5176 32.0896 27.8344 31.5985L28.291 30.8908C28.6847 30.2805 29.5262 30.1595 30.0458 30.6669C31.2682 31.8606 32.2849 33.0754 32.2849 33.0754C32.2849 33.0754 33.7738 30.996 35.9543 28.6661C36.4113 28.1778 37.1813 28.1803 37.6493 28.658L38.0022 29.0183Z" fill="#D0E2F3"/>
</g>
<defs>
<filter id="filter0_iii_5504_28856" x="2.83398" y="1.83203" width="38.416" height="37.5" filterUnits="userSpaceOnUse" color-interpolation-filters="sRGB">
<feFlood flood-opacity="0" result="BackgroundImageFix"/>
<feBlend mode="normal" in="SourceGraphic" in2="BackgroundImageFix" result="shape"/>
<feColorMatrix in="SourceAlpha" type="matrix" values="0 0 0 0 0 0 0 0 0 0 0 0 0 0 0 0 0 0 127 0" result="hardAlpha"/>
<feOffset dx="1" dy="1"/>
<feGaussianBlur stdDeviation="1"/>
<feComposite in2="hardAlpha" operator="arithmetic" k2="-1" k3="1"/>
<feColorMatrix type="matrix" values="0 0 0 0 0.534167 0 0 0 0 0.645967 0 0 0 0 0.749167 0 0 0 0.6 0"/>
<feBlend mode="normal" in2="shape" result="effect1_innerShadow_5504_28856"/>
<feColorMatrix in="SourceAlpha" type="matrix" values="0 0 0 0 0 0 0 0 0 0 0 0 0 0 0 0 0 0 127 0" result="hardAlpha"/>
<feOffset dx="-1" dy="-2"/>
<feGaussianBlur stdDeviation="1"/>
<feComposite in2="hardAlpha" operator="arithmetic" k2="-1" k3="1"/>
<feColorMatrix type="matrix" values="0 0 0 0 0.533333 0 0 0 0 0.647059 0 0 0 0 0.74902 0 0 0 0.3 0"/>
<feBlend mode="normal" in2="effect1_innerShadow_5504_28856" result="effect2_innerShadow_5504_28856"/>
<feColorMatrix in="SourceAlpha" type="matrix" values="0 0 0 0 0 0 0 0 0 0 0 0 0 0 0 0 0 0 127 0" result="hardAlpha"/>
<feOffset dx="-1" dy="-2"/>
<feGaussianBlur stdDeviation="1.5"/>
<feComposite in2="hardAlpha" operator="arithmetic" k2="-1" k3="1"/>
<feColorMatrix type="matrix" values="0 0 0 0 1 0 0 0 0 1 0 0 0 0 1 0 0 0 0.4 0"/>
<feBlend mode="screen" in2="effect2_innerShadow_5504_28856" result="effect3_innerShadow_5504_28856"/>
</filter>
<filter id="filter1_i_5504_28856" x="4.05078" y="3.83203" width="37.3393" height="9.01896" filterUnits="userSpaceOnUse" color-interpolation-filters="sRGB">
<feFlood flood-opacity="0" result="BackgroundImageFix"/>
<feBlend mode="normal" in="SourceGraphic" in2="BackgroundImageFix" result="shape"/>
<feColorMatrix in="SourceAlpha" type="matrix" values="0 0 0 0 0 0 0 0 0 0 0 0 0 0 0 0 0 0 127 0" result="hardAlpha"/>
<feOffset dx="1.35294" dy="1.35294"/>
<feGaussianBlur stdDeviation="0.676471"/>
<feComposite in2="hardAlpha" operator="arithmetic" k2="-1" k3="1"/>
<feColorMatrix type="matrix" values="0 0 0 0 0 0 0 0 0 0.37028 0 0 0 0 0.74056 0 0 0 0.5 0"/>
<feBlend mode="multiply" in2="shape" result="effect1_innerShadow_5504_28856"/>
</filter>
<filter id="filter2_i_5504_28856" x="9.58398" y="16.291" width="14.769" height="5.18693" filterUnits="userSpaceOnUse" color-interpolation-filters="sRGB">
<feFlood flood-opacity="0" result="BackgroundImageFix"/>
<feBlend mode="normal" in="SourceGraphic" in2="BackgroundImageFix" result="shape"/>
<feColorMatrix in="SourceAlpha" type="matrix" values="0 0 0 0 0 0 0 0 0 0 0 0 0 0 0 0 0 0 127 0" result="hardAlpha"/>
<feOffset dx="1.35294" dy="1.35294"/>
<feGaussianBlur stdDeviation="0.676471"/>
<feComposite in2="hardAlpha" operator="arithmetic" k2="-1" k3="1"/>
<feColorMatrix type="matrix" values="0 0 0 0 0 0 0 0 0 0.37028 0 0 0 0 0.74056 0 0 0 0.5 0"/>
<feBlend mode="multiply" in2="shape" result="effect1_innerShadow_5504_28856"/>
</filter>
<filter id="filter3_i_5504_28856" x="9.58398" y="23.957" width="9.01896" height="5.18693" filterUnits="userSpaceOnUse" color-interpolation-filters="sRGB">
<feFlood flood-opacity="0" result="BackgroundImageFix"/>
<feBlend mode="normal" in="SourceGraphic" in2="BackgroundImageFix" result="shape"/>
<feColorMatrix in="SourceAlpha" type="matrix" values="0 0 0 0 0 0 0 0 0 0 0 0 0 0 0 0 0 0 127 0" result="hardAlpha"/>
<feOffset dx="1.35294" dy="1.35294"/>
<feGaussianBlur stdDeviation="0.676471"/>
<feComposite in2="hardAlpha" operator="arithmetic" k2="-1" k3="1"/>
<feColorMatrix type="matrix" values="0 0 0 0 0 0 0 0 0 0.37028 0 0 0 0 0.74056 0 0 0 0.5 0"/>
<feBlend mode="multiply" in2="shape" result="effect1_innerShadow_5504_28856"/>
</filter>
<filter id="filter4_i_5504_28856" x="22.998" y="23.957" width="20.519" height="20.519" filterUnits="userSpaceOnUse" color-interpolation-filters="sRGB">
<feFlood flood-opacity="0" result="BackgroundImageFix"/>
<feBlend mode="normal" in="SourceGraphic" in2="BackgroundImageFix" result="shape"/>
<feColorMatrix in="SourceAlpha" type="matrix" values="0 0 0 0 0 0 0 0 0 0 0 0 0 0 0 0 0 0 127 0" result="hardAlpha"/>
<feOffset dx="1.35294" dy="1.35294"/>
<feGaussianBlur stdDeviation="0.676471"/>
<feComposite in2="hardAlpha" operator="arithmetic" k2="-1" k3="1"/>
<feColorMatrix type="matrix" values="0 0 0 0 0 0 0 0 0 0.37028 0 0 0 0 0.74056 0 0 0 0.5 0"/>
<feBlend mode="multiply" in2="shape" result="effect1_innerShadow_5504_28856"/>
</filter>
<filter id="filter5_iii_5504_28856" x="26.6055" y="26.2988" width="12.8066" height="11.6641" filterUnits="userSpaceOnUse" color-interpolation-filters="sRGB">
<feFlood flood-opacity="0" result="BackgroundImageFix"/>
<feBlend mode="normal" in="SourceGraphic" in2="BackgroundImageFix" result="shape"/>
<feColorMatrix in="SourceAlpha" type="matrix" values="0 0 0 0 0 0 0 0 0 0 0 0 0 0 0 0 0 0 127 0" result="hardAlpha"/>
<feOffset dx="1" dy="1"/>
<feGaussianBlur stdDeviation="1"/>
<feComposite in2="hardAlpha" operator="arithmetic" k2="-1" k3="1"/>
<feColorMatrix type="matrix" values="0 0 0 0 0.534167 0 0 0 0 0.645967 0 0 0 0 0.749167 0 0 0 0.6 0"/>
<feBlend mode="normal" in2="shape" result="effect1_innerShadow_5504_28856"/>
<feColorMatrix in="SourceAlpha" type="matrix" values="0 0 0 0 0 0 0 0 0 0 0 0 0 0 0 0 0 0 127 0" result="hardAlpha"/>
<feOffset dx="-1" dy="-2"/>
<feGaussianBlur stdDeviation="1"/>
<feComposite in2="hardAlpha" operator="arithmetic" k2="-1" k3="1"/>
<feColorMatrix type="matrix" values="0 0 0 0 0.533333 0 0 0 0 0.647059 0 0 0 0 0.74902 0 0 0 0.3 0"/>
<feBlend mode="normal" in2="effect1_innerShadow_5504_28856" result="effect2_innerShadow_5504_28856"/>
<feColorMatrix in="SourceAlpha" type="matrix" values="0 0 0 0 0 0 0 0 0 0 0 0 0 0 0 0 0 0 127 0" result="hardAlpha"/>
<feOffset dx="-1" dy="-2"/>
<feGaussianBlur stdDeviation="1.5"/>
<feComposite in2="hardAlpha" operator="arithmetic" k2="-1" k3="1"/>
<feColorMatrix type="matrix" values="0 0 0 0 0.533333 0 0 0 0 0.647059 0 0 0 0 0.74902 0 0 0 0.4 0"/>
<feBlend mode="normal" in2="effect2_innerShadow_5504_28856" result="effect3_innerShadow_5504_28856"/>
</filter>
<linearGradient id="paint0_linear_5504_28856" x1="5.74698" y1="3.83203" x2="15.9748" y2="23.3904" gradientUnits="userSpaceOnUse">
<stop stop-color="#0050EC"/>
<stop offset="1" stop-color="#39C7EC"/>
</linearGradient>
<linearGradient id="paint1_linear_5504_28856" x1="10.2164" y1="16.291" x2="16.0707" y2="24.6388" gradientUnits="userSpaceOnUse">
<stop stop-color="#0050EC"/>
<stop offset="1" stop-color="#39C7EC"/>
</linearGradient>
<linearGradient id="paint2_linear_5504_28856" x1="9.94536" y1="23.957" x2="16.0437" y2="28.9261" gradientUnits="userSpaceOnUse">
<stop stop-color="#0050EC"/>
<stop offset="1" stop-color="#39C7EC"/>
</linearGradient>
<linearGradient id="paint3_linear_5504_28856" x1="23.9015" y1="23.957" x2="45.6584" y2="32.8209" gradientUnits="userSpaceOnUse">
<stop stop-color="#0050EC"/>
<stop offset="1" stop-color="#39C7EC"/>
</linearGradient>
</defs>
</svg>
