<svg width="46" height="46" viewBox="0 0 46 46" fill="none" xmlns="http://www.w3.org/2000/svg">
<g filter="url(#filter0_i_5504_29006)">
<path d="M4 17C4 13.6863 6.68629 11 10 11H36C39.3137 11 42 13.6863 42 17V30C42 33.3137 39.3137 36 36 36H10C6.68629 36 4 33.3137 4 30V17Z" fill="url(#paint0_linear_5504_29006)"/>
</g>
<g filter="url(#filter1_i_5504_29006)">
<path d="M33.1103 27.9999H31.0463V24.7239L27.6983 19.4199H30.1463L32.2463 23.0559H31.9343L34.0463 19.4199H36.4823L33.1103 24.7359V27.9999Z" fill="#DEE7EF"/>
<path d="M26.8828 19.4199V24.6159C26.8828 25.7439 26.5428 26.6239 25.8628 27.2559C25.1908 27.8799 24.2588 28.1919 23.0668 28.1919C21.8828 28.1919 20.9508 27.8799 20.2708 27.2559C19.5908 26.6239 19.2508 25.7439 19.2508 24.6159V19.4199H21.3148V24.6159C21.3148 25.1279 21.4708 25.5519 21.7828 25.8879C22.0948 26.2159 22.5228 26.3799 23.0668 26.3799C23.6188 26.3799 24.0508 26.2159 24.3628 25.8879C24.6748 25.5519 24.8308 25.1279 24.8308 24.6159V19.4199H26.8828Z" fill="#DEE7EF"/>
<path d="M11.1426 27.9999V19.4199H14.9346C15.5106 19.4199 16.0146 19.5119 16.4466 19.6959C16.8786 19.8799 17.2146 20.1399 17.4546 20.4759C17.6946 20.8039 17.8146 21.1919 17.8146 21.6399C17.8146 22.0639 17.6946 22.4399 17.4546 22.7679C17.2146 23.0959 16.8786 23.3519 16.4466 23.5359C16.0146 23.7199 15.5106 23.8119 14.9346 23.8119H13.3266V23.1759H14.9346C15.5826 23.1759 16.1466 23.2719 16.6266 23.4639C17.1146 23.6479 17.4946 23.9119 17.7666 24.2559C18.0386 24.5999 18.1746 25.0079 18.1746 25.4799C18.1746 25.9839 18.0386 26.4279 17.7666 26.8119C17.4946 27.1879 17.1146 27.4799 16.6266 27.6879C16.1466 27.8959 15.5826 27.9999 14.9346 27.9999H11.1426ZM13.2066 26.3079H14.9466C15.2986 26.3079 15.5746 26.2239 15.7746 26.0559C15.9826 25.8799 16.0866 25.6399 16.0866 25.3359C16.0866 25.0559 15.9826 24.8359 15.7746 24.6759C15.5746 24.5159 15.2986 24.4359 14.9466 24.4359H13.0866V22.7919H14.7906C15.0866 22.7919 15.3146 22.7159 15.4746 22.5639C15.6426 22.4039 15.7266 22.1879 15.7266 21.9159C15.7266 21.6599 15.6426 21.4639 15.4746 21.3279C15.3146 21.1839 15.0866 21.1119 14.7906 21.1119H13.2066V26.3079Z" fill="#DEE7EF"/>
</g>
<g filter="url(#filter2_iii_5504_29006)">
<path d="M27.0241 28.6247C28.3378 35.6722 29.9682 40.2297 30.8118 42.2972C31.1057 43.0175 31.936 43.2966 32.604 42.8979C33.5025 42.3616 34.8023 41.5212 36.1869 40.412L39.9532 45.3372C40.4404 45.9743 41.2773 46.214 41.9517 45.78C42.5131 45.4188 43.2395 44.8691 44.0543 44.0543C44.8691 43.2395 45.4188 42.5131 45.78 41.9517C46.214 41.2773 45.9743 40.4404 45.3372 39.9532L40.412 36.1869C41.5212 34.8023 42.3616 33.5025 42.8979 32.604C43.2966 31.936 43.0175 31.1057 42.2972 30.8118C40.2297 29.9682 35.6722 28.3378 28.6247 27.0241C27.6745 26.8469 26.8469 27.6745 27.0241 28.6247Z" fill="#D0E2F3"/>
</g>
<defs>
<filter id="filter0_i_5504_29006" x="4" y="11" width="39.3529" height="26.3529" filterUnits="userSpaceOnUse" color-interpolation-filters="sRGB">
<feFlood flood-opacity="0" result="BackgroundImageFix"/>
<feBlend mode="normal" in="SourceGraphic" in2="BackgroundImageFix" result="shape"/>
<feColorMatrix in="SourceAlpha" type="matrix" values="0 0 0 0 0 0 0 0 0 0 0 0 0 0 0 0 0 0 127 0" result="hardAlpha"/>
<feOffset dx="1.35294" dy="1.35294"/>
<feGaussianBlur stdDeviation="0.676471"/>
<feComposite in2="hardAlpha" operator="arithmetic" k2="-1" k3="1"/>
<feColorMatrix type="matrix" values="0 0 0 0 0 0 0 0 0 0.37028 0 0 0 0 0.74056 0 0 0 0.5 0"/>
<feBlend mode="multiply" in2="shape" result="effect1_innerShadow_5504_29006"/>
</filter>
<filter id="filter1_i_5504_29006" x="11.1426" y="19.4199" width="25.8398" height="9.27148" filterUnits="userSpaceOnUse" color-interpolation-filters="sRGB">
<feFlood flood-opacity="0" result="BackgroundImageFix"/>
<feBlend mode="normal" in="SourceGraphic" in2="BackgroundImageFix" result="shape"/>
<feColorMatrix in="SourceAlpha" type="matrix" values="0 0 0 0 0 0 0 0 0 0 0 0 0 0 0 0 0 0 127 0" result="hardAlpha"/>
<feOffset dx="0.5" dy="0.5"/>
<feGaussianBlur stdDeviation="0.25"/>
<feComposite in2="hardAlpha" operator="arithmetic" k2="-1" k3="1"/>
<feColorMatrix type="matrix" values="0 0 0 0 0 0 0 0 0 0.37028 0 0 0 0 0.74056 0 0 0 0.5 0"/>
<feBlend mode="multiply" in2="shape" result="effect1_innerShadow_5504_29006"/>
</filter>
<filter id="filter2_iii_5504_29006" x="26" y="25" width="21" height="22" filterUnits="userSpaceOnUse" color-interpolation-filters="sRGB">
<feFlood flood-opacity="0" result="BackgroundImageFix"/>
<feBlend mode="normal" in="SourceGraphic" in2="BackgroundImageFix" result="shape"/>
<feColorMatrix in="SourceAlpha" type="matrix" values="0 0 0 0 0 0 0 0 0 0 0 0 0 0 0 0 0 0 127 0" result="hardAlpha"/>
<feOffset dx="1" dy="1"/>
<feGaussianBlur stdDeviation="1"/>
<feComposite in2="hardAlpha" operator="arithmetic" k2="-1" k3="1"/>
<feColorMatrix type="matrix" values="0 0 0 0 0.534167 0 0 0 0 0.645967 0 0 0 0 0.749167 0 0 0 0.6 0"/>
<feBlend mode="normal" in2="shape" result="effect1_innerShadow_5504_29006"/>
<feColorMatrix in="SourceAlpha" type="matrix" values="0 0 0 0 0 0 0 0 0 0 0 0 0 0 0 0 0 0 127 0" result="hardAlpha"/>
<feOffset dx="-1" dy="-2"/>
<feGaussianBlur stdDeviation="1"/>
<feComposite in2="hardAlpha" operator="arithmetic" k2="-1" k3="1"/>
<feColorMatrix type="matrix" values="0 0 0 0 0.533333 0 0 0 0 0.647059 0 0 0 0 0.74902 0 0 0 0.3 0"/>
<feBlend mode="normal" in2="effect1_innerShadow_5504_29006" result="effect2_innerShadow_5504_29006"/>
<feColorMatrix in="SourceAlpha" type="matrix" values="0 0 0 0 0 0 0 0 0 0 0 0 0 0 0 0 0 0 127 0" result="hardAlpha"/>
<feOffset dx="-1" dy="-2"/>
<feGaussianBlur stdDeviation="1.5"/>
<feComposite in2="hardAlpha" operator="arithmetic" k2="-1" k3="1"/>
<feColorMatrix type="matrix" values="0 0 0 0 1 0 0 0 0 1 0 0 0 0 1 0 0 0 0.4 0"/>
<feBlend mode="screen" in2="effect2_innerShadow_5504_29006" result="effect3_innerShadow_5504_29006"/>
</filter>
<linearGradient id="paint0_linear_5504_29006" x1="5.79115" y1="11" x2="42.1451" y2="33.5125" gradientUnits="userSpaceOnUse">
<stop stop-color="#0050EC"/>
<stop offset="1" stop-color="#39C7EC"/>
</linearGradient>
</defs>
</svg>
