<svg width="46" height="46" viewBox="0 0 46 46" fill="none" xmlns="http://www.w3.org/2000/svg">
<g filter="url(#filter0_iii_5504_28993)">
<path d="M4.3745 37.6782C4.54446 39.3239 5.62343 40.6265 7.24162 40.971C9.79582 41.5148 14.6106 42.168 23.0026 42.168C31.3946 42.168 36.2094 41.5148 38.7636 40.971C40.3818 40.6265 41.4608 39.3238 41.6307 37.6782C41.8827 35.2381 42.1693 30.758 42.1693 23.0013C42.1693 15.2446 41.8827 10.7645 41.6307 8.32444C41.4608 6.67875 40.3818 5.37609 38.7636 5.0316C36.2094 4.48785 31.3946 3.83464 23.0026 3.83464C14.6106 3.83464 9.79582 4.48785 7.24161 5.0316C5.62343 5.37609 4.54445 6.67875 4.3745 8.32445C4.12251 10.7645 3.83594 15.2447 3.83594 23.0013C3.83594 30.758 4.12251 35.2381 4.3745 37.6782Z" fill="#D0E2F3"/>
</g>
<g filter="url(#filter1_i_5504_28993)">
<path d="M16 28.5C16.3967 28.5 16.7294 28.368 16.9982 28.104C17.267 27.84 17.4009 27.5137 17.4 27.125C17.4 26.7354 17.2656 26.4091 16.9968 26.146C16.728 25.8829 16.3957 25.7509 16 25.75C15.6033 25.75 15.2711 25.882 15.0032 26.146C14.7353 26.41 14.6009 26.7363 14.6 27.125C14.6 27.5146 14.7344 27.8414 15.0032 28.1054C15.272 28.3694 15.6043 28.5009 16 28.5ZM16 24.375C16.3967 24.375 16.7294 24.243 16.9982 23.979C17.267 23.715 17.4009 23.3887 17.4 23V18.875C17.4 18.4854 17.2656 18.1591 16.9968 17.896C16.728 17.6329 16.3957 17.5009 16 17.5C15.6033 17.5 15.2711 17.632 15.0032 17.896C14.7353 18.16 14.6009 18.4863 14.6 18.875V23C14.6 23.3896 14.7344 23.7164 15.0032 23.9804C15.272 24.2444 15.6043 24.3759 16 24.375ZM21.6 27.125H30C30.3967 27.125 30.7294 26.993 30.9982 26.729C31.267 26.465 31.4009 26.1387 31.4 25.75C31.4 25.3604 31.2656 25.0341 30.9968 24.771C30.728 24.5079 30.3957 24.3759 30 24.375H21.6C21.2033 24.375 20.8711 24.507 20.6032 24.771C20.3353 25.035 20.2009 25.3613 20.2 25.75C20.2 26.1396 20.3344 26.4664 20.6032 26.7304C20.872 26.9944 21.2043 27.1259 21.6 27.125ZM21.6 21.625H30C30.3967 21.625 30.7294 21.493 30.9982 21.229C31.267 20.965 31.4009 20.6387 31.4 20.25C31.4 19.8604 31.2656 19.5341 30.9968 19.271C30.728 19.0079 30.3957 18.8759 30 18.875H21.6C21.2033 18.875 20.8711 19.007 20.6032 19.271C20.3353 19.535 20.2009 19.8613 20.2 20.25C20.2 20.6396 20.3344 20.9664 20.6032 21.2304C20.872 21.4944 21.2043 21.6259 21.6 21.625ZM11.8 34C11.03 34 10.3711 33.731 9.8232 33.1929C9.27533 32.6548 9.00093 32.0072 9 31.25V14.75C9 13.9937 9.2744 13.3466 9.8232 12.8085C10.372 12.2704 11.0309 12.0009 11.8 12H34.2C34.97 12 35.6294 12.2695 36.1782 12.8085C36.727 13.3475 37.0009 13.9947 37 14.75V31.25C37 32.0062 36.7261 32.6539 36.1782 33.1929C35.6303 33.7319 34.9709 34.0009 34.2 34H11.8Z" fill="#121212"/>
<path d="M16 28.5C16.3967 28.5 16.7294 28.368 16.9982 28.104C17.267 27.84 17.4009 27.5137 17.4 27.125C17.4 26.7354 17.2656 26.4091 16.9968 26.146C16.728 25.8829 16.3957 25.7509 16 25.75C15.6033 25.75 15.2711 25.882 15.0032 26.146C14.7353 26.41 14.6009 26.7363 14.6 27.125C14.6 27.5146 14.7344 27.8414 15.0032 28.1054C15.272 28.3694 15.6043 28.5009 16 28.5ZM16 24.375C16.3967 24.375 16.7294 24.243 16.9982 23.979C17.267 23.715 17.4009 23.3887 17.4 23V18.875C17.4 18.4854 17.2656 18.1591 16.9968 17.896C16.728 17.6329 16.3957 17.5009 16 17.5C15.6033 17.5 15.2711 17.632 15.0032 17.896C14.7353 18.16 14.6009 18.4863 14.6 18.875V23C14.6 23.3896 14.7344 23.7164 15.0032 23.9804C15.272 24.2444 15.6043 24.3759 16 24.375ZM21.6 27.125H30C30.3967 27.125 30.7294 26.993 30.9982 26.729C31.267 26.465 31.4009 26.1387 31.4 25.75C31.4 25.3604 31.2656 25.0341 30.9968 24.771C30.728 24.5079 30.3957 24.3759 30 24.375H21.6C21.2033 24.375 20.8711 24.507 20.6032 24.771C20.3353 25.035 20.2009 25.3613 20.2 25.75C20.2 26.1396 20.3344 26.4664 20.6032 26.7304C20.872 26.9944 21.2043 27.1259 21.6 27.125ZM21.6 21.625H30C30.3967 21.625 30.7294 21.493 30.9982 21.229C31.267 20.965 31.4009 20.6387 31.4 20.25C31.4 19.8604 31.2656 19.5341 30.9968 19.271C30.728 19.0079 30.3957 18.8759 30 18.875H21.6C21.2033 18.875 20.8711 19.007 20.6032 19.271C20.3353 19.535 20.2009 19.8613 20.2 20.25C20.2 20.6396 20.3344 20.9664 20.6032 21.2304C20.872 21.4944 21.2043 21.6259 21.6 21.625ZM11.8 34C11.03 34 10.3711 33.731 9.8232 33.1929C9.27533 32.6548 9.00093 32.0072 9 31.25V14.75C9 13.9937 9.2744 13.3466 9.8232 12.8085C10.372 12.2704 11.0309 12.0009 11.8 12H34.2C34.97 12 35.6294 12.2695 36.1782 12.8085C36.727 13.3475 37.0009 13.9947 37 14.75V31.25C37 32.0062 36.7261 32.6539 36.1782 33.1929C35.6303 33.7319 34.9709 34.0009 34.2 34H11.8Z" fill="url(#paint0_linear_5504_28993)"/>
</g>
<defs>
<filter id="filter0_iii_5504_28993" x="2.83594" y="1.83398" width="40.334" height="41.334" filterUnits="userSpaceOnUse" color-interpolation-filters="sRGB">
<feFlood flood-opacity="0" result="BackgroundImageFix"/>
<feBlend mode="normal" in="SourceGraphic" in2="BackgroundImageFix" result="shape"/>
<feColorMatrix in="SourceAlpha" type="matrix" values="0 0 0 0 0 0 0 0 0 0 0 0 0 0 0 0 0 0 127 0" result="hardAlpha"/>
<feOffset dx="1" dy="1"/>
<feGaussianBlur stdDeviation="1"/>
<feComposite in2="hardAlpha" operator="arithmetic" k2="-1" k3="1"/>
<feColorMatrix type="matrix" values="0 0 0 0 0.534167 0 0 0 0 0.645967 0 0 0 0 0.749167 0 0 0 0.6 0"/>
<feBlend mode="normal" in2="shape" result="effect1_innerShadow_5504_28993"/>
<feColorMatrix in="SourceAlpha" type="matrix" values="0 0 0 0 0 0 0 0 0 0 0 0 0 0 0 0 0 0 127 0" result="hardAlpha"/>
<feOffset dx="-1" dy="-2"/>
<feGaussianBlur stdDeviation="1"/>
<feComposite in2="hardAlpha" operator="arithmetic" k2="-1" k3="1"/>
<feColorMatrix type="matrix" values="0 0 0 0 0.533333 0 0 0 0 0.647059 0 0 0 0 0.74902 0 0 0 0.3 0"/>
<feBlend mode="normal" in2="effect1_innerShadow_5504_28993" result="effect2_innerShadow_5504_28993"/>
<feColorMatrix in="SourceAlpha" type="matrix" values="0 0 0 0 0 0 0 0 0 0 0 0 0 0 0 0 0 0 127 0" result="hardAlpha"/>
<feOffset dx="-1" dy="-2"/>
<feGaussianBlur stdDeviation="1.5"/>
<feComposite in2="hardAlpha" operator="arithmetic" k2="-1" k3="1"/>
<feColorMatrix type="matrix" values="0 0 0 0 1 0 0 0 0 1 0 0 0 0 1 0 0 0 0.4 0"/>
<feBlend mode="screen" in2="effect2_innerShadow_5504_28993" result="effect3_innerShadow_5504_28993"/>
</filter>
<filter id="filter1_i_5504_28993" x="9" y="12" width="29.3529" height="23.3529" filterUnits="userSpaceOnUse" color-interpolation-filters="sRGB">
<feFlood flood-opacity="0" result="BackgroundImageFix"/>
<feBlend mode="normal" in="SourceGraphic" in2="BackgroundImageFix" result="shape"/>
<feColorMatrix in="SourceAlpha" type="matrix" values="0 0 0 0 0 0 0 0 0 0 0 0 0 0 0 0 0 0 127 0" result="hardAlpha"/>
<feOffset dx="1.35294" dy="1.35294"/>
<feGaussianBlur stdDeviation="2.02941"/>
<feComposite in2="hardAlpha" operator="arithmetic" k2="-1" k3="1"/>
<feColorMatrix type="matrix" values="0 0 0 0 0 0 0 0 0 0.37028 0 0 0 0 0.74056 0 0 0 0.4 0"/>
<feBlend mode="multiply" in2="shape" result="effect1_innerShadow_5504_28993"/>
</filter>
<linearGradient id="paint0_linear_5504_28993" x1="10.3198" y1="12" x2="39.5267" y2="27.1443" gradientUnits="userSpaceOnUse">
<stop stop-color="#0050EC"/>
<stop offset="1" stop-color="#39C7EC"/>
</linearGradient>
</defs>
</svg>
