<svg width="46" height="46" viewBox="0 0 46 46" fill="none" xmlns="http://www.w3.org/2000/svg">
<g filter="url(#filter0_iii_5504_28972)">
<path d="M4.3745 37.6782C4.54446 39.3239 5.62343 40.6265 7.24162 40.971C9.79582 41.5148 14.6106 42.168 23.0026 42.168C31.3946 42.168 36.2094 41.5148 38.7636 40.971C40.3818 40.6265 41.4608 39.3238 41.6307 37.6782C41.8827 35.2381 42.1693 30.758 42.1693 23.0013C42.1693 15.2446 41.8827 10.7645 41.6307 8.32444C41.4608 6.67875 40.3818 5.37609 38.7636 5.0316C36.2094 4.48785 31.3946 3.83464 23.0026 3.83464C14.6106 3.83464 9.79582 4.48785 7.24161 5.0316C5.62343 5.37609 4.54445 6.67875 4.3745 8.32445C4.12251 10.7645 3.83594 15.2447 3.83594 23.0013C3.83594 30.758 4.12251 35.2381 4.3745 37.6782Z" fill="#D0E2F3"/>
</g>
<g filter="url(#filter1_i_5504_28972)">
<path fill-rule="evenodd" clip-rule="evenodd" d="M35.1814 25.8827V23.8007H34.414C32.6907 23.8007 31.8285 24.3295 31.8285 25.3883C31.8285 26.306 32.2855 26.7649 33.2012 26.7649C33.8315 26.7649 34.4909 26.4708 35.1814 25.8827ZM37 27.9119H35.5732L35.4305 26.9587C34.5511 27.7127 33.6354 28.0886 32.684 28.0886C30.9009 28.0886 30.0094 27.2767 30.0094 25.6532C30.0094 24.724 30.3719 24.001 31.0969 23.4831C31.882 22.9295 33.029 22.6538 34.5388 22.6538H35.1814V21.8586C35.1814 20.8117 34.5683 20.2882 33.3439 20.2882C32.5469 20.2882 31.6791 20.4595 30.7398 20.7998L30.4731 19.6882C31.578 19.2057 32.7024 18.9644 33.8432 18.9644C35.9477 18.9644 37 19.8531 37 21.6292V27.9119ZM29.4739 19.1241C28.8915 22.3713 27.976 25.3 26.7274 27.9119H24.4633L21.7343 19.1241H23.7133L25.4081 24.5236L25.7826 26.1476C26.6621 23.7479 27.2511 21.4063 27.5482 19.1241H29.4739ZM18.7375 25.8827V23.8007H17.9712C16.2469 23.8007 15.3848 24.3295 15.3848 25.3883C15.3848 26.306 15.843 26.7649 16.7585 26.7649C17.3888 26.7649 18.0485 26.4708 18.7375 25.8827ZM20.5576 27.9119H19.1305L18.9879 26.9587C18.1072 27.7127 17.1917 28.0886 16.2415 28.0886C14.4573 28.0886 13.5658 27.2767 13.5658 25.6532C13.5658 24.724 13.9283 24.001 14.6533 23.4831C15.4381 22.9295 16.5855 22.6538 18.0964 22.6538H18.7375V21.8586C18.7375 20.8117 18.1257 20.2882 16.9011 20.2882C16.1043 20.2882 15.2367 20.4595 14.2973 20.7998L14.0295 19.6882C15.1355 19.2057 16.2589 18.9644 17.4007 18.9644C19.5049 18.9644 20.5576 19.8531 20.5576 21.6292V27.9119ZM11.9068 26.6767C11.9068 28.5938 11.2526 30.0362 9.9453 31L9 30.2064C9.41583 29.7239 9.69556 29.1474 9.83795 28.4764C9.93332 28.0175 9.9808 27.3831 9.9808 26.5712V16H11.9068V26.6767Z" fill="white"/>
<path fill-rule="evenodd" clip-rule="evenodd" d="M35.1814 25.8827V23.8007H34.414C32.6907 23.8007 31.8285 24.3295 31.8285 25.3883C31.8285 26.306 32.2855 26.7649 33.2012 26.7649C33.8315 26.7649 34.4909 26.4708 35.1814 25.8827ZM37 27.9119H35.5732L35.4305 26.9587C34.5511 27.7127 33.6354 28.0886 32.684 28.0886C30.9009 28.0886 30.0094 27.2767 30.0094 25.6532C30.0094 24.724 30.3719 24.001 31.0969 23.4831C31.882 22.9295 33.029 22.6538 34.5388 22.6538H35.1814V21.8586C35.1814 20.8117 34.5683 20.2882 33.3439 20.2882C32.5469 20.2882 31.6791 20.4595 30.7398 20.7998L30.4731 19.6882C31.578 19.2057 32.7024 18.9644 33.8432 18.9644C35.9477 18.9644 37 19.8531 37 21.6292V27.9119ZM29.4739 19.1241C28.8915 22.3713 27.976 25.3 26.7274 27.9119H24.4633L21.7343 19.1241H23.7133L25.4081 24.5236L25.7826 26.1476C26.6621 23.7479 27.2511 21.4063 27.5482 19.1241H29.4739ZM18.7375 25.8827V23.8007H17.9712C16.2469 23.8007 15.3848 24.3295 15.3848 25.3883C15.3848 26.306 15.843 26.7649 16.7585 26.7649C17.3888 26.7649 18.0485 26.4708 18.7375 25.8827ZM20.5576 27.9119H19.1305L18.9879 26.9587C18.1072 27.7127 17.1917 28.0886 16.2415 28.0886C14.4573 28.0886 13.5658 27.2767 13.5658 25.6532C13.5658 24.724 13.9283 24.001 14.6533 23.4831C15.4381 22.9295 16.5855 22.6538 18.0964 22.6538H18.7375V21.8586C18.7375 20.8117 18.1257 20.2882 16.9011 20.2882C16.1043 20.2882 15.2367 20.4595 14.2973 20.7998L14.0295 19.6882C15.1355 19.2057 16.2589 18.9644 17.4007 18.9644C19.5049 18.9644 20.5576 19.8531 20.5576 21.6292V27.9119ZM11.9068 26.6767C11.9068 28.5938 11.2526 30.0362 9.9453 31L9 30.2064C9.41583 29.7239 9.69556 29.1474 9.83795 28.4764C9.93332 28.0175 9.9808 27.3831 9.9808 26.5712V16H11.9068V26.6767Z" fill="url(#paint0_linear_5504_28972)"/>
</g>
<defs>
<filter id="filter0_iii_5504_28972" x="2.83594" y="1.83398" width="40.334" height="41.334" filterUnits="userSpaceOnUse" color-interpolation-filters="sRGB">
<feFlood flood-opacity="0" result="BackgroundImageFix"/>
<feBlend mode="normal" in="SourceGraphic" in2="BackgroundImageFix" result="shape"/>
<feColorMatrix in="SourceAlpha" type="matrix" values="0 0 0 0 0 0 0 0 0 0 0 0 0 0 0 0 0 0 127 0" result="hardAlpha"/>
<feOffset dx="1" dy="1"/>
<feGaussianBlur stdDeviation="1"/>
<feComposite in2="hardAlpha" operator="arithmetic" k2="-1" k3="1"/>
<feColorMatrix type="matrix" values="0 0 0 0 0.534167 0 0 0 0 0.645967 0 0 0 0 0.749167 0 0 0 0.6 0"/>
<feBlend mode="normal" in2="shape" result="effect1_innerShadow_5504_28972"/>
<feColorMatrix in="SourceAlpha" type="matrix" values="0 0 0 0 0 0 0 0 0 0 0 0 0 0 0 0 0 0 127 0" result="hardAlpha"/>
<feOffset dx="-1" dy="-2"/>
<feGaussianBlur stdDeviation="1"/>
<feComposite in2="hardAlpha" operator="arithmetic" k2="-1" k3="1"/>
<feColorMatrix type="matrix" values="0 0 0 0 0.533333 0 0 0 0 0.647059 0 0 0 0 0.74902 0 0 0 0.3 0"/>
<feBlend mode="normal" in2="effect1_innerShadow_5504_28972" result="effect2_innerShadow_5504_28972"/>
<feColorMatrix in="SourceAlpha" type="matrix" values="0 0 0 0 0 0 0 0 0 0 0 0 0 0 0 0 0 0 127 0" result="hardAlpha"/>
<feOffset dx="-1" dy="-2"/>
<feGaussianBlur stdDeviation="1.5"/>
<feComposite in2="hardAlpha" operator="arithmetic" k2="-1" k3="1"/>
<feColorMatrix type="matrix" values="0 0 0 0 1 0 0 0 0 1 0 0 0 0 1 0 0 0 0.4 0"/>
<feBlend mode="screen" in2="effect2_innerShadow_5504_28972" result="effect3_innerShadow_5504_28972"/>
</filter>
<filter id="filter1_i_5504_28972" x="9" y="16" width="29.3529" height="16.3529" filterUnits="userSpaceOnUse" color-interpolation-filters="sRGB">
<feFlood flood-opacity="0" result="BackgroundImageFix"/>
<feBlend mode="normal" in="SourceGraphic" in2="BackgroundImageFix" result="shape"/>
<feColorMatrix in="SourceAlpha" type="matrix" values="0 0 0 0 0 0 0 0 0 0 0 0 0 0 0 0 0 0 127 0" result="hardAlpha"/>
<feOffset dx="1.35294" dy="1.35294"/>
<feGaussianBlur stdDeviation="0.676471"/>
<feComposite in2="hardAlpha" operator="arithmetic" k2="-1" k3="1"/>
<feColorMatrix type="matrix" values="0 0 0 0 0 0 0 0 0 0.37028 0 0 0 0 0.74056 0 0 0 0.5 0"/>
<feBlend mode="multiply" in2="shape" result="effect1_innerShadow_5504_28972"/>
</filter>
<linearGradient id="paint0_linear_5504_28972" x1="10.3198" y1="31" x2="33.7997" y2="13.1437" gradientUnits="userSpaceOnUse">
<stop stop-color="#0050EC"/>
<stop offset="1" stop-color="#39C7EC"/>
</linearGradient>
</defs>
</svg>
