<svg width="46" height="46" viewBox="0 0 46 46" fill="none" xmlns="http://www.w3.org/2000/svg">
<g filter="url(#filter0_iii_5504_29062)">
<path d="M4.3745 37.6782C4.54446 39.3239 5.62343 40.6265 7.24162 40.971C9.79582 41.5148 14.6106 42.168 23.0026 42.168C31.3946 42.168 36.2094 41.5148 38.7636 40.971C40.3818 40.6265 41.4608 39.3238 41.6307 37.6782C41.8827 35.2381 42.1693 30.758 42.1693 23.0013C42.1693 15.2446 41.8827 10.7645 41.6307 8.32444C41.4608 6.67875 40.3818 5.37609 38.7636 5.0316C36.2094 4.48785 31.3946 3.83464 23.0026 3.83464C14.6106 3.83464 9.79582 4.48785 7.24161 5.0316C5.62343 5.37609 4.54445 6.67875 4.3745 8.32445C4.12251 10.7645 3.83594 15.2447 3.83594 23.0013C3.83594 30.758 4.12251 35.2381 4.3745 37.6782Z" fill="#D0E2F3"/>
</g>
<g filter="url(#filter1_i_5504_29062)">
<path fill-rule="evenodd" clip-rule="evenodd" d="M32.4564 10.0975L32.8242 10.1436C33.7964 10.2778 35.083 10.4581 35.8114 11.188C36.4086 11.7837 36.6379 12.753 36.775 13.6185L36.8557 14.1753C37.0375 15.4879 37.0851 17.2073 36.775 19.1171C36.1634 22.8863 34.157 27.3838 29.1186 30.8659C29.0912 31.1371 29.0898 31.4112 29.0955 31.6852L29.11 32.0949C29.133 32.7253 29.1561 33.3556 28.9802 33.9672C28.7061 34.9192 27.7296 35.5467 26.8165 35.9967L26.3694 36.2088L25.7924 36.4626C24.7135 36.9213 23.2567 37.3916 22.3436 36.4771C21.7955 35.9304 21.5705 35.1284 21.3873 34.3307L21.3195 34.0321C21.2431 33.6551 21.1468 33.2825 21.031 32.9157C20.9589 32.7051 20.881 32.4901 20.7973 32.2738C20.7053 32.3868 20.6075 32.4951 20.5045 32.5983C20.0069 33.096 19.2641 33.4436 18.6525 33.6874C17.9846 33.9513 17.2288 34.1821 16.5292 34.3725L16.1701 34.4677L15.4821 34.6394L14.8589 34.7836L14.1132 34.9423L13.6473 35.0332C13.4149 35.0762 13.1756 35.0621 12.9499 34.992C12.7243 34.9219 12.519 34.7979 12.3519 34.6308C12.1848 34.4637 12.0609 34.2585 11.9908 34.0328C11.9207 33.8071 11.9066 33.5678 11.9496 33.3354L12.0736 32.7137L12.2958 31.7069L12.4746 30.9712L12.6102 30.4519C12.8006 29.7538 13.0314 28.998 13.2968 28.3315C13.5391 27.7185 13.8867 26.9756 14.3844 26.478L14.4998 26.3669L14.4075 26.3294C14.1609 26.2357 13.9113 26.1505 13.6588 26.0741L13.2593 25.9515C12.2583 25.6486 11.188 25.3226 10.523 24.6562C9.71529 23.8498 9.9879 22.6223 10.3774 21.6011L10.536 21.2058L10.7913 20.6288L11.0034 20.1817C11.4534 19.27 12.0808 18.2935 13.0328 18.0194C13.5377 17.8752 14.0627 17.8665 14.5906 17.881L14.908 17.8911C15.3205 17.9055 15.7316 17.9214 16.134 17.8824C19.616 12.8425 24.1135 10.836 27.8825 10.2244C29.3944 9.97643 30.933 9.93373 32.4564 10.0975ZM18.3034 28.3806C18.0764 28.2125 17.8051 28.1148 17.5231 28.0994C17.241 28.084 16.9607 28.1517 16.7168 28.294L16.5581 28.4008L16.4239 28.5205L16.2436 28.7484C15.8686 29.2908 15.6551 30.0408 15.4893 30.7419L15.3335 31.4169L15.2599 31.7242L15.5354 31.6578L16.1384 31.5194C16.9721 31.3246 17.8967 31.0722 18.465 30.5601C18.7121 30.3131 18.8611 29.9849 18.8845 29.6363C18.9078 29.2877 18.8039 28.9425 18.5919 28.6647L18.4736 28.5292L18.439 28.496L18.3034 28.3806ZM28.6643 18.3209C28.3964 18.053 28.0784 17.8404 27.7284 17.6954C27.3785 17.5503 27.0033 17.4756 26.6245 17.4756C26.2456 17.4755 25.8705 17.5501 25.5204 17.695C25.1704 17.8399 24.8523 18.0523 24.5844 18.3202C24.3165 18.588 24.1039 18.906 23.9589 19.256C23.8138 19.606 23.7391 19.9812 23.7391 20.36C23.739 20.7389 23.8136 21.1141 23.9585 21.4641C24.1034 21.8142 24.3158 22.1322 24.5837 22.4002C25.1246 22.9413 25.8583 23.2454 26.6235 23.2455C27.3886 23.2457 28.1224 22.9418 28.6635 22.4009C29.2047 21.86 29.5087 21.1262 29.5089 20.3611C29.509 19.5959 29.2052 18.862 28.6643 18.3209Z" fill="url(#paint0_linear_5504_29062)"/>
</g>
<defs>
<filter id="filter0_iii_5504_29062" x="2.83594" y="1.83398" width="40.334" height="41.334" filterUnits="userSpaceOnUse" color-interpolation-filters="sRGB">
<feFlood flood-opacity="0" result="BackgroundImageFix"/>
<feBlend mode="normal" in="SourceGraphic" in2="BackgroundImageFix" result="shape"/>
<feColorMatrix in="SourceAlpha" type="matrix" values="0 0 0 0 0 0 0 0 0 0 0 0 0 0 0 0 0 0 127 0" result="hardAlpha"/>
<feOffset dx="1" dy="1"/>
<feGaussianBlur stdDeviation="1"/>
<feComposite in2="hardAlpha" operator="arithmetic" k2="-1" k3="1"/>
<feColorMatrix type="matrix" values="0 0 0 0 0.534167 0 0 0 0 0.645967 0 0 0 0 0.749167 0 0 0 0.6 0"/>
<feBlend mode="normal" in2="shape" result="effect1_innerShadow_5504_29062"/>
<feColorMatrix in="SourceAlpha" type="matrix" values="0 0 0 0 0 0 0 0 0 0 0 0 0 0 0 0 0 0 127 0" result="hardAlpha"/>
<feOffset dx="-1" dy="-2"/>
<feGaussianBlur stdDeviation="1"/>
<feComposite in2="hardAlpha" operator="arithmetic" k2="-1" k3="1"/>
<feColorMatrix type="matrix" values="0 0 0 0 0.533333 0 0 0 0 0.647059 0 0 0 0 0.74902 0 0 0 0.3 0"/>
<feBlend mode="normal" in2="effect1_innerShadow_5504_29062" result="effect2_innerShadow_5504_29062"/>
<feColorMatrix in="SourceAlpha" type="matrix" values="0 0 0 0 0 0 0 0 0 0 0 0 0 0 0 0 0 0 127 0" result="hardAlpha"/>
<feOffset dx="-1" dy="-2"/>
<feGaussianBlur stdDeviation="1.5"/>
<feComposite in2="hardAlpha" operator="arithmetic" k2="-1" k3="1"/>
<feColorMatrix type="matrix" values="0 0 0 0 1 0 0 0 0 1 0 0 0 0 1 0 0 0 0.4 0"/>
<feBlend mode="screen" in2="effect2_innerShadow_5504_29062" result="effect3_innerShadow_5504_29062"/>
</filter>
<filter id="filter1_i_5504_29062" x="10" y="10" width="28.3529" height="28.3529" filterUnits="userSpaceOnUse" color-interpolation-filters="sRGB">
<feFlood flood-opacity="0" result="BackgroundImageFix"/>
<feBlend mode="normal" in="SourceGraphic" in2="BackgroundImageFix" result="shape"/>
<feColorMatrix in="SourceAlpha" type="matrix" values="0 0 0 0 0 0 0 0 0 0 0 0 0 0 0 0 0 0 127 0" result="hardAlpha"/>
<feOffset dx="1.35294" dy="1.35294"/>
<feGaussianBlur stdDeviation="2.02941"/>
<feComposite in2="hardAlpha" operator="arithmetic" k2="-1" k3="1"/>
<feColorMatrix type="matrix" values="0 0 0 0 0 0 0 0 0 0.37028 0 0 0 0 0.74056 0 0 0 0.4 0"/>
<feBlend mode="multiply" in2="shape" result="effect1_innerShadow_5504_29062"/>
</filter>
<linearGradient id="paint0_linear_5504_29062" x1="11.2727" y1="10" x2="41.9215" y2="22.4866" gradientUnits="userSpaceOnUse">
<stop stop-color="#39C7EC"/>
<stop offset="0.0001" stop-color="#39C7EC"/>
<stop offset="1" stop-color="#0050EC"/>
</linearGradient>
</defs>
</svg>
