<svg width="46" height="46" viewBox="0 0 46 46" fill="none" xmlns="http://www.w3.org/2000/svg">
<g filter="url(#filter0_iii_5504_29065)">
<path d="M4.3745 37.6782C4.54446 39.3239 5.62343 40.6265 7.24162 40.971C9.79582 41.5148 14.6106 42.168 23.0026 42.168C31.3946 42.168 36.2094 41.5148 38.7636 40.971C40.3818 40.6265 41.4608 39.3238 41.6307 37.6782C41.8827 35.2381 42.1693 30.758 42.1693 23.0013C42.1693 15.2446 41.8827 10.7645 41.6307 8.32444C41.4608 6.67875 40.3818 5.37609 38.7636 5.0316C36.2094 4.48785 31.3946 3.83464 23.0026 3.83464C14.6106 3.83464 9.79582 4.48785 7.24161 5.0316C5.62343 5.37609 4.54445 6.67875 4.3745 8.32445C4.12251 10.7645 3.83594 15.2447 3.83594 23.0013C3.83594 30.758 4.12251 35.2381 4.3745 37.6782Z" fill="#D0E2F3"/>
</g>
<g filter="url(#filter1_i_5504_29065)">
<path fill-rule="evenodd" clip-rule="evenodd" d="M15.4615 21.9231C13.7478 21.9231 12.1043 21.2423 10.8925 20.0305C9.68077 18.8188 9 17.1752 9 15.4615C9 13.7478 9.68077 12.1043 10.8925 10.8925C12.1043 9.68077 13.7478 9 15.4615 9C17.1752 9 18.8188 9.68077 20.0305 10.8925C21.2423 12.1043 21.9231 13.7478 21.9231 15.4615C21.9231 17.1752 21.2423 18.8188 20.0305 20.0305C18.8188 21.2423 17.1752 21.9231 15.4615 21.9231ZM18.6923 15.4615C18.6923 16.3184 18.3519 17.1402 17.746 17.746C17.1402 18.3519 16.3184 18.6923 15.4615 18.6923C14.6047 18.6923 13.7829 18.3519 13.177 17.746C12.5712 17.1402 12.2308 16.3184 12.2308 15.4615C12.2308 14.6047 12.5712 13.7829 13.177 13.177C13.7829 12.5712 14.6047 12.2308 15.4615 12.2308C16.3184 12.2308 17.1402 12.5712 17.746 13.177C18.3519 13.7829 18.6923 14.6047 18.6923 15.4615ZM30.5385 37C28.8248 37 27.1812 36.3192 25.9695 35.1075C24.7577 33.8957 24.0769 32.2522 24.0769 30.5385C24.0769 28.8248 24.7577 27.1812 25.9695 25.9695C27.1812 24.7577 28.8248 24.0769 30.5385 24.0769C32.2522 24.0769 33.8957 24.7577 35.1075 25.9695C36.3192 27.1812 37 28.8248 37 30.5385C37 32.2522 36.3192 33.8957 35.1075 35.1075C33.8957 36.3192 32.2522 37 30.5385 37ZM33.7692 30.5385C33.7692 31.3953 33.4288 32.2171 32.823 32.823C32.2171 33.4288 31.3953 33.7692 30.5385 33.7692C29.6816 33.7692 28.8598 33.4288 28.254 32.823C27.6481 32.2171 27.3077 31.3953 27.3077 30.5385C27.3077 29.6816 27.6481 28.8598 28.254 28.254C28.8598 27.6481 29.6816 27.3077 30.5385 27.3077C31.3953 27.3077 32.2171 27.6481 32.823 28.254C33.4288 28.8598 33.7692 29.6816 33.7692 30.5385ZM35.4492 12.8338C35.7346 12.5276 35.8899 12.1226 35.8825 11.7041C35.8751 11.2856 35.7056 10.8863 35.4096 10.5904C35.1137 10.2944 34.7144 10.1249 34.2959 10.1175C33.8774 10.1101 33.4724 10.2654 33.1662 10.5508L10.5508 33.1662C10.3921 33.314 10.2648 33.4924 10.1765 33.6905C10.0882 33.8887 10.0407 34.1026 10.0369 34.3195C10.0331 34.5364 10.073 34.7518 10.1542 34.953C10.2354 35.1541 10.3564 35.3368 10.5098 35.4902C10.6632 35.6436 10.8459 35.7646 11.047 35.8458C11.2482 35.927 11.4636 35.9669 11.6805 35.9631C11.8974 35.9593 12.1113 35.9118 12.3095 35.8235C12.5076 35.7352 12.686 35.6079 12.8338 35.4492L35.4492 12.8338Z" fill="url(#paint0_linear_5504_29065)"/>
</g>
<defs>
<filter id="filter0_iii_5504_29065" x="2.83594" y="1.83398" width="40.334" height="41.334" filterUnits="userSpaceOnUse" color-interpolation-filters="sRGB">
<feFlood flood-opacity="0" result="BackgroundImageFix"/>
<feBlend mode="normal" in="SourceGraphic" in2="BackgroundImageFix" result="shape"/>
<feColorMatrix in="SourceAlpha" type="matrix" values="0 0 0 0 0 0 0 0 0 0 0 0 0 0 0 0 0 0 127 0" result="hardAlpha"/>
<feOffset dx="1" dy="1"/>
<feGaussianBlur stdDeviation="1"/>
<feComposite in2="hardAlpha" operator="arithmetic" k2="-1" k3="1"/>
<feColorMatrix type="matrix" values="0 0 0 0 0.534167 0 0 0 0 0.645967 0 0 0 0 0.749167 0 0 0 0.6 0"/>
<feBlend mode="normal" in2="shape" result="effect1_innerShadow_5504_29065"/>
<feColorMatrix in="SourceAlpha" type="matrix" values="0 0 0 0 0 0 0 0 0 0 0 0 0 0 0 0 0 0 127 0" result="hardAlpha"/>
<feOffset dx="-1" dy="-2"/>
<feGaussianBlur stdDeviation="1"/>
<feComposite in2="hardAlpha" operator="arithmetic" k2="-1" k3="1"/>
<feColorMatrix type="matrix" values="0 0 0 0 0.533333 0 0 0 0 0.647059 0 0 0 0 0.74902 0 0 0 0.3 0"/>
<feBlend mode="normal" in2="effect1_innerShadow_5504_29065" result="effect2_innerShadow_5504_29065"/>
<feColorMatrix in="SourceAlpha" type="matrix" values="0 0 0 0 0 0 0 0 0 0 0 0 0 0 0 0 0 0 127 0" result="hardAlpha"/>
<feOffset dx="-1" dy="-2"/>
<feGaussianBlur stdDeviation="1.5"/>
<feComposite in2="hardAlpha" operator="arithmetic" k2="-1" k3="1"/>
<feColorMatrix type="matrix" values="0 0 0 0 1 0 0 0 0 1 0 0 0 0 1 0 0 0 0.4 0"/>
<feBlend mode="screen" in2="effect2_innerShadow_5504_29065" result="effect3_innerShadow_5504_29065"/>
</filter>
<filter id="filter1_i_5504_29065" x="9" y="9" width="29.3529" height="29.3529" filterUnits="userSpaceOnUse" color-interpolation-filters="sRGB">
<feFlood flood-opacity="0" result="BackgroundImageFix"/>
<feBlend mode="normal" in="SourceGraphic" in2="BackgroundImageFix" result="shape"/>
<feColorMatrix in="SourceAlpha" type="matrix" values="0 0 0 0 0 0 0 0 0 0 0 0 0 0 0 0 0 0 127 0" result="hardAlpha"/>
<feOffset dx="1.35294" dy="1.35294"/>
<feGaussianBlur stdDeviation="0.676471"/>
<feComposite in2="hardAlpha" operator="arithmetic" k2="-1" k3="1"/>
<feColorMatrix type="matrix" values="0 0 0 0 0 0 0 0 0 0.37028 0 0 0 0 0.74056 0 0 0 0.5 0"/>
<feBlend mode="multiply" in2="shape" result="effect1_innerShadow_5504_29065"/>
</filter>
<linearGradient id="paint0_linear_5504_29065" x1="10.3198" y1="9" x2="42.1038" y2="21.949" gradientUnits="userSpaceOnUse">
<stop stop-color="#39C7EC"/>
<stop offset="0.0001" stop-color="#39C7EC"/>
<stop offset="1" stop-color="#0050EC"/>
</linearGradient>
</defs>
</svg>
