<svg width="46" height="46" viewBox="0 0 46 46" fill="none" xmlns="http://www.w3.org/2000/svg">
<g filter="url(#filter0_iii_5504_28838)">
<path d="M11.2771 29.4779C11.3293 28.9961 11.7405 28.752 12.2306 28.752H20.973C21.2962 32.9402 21.5634 36.2166 21.5634 36.2166H24.4403C24.4403 36.2166 24.7018 32.9402 25.0195 28.752H33.7746C34.2647 28.752 34.6759 28.9961 34.7281 29.4779L35.9485 36.4186L39.2943 36.0145L38.5422 29.0739C38.2812 26.6647 36.225 24.959 33.7746 24.959H25.3062C25.5107 22.2415 25.7139 19.3908 25.8684 17.252L20.1146 17.252C20.2691 19.3908 20.4744 22.2415 20.6818 24.959H12.2306C9.78018 24.959 7.72406 26.6647 7.46301 29.0739L6.71094 36.0145L10.0561 36.4186L11.2771 29.4779Z" fill="#D0E2F3"/>
</g>
<g filter="url(#filter1_i_5504_28838)">
<path d="M14.504 16.6795C14.6043 18.3309 15.6788 19.6099 17.3194 19.824C18.5858 19.9893 20.4161 20.127 23 20.127C25.5839 20.127 27.4142 19.9893 28.6806 19.824C30.3212 19.6099 31.3957 18.3309 31.496 16.6795C31.5678 15.4984 31.625 13.8274 31.625 11.502C31.625 9.17651 31.5678 7.5055 31.496 6.32438C31.3957 4.67298 30.3212 3.39398 28.6806 3.17986C27.4142 3.01457 25.5839 2.87695 23 2.87695C20.4161 2.87695 18.5858 3.01457 17.3194 3.17986C15.6788 3.39398 14.6043 4.67298 14.504 6.32438C14.4322 7.5055 14.375 9.17651 14.375 11.502C14.375 13.8274 14.4322 15.4984 14.504 16.6795Z" fill="url(#paint0_linear_5504_28838)"/>
</g>
<g filter="url(#filter2_i_5504_28838)">
<path d="M32.6081 40.0566C32.6546 41.7104 33.7231 42.9605 35.374 43.0679C35.9273 43.1039 36.5893 43.127 37.3776 43.127C38.1659 43.127 38.8279 43.1039 39.3812 43.0679C41.0321 42.9605 42.1006 41.7104 42.1472 40.0566C42.1608 39.5712 42.1693 39.0016 42.1693 38.3353C42.1693 37.669 42.1608 37.0994 42.1472 36.614C42.1006 34.9602 41.0321 33.7101 39.3812 33.6027C38.8279 33.5667 38.1659 33.5436 37.3776 33.5436C36.5893 33.5436 35.9273 33.5667 35.374 33.6027C33.7231 33.7101 32.6546 34.9602 32.6081 36.614C32.5944 37.0994 32.5859 37.669 32.5859 38.3353C32.5859 39.0016 32.5944 39.5712 32.6081 40.0566Z" fill="url(#paint1_linear_5504_28838)"/>
</g>
<g filter="url(#filter3_i_5504_28838)">
<path d="M18.2331 40.0566C18.2796 41.7104 19.3481 42.9605 20.999 43.0679C21.5523 43.1039 22.2143 43.127 23.0026 43.127C23.7909 43.127 24.4529 43.1039 25.0062 43.0679C26.6571 42.9605 27.7256 41.7104 27.7722 40.0566C27.7858 39.5712 27.7943 39.0016 27.7943 38.3353C27.7943 37.669 27.7858 37.0994 27.7722 36.614C27.7256 34.9602 26.6571 33.7101 25.0062 33.6027C24.4529 33.5667 23.7909 33.5436 23.0026 33.5436C22.2143 33.5436 21.5523 33.5667 20.999 33.6027C19.3481 33.7101 18.2796 34.9602 18.2331 36.614C18.2194 37.0994 18.2109 37.669 18.2109 38.3353C18.2109 39.0016 18.2194 39.5712 18.2331 40.0566Z" fill="url(#paint2_linear_5504_28838)"/>
</g>
<g filter="url(#filter4_i_5504_28838)">
<path d="M3.85806 40.0566C3.90459 41.7104 4.97307 42.9605 6.62402 43.0679C7.17727 43.1039 7.83931 43.127 8.6276 43.127C9.4159 43.127 10.0779 43.1039 10.6312 43.0679C12.2821 42.9605 13.3506 41.7104 13.3972 40.0566C13.4108 39.5712 13.4193 39.0016 13.4193 38.3353C13.4193 37.669 13.4108 37.0994 13.3972 36.614C13.3506 34.9602 12.2821 33.7101 10.6312 33.6027C10.0779 33.5667 9.4159 33.5436 8.6276 33.5436C7.83931 33.5436 7.17727 33.5667 6.62402 33.6027C4.97307 33.7101 3.90459 34.9602 3.85806 36.614C3.8444 37.0994 3.83594 37.669 3.83594 38.3353C3.83594 39.0016 3.8444 39.5712 3.85806 40.0566Z" fill="url(#paint3_linear_5504_28838)"/>
</g>
<defs>
<filter id="filter0_iii_5504_28838" x="5.71094" y="15.252" width="34.584" height="22.166" filterUnits="userSpaceOnUse" color-interpolation-filters="sRGB">
<feFlood flood-opacity="0" result="BackgroundImageFix"/>
<feBlend mode="normal" in="SourceGraphic" in2="BackgroundImageFix" result="shape"/>
<feColorMatrix in="SourceAlpha" type="matrix" values="0 0 0 0 0 0 0 0 0 0 0 0 0 0 0 0 0 0 127 0" result="hardAlpha"/>
<feOffset dx="1" dy="1"/>
<feGaussianBlur stdDeviation="1"/>
<feComposite in2="hardAlpha" operator="arithmetic" k2="-1" k3="1"/>
<feColorMatrix type="matrix" values="0 0 0 0 0.534167 0 0 0 0 0.645967 0 0 0 0 0.749167 0 0 0 0.6 0"/>
<feBlend mode="normal" in2="shape" result="effect1_innerShadow_5504_28838"/>
<feColorMatrix in="SourceAlpha" type="matrix" values="0 0 0 0 0 0 0 0 0 0 0 0 0 0 0 0 0 0 127 0" result="hardAlpha"/>
<feOffset dx="-1" dy="-2"/>
<feGaussianBlur stdDeviation="1"/>
<feComposite in2="hardAlpha" operator="arithmetic" k2="-1" k3="1"/>
<feColorMatrix type="matrix" values="0 0 0 0 0.533333 0 0 0 0 0.647059 0 0 0 0 0.74902 0 0 0 0.3 0"/>
<feBlend mode="normal" in2="effect1_innerShadow_5504_28838" result="effect2_innerShadow_5504_28838"/>
<feColorMatrix in="SourceAlpha" type="matrix" values="0 0 0 0 0 0 0 0 0 0 0 0 0 0 0 0 0 0 127 0" result="hardAlpha"/>
<feOffset dx="-1" dy="-2"/>
<feGaussianBlur stdDeviation="1.5"/>
<feComposite in2="hardAlpha" operator="arithmetic" k2="-1" k3="1"/>
<feColorMatrix type="matrix" values="0 0 0 0 1 0 0 0 0 1 0 0 0 0 1 0 0 0 0.4 0"/>
<feBlend mode="screen" in2="effect2_innerShadow_5504_28838" result="effect3_innerShadow_5504_28838"/>
</filter>
<filter id="filter1_i_5504_28838" x="14.375" y="2.87695" width="18.6029" height="18.6029" filterUnits="userSpaceOnUse" color-interpolation-filters="sRGB">
<feFlood flood-opacity="0" result="BackgroundImageFix"/>
<feBlend mode="normal" in="SourceGraphic" in2="BackgroundImageFix" result="shape"/>
<feColorMatrix in="SourceAlpha" type="matrix" values="0 0 0 0 0 0 0 0 0 0 0 0 0 0 0 0 0 0 127 0" result="hardAlpha"/>
<feOffset dx="1.35294" dy="1.35294"/>
<feGaussianBlur stdDeviation="2.02941"/>
<feComposite in2="hardAlpha" operator="arithmetic" k2="-1" k3="1"/>
<feColorMatrix type="matrix" values="0 0 0 0 0 0 0 0 0 0.37028 0 0 0 0 0.74056 0 0 0 0.4 0"/>
<feBlend mode="multiply" in2="shape" result="effect1_innerShadow_5504_28838"/>
</filter>
<filter id="filter2_i_5504_28838" x="32.5859" y="33.543" width="10.9369" height="10.9369" filterUnits="userSpaceOnUse" color-interpolation-filters="sRGB">
<feFlood flood-opacity="0" result="BackgroundImageFix"/>
<feBlend mode="normal" in="SourceGraphic" in2="BackgroundImageFix" result="shape"/>
<feColorMatrix in="SourceAlpha" type="matrix" values="0 0 0 0 0 0 0 0 0 0 0 0 0 0 0 0 0 0 127 0" result="hardAlpha"/>
<feOffset dx="1.35294" dy="1.35294"/>
<feGaussianBlur stdDeviation="2.02941"/>
<feComposite in2="hardAlpha" operator="arithmetic" k2="-1" k3="1"/>
<feColorMatrix type="matrix" values="0 0 0 0 0 0 0 0 0 0.37028 0 0 0 0 0.74056 0 0 0 0.4 0"/>
<feBlend mode="multiply" in2="shape" result="effect1_innerShadow_5504_28838"/>
</filter>
<filter id="filter3_i_5504_28838" x="18.2109" y="33.543" width="10.9369" height="10.9369" filterUnits="userSpaceOnUse" color-interpolation-filters="sRGB">
<feFlood flood-opacity="0" result="BackgroundImageFix"/>
<feBlend mode="normal" in="SourceGraphic" in2="BackgroundImageFix" result="shape"/>
<feColorMatrix in="SourceAlpha" type="matrix" values="0 0 0 0 0 0 0 0 0 0 0 0 0 0 0 0 0 0 127 0" result="hardAlpha"/>
<feOffset dx="1.35294" dy="1.35294"/>
<feGaussianBlur stdDeviation="2.02941"/>
<feComposite in2="hardAlpha" operator="arithmetic" k2="-1" k3="1"/>
<feColorMatrix type="matrix" values="0 0 0 0 0 0 0 0 0 0.37028 0 0 0 0 0.74056 0 0 0 0.4 0"/>
<feBlend mode="multiply" in2="shape" result="effect1_innerShadow_5504_28838"/>
</filter>
<filter id="filter4_i_5504_28838" x="3.83594" y="33.543" width="10.9369" height="10.9369" filterUnits="userSpaceOnUse" color-interpolation-filters="sRGB">
<feFlood flood-opacity="0" result="BackgroundImageFix"/>
<feBlend mode="normal" in="SourceGraphic" in2="BackgroundImageFix" result="shape"/>
<feColorMatrix in="SourceAlpha" type="matrix" values="0 0 0 0 0 0 0 0 0 0 0 0 0 0 0 0 0 0 127 0" result="hardAlpha"/>
<feOffset dx="1.35294" dy="1.35294"/>
<feGaussianBlur stdDeviation="2.02941"/>
<feComposite in2="hardAlpha" operator="arithmetic" k2="-1" k3="1"/>
<feColorMatrix type="matrix" values="0 0 0 0 0 0 0 0 0 0.37028 0 0 0 0 0.74056 0 0 0 0.4 0"/>
<feBlend mode="multiply" in2="shape" result="effect1_innerShadow_5504_28838"/>
</filter>
<linearGradient id="paint0_linear_5504_28838" x1="15.1881" y1="20.127" x2="34.7693" y2="12.1494" gradientUnits="userSpaceOnUse">
<stop stop-color="#0050EC"/>
<stop offset="1" stop-color="#39C7EC"/>
</linearGradient>
<linearGradient id="paint1_linear_5504_28838" x1="33.0377" y1="43.127" x2="43.9161" y2="38.695" gradientUnits="userSpaceOnUse">
<stop stop-color="#0050EC"/>
<stop offset="1" stop-color="#39C7EC"/>
</linearGradient>
<linearGradient id="paint2_linear_5504_28838" x1="18.6627" y1="43.127" x2="29.5411" y2="38.695" gradientUnits="userSpaceOnUse">
<stop stop-color="#0050EC"/>
<stop offset="1" stop-color="#39C7EC"/>
</linearGradient>
<linearGradient id="paint3_linear_5504_28838" x1="4.28765" y1="43.127" x2="15.1661" y2="38.695" gradientUnits="userSpaceOnUse">
<stop stop-color="#0050EC"/>
<stop offset="1" stop-color="#39C7EC"/>
</linearGradient>
</defs>
</svg>
