<svg width="365" height="164" viewBox="0 0 365 164" fill="none" xmlns="http://www.w3.org/2000/svg">
<mask id="mask0_5504_29171" style="mask-type:luminance" maskUnits="userSpaceOnUse" x="54" y="58" width="257" height="49">
<path d="M54 58H310.529V107H54V58Z" fill="white"/>
</mask>
<g mask="url(#mask0_5504_29171)">
<path d="M109.606 67.4111H96.4098L93.1069 74.0199H105.387V77.7776H96.0116C94.7669 77.7872 93.5766 78.2893 92.7011 79.1741C91.8225 80.0622 91.3282 81.26 91.3245 82.5092V92.7885C91.3178 93.4072 91.4371 94.0209 91.6751 94.5921C91.9131 95.1634 92.2647 95.6802 92.7087 96.1113C93.1324 96.5612 93.6445 96.9186 94.2129 97.161C94.7813 97.4034 95.3937 97.5257 96.0116 97.52H109.606C110.851 97.5058 112.041 97.0026 112.918 96.1189C113.797 95.2354 114.296 94.0395 114.312 92.7885V72.1411C114.298 70.8918 113.799 69.697 112.918 68.8106C112.041 67.9274 110.851 67.4247 109.606 67.4111ZM105.386 91.049H100.198V84.388H105.386V91.049ZM147.224 67.4111C146.609 67.4064 145.999 67.5291 145.434 67.7715C144.868 68.014 144.359 68.3709 143.938 68.8198C143.488 69.2473 143.132 69.7631 142.891 70.3349C142.649 70.9067 142.529 71.5221 142.537 72.1426V97.5889H151.48V74.0215H155.786L159.055 67.4126H147.223L147.224 67.4111ZM177.042 67.4095H163.448C162.829 67.4022 162.216 67.5236 161.647 67.7662C161.079 68.0087 160.566 68.367 160.143 68.8183C159.694 69.2457 159.337 69.7615 159.096 70.3333C158.855 70.9051 158.734 71.5206 158.742 72.1411V92.79C158.765 94.0364 159.267 95.2262 160.145 96.1113C161.021 96.9925 162.206 97.4978 163.448 97.52H177.042C178.284 97.5014 179.469 96.9967 180.342 96.1143C181.219 95.2289 181.716 94.0373 181.729 92.7915V72.1396C181.739 71.5203 181.621 70.9057 181.383 70.3341C181.145 69.7624 180.792 69.2459 180.345 68.8168C179.922 68.3668 179.41 68.0093 178.841 67.7669C178.273 67.5244 177.66 67.4038 177.042 67.4095ZM172.804 91.049H167.616V74.0215H172.804V91.049ZM193.3 58H184.409V64.5752H193.3V58ZM193.3 67.4111H184.409V97.5721H193.3V67.4111ZM279.416 67.4111H265.821C264.576 67.4246 263.386 67.9273 262.509 68.8106C261.629 69.6972 261.129 70.8919 261.116 72.1411V92.79C261.129 94.041 261.63 95.2369 262.509 96.1205C263.388 97.0055 264.576 97.5078 265.821 97.5216H279.034L282.303 91.0505H270.023V87.2239L270.317 87.1198H279.397C280.014 87.1272 280.626 87.0074 281.194 86.7679C281.763 86.5284 282.276 86.1744 282.702 85.7279C283.145 85.2882 283.492 84.7612 283.721 84.1802C283.95 83.5992 284.056 82.977 284.032 82.353V72.1411C284.044 71.5218 283.927 70.9068 283.689 70.335C283.451 69.7631 283.097 69.2467 282.65 68.8183C282.234 68.3771 281.733 68.0249 281.177 67.7827C280.621 67.5406 280.022 67.4152 279.416 67.4111ZM275.177 74.0199V80.612H269.989V73.9158H275.177V74.0199ZM253.194 67.4095H239.6C238.355 67.4241 237.165 67.9273 236.288 68.8106C235.408 69.6973 234.909 70.8921 234.896 72.1411C234.896 70.8548 234.775 74.0199 234.775 74.0199V106.913H243.682V97.5889H253.073C253.694 97.5826 254.307 97.4532 254.878 97.2083C255.448 96.9633 255.964 96.6076 256.396 96.1618C257.272 95.2584 257.756 94.0464 257.744 92.7885V72.1411C257.778 71.531 257.686 70.9204 257.471 70.3483C257.256 69.7761 256.925 69.255 256.497 68.8183C256.074 68.3676 255.562 68.0098 254.994 67.7673C254.425 67.5248 253.812 67.403 253.194 67.4095ZM248.837 91.049H243.647V74.0215H248.837V91.049ZM310.531 67.4279H301.208L297.645 74.2986L294.047 67.4279H284.708L292.94 82.5092L284.708 97.5721H294.047L297.645 90.7014L301.208 97.5721H310.531L302.28 82.5092L310.531 67.4279ZM227.371 67.4111H201.723C201.105 67.4049 200.492 67.5269 199.923 67.7694C199.355 68.0118 198.842 68.3695 198.419 68.8198C197.974 69.2502 197.622 69.767 197.384 70.3384C197.146 70.9098 197.028 71.5238 197.036 72.1426C197.036 70.8548 196.913 74.0199 196.913 74.0199V97.5905H205.821V74.0199H210.059V97.5905H218.95V74.0199H223.187V97.5905H232.146V72.1411C232.152 71.5223 232.033 70.9088 231.795 70.3373C231.558 69.7662 231.206 69.2497 230.762 68.8198C230.329 68.3581 229.803 67.9938 229.218 67.7509C228.634 67.508 228.004 67.3922 227.371 67.4111ZM139.839 72.0722C139.837 70.8819 139.383 69.7368 138.568 68.8688C137.757 68.0041 136.646 67.4826 135.463 67.4111H121.626C120.381 67.4247 119.192 67.9274 118.314 68.8106C117.434 69.697 116.934 70.8918 116.921 72.1411V92.79C116.936 94.041 117.435 95.2369 118.314 96.1205C119.192 97.0041 120.381 97.5073 121.626 97.5216H130.982V100.357H122.058L118.755 106.931H135.29C135.905 106.941 136.516 106.824 137.085 106.588C137.653 106.351 138.167 106.001 138.594 105.558C139.042 105.129 139.395 104.613 139.633 104.041C139.871 103.469 139.988 102.854 139.977 102.235V73.9526C139.977 73.9526 139.839 70.7859 139.839 72.0737V72.0722ZM131.034 91.049H125.847V74.0215H131.036L131.034 91.049Z" fill="#2C8AFD"/>
<path d="M86.1021 67.3233C86.1021 67.3233 64.7258 65.7921 59.466 71.4118C54.2092 77.0269 53.8631 86.1072 54.0009 92.7865C54.0009 92.7865 65.0351 80.3328 73.6836 76.5751C73.6836 76.5751 60.7813 88.1774 55.523 96.7172L58.342 97.2914C60.6968 97.7753 63.0988 97.9911 65.5021 97.9346C71.3132 97.7615 78.233 96.6651 82.0029 91.7253C86.2582 86.1776 85.9811 78.8184 85.9995 72.1912C86.0331 71.7563 86.1021 67.3218 86.1021 67.3218V67.3233Z" fill="#2C8AFD"/>
</g>
</svg>
