<svg width="366" height="164" viewBox="0 0 366 164" fill="none" xmlns="http://www.w3.org/2000/svg">
<path d="M106.764 58.304C110.561 58.304 113.74 58.6667 116.3 59.392C118.903 60.1173 120.844 61.312 122.124 62.976C123.447 64.64 124.108 66.8587 124.108 69.632C124.108 71.424 123.767 73.024 123.084 74.432C122.444 75.7973 121.463 76.9493 120.14 77.888C118.86 78.784 117.281 79.4027 115.404 79.744V80.064C117.324 80.3627 119.052 80.9173 120.588 81.728C122.167 82.5387 123.404 83.6907 124.3 85.184C125.196 86.6773 125.644 88.6187 125.644 91.008C125.644 93.7813 125.004 96.1493 123.724 98.112C122.444 100.032 120.609 101.504 118.22 102.528C115.873 103.509 113.057 104 109.772 104H93.708V58.304H106.764ZM107.916 77.76C111.841 77.76 114.529 77.1413 115.98 75.904C117.431 74.624 118.156 72.7467 118.156 70.272C118.156 67.7547 117.26 65.9627 115.468 64.896C113.719 63.7867 110.903 63.232 107.02 63.232H99.468V77.76H107.916ZM99.468 82.56V99.136H108.684C112.737 99.136 115.553 98.3467 117.132 96.768C118.711 95.1893 119.5 93.12 119.5 90.56C119.5 88.9387 119.137 87.5307 118.412 86.336C117.729 85.1413 116.556 84.224 114.892 83.584C113.271 82.9013 111.052 82.56 108.236 82.56H99.468ZM135.397 58.304H140.773V83.392C140.773 84.4587 140.752 85.632 140.709 86.912C140.709 88.1493 140.688 89.3867 140.645 90.624C140.602 91.8613 140.538 92.9707 140.453 93.952C140.41 94.8907 140.368 95.616 140.325 96.128H140.581L165.733 58.304H172.133V104H166.757V79.168C166.757 78.016 166.778 76.7787 166.821 75.456C166.864 74.0907 166.906 72.7893 166.949 71.552C167.034 70.272 167.098 69.1413 167.141 68.16C167.184 67.1787 167.226 66.4533 167.269 65.984H167.013L141.797 104H135.397V58.304ZM219.402 104H213.642V82.688H190.218V104H184.458V58.304H190.218V77.632H213.642V58.304H219.402V104ZM265.24 104H258.328L237.656 80.832V104H231.896V58.304H237.656V80.448L257.816 58.304H264.344L244.503 80.512L265.24 104Z" fill="#9EAABC"/>
</svg>
