<svg width="365" height="164" viewBox="0 0 365 164" fill="none" xmlns="http://www.w3.org/2000/svg">
<path d="M91.6 99L79.85 67.7H79.65C79.7167 68.3667 79.7667 69.2167 79.8 70.25C79.8667 71.2833 79.9167 72.4167 79.95 73.65C79.9833 74.85 80 76.0833 80 77.35V99H75.85V63.3H82.5L93.5 92.55H93.7L104.9 63.3H111.5V99H107.05V77.05C107.05 75.8833 107.067 74.7333 107.1 73.6C107.133 72.4333 107.183 71.35 107.25 70.35C107.317 69.3167 107.367 68.45 107.4 67.75H107.2L95.3 99H91.6ZM152.361 81.1C152.361 83.8667 152.011 86.3833 151.311 88.65C150.611 90.8833 149.561 92.8167 148.161 94.45C146.795 96.0833 145.078 97.3333 143.011 98.2C140.978 99.0667 138.611 99.5 135.911 99.5C133.111 99.5 130.678 99.0667 128.611 98.2C126.545 97.3 124.828 96.05 123.461 94.45C122.095 92.8167 121.078 90.8667 120.411 88.6C119.745 86.3333 119.411 83.8167 119.411 81.05C119.411 77.3833 120.011 74.1833 121.211 71.45C122.411 68.7167 124.228 66.5833 126.661 65.05C129.128 63.5167 132.228 62.75 135.961 62.75C139.528 62.75 142.528 63.5167 144.961 65.05C147.395 66.55 149.228 68.6833 150.461 71.45C151.728 74.1833 152.361 77.4 152.361 81.1ZM124.161 81.1C124.161 84.1 124.578 86.6833 125.411 88.85C126.245 91.0167 127.528 92.6833 129.261 93.85C131.028 95.0167 133.245 95.6 135.911 95.6C138.611 95.6 140.811 95.0167 142.511 93.85C144.245 92.6833 145.528 91.0167 146.361 88.85C147.195 86.6833 147.611 84.1 147.611 81.1C147.611 76.6 146.678 73.0833 144.811 70.55C142.945 67.9833 139.995 66.7 135.961 66.7C133.261 66.7 131.028 67.2833 129.261 68.45C127.528 69.5833 126.245 71.2333 125.411 73.4C124.578 75.5333 124.161 78.1 124.161 81.1ZM183.347 63.3V95H187.897V108.4H183.597V99H159.047V108.4H154.747V95H157.497C158.697 92.9333 159.831 90.6167 160.897 88.05C161.997 85.4833 162.964 82.8 163.797 80C164.631 77.1667 165.314 74.3333 165.847 71.5C166.381 68.6667 166.714 65.9333 166.847 63.3H183.347ZM170.797 67.35C170.664 69.2833 170.331 71.4667 169.797 73.9C169.297 76.3333 168.647 78.8333 167.847 81.4C167.081 83.9333 166.214 86.3833 165.247 88.75C164.314 91.1167 163.314 93.2 162.247 95H178.897V67.35H170.797ZM208.818 88.85C207.751 91.2167 206.668 93.2 205.568 94.8C204.501 96.3667 203.234 97.55 201.768 98.35C200.301 99.1167 198.434 99.5 196.168 99.5C195.234 99.5 194.351 99.4333 193.518 99.3C192.718 99.1667 191.984 98.9833 191.318 98.75V94.3C191.984 94.6 192.701 94.85 193.468 95.05C194.234 95.2167 195.034 95.3 195.868 95.3C197.101 95.3 198.151 95.1333 199.018 94.8C199.918 94.4333 200.701 93.85 201.368 93.05C202.068 92.25 202.718 91.1833 203.318 89.85L189.568 63.3H194.518L204.468 82.95C204.601 83.1833 204.734 83.4667 204.868 83.8C205.001 84.1 205.134 84.4167 205.268 84.75C205.434 85.0833 205.568 85.4 205.668 85.7H205.868C205.968 85.4667 206.068 85.2 206.168 84.9C206.301 84.5667 206.418 84.25 206.518 83.95C206.651 83.6167 206.768 83.3333 206.868 83.1L215.468 63.3H220.218L208.818 88.85ZM248.279 99H243.779V67.25H232.479C232.245 69.0833 231.995 71.0167 231.729 73.05C231.462 75.05 231.179 77.0333 230.879 79C230.612 80.9667 230.345 82.8167 230.079 84.55C229.812 86.2833 229.545 87.8 229.279 89.1C228.845 91.3333 228.312 93.2333 227.679 94.8C227.045 96.3667 226.195 97.55 225.129 98.35C224.095 99.15 222.729 99.55 221.029 99.55C220.462 99.55 219.879 99.4833 219.279 99.35C218.712 99.25 218.212 99.1167 217.779 98.95V95.2C218.145 95.3667 218.562 95.5167 219.029 95.65C219.495 95.75 219.995 95.8 220.529 95.8C221.529 95.8 222.312 95.4 222.879 94.6C223.479 93.7667 223.945 92.75 224.279 91.55C224.612 90.3167 224.895 89.1 225.129 87.9C225.329 86.9333 225.562 85.65 225.829 84.05C226.095 82.4167 226.379 80.5167 226.679 78.35C227.012 76.1833 227.345 73.8333 227.679 71.3C228.045 68.7333 228.395 66.0667 228.729 63.3H248.279V99ZM257.979 99V63.3H262.479V78.4H269.179C272.512 78.4 275.162 78.85 277.129 79.75C279.096 80.65 280.512 81.8667 281.379 83.4C282.246 84.9333 282.679 86.65 282.679 88.55C282.679 90.65 282.196 92.4833 281.229 94.05C280.296 95.6167 278.879 96.8333 276.979 97.7C275.079 98.5667 272.662 99 269.729 99H257.979ZM269.279 95.15C272.179 95.15 274.362 94.6167 275.829 93.55C277.296 92.45 278.029 90.7833 278.029 88.55C278.029 87.0167 277.662 85.8 276.929 84.9C276.229 83.9667 275.179 83.3 273.779 82.9C272.412 82.5 270.696 82.3 268.629 82.3H262.479V95.15H269.279Z" fill="#2C8AFD"/>
</svg>
