<svg width="365" height="164" fill="none" xmlns="http://www.w3.org/2000/svg"><g clip-path="url(#clip0_5504_29179)" fill="#9EAABC"><path d="M288.53 120H76.618C70.148 120 65 114.853 65 108.382V56.618C65 50.148 70.147 45 76.618 45H288.53c6.47 0 11.617 5.147 11.617 11.618v51.764c-.146 6.471-5.294 11.618-11.617 11.618zM76.618 47.5c-5 0-9.118 4.118-9.118 9.118v51.764c0 5 4.118 9.118 9.118 9.118H288.53c5 0 9.117-4.118 9.117-9.118V56.618c0-5-4.117-9.118-9.117-9.118H76.618z"/><path d="M155.147 65.882c-2.941 3.97-6.029 7.794-9.559 11.618-3.823 4.117-7.941 8.088-12.794 11.912a147.424 147.424 0 01-11.176 8.382c-4.412 3.088-9.118 5.882-14.412 8.97h-8.235c7.206-3.676 13.088-6.764 18.676-10.294a160.727 160.727 0 0013.824-9.706c5-3.97 9.264-7.94 13.235-11.911 3.529-3.824 6.765-7.647 9.706-11.765.294 1.03.441 1.912.735 2.794z"/><path d="M153.53 60.295c-3.089 4.118-6.471 7.942-10.147 11.765-4.118 4.118-8.677 8.088-13.971 12.06-4.853 3.675-10.441 7.352-16.618 11.028-6.911 4.118-13.676 7.5-22.94 11.765-4.118.147-7.354-.147-11.913 0 12.795-5.147 20.883-8.53 29.706-13.235 7.794-4.118 14.559-8.236 20.294-12.353 5.442-3.824 10.147-7.794 14.265-11.912 3.824-3.823 7.353-7.794 10.441-11.765l.883 2.647zm-1.178 18.971c.147 2.5.294 5 .294 7.5s-.147 5-.441 7.647c-.147 1.911-.441 3.823-.735 5.735-.294 1.912-.736 4.706-1.177 6.765h-2.059c.736-3.677 1.324-8.089 1.618-11.618.294-2.206.294-4.559.441-6.765 0-2.206 0-4.411-.147-6.617.735-.736 1.471-1.765 2.206-2.647zm-4.706 5.586c.147 3.97.147 7.94-.294 12.058-.294 2.942-.735 6.765-1.323 9.853h-2.353c.441-2.794.882-6.029 1.029-8.676.294-3.677.441-7.206.294-10.883.883-.588 1.765-1.47 2.647-2.352zm8.972-11.618c0 .589.147 1.177.147 1.765a80.053 80.053 0 010 16.765c-.147 2.206-.588 4.559-.883 6.912-.441 2.353-.882 5.735-1.47 8.088H152.5c.588-2.353 1.029-5.441 1.324-7.647.294-2.206.588-4.412.882-6.47a80.05 80.05 0 000-16.765c.588-.736 1.176-1.618 1.912-2.648zm-.148-1.763a124.032 124.032 0 01-8.823 11.324c-3.53 3.97-7.353 7.794-11.618 11.764-4.559 4.118-9.706 8.236-15.735 12.353-1.912 0-3.971.148-6.177.148 4.118-2.648 7.941-5.148 11.471-7.795 3.235-2.353 6.323-4.853 9.117-7.206 4.559-3.823 8.53-7.794 12.059-11.764 3.383-3.677 6.324-7.5 9.118-11.47.147.734.441 1.764.588 2.646zm21.03 8.824c-3.383 0-6.03-1.03-7.942-3.088-1.911-2.06-2.941-4.853-2.941-8.383 0-3.53.883-6.323 2.794-8.382 1.912-2.06 4.559-3.089 7.942-3.089 3.382 0 6.029 1.03 7.941 3.089 1.911 2.059 2.941 4.853 2.941 8.382 0 3.53-.882 6.324-2.794 8.383-1.912 2.058-4.559 3.088-7.941 3.088zm0-19.56c-1.765 0-3.089.736-4.118 2.06-1.03 1.323-1.618 3.382-1.618 5.882 0 2.5.588 4.559 1.618 5.882 1.029 1.324 2.353 2.06 4.118 2.06 1.764 0 3.088-.736 4.117-2.06 1.03-1.47 1.618-3.382 1.618-5.882 0-2.5-.441-4.559-1.618-5.882-1.029-1.324-2.353-2.06-4.117-2.06zm33.677 18.971h-4.853V61.323h-7.205l-.295 4.118c-.147 1.765-.294 3.382-.441 5-.147 1.618-.588 3.088-1.029 4.412-.441 1.324-1.03 2.5-1.618 3.088-.588.736-1.176 1.177-1.912 1.47-.588.295-1.323.442-2.205.442-.442 0-1.177 0-2.353-.147v-4.412h.882c.588 0 1.029 0 1.323-.147.295-.147.736-.441 1.03-.882.294-.441.588-1.03.882-1.765.147-.735.441-1.618.588-2.794.148-1.177.295-2.5.295-3.97.147-1.471.147-4.265.294-8.236h16.47v22.206h.147zm24.41-.001h-4.706V64.263l-9.999 15.442h-4.56V57.793h4.707v14.412l9.411-14.412h5.147v21.912zm27.208 0h-4.707V64.263l-4.853 10.295h-3.088l-4.853-10.295v15.442h-4.411V57.793h5.44l5.589 11.618 5.441-11.618h5.442v21.912zm24.116 0h-4.705V61.322h-9.266v18.383h-4.852V57.793h18.823v21.912zm-106.029 27.206h-2.794V92.058h-8.824v14.853h-2.647V89.705h14.265v17.206zm15.441 0v-1.912c-1.471 1.029-2.647 1.618-3.53 1.912a9.232 9.232 0 01-2.794.441c-1.47 0-2.794-.441-3.823-1.471-1.03-1.029-1.471-2.353-1.471-3.823 0-2.059.735-3.53 2.206-4.559 1.471-1.03 4.706-1.618 9.412-1.765v-.588c0-1.176-.294-2.059-1.03-2.647-.735-.588-1.911-.882-3.676-.882-1.618 0-3.382.44-5.294 1.176h-.147V90c1.911-.588 3.676-.735 5.441-.735 2.5 0 4.412.44 5.588 1.47 1.177.883 1.765 2.353 1.765 4.412v11.765h-2.647zm0-4.118v-5c-3.824.147-6.177.588-7.353 1.324-1.03.735-1.618 1.617-1.618 2.794 0 2.059 1.177 3.088 3.677 3.088 1.911 0 3.529-.735 5.294-2.206zm10.441 3.237v7.353h-2.647v-23.53h2.647v1.912c1.912-1.618 3.824-2.353 5.736-2.353 2.058 0 3.676.735 4.853 2.353 1.176 1.618 1.764 3.677 1.764 6.47 0 2.648-.735 4.854-2.205 6.618-1.471 1.765-3.236 2.5-5.442 2.5a9.126 9.126 0 01-4.706-1.323zm0-12.206v10a9.536 9.536 0 004.265 1.029c1.618 0 2.941-.588 3.971-1.764.882-1.177 1.47-2.794 1.47-4.853 0-4.265-1.617-6.47-4.706-6.47-1.764 0-3.382.734-5 2.058zm31.47 13.087h-3.529l-7.059-7.941h-1.764v7.941h-2.648V89.705h2.648v7.5c1.029 0 1.911-.147 2.5-.588.588-.294 1.029-.883 1.617-1.765.441-.882.735-1.618 1.029-2.206.294-.588.588-1.176 1.178-1.618.441-.44 1.029-.882 1.617-1.029.588-.294 1.47-.294 2.353-.294h1.176v2.353h-1.323c-.736 0-1.471.147-1.912.588-.441.294-.882 1.03-1.176 1.912-.735 1.618-1.619 2.794-2.648 3.382l7.941 8.971zm9.994.442c-2.793 0-5.147-.736-6.617-2.353-1.618-1.618-2.353-3.677-2.353-6.618 0-2.794.735-5 2.205-6.765 1.471-1.617 3.529-2.5 6.03-2.5 2.206 0 3.97.736 5.293 2.06 1.325 1.322 1.913 3.234 1.913 5.881v1.471h-12.647c0 2.059.588 3.676 1.617 4.706 1.176 1.176 2.648 1.617 4.706 1.617 1.912 0 3.97-.735 5.883-2.058h.147v2.941c-2.501 1.176-4.559 1.618-6.177 1.618zm-6.323-10.736h10.146c-.147-3.382-1.617-5.147-4.705-5.147-1.617 0-2.795.441-3.677 1.324-1.029.882-1.617 2.206-1.764 3.823zm29.271-4.559H265v14.853h-2.647V92.058h-6.177v-2.353h15v2.353zm13.09 14.853v-1.912c-1.472 1.029-2.648 1.618-3.53 1.912a9.237 9.237 0 01-2.794.441c-1.47 0-2.795-.441-3.824-1.471-1.029-1.029-1.47-2.353-1.47-3.823 0-2.059.735-3.53 2.205-4.559 1.472-1.03 4.706-1.618 9.413-1.765v-.588c0-1.176-.294-2.059-1.031-2.647-.735-.588-1.911-.882-3.676-.882-1.617 0-3.381.44-5.294 1.176h-.147V90c1.913-.588 3.677-.735 5.441-.735 2.5 0 4.413.44 5.589 1.47 1.176.883 1.764 2.353 1.764 4.412v11.765h-2.646zm0-4.118v-5c-3.824.147-6.177.588-7.353 1.324-1.029.735-1.619 1.617-1.619 2.794 0 2.059 1.178 3.088 3.677 3.088 1.765 0 3.529-.735 5.295-2.206zm2.939-19.263H166.617v1.764h120.588v-1.765z"/></g><defs><clipPath id="clip0_5504_29179"><path fill="#fff" transform="translate(65 45)" d="M0 0h235.5v75H0z"/></clipPath></defs></svg>