<svg width="365" height="164" viewBox="0 0 365 164" fill="none" xmlns="http://www.w3.org/2000/svg">
<g clip-path="url(#clip0_5504_29201)">
<path d="M288.53 120H76.6177C70.1471 120 65 114.853 65 108.382V56.6177C65 50.1471 70.1471 45 76.6177 45H288.53C295 45 300.147 50.1471 300.147 56.6177V108.382C300.001 114.853 294.853 120 288.53 120ZM76.6177 47.5C71.6177 47.5 67.5 51.6176 67.5 56.6177V108.382C67.5 113.382 71.6177 117.5 76.6177 117.5H288.53C293.53 117.5 297.647 113.382 297.647 108.382V56.6177C297.647 51.6176 293.53 47.5 288.53 47.5H76.6177Z" fill="#2C8AFD"/>
<path d="M155.147 65.8821C152.206 69.8526 149.118 73.6762 145.588 77.4997C141.765 81.6174 137.647 85.5879 132.794 89.4115C129.412 92.2056 125.735 94.9998 121.618 97.7938C117.206 100.882 112.5 103.676 107.206 106.764C104.559 106.764 102.059 106.764 98.9707 106.764C106.177 103.088 112.059 99.9997 117.647 96.4702C122.794 93.235 127.353 89.9997 131.471 86.7645C136.471 82.7938 140.735 78.8232 144.706 74.8527C148.235 71.0292 151.471 67.2055 154.412 63.0879C154.706 64.1173 154.853 64.9996 155.147 65.8821Z" fill="#2C8AFD"/>
<path d="M153.53 60.2955C150.441 64.4131 147.059 68.2366 143.383 72.0601C139.265 76.1778 134.706 80.1484 129.412 84.1191C124.559 87.7954 118.971 91.4719 112.794 95.1484C105.883 99.2661 99.1179 102.648 89.8531 106.913C85.7355 107.06 82.5003 106.766 77.9414 106.913C90.7356 101.766 98.8237 98.3838 107.647 93.6778C115.441 89.5602 122.206 85.4425 127.941 81.3249C133.383 77.5014 138.088 73.5307 142.206 69.4131C146.03 65.5896 149.559 61.6191 152.647 57.6484C152.941 58.5308 153.235 59.4131 153.53 60.2955Z" fill="#2C8AFD"/>
<path d="M152.352 79.2656C152.499 81.7657 152.646 84.2656 152.646 86.7656C152.646 89.2657 152.499 91.7656 152.205 94.4126C152.058 96.3244 151.764 98.2361 151.47 100.148C151.176 102.06 150.734 104.854 150.293 106.913C149.558 106.913 148.97 106.913 148.234 106.913C148.97 103.236 149.558 98.8244 149.852 95.2951C150.146 93.0892 150.146 90.7361 150.293 88.5304C150.293 86.3245 150.293 84.1186 150.146 81.9127C150.881 81.1774 151.617 80.1479 152.352 79.2656Z" fill="#2C8AFD"/>
<path d="M147.646 84.8516C147.793 88.8222 147.793 92.7927 147.352 96.9104C147.058 99.8516 146.617 103.675 146.029 106.763C145.293 106.763 144.558 106.763 143.676 106.763C144.117 103.969 144.558 100.734 144.705 98.0868C144.999 94.4105 145.146 90.881 144.999 87.2045C145.882 86.6163 146.764 85.7339 147.646 84.8516Z" fill="#2C8AFD"/>
<path d="M156.618 73.2344C156.618 73.8227 156.765 74.411 156.765 74.9991C157.059 77.7933 157.206 80.5874 157.206 83.3816C157.206 86.1756 157.059 88.9697 156.765 91.7639C156.618 93.9698 156.177 96.3227 155.882 98.6756C155.441 101.029 155 104.411 154.412 106.764C153.823 106.764 153.235 106.764 152.5 106.764C153.088 104.411 153.529 101.323 153.824 99.1167C154.118 96.911 154.412 94.7051 154.706 92.6462C155 89.8521 155.147 87.0579 155.147 84.2639C155.147 81.4697 155 78.6756 154.706 75.8816C155.294 75.1463 155.882 74.2638 156.618 73.2344Z" fill="#2C8AFD"/>
<path d="M156.47 71.4713C153.823 75.2948 150.882 79.1183 147.647 82.7948C144.117 86.7654 140.294 90.5889 136.029 94.5594C131.47 98.6771 126.323 102.795 120.294 106.912C118.382 106.912 116.323 107.06 114.117 107.06C118.235 104.412 122.058 101.912 125.588 99.2654C128.823 96.9125 131.911 94.4124 134.705 92.0595C139.264 88.236 143.235 84.2654 146.764 80.2947C150.147 76.6184 153.088 72.7947 155.882 68.8242C156.029 69.5595 156.323 70.589 156.47 71.4713Z" fill="#2C8AFD"/>
<path d="M177.5 80.2947C174.117 80.2947 171.47 79.2652 169.558 77.2065C167.647 75.1476 166.617 72.3535 166.617 68.824C166.617 65.2947 167.5 62.5006 169.411 60.4417C171.323 58.3829 173.97 57.3535 177.353 57.3535C180.735 57.3535 183.382 58.3829 185.294 60.4417C187.205 62.5006 188.235 65.2947 188.235 68.824C188.235 72.3535 187.353 75.1476 185.441 77.2065C183.529 79.2652 180.882 80.2947 177.5 80.2947ZM177.5 60.7359C175.735 60.7359 174.411 61.4712 173.382 62.7946C172.352 64.1182 171.764 66.177 171.764 68.677C171.764 71.1771 172.352 73.2358 173.382 74.5594C174.411 75.8829 175.735 76.6182 177.5 76.6182C179.264 76.6182 180.588 75.8829 181.617 74.5594C182.647 73.0888 183.235 71.1771 183.235 68.677C183.235 66.177 182.794 64.1182 181.617 62.7946C180.588 61.4712 179.264 60.7359 177.5 60.7359Z" fill="#2C8AFD"/>
<path d="M211.177 79.7058H206.324V61.3235H199.119L198.824 65.4411C198.677 67.2059 198.53 68.8235 198.383 70.4412C198.236 72.0588 197.795 73.5294 197.354 74.8529C196.913 76.1765 196.324 77.3529 195.736 77.9412C195.148 78.6765 194.56 79.1177 193.824 79.4118C193.236 79.7058 192.501 79.853 191.619 79.853C191.177 79.853 190.442 79.853 189.266 79.7058V75.2942H189.413C189.707 75.2942 190.001 75.2942 190.148 75.2942C190.736 75.2942 191.177 75.2942 191.471 75.147C191.766 75 192.207 74.7059 192.501 74.2647C192.795 73.8236 193.089 73.2353 193.383 72.5C193.53 71.7647 193.824 70.8824 193.971 69.7059C194.119 68.5295 194.266 67.2059 194.266 65.7353C194.413 64.2647 194.413 61.4706 194.56 57.5H211.03V79.7058H211.177Z" fill="#2C8AFD"/>
<path d="M235.587 79.7048H230.881V64.2635L220.882 79.7048H216.322V57.793H221.029V72.2048L230.44 57.793H235.587V79.7048Z" fill="#2C8AFD"/>
<path d="M262.795 79.7048H258.088V64.2635L253.235 74.5577H250.147L245.294 64.2635V79.7048H240.883V57.793H246.323L251.912 69.4106L257.353 57.793H262.795V79.7048Z" fill="#2C8AFD"/>
<path d="M286.911 79.7048H282.206V61.3224H272.94V79.7048H268.088V57.793H286.911V79.7048Z" fill="#2C8AFD"/>
<path d="M180.882 106.911H178.088V92.058H169.264V106.911H166.617V89.7051H180.882V106.911Z" fill="#2C8AFD"/>
<path d="M196.323 106.911V104.999C194.852 106.028 193.676 106.617 192.793 106.911C191.911 107.205 190.882 107.352 189.999 107.352C188.529 107.352 187.205 106.911 186.176 105.881C185.146 104.852 184.705 103.528 184.705 102.058C184.705 99.999 185.44 98.5284 186.911 97.499C188.382 96.4695 191.617 95.8814 196.323 95.7342V95.1461C196.323 93.9696 196.029 93.0872 195.293 92.499C194.558 91.9107 193.382 91.6166 191.617 91.6166C189.999 91.6166 188.235 92.0579 186.323 92.7932H186.176V89.999C188.087 89.4108 189.852 89.2637 191.617 89.2637C194.117 89.2637 196.029 89.7048 197.205 90.7343C198.382 91.6166 198.97 93.0872 198.97 95.1461V106.911H196.323ZM196.323 102.793V97.7931C192.499 97.9401 190.146 98.3814 188.97 99.1166C187.94 99.8519 187.352 100.734 187.352 101.911C187.352 103.97 188.529 104.999 191.029 104.999C192.94 104.999 194.558 104.264 196.323 102.793Z" fill="#2C8AFD"/>
<path d="M206.764 106.03V113.383H204.117V89.8534H206.764V91.7652C208.676 90.1474 210.588 89.4121 212.5 89.4121C214.558 89.4121 216.176 90.1474 217.353 91.7652C218.529 93.3828 219.117 95.4417 219.117 98.2357C219.117 100.883 218.382 103.089 216.912 104.853C215.441 106.618 213.676 107.353 211.47 107.353C209.852 107.353 208.235 106.912 206.764 106.03ZM206.764 93.8239V103.824C208.235 104.559 209.705 104.853 211.029 104.853C212.647 104.853 213.97 104.265 215 103.089C215.882 101.912 216.47 100.295 216.47 98.2357C216.47 93.9711 214.853 91.7652 211.764 91.7652C210 91.7652 208.382 92.5005 206.764 93.8239Z" fill="#2C8AFD"/>
<path d="M238.234 106.911H234.705L227.646 98.9698H225.882V106.911H223.234V89.7051H225.882V97.2051C226.911 97.2051 227.793 97.0581 228.382 96.6168C228.97 96.3228 229.411 95.7345 229.999 94.8522C230.44 93.9697 230.734 93.2344 231.028 92.6463C231.322 92.058 231.616 91.4698 232.206 91.0285C232.647 90.5874 233.235 90.1462 233.823 89.9992C234.411 89.7051 235.293 89.7051 236.176 89.7051H237.352V92.058H236.029C235.293 92.058 234.558 92.2051 234.117 92.6463C233.676 92.9404 233.235 93.6757 232.941 94.558C232.206 96.1756 231.322 97.3521 230.293 97.9404L238.234 106.911Z" fill="#2C8AFD"/>
<path d="M248.228 107.353C245.435 107.353 243.081 106.617 241.611 105C239.993 103.382 239.258 101.323 239.258 98.3819C239.258 95.5879 239.993 93.382 241.463 91.6172C242.934 89.9996 244.992 89.1172 247.493 89.1172C249.699 89.1172 251.463 89.8525 252.786 91.1761C254.111 92.4995 254.699 94.4114 254.699 97.0585V98.5291H242.052C242.052 100.588 242.64 102.205 243.669 103.235C244.845 104.411 246.317 104.852 248.375 104.852C250.287 104.852 252.345 104.117 254.258 102.794H254.405V105.735C251.904 106.911 249.846 107.353 248.228 107.353ZM241.905 96.6172H252.051C251.904 93.2348 250.434 91.4702 247.346 91.4702C245.729 91.4702 244.551 91.9114 243.669 92.7937C242.64 93.6761 242.052 94.9996 241.905 96.6172Z" fill="#2C8AFD"/>
<path d="M271.176 92.058H265V106.911H262.353V92.058H256.176V89.7051H271.176V92.058Z" fill="#2C8AFD"/>
<path d="M284.266 106.911V104.999C282.794 106.028 281.618 106.617 280.736 106.911C279.854 107.205 278.824 107.352 277.942 107.352C276.472 107.352 275.147 106.911 274.118 105.881C273.089 104.852 272.648 103.528 272.648 102.058C272.648 99.999 273.383 98.5284 274.853 97.499C276.325 96.4695 279.559 95.8814 284.266 95.7342V95.1461C284.266 93.9696 283.972 93.0872 283.235 92.499C282.5 91.9107 281.324 91.6166 279.559 91.6166C277.942 91.6166 276.178 92.0579 274.265 92.7932H274.118V89.999C276.031 89.4108 277.795 89.2637 279.559 89.2637C282.059 89.2637 283.972 89.7048 285.148 90.7343C286.324 91.6166 286.912 93.0872 286.912 95.1461V106.911H284.266ZM284.266 102.793V97.7931C280.442 97.9401 278.089 98.3814 276.913 99.1166C275.884 99.8519 275.294 100.734 275.294 101.911C275.294 103.97 276.472 104.999 278.971 104.999C280.736 104.999 282.5 104.264 284.266 102.793Z" fill="#2C8AFD"/>
<path d="M287.205 83.5293H166.617V85.2939H287.205V83.5293Z" fill="#2C8AFD"/>
</g>
<defs>
<clipPath id="clip0_5504_29201">
<rect width="235.5" height="75" fill="white" transform="translate(65 45)"/>
</clipPath>
</defs>
</svg>
