<svg width="173" height="46" viewBox="0 0 173 46" fill="none" xmlns="http://www.w3.org/2000/svg">
<path d="M13.764 0.303997C17.5613 0.303997 20.74 0.666664 23.3 1.392C25.9027 2.11733 27.844 3.312 29.124 4.976C30.4467 6.64 31.108 8.85866 31.108 11.632C31.108 13.424 30.7667 15.024 30.084 16.432C29.444 17.7973 28.4627 18.9493 27.14 19.888C25.86 20.784 24.2813 21.4027 22.404 21.744V22.064C24.324 22.3627 26.052 22.9173 27.588 23.728C29.1667 24.5387 30.404 25.6907 31.3 27.184C32.196 28.6773 32.644 30.6187 32.644 33.008C32.644 35.7813 32.004 38.1493 30.724 40.112C29.444 42.032 27.6093 43.504 25.22 44.528C22.8733 45.5093 20.0573 46 16.772 46H0.708V0.303997H13.764ZM14.916 19.76C18.8413 19.76 21.5293 19.1413 22.98 17.904C24.4307 16.624 25.156 14.7467 25.156 12.272C25.156 9.75467 24.26 7.96267 22.468 6.896C20.7187 5.78667 17.9027 5.232 14.02 5.232H6.468V19.76H14.916ZM6.468 24.56V41.136H15.684C19.7373 41.136 22.5533 40.3467 24.132 38.768C25.7107 37.1893 26.5 35.12 26.5 32.56C26.5 30.9387 26.1373 29.5307 25.412 28.336C24.7293 27.1413 23.556 26.224 21.892 25.584C20.2707 24.9013 18.052 24.56 15.236 24.56H6.468ZM42.397 0.303997H47.773V25.392C47.773 26.4587 47.7517 27.632 47.709 28.912C47.709 30.1493 47.6877 31.3867 47.645 32.624C47.6023 33.8613 47.5383 34.9707 47.453 35.952C47.4103 36.8907 47.3677 37.616 47.325 38.128H47.581L72.733 0.303997H79.133V46H73.757V21.168C73.757 20.016 73.7783 18.7787 73.821 17.456C73.8637 16.0907 73.9063 14.7893 73.949 13.552C74.0343 12.272 74.0983 11.1413 74.141 10.16C74.1837 9.17867 74.2263 8.45333 74.269 7.984H74.013L48.797 46H42.397V0.303997ZM126.402 46H120.642V24.688H97.218V46H91.458V0.303997H97.218V19.632H120.642V0.303997H126.402V46ZM172.24 46H165.328L144.656 22.832V46H138.896V0.303997H144.656V22.448L164.816 0.303997H171.344L151.503 22.512L172.24 46Z" fill="#9EAABC"/>
</svg>
