<svg width="160" height="73" viewBox="0 0 160 73" fill="none" xmlns="http://www.w3.org/2000/svg">
<g opacity="0.5">
<path d="M40.1073 4.01312V65.0396C40.1096 65.1789 40.0793 65.3164 40.0192 65.4386C39.9592 65.5608 39.8715 65.6635 39.7649 65.7365C39.6582 65.8096 39.5363 65.8504 39.4111 65.8549C39.286 65.8595 39.1619 65.8277 39.0512 65.7627L28.7125 60.0032C28.592 59.9374 28.4904 59.8356 28.4193 59.7091C28.3481 59.5825 28.3101 59.4364 28.3097 59.2872V9.76907C28.3101 9.61985 28.3481 9.47373 28.4193 9.34722C28.4904 9.22071 28.592 9.11884 28.7125 9.0531L39.048 3.30068C39.1583 3.23592 39.2817 3.20412 39.4064 3.20839C39.531 3.21265 39.6525 3.25284 39.7589 3.32502C39.8654 3.39719 39.9532 3.49888 40.0137 3.62012C40.0742 3.74136 40.1053 3.87799 40.1041 4.01664L40.1073 4.01312ZM121.555 25.8872V65.0467C121.554 65.1835 121.523 65.3179 121.462 65.4372C121.402 65.5565 121.315 65.6567 121.211 65.7284C121.106 65.8001 120.986 65.8409 120.864 65.8468C120.741 65.8528 120.618 65.8239 120.508 65.7627L110.157 60.0032C110.037 59.9369 109.936 59.8349 109.866 59.7084C109.795 59.5819 109.757 59.4361 109.757 59.2872V25.8872C109.757 25.6748 109.833 25.4712 109.968 25.321C110.103 25.1709 110.286 25.0865 110.477 25.0865H120.835C121.026 25.0865 121.209 25.1709 121.344 25.321C121.479 25.4712 121.555 25.6748 121.555 25.8872ZM107.388 63.6712L107.185 63.8405C105.993 64.8119 104.642 65.5162 103.208 65.9143C101.466 66.4151 99.6437 66.4655 97.8811 66.0618C96.1185 65.6581 94.4624 64.8109 93.0398 63.5852C91.6171 62.3596 90.4657 60.7879 89.6738 58.9908C88.8818 57.1936 88.4704 55.2187 88.471 53.2174V25.993C88.471 25.7812 88.5464 25.5781 88.6807 25.4281C88.815 25.278 88.9973 25.1933 89.1877 25.1923L95.8286 25.3123H99.5264C99.5676 25.3078 99.609 25.3078 99.6501 25.3123C99.8127 25.3488 99.959 25.4467 100.064 25.5894C100.169 25.7321 100.227 25.9108 100.227 26.0952V35.558C100.224 35.6085 100.224 35.6592 100.227 35.7097V57.037C100.229 58.65 100.806 60.1964 101.831 61.337C102.857 62.4775 104.248 63.1191 105.698 63.121H107.128C107.174 63.1106 107.222 63.1129 107.268 63.1275C107.313 63.1422 107.354 63.1689 107.388 63.2054C107.422 63.2418 107.448 63.2868 107.463 63.3366C107.478 63.3864 107.482 63.4395 107.474 63.4913C107.463 63.5588 107.433 63.6241 107.388 63.6712ZM25.7123 30.0313C25.0669 29.7436 24.3779 29.5963 23.6826 29.5975H22.8581C22.1369 29.5975 21.4228 29.7557 20.7567 30.063C20.0907 30.3704 19.4856 30.8208 18.9763 31.3886C18.4669 31.9563 18.0633 32.6302 17.7885 33.3717C17.5137 34.1132 17.3731 34.9077 17.3747 35.7097V57.037C17.3789 58.6513 17.9585 60.1978 18.9864 61.3376C20.0142 62.4774 21.4065 63.1175 22.8581 63.1175H24.2884C24.3346 63.1112 24.3814 63.1176 24.4249 63.1361C24.4683 63.1545 24.5071 63.1846 24.5377 63.2235C24.5684 63.2625 24.59 63.3092 24.6007 63.3595C24.6114 63.4099 24.6109 63.4624 24.5992 63.5125C24.5844 63.5787 24.5511 63.638 24.504 63.6818L24.3042 63.8511C22.5445 65.2705 20.4662 66.1214 18.2989 66.3095C16.1317 66.4977 13.9598 66.016 12.0233 64.9175C10.0868 63.8189 8.4611 62.1465 7.32575 60.0848C6.1904 58.0231 5.58964 55.6526 5.58984 53.235V38.6547C5.58984 31.3962 10.9336 25.2699 17.4572 25.3087C19.0703 25.3203 20.664 25.7008 22.1392 26.4265C23.6144 27.1521 24.9397 28.2075 26.0326 29.527C26.0714 29.5811 26.0934 29.6477 26.0953 29.7169C26.0972 29.7861 26.079 29.8541 26.0434 29.9108C26.0077 29.9675 25.9565 30.0099 25.8974 30.0316C25.8383 30.0533 25.7713 30.0532 25.7123 30.0313ZM154.804 52.6566C154.804 56.254 153.925 59.2308 152.165 61.5868C151.902 61.9254 151.658 62.2392 151.35 62.5567C149.266 64.8139 146.593 66.0272 143.346 66.26C143.336 66.2655 143.326 66.2684 143.315 66.2684C143.305 66.2684 143.295 66.2655 143.285 66.26L142.981 66.2846H141.725C139.635 66.2052 137.554 65.9208 135.509 65.4347L135.217 65.3641C133.707 64.93 132.228 64.3748 130.79 63.7029C130.269 63.4489 129.825 63.0355 129.507 62.511C129.19 61.9864 129.013 61.3723 128.998 60.7403L128.713 53.1257C128.711 53.0681 128.719 53.0108 128.737 52.9569C128.756 52.9031 128.783 52.8539 128.819 52.8124C128.855 52.7709 128.898 52.7379 128.946 52.7154C128.993 52.6928 129.045 52.6812 129.096 52.6813C129.388 52.6813 129.655 52.8647 129.788 53.1503C131.225 56.214 133.105 58.9939 135.354 61.3787C137.256 63.389 139.242 64.5811 141.316 64.9585C141.798 65.0467 142.286 65.0925 142.775 65.089C143.019 65.089 143.282 65.089 143.504 65.0537H143.625C143.712 65.0527 143.799 65.0433 143.885 65.0255C144.338 64.9832 144.788 64.8739 145.217 64.7081C145.401 64.6481 145.578 64.5811 145.753 64.4965C145.889 64.4365 146.025 64.373 146.152 64.299C146.957 63.8486 147.667 63.214 148.236 62.4368C148.35 62.2957 148.458 62.1475 148.553 61.9924C148.651 61.8301 148.753 61.6749 148.838 61.5198C149.156 60.6945 149.308 59.8057 149.292 58.9098C149.333 57.9772 149.159 57.0484 148.786 56.2118C148.413 55.3753 147.853 54.6589 147.161 54.1308C145.288 52.8045 143.232 51.8287 141.075 51.2423C139.144 50.6834 137.252 49.969 135.414 49.105C134.473 48.6209 133.582 48.0249 132.756 47.3274C132.518 47.1369 132.281 46.9147 132.043 46.7031C129.896 44.7245 128.821 41.6596 128.821 37.5013C128.814 36.1611 129.004 34.8279 129.385 33.5547C129.436 33.403 129.487 33.2514 129.547 33.0962C129.724 32.5813 129.931 32.0805 130.165 31.5902C130.165 31.562 130.191 31.5302 130.206 31.495C130.723 30.5004 131.358 29.5834 132.087 28.7722C133.644 27.0489 135.634 25.8927 137.796 25.4569C138.848 25.2241 139.92 25.1112 140.992 25.1183C141.595 25.1183 142.226 25.1536 142.851 25.217C144.279 25.3726 145.691 25.6748 147.069 26.1199C148.851 26.7195 150.589 27.4813 152.257 28.3948C152.265 28.3995 152.272 28.4066 152.276 28.4154C152.281 28.4241 152.283 28.4341 152.282 28.4442L152.432 33.1033L152.546 36.8806C152.547 36.9358 152.539 36.9908 152.521 37.0423C152.503 37.0938 152.476 37.1408 152.441 37.1803C152.407 37.2199 152.365 37.2512 152.319 37.2724C152.274 37.2937 152.224 37.3043 152.175 37.3038C152.042 37.3035 151.912 37.2638 151.797 37.1888C151.683 37.1138 151.589 37.0061 151.525 36.8771C150.605 35.036 149.558 33.2796 148.394 31.6219C147.868 30.8738 147.306 30.158 146.71 29.4776L146.571 29.3259C144.773 27.3226 142.819 26.3245 140.71 26.3245C138.601 26.3245 136.962 26.8641 135.794 27.9469C135.232 28.4786 134.786 29.1454 134.489 29.8969C134.193 30.6483 134.053 31.4649 134.082 32.285C134.056 33.1254 134.236 33.9578 134.602 34.6938C134.967 35.4297 135.506 36.0416 136.159 36.4644C137.754 37.5289 139.481 38.3285 141.284 38.8381L142.299 39.1449C143.767 39.5893 144.757 39.9067 145.283 40.0972C145.918 40.3229 146.71 40.6333 147.652 41.0353C148.461 41.3598 149.238 41.783 149.967 42.2909C150.637 42.7882 151.274 43.3419 151.87 43.9486C152.504 44.5728 153.037 45.3206 153.434 46.1564C154.388 48.1562 154.861 50.3958 154.804 52.6601V52.6566ZM82.5817 46.2164V45.7579V45.1513V44.7139C82.5817 44.4036 82.55 44.0861 82.5214 43.7758L82.4897 43.4301L82.4612 43.1656C82.4601 42.9939 82.4388 42.8232 82.3977 42.6577C82.3977 42.4884 82.3533 42.3191 82.3248 42.1569C82.2931 41.9947 82.2899 41.9382 82.2677 41.8254L82.1884 41.3739C82.1111 40.9685 82.0212 40.5662 81.9189 40.1677L81.7983 39.7021L81.6556 39.2225C81.6081 39.0673 81.5605 38.9121 81.5066 38.7569C81.4053 38.4438 81.2975 38.1333 81.1831 37.8258L81.0467 37.4661C80.9745 37.2732 80.893 37.0848 80.8025 36.9018C80.7169 36.7325 80.6059 36.4362 80.4917 36.2175C80.2016 35.584 79.8775 34.9704 79.5213 34.38C79.3801 34.1425 79.2341 33.9085 79.0836 33.6782L78.8648 33.3466L78.7284 33.1491C78.2901 32.5149 77.8177 31.9107 77.314 31.3398L77.0381 31.033C76.715 30.6764 76.3786 30.3351 76.0296 30.0101L75.9535 29.9361C75.7519 29.7461 75.549 29.558 75.3446 29.3718L74.9957 29.0755C74.6414 28.7826 74.2764 28.5061 73.9016 28.2467C73.7779 28.162 73.651 28.0703 73.5242 27.9927L73.1436 27.7458C73.0158 27.6628 72.8857 27.584 72.7535 27.5095C72.6235 27.439 72.4967 27.3579 72.3635 27.2838L71.9639 27.0652C71.831 26.9912 71.6955 26.923 71.5579 26.8606L71.152 26.6631C70.8758 26.5349 70.5967 26.4149 70.3147 26.3033L69.893 26.1376L69.4616 25.9859L69.0303 25.8448C68.7406 25.754 68.4487 25.6716 68.155 25.5979L67.7998 25.5133L67.2607 25.4004C66.9579 25.3384 66.6532 25.2879 66.3473 25.2488L65.8907 25.1853L65.2247 25.1218H63.1886C60.29 25.2608 57.4608 26.1522 54.9274 27.7248C52.394 29.2974 50.2266 31.5074 48.5987 34.1782C46.9707 36.849 45.9273 39.9064 45.552 43.1059C45.1766 46.3054 45.4797 49.5581 46.4371 52.604C47.3944 55.6499 48.9793 58.4044 51.0652 60.6472C53.151 62.89 55.6798 64.5588 58.4494 65.5202C61.2189 66.4816 64.1523 66.7089 67.015 66.1839C69.8777 65.6589 72.5901 64.3962 74.9355 62.4967L75.2304 62.2498C75.4683 62.0453 75.7061 61.8478 75.9281 61.6397C76.0042 61.5762 76.0772 61.5092 76.1501 61.4351L76.334 61.2447L76.3911 61.1918C77.74 59.8474 78.9075 58.2936 79.8575 56.5785C79.867 56.5574 79.8733 56.5291 79.8575 56.508C79.8504 56.499 79.8418 56.4918 79.8321 56.4868C79.8212 56.4813 79.8092 56.4789 79.7972 56.4798C79.7858 56.4816 79.7749 56.4864 79.7655 56.4939L79.7021 56.5468L79.1185 57.1393C77.9241 58.4725 76.5002 59.5241 74.9319 60.2313C73.3637 60.9385 71.6833 61.2867 69.9913 61.2552C68.0038 61.257 66.0442 60.7362 64.2722 59.7352C62.5003 58.7343 60.9662 57.2816 59.7952 55.4958C58.2054 53.0944 57.3495 50.1895 57.3533 47.2075V46.2199H82.5817V46.2164ZM63.6897 27.0087C65.363 27.0125 66.9666 27.7543 68.1486 29.0715C69.3306 30.3886 69.9944 32.1735 69.9944 34.0344V45.4123H57.3723V34.0344C57.3731 32.1713 58.039 30.3849 59.2236 29.0675C60.4081 27.7502 62.0145 27.0097 63.6897 27.0087Z" fill="white"/>
</g>
</svg>
