<svg width="46" height="46" fill="none" xmlns="http://www.w3.org/2000/svg"><g filter="url(#filter0_iiiiii_5504_28897)"><path d="M22.5 5c7.219 0 11.313 4.928 11.908 10.88h.18c4.992 0 8.75 4.523 8.384 9.38C41 37 29 41 16.79 33.186h-6.38C5.763 33.188 2 29.314 2 24.535c0-4.78 3.767-8.654 8.41-8.654h.182C11.192 9.89 15.282 5 22.5 5z" fill="#121212"/><path d="M22.5 5c7.219 0 11.313 4.928 11.908 10.88h.18c4.992 0 8.75 4.523 8.384 9.38C41 37 29 41 16.79 33.186h-6.38C5.763 33.188 2 29.314 2 24.535c0-4.78 3.767-8.654 8.41-8.654h.182C11.192 9.89 15.282 5 22.5 5z" fill="#D0E2F3"/></g><g filter="url(#filter1_i_5504_28897)"><path d="M28.531 19a11.532 11.532 0 110 23.063 11.532 11.532 0 010-23.063zm4.105 12.551a1.442 1.442 0 102.04-2.04l-5.125-5.125a1.44 1.44 0 00-2.04 0l-5.125 5.125a1.441 1.441 0 102.04 2.04l2.824-2.824v6.93a1.28 1.28 0 102.563 0v-6.93l2.823 2.824z" fill="#121212"/><path d="M28.531 19a11.532 11.532 0 110 23.063 11.532 11.532 0 010-23.063zm4.105 12.551a1.442 1.442 0 102.04-2.04l-5.125-5.125a1.44 1.44 0 00-2.04 0l-5.125 5.125a1.441 1.441 0 102.04 2.04l2.824-2.824v6.93a1.28 1.28 0 102.563 0v-6.93l2.823 2.824z" fill="url(#paint0_linear_5504_28897)"/></g><defs><filter id="filter0_iiiiii_5504_28897" x="1" y="3" width="42.996" height="35.225" filterUnits="userSpaceOnUse" color-interpolation-filters="sRGB"><feFlood flood-opacity="0" result="BackgroundImageFix"/><feBlend in="SourceGraphic" in2="BackgroundImageFix" result="shape"/><feColorMatrix in="SourceAlpha" values="0 0 0 0 0 0 0 0 0 0 0 0 0 0 0 0 0 0 127 0" result="hardAlpha"/><feOffset dx="1" dy="1"/><feGaussianBlur stdDeviation="1"/><feComposite in2="hardAlpha" operator="arithmetic" k2="-1" k3="1"/><feColorMatrix values="0 0 0 0 0.534167 0 0 0 0 0.645967 0 0 0 0 0.749167 0 0 0 0.6 0"/><feBlend in2="shape" result="effect1_innerShadow_5504_28897"/><feColorMatrix in="SourceAlpha" values="0 0 0 0 0 0 0 0 0 0 0 0 0 0 0 0 0 0 127 0" result="hardAlpha"/><feOffset dx="-1" dy="-2"/><feGaussianBlur stdDeviation="1"/><feComposite in2="hardAlpha" operator="arithmetic" k2="-1" k3="1"/><feColorMatrix values="0 0 0 0 0.533333 0 0 0 0 0.647059 0 0 0 0 0.74902 0 0 0 0.3 0"/><feBlend in2="effect1_innerShadow_5504_28897" result="effect2_innerShadow_5504_28897"/><feColorMatrix in="SourceAlpha" values="0 0 0 0 0 0 0 0 0 0 0 0 0 0 0 0 0 0 127 0" result="hardAlpha"/><feOffset dx="-1" dy="-2"/><feGaussianBlur stdDeviation="1.5"/><feComposite in2="hardAlpha" operator="arithmetic" k2="-1" k3="1"/><feColorMatrix values="0 0 0 0 1 0 0 0 0 1 0 0 0 0 1 0 0 0 0.4 0"/><feBlend mode="screen" in2="effect2_innerShadow_5504_28897" result="effect3_innerShadow_5504_28897"/><feColorMatrix in="SourceAlpha" values="0 0 0 0 0 0 0 0 0 0 0 0 0 0 0 0 0 0 127 0" result="hardAlpha"/><feOffset dx="1" dy="1"/><feGaussianBlur stdDeviation="1"/><feComposite in2="hardAlpha" operator="arithmetic" k2="-1" k3="1"/><feColorMatrix values="0 0 0 0 0.534167 0 0 0 0 0.645967 0 0 0 0 0.749167 0 0 0 0.6 0"/><feBlend in2="effect3_innerShadow_5504_28897" result="effect4_innerShadow_5504_28897"/><feColorMatrix in="SourceAlpha" values="0 0 0 0 0 0 0 0 0 0 0 0 0 0 0 0 0 0 127 0" result="hardAlpha"/><feOffset dx="-1" dy="-2"/><feGaussianBlur stdDeviation="1"/><feComposite in2="hardAlpha" operator="arithmetic" k2="-1" k3="1"/><feColorMatrix values="0 0 0 0 0.533333 0 0 0 0 0.647059 0 0 0 0 0.74902 0 0 0 0.3 0"/><feBlend in2="effect4_innerShadow_5504_28897" result="effect5_innerShadow_5504_28897"/><feColorMatrix in="SourceAlpha" values="0 0 0 0 0 0 0 0 0 0 0 0 0 0 0 0 0 0 127 0" result="hardAlpha"/><feOffset dx="-1" dy="-2"/><feGaussianBlur stdDeviation="1.5"/><feComposite in2="hardAlpha" operator="arithmetic" k2="-1" k3="1"/><feColorMatrix values="0 0 0 0 1 0 0 0 0 1 0 0 0 0 1 0 0 0 0.4 0"/><feBlend mode="screen" in2="effect5_innerShadow_5504_28897" result="effect6_innerShadow_5504_28897"/></filter><filter id="filter1_i_5504_28897" x="17" y="19" width="24.415" height="24.415" filterUnits="userSpaceOnUse" color-interpolation-filters="sRGB"><feFlood flood-opacity="0" result="BackgroundImageFix"/><feBlend in="SourceGraphic" in2="BackgroundImageFix" result="shape"/><feColorMatrix in="SourceAlpha" values="0 0 0 0 0 0 0 0 0 0 0 0 0 0 0 0 0 0 127 0" result="hardAlpha"/><feOffset dx="1.353" dy="1.353"/><feGaussianBlur stdDeviation=".676"/><feComposite in2="hardAlpha" operator="arithmetic" k2="-1" k3="1"/><feColorMatrix values="0 0 0 0 0 0 0 0 0 0.37028 0 0 0 0 0.74056 0 0 0 0.5 0"/><feBlend mode="multiply" in2="shape" result="effect1_innerShadow_5504_28897"/></filter><linearGradient id="paint0_linear_5504_28897" x1="18.087" y1="19" x2="44.266" y2="29.666" gradientUnits="userSpaceOnUse"><stop stop-color="#0050EC"/><stop offset="1" stop-color="#39C7EC"/></linearGradient></defs></svg>