<svg width="46" height="46" fill="none" xmlns="http://www.w3.org/2000/svg"><g filter="url(#filter0_iii_5504_28856)"><path d="M4.268 8.263c.184-2.142 1.756-3.746 3.898-3.944 2.619-.242 6.974-.487 13.876-.487 6.903 0 11.258.245 13.877.487 2.142.198 3.713 1.802 3.898 3.944.217 2.516.434 6.589.434 12.819s-.217 10.303-.434 12.819c-.185 2.142-1.757 3.746-3.898 3.944-2.62.242-6.974.487-13.877.487-6.902 0-11.257-.245-13.876-.487-2.142-.198-3.714-1.801-3.898-3.944-.217-2.516-.434-6.589-.434-12.819s.217-10.303.434-12.819z" fill="#D0E2F3"/></g><g filter="url(#filter1_i_5504_28856)"><path fill-rule="evenodd" clip-rule="evenodd" d="M40.036 11.499H4.051c.066-1.286.142-2.356.218-3.236.185-2.142 1.756-3.746 3.898-3.944 2.62-.242 6.974-.487 13.877-.487 6.902 0 11.257.245 13.876.487 2.142.198 3.714 1.802 3.898 3.944.076.88.152 1.95.218 3.236z" fill="url(#paint0_linear_5504_28856)"/></g><g filter="url(#filter2_i_5504_28856)"><path d="M9.584 17.821c0-.745.569-1.362 1.313-1.4 1.191-.06 3.193-.13 6.005-.13 2.455 0 3.983.054 4.896.107.697.041 1.203.616 1.203 1.314v.991c0 .699-.506 1.273-1.203 1.314-.913.053-2.441.107-4.896.107-2.812 0-4.814-.07-6.005-.13a1.388 1.388 0 01-1.313-1.4v-.773z" fill="url(#paint1_linear_5504_28856)"/></g><g filter="url(#filter3_i_5504_28856)"><path d="M9.584 25.323c0-.674.472-1.235 1.144-1.284a37.51 37.51 0 012.69-.082c1.214 0 2.086.038 2.689.082.672.049 1.144.61 1.144 1.284v1.101c0 .674-.472 1.236-1.144 1.285a37.51 37.51 0 01-2.69.081 37.51 37.51 0 01-2.69-.081c-.671-.05-1.143-.611-1.143-1.285v-1.1z" fill="url(#paint2_linear_5504_28856)"/></g><g filter="url(#filter4_i_5504_28856)"><path d="M23.185 27.388c.14-1.584 1.124-2.846 2.698-3.069 1.378-.195 3.494-.362 6.698-.362 3.205 0 5.32.167 6.699.362 1.573.223 2.558 1.485 2.697 3.069.1 1.138.188 2.6.188 4.236 0 4.326-2.283 8.374-6.13 10.354-1.285.66-2.539 1.146-3.454 1.146-.914 0-2.168-.485-3.453-1.147-3.847-1.98-6.13-6.027-6.13-10.353 0-1.637.087-3.098.187-4.236z" fill="url(#paint3_linear_5504_28856)"/></g><g filter="url(#filter5_iii_5504_28856)"><path fill-rule="evenodd" clip-rule="evenodd" d="M38.002 29.018a1.41 1.41 0 01.165 1.785c-1.947 2.826-3.702 4.703-4.73 5.702-.56.543-1.398.617-2.023.152a18.56 18.56 0 01-3.529-3.469 1.374 1.374 0 01-.05-1.59l.456-.707c.394-.61 1.235-.731 1.755-.224a37.092 37.092 0 012.239 2.408s1.489-2.079 3.67-4.409a1.172 1.172 0 011.694-.008l.353.36z" fill="#D0E2F3"/></g><defs><filter id="filter0_iii_5504_28856" x="2.834" y="1.832" width="38.416" height="37.5" filterUnits="userSpaceOnUse" color-interpolation-filters="sRGB"><feFlood flood-opacity="0" result="BackgroundImageFix"/><feBlend in="SourceGraphic" in2="BackgroundImageFix" result="shape"/><feColorMatrix in="SourceAlpha" values="0 0 0 0 0 0 0 0 0 0 0 0 0 0 0 0 0 0 127 0" result="hardAlpha"/><feOffset dx="1" dy="1"/><feGaussianBlur stdDeviation="1"/><feComposite in2="hardAlpha" operator="arithmetic" k2="-1" k3="1"/><feColorMatrix values="0 0 0 0 0.534167 0 0 0 0 0.645967 0 0 0 0 0.749167 0 0 0 0.6 0"/><feBlend in2="shape" result="effect1_innerShadow_5504_28856"/><feColorMatrix in="SourceAlpha" values="0 0 0 0 0 0 0 0 0 0 0 0 0 0 0 0 0 0 127 0" result="hardAlpha"/><feOffset dx="-1" dy="-2"/><feGaussianBlur stdDeviation="1"/><feComposite in2="hardAlpha" operator="arithmetic" k2="-1" k3="1"/><feColorMatrix values="0 0 0 0 0.533333 0 0 0 0 0.647059 0 0 0 0 0.74902 0 0 0 0.3 0"/><feBlend in2="effect1_innerShadow_5504_28856" result="effect2_innerShadow_5504_28856"/><feColorMatrix in="SourceAlpha" values="0 0 0 0 0 0 0 0 0 0 0 0 0 0 0 0 0 0 127 0" result="hardAlpha"/><feOffset dx="-1" dy="-2"/><feGaussianBlur stdDeviation="1.5"/><feComposite in2="hardAlpha" operator="arithmetic" k2="-1" k3="1"/><feColorMatrix values="0 0 0 0 1 0 0 0 0 1 0 0 0 0 1 0 0 0 0.4 0"/><feBlend mode="screen" in2="effect2_innerShadow_5504_28856" result="effect3_innerShadow_5504_28856"/></filter><filter id="filter1_i_5504_28856" x="4.051" y="3.832" width="37.339" height="9.019" filterUnits="userSpaceOnUse" color-interpolation-filters="sRGB"><feFlood flood-opacity="0" result="BackgroundImageFix"/><feBlend in="SourceGraphic" in2="BackgroundImageFix" result="shape"/><feColorMatrix in="SourceAlpha" values="0 0 0 0 0 0 0 0 0 0 0 0 0 0 0 0 0 0 127 0" result="hardAlpha"/><feOffset dx="1.353" dy="1.353"/><feGaussianBlur stdDeviation=".676"/><feComposite in2="hardAlpha" operator="arithmetic" k2="-1" k3="1"/><feColorMatrix values="0 0 0 0 0 0 0 0 0 0.37028 0 0 0 0 0.74056 0 0 0 0.5 0"/><feBlend mode="multiply" in2="shape" result="effect1_innerShadow_5504_28856"/></filter><filter id="filter2_i_5504_28856" x="9.584" y="16.291" width="14.769" height="5.187" filterUnits="userSpaceOnUse" color-interpolation-filters="sRGB"><feFlood flood-opacity="0" result="BackgroundImageFix"/><feBlend in="SourceGraphic" in2="BackgroundImageFix" result="shape"/><feColorMatrix in="SourceAlpha" values="0 0 0 0 0 0 0 0 0 0 0 0 0 0 0 0 0 0 127 0" result="hardAlpha"/><feOffset dx="1.353" dy="1.353"/><feGaussianBlur stdDeviation=".676"/><feComposite in2="hardAlpha" operator="arithmetic" k2="-1" k3="1"/><feColorMatrix values="0 0 0 0 0 0 0 0 0 0.37028 0 0 0 0 0.74056 0 0 0 0.5 0"/><feBlend mode="multiply" in2="shape" result="effect1_innerShadow_5504_28856"/></filter><filter id="filter3_i_5504_28856" x="9.584" y="23.957" width="9.019" height="5.187" filterUnits="userSpaceOnUse" color-interpolation-filters="sRGB"><feFlood flood-opacity="0" result="BackgroundImageFix"/><feBlend in="SourceGraphic" in2="BackgroundImageFix" result="shape"/><feColorMatrix in="SourceAlpha" values="0 0 0 0 0 0 0 0 0 0 0 0 0 0 0 0 0 0 127 0" result="hardAlpha"/><feOffset dx="1.353" dy="1.353"/><feGaussianBlur stdDeviation=".676"/><feComposite in2="hardAlpha" operator="arithmetic" k2="-1" k3="1"/><feColorMatrix values="0 0 0 0 0 0 0 0 0 0.37028 0 0 0 0 0.74056 0 0 0 0.5 0"/><feBlend mode="multiply" in2="shape" result="effect1_innerShadow_5504_28856"/></filter><filter id="filter4_i_5504_28856" x="22.998" y="23.957" width="20.519" height="20.519" filterUnits="userSpaceOnUse" color-interpolation-filters="sRGB"><feFlood flood-opacity="0" result="BackgroundImageFix"/><feBlend in="SourceGraphic" in2="BackgroundImageFix" result="shape"/><feColorMatrix in="SourceAlpha" values="0 0 0 0 0 0 0 0 0 0 0 0 0 0 0 0 0 0 127 0" result="hardAlpha"/><feOffset dx="1.353" dy="1.353"/><feGaussianBlur stdDeviation=".676"/><feComposite in2="hardAlpha" operator="arithmetic" k2="-1" k3="1"/><feColorMatrix values="0 0 0 0 0 0 0 0 0 0.37028 0 0 0 0 0.74056 0 0 0 0.5 0"/><feBlend mode="multiply" in2="shape" result="effect1_innerShadow_5504_28856"/></filter><filter id="filter5_iii_5504_28856" x="26.605" y="26.299" width="12.807" height="11.664" filterUnits="userSpaceOnUse" color-interpolation-filters="sRGB"><feFlood flood-opacity="0" result="BackgroundImageFix"/><feBlend in="SourceGraphic" in2="BackgroundImageFix" result="shape"/><feColorMatrix in="SourceAlpha" values="0 0 0 0 0 0 0 0 0 0 0 0 0 0 0 0 0 0 127 0" result="hardAlpha"/><feOffset dx="1" dy="1"/><feGaussianBlur stdDeviation="1"/><feComposite in2="hardAlpha" operator="arithmetic" k2="-1" k3="1"/><feColorMatrix values="0 0 0 0 0.534167 0 0 0 0 0.645967 0 0 0 0 0.749167 0 0 0 0.6 0"/><feBlend in2="shape" result="effect1_innerShadow_5504_28856"/><feColorMatrix in="SourceAlpha" values="0 0 0 0 0 0 0 0 0 0 0 0 0 0 0 0 0 0 127 0" result="hardAlpha"/><feOffset dx="-1" dy="-2"/><feGaussianBlur stdDeviation="1"/><feComposite in2="hardAlpha" operator="arithmetic" k2="-1" k3="1"/><feColorMatrix values="0 0 0 0 0.533333 0 0 0 0 0.647059 0 0 0 0 0.74902 0 0 0 0.3 0"/><feBlend in2="effect1_innerShadow_5504_28856" result="effect2_innerShadow_5504_28856"/><feColorMatrix in="SourceAlpha" values="0 0 0 0 0 0 0 0 0 0 0 0 0 0 0 0 0 0 127 0" result="hardAlpha"/><feOffset dx="-1" dy="-2"/><feGaussianBlur stdDeviation="1.5"/><feComposite in2="hardAlpha" operator="arithmetic" k2="-1" k3="1"/><feColorMatrix values="0 0 0 0 0.533333 0 0 0 0 0.647059 0 0 0 0 0.74902 0 0 0 0.4 0"/><feBlend in2="effect2_innerShadow_5504_28856" result="effect3_innerShadow_5504_28856"/></filter><linearGradient id="paint0_linear_5504_28856" x1="5.747" y1="3.832" x2="15.975" y2="23.39" gradientUnits="userSpaceOnUse"><stop stop-color="#0050EC"/><stop offset="1" stop-color="#39C7EC"/></linearGradient><linearGradient id="paint1_linear_5504_28856" x1="10.216" y1="16.291" x2="16.071" y2="24.639" gradientUnits="userSpaceOnUse"><stop stop-color="#0050EC"/><stop offset="1" stop-color="#39C7EC"/></linearGradient><linearGradient id="paint2_linear_5504_28856" x1="9.945" y1="23.957" x2="16.044" y2="28.926" gradientUnits="userSpaceOnUse"><stop stop-color="#0050EC"/><stop offset="1" stop-color="#39C7EC"/></linearGradient><linearGradient id="paint3_linear_5504_28856" x1="23.901" y1="23.957" x2="45.658" y2="32.821" gradientUnits="userSpaceOnUse"><stop stop-color="#0050EC"/><stop offset="1" stop-color="#39C7EC"/></linearGradient></defs></svg>