<svg width="46" height="46" fill="none" xmlns="http://www.w3.org/2000/svg"><g filter="url(#filter0_i_5504_29006)"><path d="M4 17a6 6 0 016-6h26a6 6 0 016 6v13a6 6 0 01-6 6H10a6 6 0 01-6-6V17z" fill="url(#paint0_linear_5504_29006)"/></g><g filter="url(#filter1_i_5504_29006)" fill="#DEE7EF"><path d="M33.11 28h-2.064v-3.276l-3.348-5.304h2.448l2.1 3.636h-.312l2.112-3.636h2.436l-3.372 5.316V28zm-6.227-8.58v5.196c0 1.128-.34 2.008-1.02 2.64-.672.624-1.604.936-2.796.936-1.184 0-2.116-.312-2.796-.936-.68-.632-1.02-1.512-1.02-2.64V19.42h2.064v5.196c0 .512.156.936.468 1.272.312.328.74.492 1.284.492.552 0 .984-.164 1.296-.492.312-.336.468-.76.468-1.272V19.42h2.052zM11.143 28v-8.58h3.792c.576 0 1.08.092 1.512.276.432.184.768.444 1.008.78.24.328.36.716.36 1.164 0 .424-.12.8-.36 1.128-.24.328-.576.584-1.008.768-.432.184-.936.276-1.512.276h-1.608v-.636h1.608c.648 0 1.212.096 1.692.288.488.184.868.448 1.14.792.272.344.408.752.408 1.224 0 .504-.136.948-.408 1.332-.272.376-.652.668-1.14.876-.48.208-1.044.312-1.692.312h-3.792zm2.064-1.692h1.74c.352 0 .628-.084.828-.252.208-.176.312-.416.312-.72 0-.28-.104-.5-.312-.66-.2-.16-.476-.24-.828-.24h-1.86v-1.644h1.704c.296 0 .524-.076.684-.228.168-.16.252-.376.252-.648 0-.256-.084-.452-.252-.588-.16-.144-.388-.216-.684-.216h-1.584v5.196z"/></g><g filter="url(#filter2_iii_5504_29006)"><path d="M27.024 28.625c1.314 7.047 2.944 11.605 3.788 13.672.294.72 1.124 1 1.792.6a32.27 32.27 0 003.583-2.485l3.766 4.925c.487.637 1.324.877 1.999.443.561-.361 1.288-.91 2.102-1.726a12.796 12.796 0 001.726-2.102c.434-.675.194-1.512-.443-1.999l-4.925-3.766a32.27 32.27 0 002.486-3.583 1.23 1.23 0 00-.6-1.792c-2.068-.844-6.626-2.474-13.673-3.788a1.37 1.37 0 00-1.6 1.6z" fill="#D0E2F3"/></g><defs><filter id="filter0_i_5504_29006" x="4" y="11" width="39.353" height="26.353" filterUnits="userSpaceOnUse" color-interpolation-filters="sRGB"><feFlood flood-opacity="0" result="BackgroundImageFix"/><feBlend in="SourceGraphic" in2="BackgroundImageFix" result="shape"/><feColorMatrix in="SourceAlpha" values="0 0 0 0 0 0 0 0 0 0 0 0 0 0 0 0 0 0 127 0" result="hardAlpha"/><feOffset dx="1.353" dy="1.353"/><feGaussianBlur stdDeviation=".676"/><feComposite in2="hardAlpha" operator="arithmetic" k2="-1" k3="1"/><feColorMatrix values="0 0 0 0 0 0 0 0 0 0.37028 0 0 0 0 0.74056 0 0 0 0.5 0"/><feBlend mode="multiply" in2="shape" result="effect1_innerShadow_5504_29006"/></filter><filter id="filter1_i_5504_29006" x="11.143" y="19.42" width="25.84" height="9.271" filterUnits="userSpaceOnUse" color-interpolation-filters="sRGB"><feFlood flood-opacity="0" result="BackgroundImageFix"/><feBlend in="SourceGraphic" in2="BackgroundImageFix" result="shape"/><feColorMatrix in="SourceAlpha" values="0 0 0 0 0 0 0 0 0 0 0 0 0 0 0 0 0 0 127 0" result="hardAlpha"/><feOffset dx=".5" dy=".5"/><feGaussianBlur stdDeviation=".25"/><feComposite in2="hardAlpha" operator="arithmetic" k2="-1" k3="1"/><feColorMatrix values="0 0 0 0 0 0 0 0 0 0.37028 0 0 0 0 0.74056 0 0 0 0.5 0"/><feBlend mode="multiply" in2="shape" result="effect1_innerShadow_5504_29006"/></filter><filter id="filter2_iii_5504_29006" x="26" y="25" width="21" height="22" filterUnits="userSpaceOnUse" color-interpolation-filters="sRGB"><feFlood flood-opacity="0" result="BackgroundImageFix"/><feBlend in="SourceGraphic" in2="BackgroundImageFix" result="shape"/><feColorMatrix in="SourceAlpha" values="0 0 0 0 0 0 0 0 0 0 0 0 0 0 0 0 0 0 127 0" result="hardAlpha"/><feOffset dx="1" dy="1"/><feGaussianBlur stdDeviation="1"/><feComposite in2="hardAlpha" operator="arithmetic" k2="-1" k3="1"/><feColorMatrix values="0 0 0 0 0.534167 0 0 0 0 0.645967 0 0 0 0 0.749167 0 0 0 0.6 0"/><feBlend in2="shape" result="effect1_innerShadow_5504_29006"/><feColorMatrix in="SourceAlpha" values="0 0 0 0 0 0 0 0 0 0 0 0 0 0 0 0 0 0 127 0" result="hardAlpha"/><feOffset dx="-1" dy="-2"/><feGaussianBlur stdDeviation="1"/><feComposite in2="hardAlpha" operator="arithmetic" k2="-1" k3="1"/><feColorMatrix values="0 0 0 0 0.533333 0 0 0 0 0.647059 0 0 0 0 0.74902 0 0 0 0.3 0"/><feBlend in2="effect1_innerShadow_5504_29006" result="effect2_innerShadow_5504_29006"/><feColorMatrix in="SourceAlpha" values="0 0 0 0 0 0 0 0 0 0 0 0 0 0 0 0 0 0 127 0" result="hardAlpha"/><feOffset dx="-1" dy="-2"/><feGaussianBlur stdDeviation="1.5"/><feComposite in2="hardAlpha" operator="arithmetic" k2="-1" k3="1"/><feColorMatrix values="0 0 0 0 1 0 0 0 0 1 0 0 0 0 1 0 0 0 0.4 0"/><feBlend mode="screen" in2="effect2_innerShadow_5504_29006" result="effect3_innerShadow_5504_29006"/></filter><linearGradient id="paint0_linear_5504_29006" x1="5.791" y1="11" x2="42.145" y2="33.513" gradientUnits="userSpaceOnUse"><stop stop-color="#0050EC"/><stop offset="1" stop-color="#39C7EC"/></linearGradient></defs></svg>