<svg width="46" height="46" fill="none" xmlns="http://www.w3.org/2000/svg"><g filter="url(#filter0_iii_5504_29099)" fill="#D0E2F3"><path d="M19.35 16.044l1.087 3.933c1.024 3.704 1.535 5.557 3.04 6.4 1.504.843 3.415.345 7.235-.647l4.052-1.055c3.82-.992 5.73-1.488 6.6-2.947.87-1.46.36-3.313-.666-7.018l-1.085-3.93c-1.024-3.706-1.537-5.56-3.04-6.401-1.507-.845-3.417-.346-7.237.648l-4.053 1.05c-3.82.993-5.73 1.49-6.598 2.952-.87 1.458-.359 3.311.665 7.015z"/><path d="M3.97 8.693a1.583 1.583 0 011.95-1.102l3.594.997a5.714 5.714 0 014.002 3.963l4.54 16.434.334 1.155a6.248 6.248 0 013.212 2.674l.654-.203 18.722-4.865a1.583 1.583 0 11.798 3.065l-18.652 4.846-.697.215c-.012 2.68-1.863 5.133-4.664 5.86-3.356.873-6.807-1.06-7.706-4.315-.9-3.257 1.093-6.604 4.449-7.476.165-.042.332-.079.5-.11l-4.542-16.438A2.546 2.546 0 008.67 11.64l-3.597-.999A1.583 1.583 0 013.97 8.693z"/></g><g filter="url(#filter1_i_5504_29099)"><path d="M29.32 10.09a2.435 2.435 0 011.722-2.982l3.273-.877a2.435 2.435 0 012.983 1.722l.877 3.273a2.435 2.435 0 01-1.722 2.983l-3.274.877a2.435 2.435 0 01-2.982-1.722l-.877-3.273z" fill="url(#paint0_linear_5504_29099)"/></g><defs><filter id="filter0_iii_5504_29099" x="2.559" y="1.243" width="41.755" height="42.051" filterUnits="userSpaceOnUse" color-interpolation-filters="sRGB"><feFlood flood-opacity="0" result="BackgroundImageFix"/><feBlend in="SourceGraphic" in2="BackgroundImageFix" result="shape"/><feColorMatrix in="SourceAlpha" values="0 0 0 0 0 0 0 0 0 0 0 0 0 0 0 0 0 0 127 0" result="hardAlpha"/><feOffset dx="1.353" dy="1.353"/><feGaussianBlur stdDeviation="1.353"/><feComposite in2="hardAlpha" operator="arithmetic" k2="-1" k3="1"/><feColorMatrix values="0 0 0 0 0.534167 0 0 0 0 0.645967 0 0 0 0 0.749167 0 0 0 0.6 0"/><feBlend in2="shape" result="effect1_innerShadow_5504_29099"/><feColorMatrix in="SourceAlpha" values="0 0 0 0 0 0 0 0 0 0 0 0 0 0 0 0 0 0 127 0" result="hardAlpha"/><feOffset dx="-1.353" dy="-2.706"/><feGaussianBlur stdDeviation="1.353"/><feComposite in2="hardAlpha" operator="arithmetic" k2="-1" k3="1"/><feColorMatrix values="0 0 0 0 0.533333 0 0 0 0 0.647059 0 0 0 0 0.74902 0 0 0 0.3 0"/><feBlend in2="effect1_innerShadow_5504_29099" result="effect2_innerShadow_5504_29099"/><feColorMatrix in="SourceAlpha" values="0 0 0 0 0 0 0 0 0 0 0 0 0 0 0 0 0 0 127 0" result="hardAlpha"/><feOffset dx="-1.353" dy="-2.706"/><feGaussianBlur stdDeviation="2.029"/><feComposite in2="hardAlpha" operator="arithmetic" k2="-1" k3="1"/><feColorMatrix values="0 0 0 0 1 0 0 0 0 1 0 0 0 0 1 0 0 0 0.4 0"/><feBlend mode="screen" in2="effect2_innerShadow_5504_29099" result="effect3_innerShadow_5504_29099"/></filter><filter id="filter1_i_5504_29099" x="29.236" y="6.146" width="10.852" height="10.854" filterUnits="userSpaceOnUse" color-interpolation-filters="sRGB"><feFlood flood-opacity="0" result="BackgroundImageFix"/><feBlend in="SourceGraphic" in2="BackgroundImageFix" result="shape"/><feColorMatrix in="SourceAlpha" values="0 0 0 0 0 0 0 0 0 0 0 0 0 0 0 0 0 0 127 0" result="hardAlpha"/><feOffset dx="1.83" dy="1.83"/><feGaussianBlur stdDeviation="2.746"/><feComposite in2="hardAlpha" operator="arithmetic" k2="-1" k3="1"/><feColorMatrix values="0 0 0 0 0 0 0 0 0 0.37028 0 0 0 0 0.74056 0 0 0 0.4 0"/><feBlend mode="multiply" in2="shape" result="effect1_innerShadow_5504_29099"/></filter><linearGradient id="paint0_linear_5504_29099" x1="29.066" y1="7.638" x2="39.11" y2="8.9" gradientUnits="userSpaceOnUse"><stop stop-color="#39C7EC"/><stop offset="0" stop-color="#39C7EC"/><stop offset="1" stop-color="#0050EC"/></linearGradient></defs></svg>