<svg width="46" height="46" fill="none" xmlns="http://www.w3.org/2000/svg"><g filter="url(#filter0_iii_5504_28993)"><path d="M4.375 37.678c.17 1.646 1.248 2.949 2.867 3.293 2.554.544 7.369 1.197 15.76 1.197 8.393 0 13.207-.653 15.762-1.197 1.618-.344 2.697-1.647 2.867-3.293.252-2.44.538-6.92.538-14.677 0-7.756-.286-12.237-.538-14.677-.17-1.645-1.25-2.948-2.867-3.292-2.555-.544-7.37-1.197-15.761-1.197-8.392 0-13.207.653-15.761 1.197-1.619.344-2.698 1.647-2.867 3.292-.252 2.44-.54 6.92-.54 14.677s.288 12.237.54 14.677z" fill="#D0E2F3"/></g><g filter="url(#filter1_i_5504_28993)"><path d="M16 28.5c.397 0 .73-.132.998-.396.269-.264.403-.59.402-.979 0-.39-.134-.716-.403-.979A1.374 1.374 0 0016 25.75c-.397 0-.729.132-.997.396s-.402.59-.403.979c0 .39.134.716.403.98s.601.396.997.395zm0-4.125c.397 0 .73-.132.998-.396.269-.264.403-.59.402-.979v-4.125c0-.39-.134-.716-.403-.979A1.374 1.374 0 0016 17.5c-.397 0-.729.132-.997.396s-.402.59-.403.979V23c0 .39.134.716.403.98s.601.396.997.395zm5.6 2.75H30c.397 0 .73-.132.998-.396.269-.264.403-.59.402-.979 0-.39-.134-.716-.403-.979a1.374 1.374 0 00-.997-.396h-8.4c-.397 0-.729.132-.997.396s-.402.59-.403.979c0 .39.134.716.403.98s.601.396.997.395zm0-5.5H30c.397 0 .73-.132.998-.396.269-.264.403-.59.402-.979 0-.39-.134-.716-.403-.979a1.374 1.374 0 00-.997-.396h-8.4c-.397 0-.729.132-.997.396s-.402.59-.403.979c0 .39.134.716.403.98s.601.396.997.395zM11.8 34a2.72 2.72 0 01-1.977-.807A2.63 2.63 0 019 31.25v-16.5c0-.756.274-1.403.823-1.941A2.728 2.728 0 0111.8 12h22.4c.77 0 1.43.27 1.978.809.549.539.823 1.186.822 1.941v16.5c0 .756-.274 1.404-.822 1.943A2.714 2.714 0 0134.2 34H11.8z" fill="#121212"/><path d="M16 28.5c.397 0 .73-.132.998-.396.269-.264.403-.59.402-.979 0-.39-.134-.716-.403-.979A1.374 1.374 0 0016 25.75c-.397 0-.729.132-.997.396s-.402.59-.403.979c0 .39.134.716.403.98s.601.396.997.395zm0-4.125c.397 0 .73-.132.998-.396.269-.264.403-.59.402-.979v-4.125c0-.39-.134-.716-.403-.979A1.374 1.374 0 0016 17.5c-.397 0-.729.132-.997.396s-.402.59-.403.979V23c0 .39.134.716.403.98s.601.396.997.395zm5.6 2.75H30c.397 0 .73-.132.998-.396.269-.264.403-.59.402-.979 0-.39-.134-.716-.403-.979a1.374 1.374 0 00-.997-.396h-8.4c-.397 0-.729.132-.997.396s-.402.59-.403.979c0 .39.134.716.403.98s.601.396.997.395zm0-5.5H30c.397 0 .73-.132.998-.396.269-.264.403-.59.402-.979 0-.39-.134-.716-.403-.979a1.374 1.374 0 00-.997-.396h-8.4c-.397 0-.729.132-.997.396s-.402.59-.403.979c0 .39.134.716.403.98s.601.396.997.395zM11.8 34a2.72 2.72 0 01-1.977-.807A2.63 2.63 0 019 31.25v-16.5c0-.756.274-1.403.823-1.941A2.728 2.728 0 0111.8 12h22.4c.77 0 1.43.27 1.978.809.549.539.823 1.186.822 1.941v16.5c0 .756-.274 1.404-.822 1.943A2.714 2.714 0 0134.2 34H11.8z" fill="url(#paint0_linear_5504_28993)"/></g><defs><filter id="filter0_iii_5504_28993" x="2.836" y="1.834" width="40.334" height="41.334" filterUnits="userSpaceOnUse" color-interpolation-filters="sRGB"><feFlood flood-opacity="0" result="BackgroundImageFix"/><feBlend in="SourceGraphic" in2="BackgroundImageFix" result="shape"/><feColorMatrix in="SourceAlpha" values="0 0 0 0 0 0 0 0 0 0 0 0 0 0 0 0 0 0 127 0" result="hardAlpha"/><feOffset dx="1" dy="1"/><feGaussianBlur stdDeviation="1"/><feComposite in2="hardAlpha" operator="arithmetic" k2="-1" k3="1"/><feColorMatrix values="0 0 0 0 0.534167 0 0 0 0 0.645967 0 0 0 0 0.749167 0 0 0 0.6 0"/><feBlend in2="shape" result="effect1_innerShadow_5504_28993"/><feColorMatrix in="SourceAlpha" values="0 0 0 0 0 0 0 0 0 0 0 0 0 0 0 0 0 0 127 0" result="hardAlpha"/><feOffset dx="-1" dy="-2"/><feGaussianBlur stdDeviation="1"/><feComposite in2="hardAlpha" operator="arithmetic" k2="-1" k3="1"/><feColorMatrix values="0 0 0 0 0.533333 0 0 0 0 0.647059 0 0 0 0 0.74902 0 0 0 0.3 0"/><feBlend in2="effect1_innerShadow_5504_28993" result="effect2_innerShadow_5504_28993"/><feColorMatrix in="SourceAlpha" values="0 0 0 0 0 0 0 0 0 0 0 0 0 0 0 0 0 0 127 0" result="hardAlpha"/><feOffset dx="-1" dy="-2"/><feGaussianBlur stdDeviation="1.5"/><feComposite in2="hardAlpha" operator="arithmetic" k2="-1" k3="1"/><feColorMatrix values="0 0 0 0 1 0 0 0 0 1 0 0 0 0 1 0 0 0 0.4 0"/><feBlend mode="screen" in2="effect2_innerShadow_5504_28993" result="effect3_innerShadow_5504_28993"/></filter><filter id="filter1_i_5504_28993" x="9" y="12" width="29.353" height="23.353" filterUnits="userSpaceOnUse" color-interpolation-filters="sRGB"><feFlood flood-opacity="0" result="BackgroundImageFix"/><feBlend in="SourceGraphic" in2="BackgroundImageFix" result="shape"/><feColorMatrix in="SourceAlpha" values="0 0 0 0 0 0 0 0 0 0 0 0 0 0 0 0 0 0 127 0" result="hardAlpha"/><feOffset dx="1.353" dy="1.353"/><feGaussianBlur stdDeviation="2.029"/><feComposite in2="hardAlpha" operator="arithmetic" k2="-1" k3="1"/><feColorMatrix values="0 0 0 0 0 0 0 0 0 0.37028 0 0 0 0 0.74056 0 0 0 0.4 0"/><feBlend mode="multiply" in2="shape" result="effect1_innerShadow_5504_28993"/></filter><linearGradient id="paint0_linear_5504_28993" x1="10.32" y1="12" x2="39.527" y2="27.144" gradientUnits="userSpaceOnUse"><stop stop-color="#0050EC"/><stop offset="1" stop-color="#39C7EC"/></linearGradient></defs></svg>