<svg width="46" height="46" fill="none" xmlns="http://www.w3.org/2000/svg"><g filter="url(#filter0_i_5504_28950)"><path d="M30.185 21.086c-4.345 0-6.967.176-8.488.347-1.198.135-2.078 1-2.227 2.198-.156 1.252-.306 3.204-.306 6.08s.15 4.828.306 6.08c.15 1.197 1.031 2.063 2.23 2.198 1.11.125 2.804.252 5.324.312a2.92 2.92 0 011.862.723l2.776 2.448a1.438 1.438 0 002.361-.8l.327-1.66a.968.968 0 01.909-.775 51.189 51.189 0 003.412-.248c1.199-.135 2.08-1.001 2.228-2.198.156-1.252.307-3.204.307-6.08s-.15-4.828-.307-6.08c-.149-1.197-1.028-2.063-2.227-2.198-1.52-.17-4.142-.347-8.487-.347z" fill="url(#paint0_linear_5504_28950)"/></g><g filter="url(#filter1_iii_5504_28950)"><path d="M20.126 3.836c-6.125 0-9.933.232-12.223.467-1.955.201-3.379 1.652-3.604 3.605-.235 2.038-.465 5.115-.465 9.345s.23 7.306.465 9.344c.225 1.953 1.65 3.404 3.606 3.605.96.1 2.188.197 3.741.278a.968.968 0 01.912.843l.256 2.093c.244 1.989 2.677 2.817 4.084 1.39l3.241-3.286a2.902 2.902 0 012.04-.86c4.94-.045 8.147-.25 10.17-.458 1.955-.201 3.378-1.652 3.603-3.605.235-2.038.465-5.115.465-9.344 0-4.23-.23-7.307-.465-9.345-.225-1.953-1.648-3.404-3.604-3.605-2.29-.235-6.098-.467-12.222-.467z" fill="#D0E2F3"/></g><g filter="url(#filter2_i_5504_28950)"><path d="M11.498 13.417c0-1.059.858-1.917 1.917-1.917H26.83a1.917 1.917 0 010 3.833H13.415a1.917 1.917 0 01-1.917-1.916z" fill="url(#paint1_linear_5504_28950)"/></g><g filter="url(#filter3_i_5504_28950)"><path d="M11.498 22.042c0-1.059.858-1.917 1.917-1.917h7.666a1.917 1.917 0 010 3.833h-7.666a1.917 1.917 0 01-1.917-1.916z" fill="url(#paint2_linear_5504_28950)"/></g><defs><filter id="filter0_i_5504_28950" x="19.164" y="21.086" width="23.394" height="22.099" filterUnits="userSpaceOnUse" color-interpolation-filters="sRGB"><feFlood flood-opacity="0" result="BackgroundImageFix"/><feBlend in="SourceGraphic" in2="BackgroundImageFix" result="shape"/><feColorMatrix in="SourceAlpha" values="0 0 0 0 0 0 0 0 0 0 0 0 0 0 0 0 0 0 127 0" result="hardAlpha"/><feOffset dx="1.353" dy="1.353"/><feGaussianBlur stdDeviation=".676"/><feComposite in2="hardAlpha" operator="arithmetic" k2="-1" k3="1"/><feColorMatrix values="0 0 0 0 0 0 0 0 0 0.37028 0 0 0 0 0.74056 0 0 0 0.5 0"/><feBlend mode="multiply" in2="shape" result="effect1_innerShadow_5504_28950"/></filter><filter id="filter1_iii_5504_28950" x="2.834" y="1.836" width="34.584" height="34.688" filterUnits="userSpaceOnUse" color-interpolation-filters="sRGB"><feFlood flood-opacity="0" result="BackgroundImageFix"/><feBlend in="SourceGraphic" in2="BackgroundImageFix" result="shape"/><feColorMatrix in="SourceAlpha" values="0 0 0 0 0 0 0 0 0 0 0 0 0 0 0 0 0 0 127 0" result="hardAlpha"/><feOffset dx="1" dy="1"/><feGaussianBlur stdDeviation="1"/><feComposite in2="hardAlpha" operator="arithmetic" k2="-1" k3="1"/><feColorMatrix values="0 0 0 0 0.534167 0 0 0 0 0.645967 0 0 0 0 0.749167 0 0 0 0.6 0"/><feBlend in2="shape" result="effect1_innerShadow_5504_28950"/><feColorMatrix in="SourceAlpha" values="0 0 0 0 0 0 0 0 0 0 0 0 0 0 0 0 0 0 127 0" result="hardAlpha"/><feOffset dx="-1" dy="-2"/><feGaussianBlur stdDeviation="1"/><feComposite in2="hardAlpha" operator="arithmetic" k2="-1" k3="1"/><feColorMatrix values="0 0 0 0 0.533333 0 0 0 0 0.647059 0 0 0 0 0.74902 0 0 0 0.3 0"/><feBlend in2="effect1_innerShadow_5504_28950" result="effect2_innerShadow_5504_28950"/><feColorMatrix in="SourceAlpha" values="0 0 0 0 0 0 0 0 0 0 0 0 0 0 0 0 0 0 127 0" result="hardAlpha"/><feOffset dx="-1" dy="-2"/><feGaussianBlur stdDeviation="1.5"/><feComposite in2="hardAlpha" operator="arithmetic" k2="-1" k3="1"/><feColorMatrix values="0 0 0 0 1 0 0 0 0 1 0 0 0 0 1 0 0 0 0.4 0"/><feBlend mode="screen" in2="effect2_innerShadow_5504_28950" result="effect3_innerShadow_5504_28950"/></filter><filter id="filter2_i_5504_28950" x="11.498" y="11.5" width="18.603" height="5.187" filterUnits="userSpaceOnUse" color-interpolation-filters="sRGB"><feFlood flood-opacity="0" result="BackgroundImageFix"/><feBlend in="SourceGraphic" in2="BackgroundImageFix" result="shape"/><feColorMatrix in="SourceAlpha" values="0 0 0 0 0 0 0 0 0 0 0 0 0 0 0 0 0 0 127 0" result="hardAlpha"/><feOffset dx="1.353" dy="1.353"/><feGaussianBlur stdDeviation=".676"/><feComposite in2="hardAlpha" operator="arithmetic" k2="-1" k3="1"/><feColorMatrix values="0 0 0 0 0 0 0 0 0 0.37028 0 0 0 0 0.74056 0 0 0 0.5 0"/><feBlend mode="multiply" in2="shape" result="effect1_innerShadow_5504_28950"/></filter><filter id="filter3_i_5504_28950" x="11.498" y="20.125" width="12.853" height="5.187" filterUnits="userSpaceOnUse" color-interpolation-filters="sRGB"><feFlood flood-opacity="0" result="BackgroundImageFix"/><feBlend in="SourceGraphic" in2="BackgroundImageFix" result="shape"/><feColorMatrix in="SourceAlpha" values="0 0 0 0 0 0 0 0 0 0 0 0 0 0 0 0 0 0 127 0" result="hardAlpha"/><feOffset dx="1.353" dy="1.353"/><feGaussianBlur stdDeviation=".676"/><feComposite in2="hardAlpha" operator="arithmetic" k2="-1" k3="1"/><feColorMatrix values="0 0 0 0 0 0 0 0 0 0.37028 0 0 0 0 0.74056 0 0 0 0.5 0"/><feBlend mode="multiply" in2="shape" result="effect1_innerShadow_5504_28950"/></filter><linearGradient id="paint0_linear_5504_28950" x1="20.203" y1="21.086" x2="44.773" y2="31.721" gradientUnits="userSpaceOnUse"><stop stop-color="#0050EC"/><stop offset="1" stop-color="#39C7EC"/></linearGradient><linearGradient id="paint1_linear_5504_28950" x1="12.311" y1="11.5" x2="17.546" y2="21.098" gradientUnits="userSpaceOnUse"><stop stop-color="#0050EC"/><stop offset="1" stop-color="#39C7EC"/></linearGradient><linearGradient id="paint2_linear_5504_28950" x1="12.04" y1="20.125" x2="18.143" y2="27.585" gradientUnits="userSpaceOnUse"><stop stop-color="#0050EC"/><stop offset="1" stop-color="#39C7EC"/></linearGradient></defs></svg>