<svg width="34" height="34" fill="none" xmlns="http://www.w3.org/2000/svg"><g filter="url(#filter0_iii_5504_29078)"><path d="M11.786 3.045S10.073 3.7 6.923 6.85c-3.139 3.138-3.797 4.855-3.802 4.868A103.74 103.74 0 002.997 17c0 6.08.423 9.59.778 11.466.229 1.206 1.17 2.033 2.39 2.165 1.648.177 4.554.369 9.432.369s7.785-.192 9.432-.37c1.22-.131 2.162-.958 2.39-2.163.356-1.878.778-5.387.778-11.467 0-6.08-.422-9.59-.778-11.466-.228-1.206-1.17-2.033-2.39-2.165C23.382 3.192 20.475 3 15.597 3c-1.434 0-2.699.017-3.81.045z" fill="#D0E2F3"/></g><g filter="url(#filter1_i_5504_29078)"><path d="M3.122 11.72c2.015.507 4.395.54 6.45-.087a2.828 2.828 0 001.84-1.803c.731-2.142.912-4.765.375-6.783 0 0-1.714.655-4.864 3.805-3.15 3.15-3.801 4.868-3.801 4.868z" fill="url(#paint0_linear_5504_29078)"/></g><g filter="url(#filter2_i_5504_29078)"><path fill-rule="evenodd" clip-rule="evenodd" d="M30.534 17.887c.47.36.607 1.049.309 1.58-2.318 4.119-4.427 6.86-5.674 8.327-.67.789-1.748.89-2.508.201-1.085-.983-2.68-2.651-4.206-5.082a1.233 1.233 0 01.133-1.465l.919-1.015c.428-.473 1.131-.486 1.563-.017a60.356 60.356 0 012.698 3.149s1.732-2.782 4.42-6.154a1.05 1.05 0 011.479-.189l.867.665z" fill="url(#paint1_linear_5504_29078)"/></g><defs><filter id="filter0_iii_5504_29078" x="1.998" y="1" width="27.199" height="31" filterUnits="userSpaceOnUse" color-interpolation-filters="sRGB"><feFlood flood-opacity="0" result="BackgroundImageFix"/><feBlend in="SourceGraphic" in2="BackgroundImageFix" result="shape"/><feColorMatrix in="SourceAlpha" values="0 0 0 0 0 0 0 0 0 0 0 0 0 0 0 0 0 0 127 0" result="hardAlpha"/><feOffset dx="1" dy="1"/><feGaussianBlur stdDeviation="1"/><feComposite in2="hardAlpha" operator="arithmetic" k2="-1" k3="1"/><feColorMatrix values="0 0 0 0 0.534167 0 0 0 0 0.645967 0 0 0 0 0.749167 0 0 0 0.6 0"/><feBlend in2="shape" result="effect1_innerShadow_5504_29078"/><feColorMatrix in="SourceAlpha" values="0 0 0 0 0 0 0 0 0 0 0 0 0 0 0 0 0 0 127 0" result="hardAlpha"/><feOffset dx="-1" dy="-2"/><feGaussianBlur stdDeviation="1"/><feComposite in2="hardAlpha" operator="arithmetic" k2="-1" k3="1"/><feColorMatrix values="0 0 0 0 0.533333 0 0 0 0 0.647059 0 0 0 0 0.74902 0 0 0 0.3 0"/><feBlend in2="effect1_innerShadow_5504_29078" result="effect2_innerShadow_5504_29078"/><feColorMatrix in="SourceAlpha" values="0 0 0 0 0 0 0 0 0 0 0 0 0 0 0 0 0 0 127 0" result="hardAlpha"/><feOffset dx="-1" dy="-2"/><feGaussianBlur stdDeviation="1.5"/><feComposite in2="hardAlpha" operator="arithmetic" k2="-1" k3="1"/><feColorMatrix values="0 0 0 0 1 0 0 0 0 1 0 0 0 0 1 0 0 0 0.4 0"/><feBlend mode="screen" in2="effect2_innerShadow_5504_29078" result="effect3_innerShadow_5504_29078"/></filter><filter id="filter1_i_5504_29078" x="3.121" y="3.047" width="10.329" height="10.408" filterUnits="userSpaceOnUse" color-interpolation-filters="sRGB"><feFlood flood-opacity="0" result="BackgroundImageFix"/><feBlend in="SourceGraphic" in2="BackgroundImageFix" result="shape"/><feColorMatrix in="SourceAlpha" values="0 0 0 0 0 0 0 0 0 0 0 0 0 0 0 0 0 0 127 0" result="hardAlpha"/><feOffset dx="1.353" dy="1.353"/><feGaussianBlur stdDeviation=".676"/><feComposite in2="hardAlpha" operator="arithmetic" k2="-1" k3="1"/><feColorMatrix values="0 0 0 0 0 0 0 0 0 0.37028 0 0 0 0 0.74056 0 0 0 0.5 0"/><feBlend mode="multiply" in2="shape" result="effect1_innerShadow_5504_29078"/></filter><filter id="filter2_i_5504_29078" x="18.273" y="17" width="14.079" height="12.808" filterUnits="userSpaceOnUse" color-interpolation-filters="sRGB"><feFlood flood-opacity="0" result="BackgroundImageFix"/><feBlend in="SourceGraphic" in2="BackgroundImageFix" result="shape"/><feColorMatrix in="SourceAlpha" values="0 0 0 0 0 0 0 0 0 0 0 0 0 0 0 0 0 0 127 0" result="hardAlpha"/><feOffset dx="1.353" dy="1.353"/><feGaussianBlur stdDeviation=".676"/><feComposite in2="hardAlpha" operator="arithmetic" k2="-1" k3="1"/><feColorMatrix values="0 0 0 0 0 0 0 0 0 0.37028 0 0 0 0 0.74056 0 0 0 0.5 0"/><feBlend mode="multiply" in2="shape" result="effect1_innerShadow_5504_29078"/></filter><linearGradient id="paint0_linear_5504_29078" x1="11.675" y1="3.047" x2="1.46" y2="7.172" gradientUnits="userSpaceOnUse"><stop stop-color="#0050EC"/><stop offset="1" stop-color="#39C7EC"/></linearGradient><linearGradient id="paint1_linear_5504_29078" x1="18.873" y1="17" x2="32.854" y2="23.328" gradientUnits="userSpaceOnUse"><stop stop-color="#0050EC"/><stop offset="1" stop-color="#39C7EC"/></linearGradient></defs></svg>