<svg width="34" height="34" fill="none" xmlns="http://www.w3.org/2000/svg"><g filter="url(#filter0_iii_5504_29084)"><path d="M21.535 2.002a3.31 3.31 0 00-.668.105L5.59 5.801c-1.807.44-2.937 2.249-2.493 4.043l2.142 8.68c.13.516.382.995.737 1.395.354.4.8.71 1.3.904v-2.091c0-3.075 2.52-5.577 5.62-5.577h14.152l-2.107-8.609a3.349 3.349 0 00-1.247-1.873 3.39 3.39 0 00-2.159-.67zm1.369 4.81l.913 3.8-3.792.905-.949-3.764 3.828-.94zm-10.009 8.574c-1.86 0-3.371 1.499-3.371 3.346v8.922c0 1.847 1.51 3.346 3.371 3.346h15.733C30.49 31 32 29.501 32 27.654v-8.922c0-1.847-1.51-3.346-3.372-3.346H12.895zm0 1.778h15.733c.867 0 1.58.708 1.58 1.568v1.115H11.316v-1.115c0-.86.714-1.568 1.58-1.568zm-1.58 6.029h18.894v4.461c0 .86-.714 1.568-1.58 1.568H12.894a1.595 1.595 0 01-1.115-.462 1.571 1.571 0 01-.465-1.106v-4.461z" fill="#D0E2F3"/></g><g filter="url(#filter1_i_5504_29084)"><rect x="18.342" y="7.525" width="4.969" height="4.969" rx="1" transform="rotate(-15 18.342 7.525)" fill="url(#paint0_linear_5504_29084)"/></g><g filter="url(#filter2_i_5504_29084)"><path d="M9.51 19.4H32v3.867H9.51V19.4z" fill="url(#paint1_linear_5504_29084)"/></g><defs><filter id="filter0_iii_5504_29084" x="2" y="0" width="31" height="32" filterUnits="userSpaceOnUse" color-interpolation-filters="sRGB"><feFlood flood-opacity="0" result="BackgroundImageFix"/><feBlend in="SourceGraphic" in2="BackgroundImageFix" result="shape"/><feColorMatrix in="SourceAlpha" values="0 0 0 0 0 0 0 0 0 0 0 0 0 0 0 0 0 0 127 0" result="hardAlpha"/><feOffset dx="1" dy="1"/><feGaussianBlur stdDeviation="1"/><feComposite in2="hardAlpha" operator="arithmetic" k2="-1" k3="1"/><feColorMatrix values="0 0 0 0 0.534167 0 0 0 0 0.645967 0 0 0 0 0.749167 0 0 0 0.6 0"/><feBlend in2="shape" result="effect1_innerShadow_5504_29084"/><feColorMatrix in="SourceAlpha" values="0 0 0 0 0 0 0 0 0 0 0 0 0 0 0 0 0 0 127 0" result="hardAlpha"/><feOffset dx="-1" dy="-2"/><feGaussianBlur stdDeviation="1"/><feComposite in2="hardAlpha" operator="arithmetic" k2="-1" k3="1"/><feColorMatrix values="0 0 0 0 0.533333 0 0 0 0 0.647059 0 0 0 0 0.74902 0 0 0 0.3 0"/><feBlend in2="effect1_innerShadow_5504_29084" result="effect2_innerShadow_5504_29084"/><feColorMatrix in="SourceAlpha" values="0 0 0 0 0 0 0 0 0 0 0 0 0 0 0 0 0 0 127 0" result="hardAlpha"/><feOffset dx="-1" dy="-2"/><feGaussianBlur stdDeviation="1.5"/><feComposite in2="hardAlpha" operator="arithmetic" k2="-1" k3="1"/><feColorMatrix values="0 0 0 0 1 0 0 0 0 1 0 0 0 0 1 0 0 0 0.4 0"/><feBlend mode="screen" in2="effect2_innerShadow_5504_29084" result="effect3_innerShadow_5504_29084"/></filter><filter id="filter1_i_5504_29084" x="18.566" y="6.463" width="6.99" height="6.992" filterUnits="userSpaceOnUse" color-interpolation-filters="sRGB"><feFlood flood-opacity="0" result="BackgroundImageFix"/><feBlend in="SourceGraphic" in2="BackgroundImageFix" result="shape"/><feColorMatrix in="SourceAlpha" values="0 0 0 0 0 0 0 0 0 0 0 0 0 0 0 0 0 0 127 0" result="hardAlpha"/><feOffset dx="1.353" dy="1.353"/><feGaussianBlur stdDeviation="2.029"/><feComposite in2="hardAlpha" operator="arithmetic" k2="-1" k3="1"/><feColorMatrix values="0 0 0 0 0 0 0 0 0 0.37028 0 0 0 0 0.74056 0 0 0 0.4 0"/><feBlend mode="multiply" in2="shape" result="effect1_innerShadow_5504_29084"/></filter><filter id="filter2_i_5504_29084" x="9.51" y="19.4" width="23.843" height="5.22" filterUnits="userSpaceOnUse" color-interpolation-filters="sRGB"><feFlood flood-opacity="0" result="BackgroundImageFix"/><feBlend in="SourceGraphic" in2="BackgroundImageFix" result="shape"/><feColorMatrix in="SourceAlpha" values="0 0 0 0 0 0 0 0 0 0 0 0 0 0 0 0 0 0 127 0" result="hardAlpha"/><feOffset dx="1.353" dy="1.353"/><feGaussianBlur stdDeviation="2.029"/><feComposite in2="hardAlpha" operator="arithmetic" k2="-1" k3="1"/><feColorMatrix values="0 0 0 0 0 0 0 0 0 0.37028 0 0 0 0 0.74056 0 0 0 0.4 0"/><feBlend mode="multiply" in2="shape" result="effect1_innerShadow_5504_29084"/></filter><linearGradient id="paint0_linear_5504_29084" x1="18.576" y1="7.525" x2="24.217" y2="9.823" gradientUnits="userSpaceOnUse"><stop stop-color="#39C7EC"/><stop offset="0" stop-color="#39C7EC"/><stop offset="1" stop-color="#0050EC"/></linearGradient><linearGradient id="paint1_linear_5504_29084" x1="10.57" y1="19.4" x2="15.069" y2="30.063" gradientUnits="userSpaceOnUse"><stop stop-color="#39C7EC"/><stop offset="0" stop-color="#39C7EC"/><stop offset="1" stop-color="#0050EC"/></linearGradient></defs></svg>