<svg width="46" height="46" fill="none" xmlns="http://www.w3.org/2000/svg"><g filter="url(#filter0_iii_5504_28996)"><path d="M4.375 37.678c.17 1.646 1.248 2.949 2.867 3.293 2.554.544 7.369 1.197 15.76 1.197 8.393 0 13.207-.653 15.762-1.197 1.618-.344 2.697-1.647 2.867-3.293.252-2.44.538-6.92.538-14.677 0-7.756-.286-12.237-.538-14.677-.17-1.645-1.25-2.948-2.867-3.292-2.555-.544-7.37-1.197-15.761-1.197-8.392 0-13.207.653-15.761 1.197-1.619.344-2.698 1.647-2.867 3.292-.252 2.44-.54 6.92-.54 14.677s.288 12.237.54 14.677z" fill="#D0E2F3"/></g><g filter="url(#filter1_i_5504_28996)"><path d="M23.78 26.234l8.422 8.446c.67.67 1.699.617 2.207-.182a15.426 15.426 0 002.39-8.262 15.451 15.451 0 00-3.384-9.662l-9.634 9.66zm-4.485.714v-12.62A12.025 12.025 0 009 26.234c0 6.65 5.378 12.046 12.011 12.046a11.92 11.92 0 007.183-2.408l-8.899-8.924zm12.58-14.041c.669-.671.626-1.714-.153-2.253a18.746 18.746 0 00-7.295-3.029c-.933-.171-1.7.536-1.7 1.485v12.972l9.147-9.175z" fill="#121212"/><path d="M23.78 26.234l8.422 8.446c.67.67 1.699.617 2.207-.182a15.426 15.426 0 002.39-8.262 15.451 15.451 0 00-3.384-9.662l-9.634 9.66zm-4.485.714v-12.62A12.025 12.025 0 009 26.234c0 6.65 5.378 12.046 12.011 12.046a11.92 11.92 0 007.183-2.408l-8.899-8.924zm12.58-14.041c.669-.671.626-1.714-.153-2.253a18.746 18.746 0 00-7.295-3.029c-.933-.171-1.7.536-1.7 1.485v12.972l9.147-9.175z" fill="url(#paint0_linear_5504_28996)"/></g><defs><filter id="filter0_iii_5504_28996" x="2.836" y="1.834" width="40.334" height="41.334" filterUnits="userSpaceOnUse" color-interpolation-filters="sRGB"><feFlood flood-opacity="0" result="BackgroundImageFix"/><feBlend in="SourceGraphic" in2="BackgroundImageFix" result="shape"/><feColorMatrix in="SourceAlpha" values="0 0 0 0 0 0 0 0 0 0 0 0 0 0 0 0 0 0 127 0" result="hardAlpha"/><feOffset dx="1" dy="1"/><feGaussianBlur stdDeviation="1"/><feComposite in2="hardAlpha" operator="arithmetic" k2="-1" k3="1"/><feColorMatrix values="0 0 0 0 0.534167 0 0 0 0 0.645967 0 0 0 0 0.749167 0 0 0 0.6 0"/><feBlend in2="shape" result="effect1_innerShadow_5504_28996"/><feColorMatrix in="SourceAlpha" values="0 0 0 0 0 0 0 0 0 0 0 0 0 0 0 0 0 0 127 0" result="hardAlpha"/><feOffset dx="-1" dy="-2"/><feGaussianBlur stdDeviation="1"/><feComposite in2="hardAlpha" operator="arithmetic" k2="-1" k3="1"/><feColorMatrix values="0 0 0 0 0.533333 0 0 0 0 0.647059 0 0 0 0 0.74902 0 0 0 0.3 0"/><feBlend in2="effect1_innerShadow_5504_28996" result="effect2_innerShadow_5504_28996"/><feColorMatrix in="SourceAlpha" values="0 0 0 0 0 0 0 0 0 0 0 0 0 0 0 0 0 0 127 0" result="hardAlpha"/><feOffset dx="-1" dy="-2"/><feGaussianBlur stdDeviation="1.5"/><feComposite in2="hardAlpha" operator="arithmetic" k2="-1" k3="1"/><feColorMatrix values="0 0 0 0 1 0 0 0 0 1 0 0 0 0 1 0 0 0 0.4 0"/><feBlend mode="screen" in2="effect2_innerShadow_5504_28996" result="effect3_innerShadow_5504_28996"/></filter><filter id="filter1_i_5504_28996" x="9" y="7.6" width="29.152" height="32.033" filterUnits="userSpaceOnUse" color-interpolation-filters="sRGB"><feFlood flood-opacity="0" result="BackgroundImageFix"/><feBlend in="SourceGraphic" in2="BackgroundImageFix" result="shape"/><feColorMatrix in="SourceAlpha" values="0 0 0 0 0 0 0 0 0 0 0 0 0 0 0 0 0 0 127 0" result="hardAlpha"/><feOffset dx="1.353" dy="1.353"/><feGaussianBlur stdDeviation="2.029"/><feComposite in2="hardAlpha" operator="arithmetic" k2="-1" k3="1"/><feColorMatrix values="0 0 0 0 0 0 0 0 0 0.37028 0 0 0 0 0.74056 0 0 0 0.4 0"/><feBlend mode="multiply" in2="shape" result="effect1_innerShadow_5504_28996"/></filter><linearGradient id="paint0_linear_5504_28996" x1="10.31" y1="7.6" x2="42.691" y2="19.553" gradientUnits="userSpaceOnUse"><stop stop-color="#0050EC"/><stop offset="1" stop-color="#39C7EC"/></linearGradient></defs></svg>