<svg width="46" height="46" fill="none" xmlns="http://www.w3.org/2000/svg"><g filter="url(#filter0_iii_5504_29075)"><path d="M4.375 37.678c.17 1.646 1.248 2.949 2.867 3.293 2.554.544 7.369 1.197 15.76 1.197 8.393 0 13.207-.653 15.762-1.197 1.618-.344 2.697-1.647 2.867-3.293.252-2.44.538-6.92.538-14.677 0-7.756-.286-12.237-.538-14.677-.17-1.645-1.25-2.948-2.867-3.292-2.555-.544-7.37-1.197-15.761-1.197-8.392 0-13.207.653-15.761 1.197-1.619.344-2.698 1.647-2.867 3.292-.252 2.44-.54 6.92-.54 14.677s.288 12.237.54 14.677z" fill="#D0E2F3"/></g><g filter="url(#filter1_i_5504_29075)"><path d="M27.375 9L37 13.853v10.822l-1.75-.882v-7.969l-7 3.53v3.556l-1.75.883v-4.44l-7-3.529v3.13l-1.75-.883v-4.218L27.375 9zm0 8.823l2.42-1.227-6.33-3.653-2.885 1.461 6.795 3.42zm4.307-2.164l2.488-1.255-6.795-3.433-2.037 1.034 6.344 3.654zm-6.932 9.016l-1.75.882v-.013l-5.25 2.646v6.273l5.25-2.66v1.985l-6.125 3.088L9 32.892v-9.32l7.875-3.97 7.875 3.97v1.103zM16 34.463V28.19l-5.25-2.646v6.259l5.25 2.66zm.875-7.803l5.045-2.536-5.045-2.55-5.045 2.55 5.045 2.536zm7.875-.014l6.125-3.088L37 26.646v7.266L30.875 37l-6.125-3.088v-7.265zM30 34.587v-4.204l-3.5-1.765v4.205l3.5 1.764zm5.25-1.764v-4.205l-3.5 1.765v4.204l3.5-1.764zm-4.375-3.97l3.295-1.669-3.295-1.654-3.295 1.654 3.295 1.668z" fill="#121212"/><path d="M27.375 9L37 13.853v10.822l-1.75-.882v-7.969l-7 3.53v3.556l-1.75.883v-4.44l-7-3.529v3.13l-1.75-.883v-4.218L27.375 9zm0 8.823l2.42-1.227-6.33-3.653-2.885 1.461 6.795 3.42zm4.307-2.164l2.488-1.255-6.795-3.433-2.037 1.034 6.344 3.654zm-6.932 9.016l-1.75.882v-.013l-5.25 2.646v6.273l5.25-2.66v1.985l-6.125 3.088L9 32.892v-9.32l7.875-3.97 7.875 3.97v1.103zM16 34.463V28.19l-5.25-2.646v6.259l5.25 2.66zm.875-7.803l5.045-2.536-5.045-2.55-5.045 2.55 5.045 2.536zm7.875-.014l6.125-3.088L37 26.646v7.266L30.875 37l-6.125-3.088v-7.265zM30 34.587v-4.204l-3.5-1.765v4.205l3.5 1.764zm5.25-1.764v-4.205l-3.5 1.765v4.204l3.5-1.764zm-4.375-3.97l3.295-1.669-3.295-1.654-3.295 1.654 3.295 1.668z" fill="url(#paint0_linear_5504_29075)"/></g><defs><filter id="filter0_iii_5504_29075" x="2.836" y="1.834" width="40.334" height="41.334" filterUnits="userSpaceOnUse" color-interpolation-filters="sRGB"><feFlood flood-opacity="0" result="BackgroundImageFix"/><feBlend in="SourceGraphic" in2="BackgroundImageFix" result="shape"/><feColorMatrix in="SourceAlpha" values="0 0 0 0 0 0 0 0 0 0 0 0 0 0 0 0 0 0 127 0" result="hardAlpha"/><feOffset dx="1" dy="1"/><feGaussianBlur stdDeviation="1"/><feComposite in2="hardAlpha" operator="arithmetic" k2="-1" k3="1"/><feColorMatrix values="0 0 0 0 0.534167 0 0 0 0 0.645967 0 0 0 0 0.749167 0 0 0 0.6 0"/><feBlend in2="shape" result="effect1_innerShadow_5504_29075"/><feColorMatrix in="SourceAlpha" values="0 0 0 0 0 0 0 0 0 0 0 0 0 0 0 0 0 0 127 0" result="hardAlpha"/><feOffset dx="-1" dy="-2"/><feGaussianBlur stdDeviation="1"/><feComposite in2="hardAlpha" operator="arithmetic" k2="-1" k3="1"/><feColorMatrix values="0 0 0 0 0.533333 0 0 0 0 0.647059 0 0 0 0 0.74902 0 0 0 0.3 0"/><feBlend in2="effect1_innerShadow_5504_29075" result="effect2_innerShadow_5504_29075"/><feColorMatrix in="SourceAlpha" values="0 0 0 0 0 0 0 0 0 0 0 0 0 0 0 0 0 0 127 0" result="hardAlpha"/><feOffset dx="-1" dy="-2"/><feGaussianBlur stdDeviation="1.5"/><feComposite in2="hardAlpha" operator="arithmetic" k2="-1" k3="1"/><feColorMatrix values="0 0 0 0 1 0 0 0 0 1 0 0 0 0 1 0 0 0 0.4 0"/><feBlend mode="screen" in2="effect2_innerShadow_5504_29075" result="effect3_innerShadow_5504_29075"/></filter><filter id="filter1_i_5504_29075" x="9" y="9" width="29.353" height="29.353" filterUnits="userSpaceOnUse" color-interpolation-filters="sRGB"><feFlood flood-opacity="0" result="BackgroundImageFix"/><feBlend in="SourceGraphic" in2="BackgroundImageFix" result="shape"/><feColorMatrix in="SourceAlpha" values="0 0 0 0 0 0 0 0 0 0 0 0 0 0 0 0 0 0 127 0" result="hardAlpha"/><feOffset dx="1.353" dy="1.353"/><feGaussianBlur stdDeviation="2.029"/><feComposite in2="hardAlpha" operator="arithmetic" k2="-1" k3="1"/><feColorMatrix values="0 0 0 0 0 0 0 0 0 0.37028 0 0 0 0 0.74056 0 0 0 0.4 0"/><feBlend mode="multiply" in2="shape" result="effect1_innerShadow_5504_29075"/></filter><linearGradient id="paint0_linear_5504_29075" x1="10.32" y1="9" x2="42.104" y2="21.949" gradientUnits="userSpaceOnUse"><stop stop-color="#0050EC"/><stop offset="1" stop-color="#39C7EC"/></linearGradient></defs></svg>