<svg width="46" height="46" fill="none" xmlns="http://www.w3.org/2000/svg"><g filter="url(#filter0_iii_5504_29062)"><path d="M4.375 37.678c.17 1.646 1.248 2.949 2.867 3.293 2.554.544 7.369 1.197 15.76 1.197 8.393 0 13.207-.653 15.762-1.197 1.618-.344 2.697-1.647 2.867-3.293.252-2.44.538-6.92.538-14.677 0-7.756-.286-12.237-.538-14.677-.17-1.645-1.25-2.948-2.867-3.292-2.555-.544-7.37-1.197-15.761-1.197-8.392 0-13.207.653-15.761 1.197-1.619.344-2.698 1.647-2.867 3.292-.252 2.44-.54 6.92-.54 14.677s.288 12.237.54 14.677z" fill="#D0E2F3"/></g><g filter="url(#filter1_i_5504_29062)"><path fill-rule="evenodd" clip-rule="evenodd" d="M32.456 10.098l.368.046c.972.134 2.259.314 2.987 1.044.598.596.827 1.565.964 2.43l.08.557a16.84 16.84 0 01-.08 4.942c-.612 3.77-2.618 8.267-7.656 11.749a6.758 6.758 0 00-.023.82l.014.409c.023.63.046 1.26-.13 1.872-.274.952-1.25 1.58-2.163 2.03l-.448.212-.577.254c-1.079.458-2.535.929-3.448.014-.549-.547-.774-1.349-.957-2.146l-.067-.299c-.077-.377-.173-.75-.289-1.116a17.38 17.38 0 00-.234-.642c-.092.113-.19.221-.293.324-.497.498-1.24.846-1.852 1.09-.667.263-1.423.494-2.123.684l-.359.096-.688.171-.623.145-.746.158-.466.091a1.457 1.457 0 01-1.697-1.698l.124-.621.222-1.007.179-.736.135-.52c.19-.697.421-1.453.687-2.12.242-.613.59-1.355 1.087-1.853l.116-.111-.092-.038a11.415 11.415 0 00-.75-.255l-.399-.123c-1-.302-2.071-.628-2.736-1.295-.808-.806-.535-2.034-.146-3.055l.159-.395.255-.577.212-.447c.45-.912 1.078-1.888 2.03-2.163.505-.144 1.03-.152 1.558-.138l.317.01c.412.015.824.03 1.226-.009 3.482-5.04 7.98-7.046 11.748-7.658a17.02 17.02 0 014.574-.127zM18.303 28.38a1.443 1.443 0 00-1.586-.087l-.159.107-.134.12-.18.227c-.375.543-.589 1.293-.755 1.994l-.155.675-.074.307.275-.066.603-.139c.834-.194 1.759-.447 2.327-.959a1.443 1.443 0 00.127-1.895l-.118-.136-.035-.033-.136-.115zm10.361-10.06a2.886 2.886 0 10-4.08 4.08 2.886 2.886 0 004.08-4.08z" fill="url(#paint0_linear_5504_29062)"/></g><defs><filter id="filter0_iii_5504_29062" x="2.836" y="1.834" width="40.334" height="41.334" filterUnits="userSpaceOnUse" color-interpolation-filters="sRGB"><feFlood flood-opacity="0" result="BackgroundImageFix"/><feBlend in="SourceGraphic" in2="BackgroundImageFix" result="shape"/><feColorMatrix in="SourceAlpha" values="0 0 0 0 0 0 0 0 0 0 0 0 0 0 0 0 0 0 127 0" result="hardAlpha"/><feOffset dx="1" dy="1"/><feGaussianBlur stdDeviation="1"/><feComposite in2="hardAlpha" operator="arithmetic" k2="-1" k3="1"/><feColorMatrix values="0 0 0 0 0.534167 0 0 0 0 0.645967 0 0 0 0 0.749167 0 0 0 0.6 0"/><feBlend in2="shape" result="effect1_innerShadow_5504_29062"/><feColorMatrix in="SourceAlpha" values="0 0 0 0 0 0 0 0 0 0 0 0 0 0 0 0 0 0 127 0" result="hardAlpha"/><feOffset dx="-1" dy="-2"/><feGaussianBlur stdDeviation="1"/><feComposite in2="hardAlpha" operator="arithmetic" k2="-1" k3="1"/><feColorMatrix values="0 0 0 0 0.533333 0 0 0 0 0.647059 0 0 0 0 0.74902 0 0 0 0.3 0"/><feBlend in2="effect1_innerShadow_5504_29062" result="effect2_innerShadow_5504_29062"/><feColorMatrix in="SourceAlpha" values="0 0 0 0 0 0 0 0 0 0 0 0 0 0 0 0 0 0 127 0" result="hardAlpha"/><feOffset dx="-1" dy="-2"/><feGaussianBlur stdDeviation="1.5"/><feComposite in2="hardAlpha" operator="arithmetic" k2="-1" k3="1"/><feColorMatrix values="0 0 0 0 1 0 0 0 0 1 0 0 0 0 1 0 0 0 0.4 0"/><feBlend mode="screen" in2="effect2_innerShadow_5504_29062" result="effect3_innerShadow_5504_29062"/></filter><filter id="filter1_i_5504_29062" x="10" y="10" width="28.353" height="28.353" filterUnits="userSpaceOnUse" color-interpolation-filters="sRGB"><feFlood flood-opacity="0" result="BackgroundImageFix"/><feBlend in="SourceGraphic" in2="BackgroundImageFix" result="shape"/><feColorMatrix in="SourceAlpha" values="0 0 0 0 0 0 0 0 0 0 0 0 0 0 0 0 0 0 127 0" result="hardAlpha"/><feOffset dx="1.353" dy="1.353"/><feGaussianBlur stdDeviation="2.029"/><feComposite in2="hardAlpha" operator="arithmetic" k2="-1" k3="1"/><feColorMatrix values="0 0 0 0 0 0 0 0 0 0.37028 0 0 0 0 0.74056 0 0 0 0.4 0"/><feBlend mode="multiply" in2="shape" result="effect1_innerShadow_5504_29062"/></filter><linearGradient id="paint0_linear_5504_29062" x1="11.273" y1="10" x2="41.922" y2="22.487" gradientUnits="userSpaceOnUse"><stop stop-color="#39C7EC"/><stop offset="0" stop-color="#39C7EC"/><stop offset="1" stop-color="#0050EC"/></linearGradient></defs></svg>