<svg width="46" height="46" fill="none" xmlns="http://www.w3.org/2000/svg"><g filter="url(#filter0_iii_5504_28936)"><path d="M4.459 8.219c.183-1.58 1.14-2.883 2.692-3.226C9.572 4.458 14.264 3.836 23 3.836c8.734 0 13.426.622 15.847 1.157 1.552.343 2.51 1.647 2.693 3.226.277 2.387.626 6.319.626 10.95 0 8.652-4.566 16.748-12.26 20.708-2.57 1.322-5.077 2.292-6.906 2.292-1.83 0-4.337-.97-6.907-2.292-7.694-3.96-12.26-12.056-12.26-20.708 0-4.631.35-8.563.627-10.95z" fill="#D0E2F3"/></g><g filter="url(#filter1_i_5504_28936)"><path fill-rule="evenodd" clip-rule="evenodd" d="M13.505 10.2c-1.541.279-2.485 1.55-2.64 3.11a68.294 68.294 0 00-.326 6.624c0 5.093 2.472 9.785 6.615 12.748 2.112 1.51 4.333 2.777 5.843 2.777 1.51 0 3.732-1.267 5.844-2.777 4.142-2.963 6.615-7.655 6.615-12.748a68.15 68.15 0 00-.327-6.625c-.154-1.558-1.098-2.83-2.64-3.108-1.735-.313-4.663-.617-9.492-.617-4.828 0-7.756.304-9.492.617zm13.326 8.967a3.832 3.832 0 01-1.923 3.324l.677 3.387c.17.847-.268 1.683-1.122 1.811-.403.06-.891.103-1.466.103a9.893 9.893 0 01-1.465-.103c-.855-.128-1.292-.964-1.122-1.811l.677-3.387a3.833 3.833 0 115.744-3.324z" fill="url(#paint0_linear_5504_28936)"/></g><defs><filter id="filter0_iii_5504_28936" x="2.832" y="1.836" width="40.334" height="41.334" filterUnits="userSpaceOnUse" color-interpolation-filters="sRGB"><feFlood flood-opacity="0" result="BackgroundImageFix"/><feBlend in="SourceGraphic" in2="BackgroundImageFix" result="shape"/><feColorMatrix in="SourceAlpha" values="0 0 0 0 0 0 0 0 0 0 0 0 0 0 0 0 0 0 127 0" result="hardAlpha"/><feOffset dx="1" dy="1"/><feGaussianBlur stdDeviation="1"/><feComposite in2="hardAlpha" operator="arithmetic" k2="-1" k3="1"/><feColorMatrix values="0 0 0 0 0.534167 0 0 0 0 0.645967 0 0 0 0 0.749167 0 0 0 0.6 0"/><feBlend in2="shape" result="effect1_innerShadow_5504_28936"/><feColorMatrix in="SourceAlpha" values="0 0 0 0 0 0 0 0 0 0 0 0 0 0 0 0 0 0 127 0" result="hardAlpha"/><feOffset dx="-1" dy="-2"/><feGaussianBlur stdDeviation="1"/><feComposite in2="hardAlpha" operator="arithmetic" k2="-1" k3="1"/><feColorMatrix values="0 0 0 0 0.533333 0 0 0 0 0.647059 0 0 0 0 0.74902 0 0 0 0.3 0"/><feBlend in2="effect1_innerShadow_5504_28936" result="effect2_innerShadow_5504_28936"/><feColorMatrix in="SourceAlpha" values="0 0 0 0 0 0 0 0 0 0 0 0 0 0 0 0 0 0 127 0" result="hardAlpha"/><feOffset dx="-1" dy="-2"/><feGaussianBlur stdDeviation="1.5"/><feComposite in2="hardAlpha" operator="arithmetic" k2="-1" k3="1"/><feColorMatrix values="0 0 0 0 1 0 0 0 0 1 0 0 0 0 1 0 0 0 0.4 0"/><feBlend mode="screen" in2="effect2_innerShadow_5504_28936" result="effect3_innerShadow_5504_28936"/></filter><filter id="filter1_i_5504_28936" x="10.539" y="9.584" width="26.269" height="27.228" filterUnits="userSpaceOnUse" color-interpolation-filters="sRGB"><feFlood flood-opacity="0" result="BackgroundImageFix"/><feBlend in="SourceGraphic" in2="BackgroundImageFix" result="shape"/><feColorMatrix in="SourceAlpha" values="0 0 0 0 0 0 0 0 0 0 0 0 0 0 0 0 0 0 127 0" result="hardAlpha"/><feOffset dx="1.353" dy="1.353"/><feGaussianBlur stdDeviation=".676"/><feComposite in2="hardAlpha" operator="arithmetic" k2="-1" k3="1"/><feColorMatrix values="0 0 0 0 0 0 0 0 0 0.37028 0 0 0 0 0.74056 0 0 0 0.5 0"/><feBlend mode="multiply" in2="shape" result="effect1_innerShadow_5504_28936"/></filter><linearGradient id="paint0_linear_5504_28936" x1="11.713" y1="9.584" x2="40.293" y2="20.796" gradientUnits="userSpaceOnUse"><stop stop-color="#0050EC"/><stop offset="1" stop-color="#39C7EC"/></linearGradient></defs></svg>