<svg width="117" height="46" fill="none" xmlns="http://www.w3.org/2000/svg"><path d="M27.065.586v44.381a.597.597 0 01-.07.29.576.576 0 01-.199.217.552.552 0 01-.56.02l-8.106-4.19a.57.57 0 01-.23-.213.595.595 0 01-.086-.307V4.772a.59.59 0 01.086-.307.57.57 0 01.23-.214L26.234.067a.55.55 0 01.557.018.575.575 0 01.2.215.597.597 0 01.071.288l.003-.002zm63.861 15.908v28.479a.597.597 0 01-.27.495.555.555 0 01-.55.025l-8.116-4.188a.572.572 0 01-.229-.215.596.596 0 01-.085-.306v-24.29c0-.155.06-.303.165-.412.106-.11.25-.17.4-.17h8.121c.15 0 .293.06.4.17a.594.594 0 01.164.412zM79.82 43.972l-.16.123a8.82 8.82 0 01-3.118 1.509 8.97 8.97 0 01-4.177.107 9.115 9.115 0 01-3.796-1.801 9.481 9.481 0 01-2.64-3.342 9.784 9.784 0 01-.942-4.198v-19.8a.59.59 0 01.164-.41.556.556 0 01.398-.172l5.207.088h2.9a.475.475 0 01.096 0 .562.562 0 01.325.201.594.594 0 01.128.368v6.882a.7.7 0 000 .11v15.51a4.502 4.502 0 001.258 3.128 4.23 4.23 0 003.031 1.297h1.122a.221.221 0 01.204.061.236.236 0 01.067.208.243.243 0 01-.067.131zM15.778 19.507a4.148 4.148 0 00-1.592-.315h-.646c-.566 0-1.126.115-1.648.338a4.294 4.294 0 00-1.396.964c-.4.413-.716.904-.931 1.443a4.557 4.557 0 00-.325 1.7v15.51a4.506 4.506 0 001.264 3.128 4.234 4.234 0 003.036 1.294h1.121a.218.218 0 01.196.078.233.233 0 01.048.21.234.234 0 01-.075.123l-.156.123a9.005 9.005 0 01-9.63.776 9.363 9.363 0 01-3.683-3.515A9.762 9.762 0 010 36.382V25.78c0-5.279 4.19-9.734 9.305-9.706a8.983 8.983 0 013.671.813 9.236 9.236 0 013.053 2.255.238.238 0 01-.106.367.228.228 0 01-.145 0zm101.218 16.455c0 2.616-.688 4.78-2.069 6.494a8.163 8.163 0 01-.639.706c-1.633 1.641-3.73 2.524-6.276 2.693a.046.046 0 01-.023.006.047.047 0 01-.024-.006l-.239.018h-.985a27.047 27.047 0 01-4.873-.618l-.229-.052a24.793 24.793 0 01-3.471-1.208 2.369 2.369 0 01-1.006-.867 2.477 2.477 0 01-.4-1.287l-.223-5.538a.32.32 0 01.083-.228.3.3 0 01.218-.095.61.61 0 01.542.34 22.862 22.862 0 004.364 5.985c1.492 1.462 3.048 2.329 4.675 2.603a6.58 6.58 0 001.144.095c.191 0 .397 0 .571-.025h.095a1.27 1.27 0 00.204-.02 4.16 4.16 0 001.044-.232c.144-.043.284-.092.421-.154.106-.043.213-.09.313-.143a5.043 5.043 0 001.634-1.355c.089-.102.174-.21.248-.323.077-.118.157-.23.224-.343.249-.6.368-1.247.356-1.898a4.093 4.093 0 00-.397-1.963 3.949 3.949 0 00-1.274-1.513 15.68 15.68 0 00-4.772-2.1 31.59 31.59 0 01-4.439-1.555 11.195 11.195 0 01-2.084-1.293c-.186-.138-.373-.3-.56-.454-1.683-1.439-2.526-3.668-2.526-6.692a9.21 9.21 0 01.443-2.87c.04-.11.08-.22.127-.334.139-.374.3-.738.485-1.095 0-.02.02-.043.032-.07a9.565 9.565 0 011.475-1.98 8.409 8.409 0 014.476-2.41c.825-.17 1.666-.252 2.506-.247.473 0 .967.026 1.457.072 1.12.113 2.227.333 3.307.657 1.398.436 2.761.99 4.069 1.654a.044.044 0 01.015.015.038.038 0 01.004.021l.117 3.388.09 2.748a.302.302 0 01-.178.285.278.278 0 01-.113.022.572.572 0 01-.296-.083.603.603 0 01-.214-.227 29.587 29.587 0 00-2.454-3.822 18.872 18.872 0 00-1.321-1.56l-.109-.11c-1.41-1.456-2.942-2.182-4.595-2.182-1.654 0-2.939.392-3.855 1.18-.44.386-.79.871-1.023 1.418a4.05 4.05 0 00-.319 1.736c-.02.612.12 1.217.407 1.752.287.535.709.98 1.221 1.288a14.737 14.737 0 004.019 1.726l.796.223c1.151.323 1.927.554 2.339.693.498.164 1.119.39 1.858.682a9.38 9.38 0 011.815.913 12.55 12.55 0 011.492 1.206c.498.454.915.998 1.226 1.605a9.753 9.753 0 011.074 4.73v-.002zm-56.628-4.684v-1.093c0-.225-.025-.456-.047-.682l-.025-.251-.022-.193a1.47 1.47 0 00-.05-.369c0-.123-.035-.246-.057-.364-.025-.118-.028-.16-.045-.241l-.062-.329c-.06-.294-.131-.587-.212-.877l-.094-.338-.112-.35a9.697 9.697 0 00-.117-.338 15.73 15.73 0 00-.253-.677l-.107-.262a4.251 4.251 0 00-.192-.41c-.067-.123-.154-.339-.244-.498-.227-.46-.481-.907-.76-1.336a13.775 13.775 0 00-.344-.51l-.171-.241-.107-.144c-.344-.461-.714-.9-1.11-1.316l-.215-.223c-.254-.26-.518-.508-.791-.744l-.06-.054a37.147 37.147 0 00-.477-.41l-.274-.216a12.582 12.582 0 00-.858-.603c-.097-.061-.196-.128-.296-.184l-.298-.18c-.1-.06-.202-.117-.306-.172-.102-.05-.201-.11-.306-.164l-.313-.159a4.486 4.486 0 00-.318-.149l-.319-.143c-.216-.093-.435-.18-.656-.262l-.33-.12-.34-.11-.337-.103a13.03 13.03 0 00-.687-.18l-.278-.061-.423-.082a10.378 10.378 0 00-.716-.11l-.358-.047-.522-.046h-1.597c-2.272.101-4.49.75-6.477 1.893a14.757 14.757 0 00-4.962 4.693 15.326 15.326 0 00-2.39 6.493 15.486 15.486 0 00.695 6.908 15.102 15.102 0 003.629 5.849 14.494 14.494 0 005.79 3.544c2.17.7 4.471.864 6.715.483a14.345 14.345 0 006.21-2.682l.232-.18c.187-.148.373-.292.547-.443a2.18 2.18 0 00.174-.149l.144-.138.045-.039a15.128 15.128 0 002.718-3.355c.008-.015.013-.036 0-.051a.056.056 0 00-.047-.02.057.057 0 00-.025.01l-.05.038-.457.43a9.853 9.853 0 01-3.283 2.25 9.604 9.604 0 01-3.874.744 9.64 9.64 0 01-4.484-1.105 9.973 9.973 0 01-3.51-3.083 10.358 10.358 0 01-1.915-6.028v-.718h19.781v-.003zM45.555 17.31a4.878 4.878 0 013.496 1.5 5.192 5.192 0 011.448 3.61v8.274h-9.897V22.42c0-1.355.523-2.654 1.451-3.613a4.88 4.88 0 013.502-1.497z" fill="#0056FE"/></svg>