<svg style="display: none;">

  <symbol id="icon-deus" width="49" height="20" viewBox="0 0 49 20" fill="none" xmlns="http://www.w3.org/2000/svg">
    <g>
    <path d="M12.2201 1.09948V17.8191C12.2209 17.8572 12.2116 17.8949 12.1933 17.9284C12.175 17.9619 12.1483 17.99 12.1158 18.01C12.0833 18.03 12.0462 18.0412 12.0081 18.0425C11.9699 18.0437 11.9321 18.035 11.8984 18.0172L8.74829 16.4392C8.71159 16.4212 8.68065 16.3933 8.65897 16.3586C8.63728 16.324 8.62572 16.284 8.62558 16.2431V2.67646C8.62572 2.63557 8.63728 2.59554 8.65897 2.56088C8.68065 2.52622 8.71159 2.49831 8.74829 2.4803L11.8974 0.904295C11.931 0.886554 11.9686 0.877841 12.0066 0.87901C12.0446 0.880179 12.0816 0.89119 12.114 0.910963C12.1465 0.930737 12.1732 0.958596 12.1916 0.991813C12.2101 1.02503 12.2196 1.06246 12.2192 1.10045L12.2201 1.09948ZM37.0362 7.09237V17.821C37.0361 17.8585 37.0264 17.8953 37.008 17.928C36.9897 17.9607 36.9633 17.9881 36.9313 18.0078C36.8994 18.0274 36.863 18.0386 36.8256 18.0402C36.7881 18.0419 36.7509 18.0339 36.7174 18.0172L33.5634 16.4392C33.5269 16.4211 33.4961 16.3931 33.4746 16.3585C33.4531 16.3238 33.4417 16.2839 33.4417 16.2431V7.09237C33.4417 7.0342 33.4648 6.97841 33.5059 6.93727C33.547 6.89613 33.6028 6.87302 33.661 6.87302H36.8169C36.875 6.87302 36.9308 6.89613 36.972 6.93727C37.0131 6.97841 37.0362 7.0342 37.0362 7.09237ZM32.7198 17.4442L32.658 17.4905C32.2947 17.7567 31.8832 17.9497 31.4463 18.0587C30.9154 18.1959 30.3602 18.2097 29.8231 18.0991C29.2861 17.9885 28.7815 17.7564 28.348 17.4206C27.9146 17.0848 27.5637 16.6542 27.3224 16.1619C27.0811 15.6695 26.9558 15.1284 26.956 14.5801V7.12136C26.956 7.06335 26.9789 7.00771 27.0199 6.9666C27.0608 6.92549 27.1163 6.90227 27.1743 6.90201L29.1977 6.93487H30.3244C30.337 6.93364 30.3496 6.93364 30.3621 6.93487C30.4116 6.94489 30.4562 6.97171 30.4883 7.0108C30.5203 7.04988 30.5379 7.09884 30.538 7.14938V9.74192C30.5368 9.75575 30.5368 9.76964 30.538 9.78347V15.6266C30.5385 16.0685 30.7143 16.4922 31.0267 16.8046C31.3392 17.1171 31.7629 17.2929 32.2048 17.2934H32.6406C32.6547 17.2906 32.6693 17.2912 32.6831 17.2952C32.6969 17.2992 32.7095 17.3066 32.7199 17.3165C32.7302 17.3265 32.738 17.3389 32.7425 17.3525C32.7471 17.3661 32.7482 17.3807 32.7459 17.3949C32.7426 17.4134 32.7335 17.4313 32.7198 17.4442ZM7.83419 8.22775C7.63755 8.14893 7.42762 8.10858 7.21577 8.1089H6.96454C6.74481 8.1089 6.52724 8.15224 6.32429 8.23644C6.12134 8.32065 5.93699 8.44406 5.7818 8.5996C5.62661 8.75515 5.50363 8.93979 5.4199 9.14293C5.33616 9.34608 5.29332 9.56374 5.29383 9.78347V15.6266C5.29511 16.0688 5.4717 16.4926 5.78487 16.8048C6.09805 17.1171 6.52227 17.2925 6.96454 17.2925H7.40033C7.4144 17.2907 7.42868 17.2925 7.44193 17.2976C7.45517 17.3026 7.46697 17.3108 7.47631 17.3215C7.48565 17.3322 7.49223 17.345 7.49549 17.3588C7.49876 17.3726 7.49859 17.387 7.49502 17.4007C7.49054 17.4188 7.48038 17.4351 7.46604 17.4471L7.40516 17.4934C6.869 17.8823 6.23577 18.1154 5.57543 18.167C4.91509 18.2186 4.25335 18.0866 3.66332 17.7856C3.0733 17.4846 2.57796 17.0264 2.23203 16.4616C1.88611 15.8968 1.70306 15.2473 1.70313 14.5849V10.5903C1.70313 8.6017 3.33131 6.92327 5.31896 6.9339C5.81044 6.93708 6.29602 7.04131 6.74551 7.24013C7.19499 7.43894 7.59879 7.72808 7.93178 8.08958C7.94359 8.10441 7.95029 8.12266 7.95088 8.14161C7.95147 8.16056 7.94592 8.1792 7.93505 8.19474C7.92419 8.21027 7.90859 8.22188 7.89059 8.22783C7.87258 8.23378 7.85218 8.23376 7.83419 8.22775ZM47.1667 14.4265C47.1667 15.4121 46.8991 16.2276 46.3628 16.8731C46.2826 16.9658 46.2082 17.0518 46.1144 17.1388C45.4796 17.7572 44.665 18.0896 43.6756 18.1534C43.6727 18.1549 43.6696 18.1557 43.6664 18.1557C43.6632 18.1557 43.66 18.1549 43.6572 18.1534L43.5644 18.1602H43.1818C42.5449 18.1384 41.9111 18.0605 41.2879 17.9273L41.199 17.908C40.7389 17.789 40.2881 17.6369 39.85 17.4529C39.6914 17.3833 39.5559 17.27 39.4592 17.1263C39.3625 16.9826 39.3087 16.8143 39.3041 16.6412L39.2171 14.555C39.2165 14.5392 39.219 14.5235 39.2246 14.5087C39.2302 14.494 39.2387 14.4805 39.2496 14.4692C39.2605 14.4578 39.2736 14.4487 39.2882 14.4426C39.3027 14.4364 39.3183 14.4332 39.334 14.4332C39.4229 14.4332 39.5041 14.4835 39.5447 14.5617C39.9825 15.4011 40.5554 16.1627 41.2405 16.8161C41.8203 17.3669 42.4252 17.6935 43.0571 17.7969C43.204 17.821 43.3528 17.8336 43.5016 17.8326C43.576 17.8326 43.6562 17.8326 43.7239 17.8229H43.7606C43.7872 17.8227 43.8137 17.8201 43.8398 17.8152C43.978 17.8036 44.1152 17.7737 44.2457 17.7282C44.3017 17.7118 44.3558 17.6935 44.409 17.6703C44.4505 17.6538 44.4921 17.6365 44.5307 17.6162C44.7759 17.4928 44.9923 17.3189 45.1656 17.106C45.2003 17.0673 45.2332 17.0267 45.2622 16.9842C45.2921 16.9398 45.3231 16.8972 45.3492 16.8547C45.4458 16.6286 45.4922 16.3851 45.4873 16.1397C45.4998 15.8842 45.4467 15.6297 45.3331 15.4005C45.2194 15.1713 45.049 14.975 44.838 14.8304C44.2673 14.467 43.6409 14.1996 42.9837 14.039C42.3953 13.8859 41.8189 13.6901 41.2589 13.4534C40.9722 13.3208 40.7007 13.1575 40.4491 12.9664C40.3767 12.9142 40.3042 12.8533 40.2317 12.7954C39.5775 12.2533 39.25 11.4136 39.25 10.2743C39.248 9.90715 39.306 9.5419 39.422 9.19307C39.4374 9.15152 39.4529 9.10997 39.4713 9.06745C39.5254 8.92638 39.5882 8.78916 39.6597 8.65485C39.6597 8.64712 39.6674 8.63842 39.6722 8.62876C39.8297 8.35627 40.023 8.10504 40.2452 7.88279C40.7195 7.41066 41.3261 7.09389 41.9846 6.97448C42.3054 6.91071 42.632 6.87979 42.9586 6.88172C43.1422 6.88172 43.3345 6.89138 43.5248 6.90878C43.9599 6.95139 44.3901 7.0342 44.81 7.15615C45.353 7.32041 45.8825 7.52913 46.3908 7.7794C46.3932 7.78068 46.3953 7.78264 46.3966 7.78504C46.398 7.78743 46.3987 7.79017 46.3985 7.79293L46.444 9.06939L46.4787 10.1043C46.4793 10.1194 46.4767 10.1345 46.4713 10.1486C46.4658 10.1627 46.4575 10.1756 46.447 10.1864C46.4364 10.1972 46.4238 10.2058 46.4098 10.2116C46.3958 10.2174 46.3808 10.2204 46.3657 10.2202C46.3252 10.2201 46.2856 10.2093 46.2507 10.1887C46.2159 10.1682 46.1872 10.1387 46.1676 10.1033C45.8874 9.59891 45.5685 9.1177 45.2139 8.66355C45.0536 8.45858 44.8823 8.26246 44.7008 8.07605L44.6583 8.0345C44.1104 7.48565 43.5151 7.21219 42.8726 7.21219C42.23 7.21219 41.7304 7.36003 41.3748 7.65668C41.2036 7.80237 41.0676 7.98504 40.9772 8.19092C40.8868 8.39681 40.8444 8.62052 40.853 8.84521C40.8452 9.07545 40.8999 9.30351 41.0114 9.50514C41.1228 9.70676 41.2868 9.87441 41.486 9.99025C41.972 10.2819 42.4981 10.501 43.0475 10.6406L43.3567 10.7246C43.8041 10.8464 44.1055 10.9333 44.266 10.9855C44.4592 11.0474 44.7008 11.1324 44.9878 11.2426C45.2342 11.3315 45.4709 11.4474 45.6931 11.5866C45.897 11.7228 46.0913 11.8745 46.2729 12.0407C46.4662 12.2117 46.6285 12.4166 46.7493 12.6456C47.0401 13.1935 47.1841 13.8071 47.1667 14.4274V14.4265ZM25.1616 12.662V12.5364V12.3702V12.2504C25.1616 12.1654 25.1519 12.0784 25.1432 11.9934L25.1336 11.8987L25.1249 11.8262C25.1245 11.7792 25.118 11.7324 25.1055 11.687C25.1055 11.6407 25.092 11.5943 25.0833 11.5498C25.0736 11.5054 25.0727 11.4899 25.0659 11.459L25.0418 11.3353C25.0182 11.2242 24.9908 11.114 24.9596 11.0049L24.9229 10.8773L24.8794 10.7459C24.8649 10.7034 24.8504 10.6609 24.834 10.6183C24.8032 10.5325 24.7703 10.4475 24.7354 10.3632L24.6939 10.2647C24.6719 10.2118 24.6471 10.1602 24.6195 10.1101C24.5934 10.0637 24.5596 9.98252 24.5248 9.92261C24.4364 9.74904 24.3377 9.58092 24.2291 9.41918C24.1861 9.35411 24.1416 9.29 24.0958 9.22689L24.0291 9.13606L23.9875 9.08195C23.854 8.9082 23.7101 8.74267 23.5566 8.58625L23.4725 8.50218C23.3741 8.40449 23.2716 8.311 23.1652 8.22196L23.142 8.20166C23.0806 8.14961 23.0188 8.09807 22.9565 8.04706L22.8502 7.96589C22.7423 7.88565 22.6311 7.8099 22.5169 7.73881C22.4792 7.71562 22.4405 7.6905 22.4019 7.66924L22.2859 7.6016C22.247 7.57884 22.2073 7.55725 22.1671 7.53686C22.1274 7.51754 22.0888 7.49531 22.0482 7.47502L21.9265 7.41511C21.886 7.39486 21.8447 7.37616 21.8028 7.35907L21.6791 7.30495C21.595 7.26983 21.5099 7.23697 21.424 7.20639L21.2955 7.16098L21.1641 7.11943L21.0326 7.08078C20.9444 7.05588 20.8554 7.03333 20.766 7.01314L20.6577 6.98994L20.4935 6.95902C20.4012 6.94204 20.3084 6.92818 20.2152 6.91747L20.076 6.90008L19.8731 6.88269H19.2528C18.3696 6.92077 17.5076 7.16499 16.7357 7.59583C15.9638 8.02667 15.3034 8.63217 14.8074 9.36389C14.3114 10.0956 13.9934 10.9333 13.8791 11.8098C13.7647 12.6864 13.8571 13.5776 14.1488 14.4121C14.4404 15.2466 14.9234 16.0012 15.5589 16.6157C16.1944 17.2301 16.9649 17.6873 17.8088 17.9507C18.6526 18.2141 19.5464 18.2764 20.4186 18.1326C21.2908 17.9887 22.1173 17.6428 22.8319 17.1224L22.9217 17.0547C22.9942 16.9987 23.0667 16.9446 23.1343 16.8876C23.1575 16.8702 23.1797 16.8518 23.202 16.8315L23.258 16.7794L23.2754 16.7649C23.6864 16.3965 24.0421 15.9709 24.3315 15.501C24.3344 15.4952 24.3364 15.4874 24.3315 15.4816C24.3294 15.4792 24.3268 15.4772 24.3238 15.4758C24.3205 15.4743 24.3168 15.4737 24.3132 15.4739C24.3097 15.4744 24.3064 15.4757 24.3035 15.4778L24.2842 15.4923L24.1064 15.6546C23.7425 16.0199 23.3086 16.308 22.8308 16.5017C22.353 16.6955 21.841 16.7909 21.3254 16.7823C20.7199 16.7827 20.1228 16.64 19.5829 16.3658C19.043 16.0916 18.5756 15.6936 18.2188 15.2043C17.7344 14.5464 17.4736 13.7506 17.4748 12.9336V12.663H25.1616V12.662ZM19.4054 7.39965C19.9153 7.40067 20.4039 7.60392 20.764 7.96479C21.1241 8.32565 21.3264 8.81466 21.3264 9.32448V12.4417H17.4806V9.32448C17.4808 8.81407 17.6837 8.32462 18.0446 7.9637C18.4056 7.60278 18.895 7.39991 19.4054 7.39965Z" fill="white"/>
    </g>
  </symbol>

  <symbol id="icon-left" width="24" height="24" viewBox="0 0 24 24" fill="none" xmlns="http://www.w3.org/2000/svg">
    <g filter="url(#filter0_i_5504_28101)">
      <path d="M19 11.5H4M4 11.5L9.27778 6M4 11.5L9.27778 17" stroke="url(#paint0_linear_5504_28101)" stroke-width="2"/>
    </g>
    <defs>
      <filter id="filter0_i_5504_28101" x="2.61328" y="5.30762" width="17.3867" height="13.3848" filterUnits="userSpaceOnUse" color-interpolation-filters="sRGB">
      <feFlood flood-opacity="0" result="BackgroundImageFix"/>
      <feBlend mode="normal" in="SourceGraphic" in2="BackgroundImageFix" result="shape"/>
      <feColorMatrix in="SourceAlpha" type="matrix" values="0 0 0 0 0 0 0 0 0 0 0 0 0 0 0 0 0 0 127 0" result="hardAlpha"/>
      <feOffset dx="1" dy="1"/>
      <feGaussianBlur stdDeviation="0.5"/>
      <feComposite in2="hardAlpha" operator="arithmetic" k2="-1" k3="1"/>
      <feColorMatrix type="matrix" values="0 0 0 0 0 0 0 0 0 0.295711 0 0 0 0 0.591422 0 0 0 0.4 0"/>
      <feBlend mode="multiply" in2="shape" result="effect1_innerShadow_5504_28101"/>
      </filter>
      <linearGradient id="paint0_linear_5504_28101" x1="19" y1="11.5" x2="4" y2="11.5" gradientUnits="userSpaceOnUse">
      <stop stop-color="#0056FE"/>
      <stop offset="1" stop-color="#19BFEA"/>
      </linearGradient>
    </defs>
  </symbol>

  <symbol id="icon-right" width="24" height="24" viewBox="0 0 24 24" xmlns="http://www.w3.org/2000/svg">
    <g filter="url(#filter0_i_5504_28099)">
      <path d="M4 11.5H19M19 11.5L13.7222 6M19 11.5L13.7222 17" stroke="url(#paint0_linear_5504_28099)" stroke-width="2"/>
    </g>
    <defs>
      <filter id="filter0_i_5504_28099" x="4" y="5.30762" width="17.3867" height="13.3848" filterUnits="userSpaceOnUse" color-interpolation-filters="sRGB">
      <feFlood flood-opacity="0" result="BackgroundImageFix"/>
      <feBlend mode="normal" in="SourceGraphic" in2="BackgroundImageFix" result="shape"/>
      <feColorMatrix in="SourceAlpha" type="matrix" values="0 0 0 0 0 0 0 0 0 0 0 0 0 0 0 0 0 0 127 0" result="hardAlpha"/>
      <feOffset dx="1" dy="1"/>
      <feGaussianBlur stdDeviation="0.5"/>
      <feComposite in2="hardAlpha" operator="arithmetic" k2="-1" k3="1"/>
      <feColorMatrix type="matrix" values="0 0 0 0 0 0 0 0 0 0.295711 0 0 0 0 0.591422 0 0 0 0.4 0"/>
      <feBlend mode="multiply" in2="shape" result="effect1_innerShadow_5504_28099"/>
      </filter>
      <linearGradient id="paint0_linear_5504_28099" x1="4" y1="11.5" x2="19" y2="11.5" gradientUnits="userSpaceOnUse">
      <stop stop-color="#0056FE"/>
      <stop offset="1" stop-color="#19BFEA"/>
      </linearGradient>
    </defs>
  </symbol>

  <symbol id="autoplay" viewBox="0 0 48 48">
    <circle cx="24" cy="24" r="20"></circle>
  </symbol>

</svg>