<svg width="41" height="40" fill="none" xmlns="http://www.w3.org/2000/svg"><g clip-path="url(#clip0_8503_1039)"><path d="M.473 19.2c0-9.051 0-13.576 2.811-16.388C6.096 0 10.622 0 19.673 0h1.6c9.05 0 13.576 0 16.388 2.812 2.812 2.812 2.812 7.337 2.812 16.388v1.6c0 9.051 0 13.576-2.812 16.388C34.849 40 30.324 40 21.273 40h-1.6c-9.051 0-13.577 0-16.389-2.812C.473 34.376.473 29.851.473 20.8v-1.6z" fill="#07F"/><path d="M21.756 28.817c-9.117 0-14.317-6.25-14.533-16.65h4.566c.15 7.633 3.517 10.867 6.184 11.533V12.167h4.3v6.583c2.633-.283 5.4-3.283 6.333-6.583h4.3c-.717 4.067-3.717 7.067-5.85 8.3 2.133 1 5.55 3.617 6.85 8.35h-4.733c-1.017-3.167-3.55-5.617-6.9-5.95v5.95h-.517z" fill="#fff"/></g><defs><clipPath id="clip0_8503_1039"><path fill="#fff" transform="translate(.473)" d="M0 0h40v40H0z"/></clipPath></defs></svg>