<svg width="43" height="27" fill="none" xmlns="http://www.w3.org/2000/svg"><g clip-path="url(#clip0_8503_1058)"><path d="M0 0v11.907h11.907V0H0zm8.303 8.397a1.987 1.987 0 01-.865.662 3.554 3.554 0 01-1.35.229H3.402V2.605h2.511c.742 0 1.31.149 1.715.446.405.297.607.729.607 1.282a1.45 1.45 0 01-.216.824 1.52 1.52 0 01-.648.553c.364.109.675.325.904.622.216.296.325.661.311 1.039.027.364-.081.729-.284 1.026zM6.6 5.13a.788.788 0 00.284-.648c0-.527-.364-.796-1.08-.796H4.779v1.66h1.026c.338.013.607-.067.796-.216zm-.634 1.282h-1.2v1.81h1.188c.405 0 .715-.082.931-.23a.745.745 0 00.324-.662c0-.62-.418-.931-1.242-.918zM14.877 0v11.907h11.907V0H14.877zm8.303 8.397a1.987 1.987 0 01-.864.662 3.578 3.578 0 01-1.364.229h-2.673V2.605h2.511c.742 0 1.31.149 1.728.446.405.297.607.729.607 1.282a1.45 1.45 0 01-.215.824 1.52 1.52 0 01-.648.553c.364.109.674.325.904.622.216.296.324.661.31 1.039.014.364-.094.729-.296 1.026zM21.479 5.13a.788.788 0 00.283-.648c0-.527-.364-.796-1.08-.796h-1.026v1.66h1.026c.338.013.608-.067.797-.216zm-.635 1.282h-1.202v1.81h1.189c.404 0 .715-.082.931-.23a.745.745 0 00.324-.662c0-.62-.405-.931-1.242-.918zm8.91 5.495h11.907V0H29.754v11.907zM38.3 8.87a4.125 4.125 0 01-.959.364c-.378.095-.77.135-1.148.135a4.05 4.05 0 01-1.444-.23 3.16 3.16 0 01-1.093-.675 2.92 2.92 0 01-.675-1.08 4.307 4.307 0 01-.244-1.43 3.797 3.797 0 01.243-1.404 3.18 3.18 0 01.703-1.08c.324-.311.702-.54 1.106-.689a4.386 4.386 0 011.445-.243c.351 0 .702.04 1.053.108.324.067.635.189.918.337v1.31a3.16 3.16 0 00-.837-.392 3.29 3.29 0 00-.959-.134 2.529 2.529 0 00-1.174.256c-.324.162-.58.432-.742.743-.19.364-.27.769-.257 1.188a2.42 2.42 0 00.257 1.188c.161.323.418.58.728.742.365.175.757.27 1.162.256.674 0 1.336-.189 1.916-.54v1.27z" fill="#000"/><path d="M13.339 24.922h5.197v1.863h-7.438V16.363h7.168v1.863H13.34v2.268h4.374v1.863H13.34v2.565zm17.885-8.559h2.403c-.405 1.755-.837 3.51-1.296 5.265a223.943 223.943 0 01-1.431 5.157h-2.376a318.84 318.84 0 01-1.89-7.047 207.858 207.858 0 01-1.863 7.047h-2.376c-.5-1.714-.972-3.429-1.431-5.157a166.426 166.426 0 01-1.296-5.265h2.444c.243 1.35.499 2.7.769 4.05.27 1.35.553 2.673.864 3.983a295.574 295.574 0 001.85-7.587h2.187c.58 2.484 1.188 4.954 1.835 7.425.297-1.296.581-2.606.851-3.902.27-1.323.513-2.646.756-3.969zm10.949 7.357c0 .689-.175 1.283-.513 1.768-.337.486-.837.864-1.471 1.121-.648.256-1.418.391-2.322.391a8.01 8.01 0 01-1.701-.189 6.041 6.041 0 01-1.607-.593v-2.012a6.233 6.233 0 003.308.945c.661 0 1.16-.108 1.512-.337a1.05 1.05 0 00.513-.932c0-.297-.082-.54-.257-.702a1.646 1.646 0 00-.675-.405c-.31-.108-.621-.202-.945-.284a9.815 9.815 0 01-1.512-.472 4.475 4.475 0 01-1.107-.621 2.386 2.386 0 01-.688-.864 2.844 2.844 0 01-.23-1.201c0-.662.162-1.229.5-1.701.364-.5.85-.878 1.417-1.094.607-.256 1.336-.392 2.187-.392.553 0 1.093.068 1.633.19.5.108.986.283 1.445.513v1.984a5.658 5.658 0 00-1.444-.607 6.004 6.004 0 00-1.62-.216c-.594 0-1.053.107-1.377.31a.965.965 0 00-.486.878.873.873 0 00.229.648c.189.175.418.31.661.391.284.108.622.203 1.013.297.5.122.958.27 1.377.419.405.134.783.337 1.134.58.324.23.58.54.756.891.175.338.27.77.27 1.296zM9.031 16.362v10.422H6.763a541.342 541.342 0 00-2.295-3.645 319.173 319.173 0 00-2.294-3.55v7.195H0V16.362h2.268A319.213 319.213 0 014.59 19.9a323.79 323.79 0 012.282 3.591v-7.128h2.16z" fill="#EB0000"/></g><defs><clipPath id="clip0_8503_1058"><path fill="#fff" d="M0 0h42.174v27H0z"/></clipPath></defs></svg>