<svg width="160" height="73" fill="none" xmlns="http://www.w3.org/2000/svg"><path d="M40.107 4.013V65.04a.873.873 0 01-.088.399.771.771 0 01-.254.298.661.661 0 01-.714.026l-10.339-5.76a.753.753 0 01-.293-.294.867.867 0 01-.11-.422V9.77a.887.887 0 01.11-.422.753.753 0 01.293-.294l10.336-5.752a.661.661 0 01.71.024.77.77 0 01.256.295c.06.121.091.258.09.397l.003-.004zm81.448 21.874v39.16a.872.872 0 01-.093.39.777.777 0 01-.251.291.665.665 0 01-.703.034l-10.351-5.759a.749.749 0 01-.291-.295.863.863 0 01-.109-.42v-33.4a.85.85 0 01.211-.567.685.685 0 01.509-.235h10.358c.191 0 .374.085.509.235.135.15.211.354.211.566zm-14.167 37.784l-.203.17a10.927 10.927 0 01-3.977 2.073c-1.742.501-3.564.552-5.327.148s-3.419-1.251-4.841-2.477c-1.423-1.225-2.574-2.797-3.366-4.594a14.333 14.333 0 01-1.203-5.774V25.993c0-.212.075-.415.21-.565a.686.686 0 01.507-.236l6.64.12h3.698a.568.568 0 01.124 0 .71.71 0 01.414.277.856.856 0 01.163.506v9.463a1.28 1.28 0 000 .152v21.327c.002 1.613.579 3.16 1.604 4.3 1.026 1.14 2.417 1.782 3.867 1.784h1.43a.267.267 0 01.26.084.352.352 0 010 .466zm-81.676-33.64a4.957 4.957 0 00-2.03-.433h-.824c-.721 0-1.435.158-2.101.465a5.486 5.486 0 00-1.78 1.326 6.184 6.184 0 00-1.189 1.983 6.7 6.7 0 00-.413 2.338v21.327c.004 1.614.584 3.16 1.611 4.3 1.028 1.14 2.42 1.78 3.872 1.78h1.43a.258.258 0 01.137.02.287.287 0 01.113.087.353.353 0 01-.034.458l-.2.17c-1.76 1.419-3.838 2.27-6.005 2.458-2.167.188-4.34-.294-6.276-1.392-1.936-1.1-3.562-2.772-4.697-4.833-1.136-2.062-1.736-4.432-1.736-6.85v-14.58c0-7.259 5.344-13.385 11.867-13.346 1.613.011 3.207.392 4.682 1.117a11.88 11.88 0 013.894 3.101.348.348 0 01.01.384.294.294 0 01-.146.12.27.27 0 01-.185 0zm129.092 22.626c0 3.597-.879 6.574-2.639 8.93-.263.338-.507.652-.815.97-2.084 2.257-4.757 3.47-8.004 3.703a.063.063 0 01-.031.008.062.062 0 01-.03-.008l-.304.025h-1.256a32.152 32.152 0 01-6.216-.85l-.292-.07a30.105 30.105 0 01-4.427-1.662 3.102 3.102 0 01-1.283-1.192 3.597 3.597 0 01-.509-1.77l-.285-7.615a.445.445 0 01.106-.313.384.384 0 01.127-.098.347.347 0 01.15-.034c.292 0 .559.184.692.47a31.437 31.437 0 005.566 8.228c1.902 2.01 3.888 3.202 5.962 3.58.482.088.97.133 1.459.13.244 0 .507 0 .729-.035h.121a1.36 1.36 0 00.26-.029 4.996 4.996 0 001.332-.317c.184-.06.361-.127.536-.212.136-.06.272-.123.399-.197a6.568 6.568 0 002.084-1.862c.114-.141.222-.29.317-.445.098-.162.2-.317.285-.472.318-.826.47-1.714.454-2.61a5.995 5.995 0 00-.506-2.698 5.348 5.348 0 00-1.625-2.081 19.291 19.291 0 00-6.086-2.889 38.406 38.406 0 01-5.661-2.137 14.168 14.168 0 01-2.658-1.778c-.238-.19-.475-.412-.713-.624-2.147-1.979-3.222-5.043-3.222-9.202a13.53 13.53 0 01.564-3.946c.051-.152.102-.304.162-.459.177-.515.384-1.015.618-1.506 0-.028.026-.06.041-.095a13.152 13.152 0 011.881-2.723c1.557-1.723 3.547-2.88 5.709-3.315a14.351 14.351 0 013.196-.339c.603 0 1.234.036 1.859.099 1.428.156 2.84.458 4.218.903a32.16 32.16 0 015.188 2.275.047.047 0 01.019.02.048.048 0 01.006.03l.15 4.658.114 3.778a.465.465 0 01-.025.161.413.413 0 01-.08.138.36.36 0 01-.266.124.693.693 0 01-.378-.115.793.793 0 01-.272-.312 41.157 41.157 0 00-3.131-5.255 25.6 25.6 0 00-1.684-2.144l-.139-.152c-1.798-2.003-3.752-3.002-5.861-3.002s-3.748.54-4.916 1.623a5.422 5.422 0 00-1.305 1.95 5.956 5.956 0 00-.407 2.388c-.026.84.154 1.673.52 2.409a4.459 4.459 0 001.557 1.77 18.104 18.104 0 005.125 2.374l1.015.307c1.468.444 2.458.762 2.984.952.635.226 1.427.536 2.369.938.809.325 1.586.748 2.315 1.256a16.22 16.22 0 011.903 1.658 7.788 7.788 0 011.564 2.207c.954 2 1.427 4.24 1.37 6.504v-.003zm-72.222-6.44v-1.504c0-.31-.032-.628-.06-.938l-.032-.346-.029-.264a2.166 2.166 0 00-.063-.508c0-.17-.045-.339-.073-.501-.032-.162-.035-.219-.057-.332l-.08-.451a19.662 19.662 0 00-.27-1.206l-.12-.466-.142-.48a13.07 13.07 0 00-.15-.465 22.79 22.79 0 00-.323-.931l-.136-.36a6.084 6.084 0 00-.245-.564c-.085-.17-.196-.466-.31-.684a18.332 18.332 0 00-.97-1.838 19.49 19.49 0 00-.438-.702l-.22-.331-.136-.198a19.44 19.44 0 00-1.414-1.81l-.276-.306c-.323-.357-.66-.698-1.008-1.023l-.076-.074a48.98 48.98 0 00-.61-.564l-.348-.296c-.355-.293-.72-.57-1.094-.83-.124-.084-.251-.176-.378-.253l-.38-.247a7.262 7.262 0 00-.39-.236c-.13-.071-.257-.152-.39-.226l-.4-.219a5.526 5.526 0 00-.406-.204l-.406-.198a15.786 15.786 0 00-.837-.36l-.422-.165-.431-.152-.432-.141c-.29-.091-.581-.173-.875-.247l-.355-.085-.54-.113a12.376 12.376 0 00-.913-.151l-.456-.064-.666-.063h-2.036c-2.899.139-5.728 1.03-8.262 2.603-2.533 1.572-4.7 3.782-6.328 6.453-1.628 2.671-2.672 5.728-3.047 8.928-.375 3.2-.072 6.452.885 9.498.957 3.046 2.542 5.8 4.628 8.043 2.086 2.243 4.615 3.912 7.384 4.873a16.8 16.8 0 008.566.664c2.863-.525 5.575-1.788 7.92-3.687l.295-.247c.238-.205.476-.402.698-.61.076-.064.15-.13.222-.205l.184-.19.057-.053a20.595 20.595 0 003.466-4.614c.01-.02.016-.049 0-.07a.078.078 0 00-.025-.021.066.066 0 00-.035-.007.068.068 0 00-.031.014l-.064.053-.584.592a12.577 12.577 0 01-4.186 3.092 11.478 11.478 0 01-4.94 1.024 11.585 11.585 0 01-5.72-1.52c-1.772-1-3.306-2.453-4.477-4.24-1.59-2.4-2.446-5.305-2.442-8.287v-.988h25.229v-.004zM63.69 27.008c1.673.003 3.277.745 4.459 2.063 1.182 1.317 1.845 3.101 1.845 4.962v11.378H57.372V34.034c.001-1.863.667-3.65 1.852-4.966 1.184-1.318 2.79-2.058 4.466-2.06z" fill="#fff" opacity=".5"/></svg>