<svg width="46" height="46" fill="none" xmlns="http://www.w3.org/2000/svg"><g filter="url(#filter0_iii_5504_28845)" fill="#D0E2F3"><path d="M3.957 7.28c.1-1.652 1.175-2.93 2.815-3.145 1.267-.165 3.097-.303 5.681-.303s4.414.138 5.68.303c1.641.214 2.716 1.493 2.816 3.144.072 1.182.13 2.853.13 5.178 0 2.325-.058 3.996-.13 5.178-.1 1.651-1.175 2.93-2.815 3.144-1.267.165-3.097.303-5.68.303-2.585 0-4.415-.138-5.682-.303-1.64-.214-2.715-1.493-2.815-3.144-.072-1.182-.129-2.853-.129-5.178 0-2.325.057-3.996.13-5.178zm0 31.439c.1 1.651 1.175 2.93 2.815 3.144 1.267.166 3.097.303 5.681.303s4.414-.137 5.68-.303c1.641-.214 2.716-1.493 2.816-3.144.072-1.181.13-2.852.13-5.178 0-2.325-.058-3.996-.13-5.177-.1-1.652-1.175-2.93-2.815-3.145-1.267-.165-3.097-.303-5.68-.303-2.585 0-4.415.138-5.682.303-1.64.214-2.715 1.493-2.815 3.145-.072 1.18-.129 2.852-.129 5.177 0 2.326.057 3.997.13 5.178zM38.715 3.961c1.651.1 2.93 1.175 3.144 2.815.166 1.267.303 3.097.303 5.681s-.137 4.414-.303 5.68c-.214 1.641-1.493 2.716-3.144 2.816-1.181.072-2.852.129-5.178.129-2.325 0-3.996-.057-5.177-.129-1.652-.1-2.93-1.175-3.145-2.815-.165-1.267-.303-3.097-.303-5.681s.138-4.414.303-5.68c.214-1.641 1.493-2.716 3.145-2.816 1.18-.072 2.852-.129 5.177-.129 2.326 0 3.997.057 5.178.129z"/></g><g filter="url(#filter1_i_5504_28845)"><path d="M32.374 42.112c-.975-.098-1.578-.927-1.616-1.906a138.42 138.42 0 01-.082-3.804c-1.74-.017-2.967-.05-3.804-.082-.98-.038-1.808-.64-1.905-1.616a11.686 11.686 0 01-.055-1.163c0-.449.022-.835.055-1.163.097-.975.926-1.579 1.905-1.616a138.42 138.42 0 013.804-.082c.018-1.74.05-2.967.082-3.804.038-.98.64-1.808 1.616-1.906a11.96 11.96 0 011.163-.054c.449 0 .835.021 1.163.054.975.098 1.579.927 1.616 1.906.032.837.065 2.064.082 3.804 1.74.018 2.967.05 3.804.082.98.037 1.808.64 1.906 1.616.033.328.054.714.054 1.163 0 .449-.021.835-.054 1.163-.098.975-.926 1.578-1.906 1.616-.837.032-2.064.065-3.803.082-.018 1.74-.051 2.967-.083 3.804-.037.98-.64 1.808-1.616 1.906a11.96 11.96 0 01-1.163.054c-.449 0-.835-.021-1.163-.054z" fill="url(#paint0_linear_5504_28845)"/></g><defs><filter id="filter0_iii_5504_28845" x="2.828" y="1.832" width="40.334" height="41.334" filterUnits="userSpaceOnUse" color-interpolation-filters="sRGB"><feFlood flood-opacity="0" result="BackgroundImageFix"/><feBlend in="SourceGraphic" in2="BackgroundImageFix" result="shape"/><feColorMatrix in="SourceAlpha" values="0 0 0 0 0 0 0 0 0 0 0 0 0 0 0 0 0 0 127 0" result="hardAlpha"/><feOffset dx="1" dy="1"/><feGaussianBlur stdDeviation="1"/><feComposite in2="hardAlpha" operator="arithmetic" k2="-1" k3="1"/><feColorMatrix values="0 0 0 0 0.534167 0 0 0 0 0.645967 0 0 0 0 0.749167 0 0 0 0.6 0"/><feBlend in2="shape" result="effect1_innerShadow_5504_28845"/><feColorMatrix in="SourceAlpha" values="0 0 0 0 0 0 0 0 0 0 0 0 0 0 0 0 0 0 127 0" result="hardAlpha"/><feOffset dx="-1" dy="-2"/><feGaussianBlur stdDeviation="1"/><feComposite in2="hardAlpha" operator="arithmetic" k2="-1" k3="1"/><feColorMatrix values="0 0 0 0 0.533333 0 0 0 0 0.647059 0 0 0 0 0.74902 0 0 0 0.3 0"/><feBlend in2="effect1_innerShadow_5504_28845" result="effect2_innerShadow_5504_28845"/><feColorMatrix in="SourceAlpha" values="0 0 0 0 0 0 0 0 0 0 0 0 0 0 0 0 0 0 127 0" result="hardAlpha"/><feOffset dx="-1" dy="-2"/><feGaussianBlur stdDeviation="1.5"/><feComposite in2="hardAlpha" operator="arithmetic" k2="-1" k3="1"/><feColorMatrix values="0 0 0 0 1 0 0 0 0 1 0 0 0 0 1 0 0 0 0.4 0"/><feBlend mode="screen" in2="effect2_innerShadow_5504_28845" result="effect3_innerShadow_5504_28845"/></filter><filter id="filter1_i_5504_28845" x="24.912" y="24.916" width="18.603" height="18.603" filterUnits="userSpaceOnUse" color-interpolation-filters="sRGB"><feFlood flood-opacity="0" result="BackgroundImageFix"/><feBlend in="SourceGraphic" in2="BackgroundImageFix" result="shape"/><feColorMatrix in="SourceAlpha" values="0 0 0 0 0 0 0 0 0 0 0 0 0 0 0 0 0 0 127 0" result="hardAlpha"/><feOffset dx="1.353" dy="1.353"/><feGaussianBlur stdDeviation=".676"/><feComposite in2="hardAlpha" operator="arithmetic" k2="-1" k3="1"/><feColorMatrix values="0 0 0 0 0 0 0 0 0 0.37028 0 0 0 0 0.74056 0 0 0 0.5 0"/><feBlend mode="multiply" in2="shape" result="effect1_innerShadow_5504_28845"/></filter><linearGradient id="paint0_linear_5504_28845" x1="25.725" y1="24.916" x2="45.306" y2="32.894" gradientUnits="userSpaceOnUse"><stop stop-color="#0050EC"/><stop offset="1" stop-color="#39C7EC"/></linearGradient></defs></svg>