<svg width="46" height="46" fill="none" xmlns="http://www.w3.org/2000/svg"><g filter="url(#filter0_iii_5504_29037)"><path d="M31.588 13.543l-2.9-1.53C26.142 10.673 24.868 10 23.5 10c-1.369 0-2.642.67-5.188 2.014l-.466.246 12.939 7.429 5.823-2.928c-.937-1.067-2.448-1.864-5.02-3.22m6.047 5.148l-5.797 2.915v4.423c0 .29-.115.568-.319.773a1.085 1.085 0 01-1.856-.773v-3.33l-5.076 2.549V39c1.042-.26 2.226-.884 4.101-1.874l2.9-1.53c3.12-1.644 4.68-2.466 5.546-3.945.866-1.477.866-3.318.866-6.994v-.17c0-2.758 0-4.483-.365-5.797zM22.413 39V25.246L9.365 18.69C9 20.003 9 21.729 9 24.483v.17c0 3.68 0 5.52.866 6.997.867 1.479 2.427 2.302 5.546 3.947l2.9 1.528c1.875.99 3.06 1.613 4.1 1.874zM10.392 16.762L23.5 23.347l4.946-2.484-12.885-7.398-.15.078c-2.57 1.355-4.082 2.152-5.019 3.22" fill="#D0E2F3"/></g><g filter="url(#filter1_i_5504_29037)"><path d="M36.003 30.185c-.564 0-1.093.22-1.493.624-.399.402-.62.934-.62 1.503a2.123 2.123 0 002.113 2.126 2.123 2.123 0 002.113-2.126 2.123 2.123 0 00-2.113-2.127zm7.784 4.475l-1.234-1.062a6.861 6.861 0 000-2.193l1.234-1.062a.609.609 0 00.176-.669l-.017-.05a8.42 8.42 0 00-1.503-2.615l-.034-.04a.607.607 0 00-.663-.18l-1.533.548a6.583 6.583 0 00-1.88-1.092l-.297-1.613a.61.61 0 00-.487-.489l-.05-.01a8.46 8.46 0 00-2.999 0l-.05.01a.604.604 0 00-.488.489l-.298 1.62a6.667 6.667 0 00-1.867 1.09l-1.545-.554a.6.6 0 00-.662.18l-.035.04a8.487 8.487 0 00-1.502 2.617l-.017.05a.613.613 0 00.175.668l1.25 1.074a6.724 6.724 0 000 2.166l-1.246 1.073a.609.609 0 00-.175.669l.017.05a8.431 8.431 0 001.502 2.616l.034.04a.605.605 0 00.663.18l1.544-.553c.563.466 1.19.834 1.868 1.089l.298 1.62a.611.611 0 00.487.489l.051.01a8.436 8.436 0 002.998 0l.051-.01a.604.604 0 00.487-.489l.297-1.613a6.627 6.627 0 001.88-1.092l1.533.549a.6.6 0 00.663-.18l.034-.04a8.488 8.488 0 001.503-2.617l.017-.05a.616.616 0 00-.18-.664zm-7.784.992c-1.833 0-3.319-1.496-3.319-3.34a3.33 3.33 0 013.32-3.34c1.832 0 3.318 1.495 3.318 3.34 0 1.844-1.486 3.34-3.319 3.34z" fill="url(#paint0_linear_5504_29037)"/></g><g filter="url(#filter2_i_5504_29037)"><path fill-rule="evenodd" clip-rule="evenodd" d="M6.322 14.553h1.936a1 1 0 01.8 1.6L5.43 20.987a1 1 0 01-1.6 0L.202 16.153a1 1 0 01.8-1.6h2.393C4.578 7.587 10.88 2.526 18.075 3.035a1.438 1.438 0 11-.203 2.868c-5.538-.392-10.41 3.377-11.55 8.65z" fill="url(#paint1_linear_5504_29037)"/></g><defs><filter id="filter0_iii_5504_29037" x="8" y="8" width="31" height="32" filterUnits="userSpaceOnUse" color-interpolation-filters="sRGB"><feFlood flood-opacity="0" result="BackgroundImageFix"/><feBlend in="SourceGraphic" in2="BackgroundImageFix" result="shape"/><feColorMatrix in="SourceAlpha" values="0 0 0 0 0 0 0 0 0 0 0 0 0 0 0 0 0 0 127 0" result="hardAlpha"/><feOffset dx="1" dy="1"/><feGaussianBlur stdDeviation="1"/><feComposite in2="hardAlpha" operator="arithmetic" k2="-1" k3="1"/><feColorMatrix values="0 0 0 0 0.534167 0 0 0 0 0.645967 0 0 0 0 0.749167 0 0 0 0.6 0"/><feBlend in2="shape" result="effect1_innerShadow_5504_29037"/><feColorMatrix in="SourceAlpha" values="0 0 0 0 0 0 0 0 0 0 0 0 0 0 0 0 0 0 127 0" result="hardAlpha"/><feOffset dx="-1" dy="-2"/><feGaussianBlur stdDeviation="1"/><feComposite in2="hardAlpha" operator="arithmetic" k2="-1" k3="1"/><feColorMatrix values="0 0 0 0 0.533333 0 0 0 0 0.647059 0 0 0 0 0.74902 0 0 0 0.3 0"/><feBlend in2="effect1_innerShadow_5504_29037" result="effect2_innerShadow_5504_29037"/><feColorMatrix in="SourceAlpha" values="0 0 0 0 0 0 0 0 0 0 0 0 0 0 0 0 0 0 127 0" result="hardAlpha"/><feOffset dx="-1" dy="-2"/><feGaussianBlur stdDeviation="1.5"/><feComposite in2="hardAlpha" operator="arithmetic" k2="-1" k3="1"/><feColorMatrix values="0 0 0 0 1 0 0 0 0 1 0 0 0 0 1 0 0 0 0.4 0"/><feBlend mode="screen" in2="effect2_innerShadow_5504_29037" result="effect3_innerShadow_5504_29037"/></filter><filter id="filter1_i_5504_29037" x="28" y="24" width="17.353" height="18.353" filterUnits="userSpaceOnUse" color-interpolation-filters="sRGB"><feFlood flood-opacity="0" result="BackgroundImageFix"/><feBlend in="SourceGraphic" in2="BackgroundImageFix" result="shape"/><feColorMatrix in="SourceAlpha" values="0 0 0 0 0 0 0 0 0 0 0 0 0 0 0 0 0 0 127 0" result="hardAlpha"/><feOffset dx="1.353" dy="1.353"/><feGaussianBlur stdDeviation="2.029"/><feComposite in2="hardAlpha" operator="arithmetic" k2="-1" k3="1"/><feColorMatrix values="0 0 0 0 0 0 0 0 0 0.37028 0 0 0 0 0.74056 0 0 0 0.4 0"/><feBlend mode="multiply" in2="shape" result="effect1_innerShadow_5504_29037"/></filter><filter id="filter2_i_5504_29037" x="0" y="3" width="20.763" height="19.74" filterUnits="userSpaceOnUse" color-interpolation-filters="sRGB"><feFlood flood-opacity="0" result="BackgroundImageFix"/><feBlend in="SourceGraphic" in2="BackgroundImageFix" result="shape"/><feColorMatrix in="SourceAlpha" values="0 0 0 0 0 0 0 0 0 0 0 0 0 0 0 0 0 0 127 0" result="hardAlpha"/><feOffset dx="1.353" dy="1.353"/><feGaussianBlur stdDeviation="2.029"/><feComposite in2="hardAlpha" operator="arithmetic" k2="-1" k3="1"/><feColorMatrix values="0 0 0 0 0 0 0 0 0 0.37028 0 0 0 0 0.74056 0 0 0 0.4 0"/><feBlend mode="multiply" in2="shape" result="effect1_innerShadow_5504_29037"/></filter><linearGradient id="paint0_linear_5504_29037" x1="28.754" y1="24" x2="47.217" y2="31.079" gradientUnits="userSpaceOnUse"><stop stop-color="#39C7EC"/><stop offset="0" stop-color="#39C7EC"/><stop offset="1" stop-color="#0050EC"/></linearGradient><linearGradient id="paint1_linear_5504_29037" x1=".915" y1="3" x2="22.596" y2="12.325" gradientUnits="userSpaceOnUse"><stop stop-color="#39C7EC"/><stop offset="0" stop-color="#39C7EC"/><stop offset="1" stop-color="#0050EC"/></linearGradient></defs></svg>