<svg width="46" height="46" fill="none" xmlns="http://www.w3.org/2000/svg"><g filter="url(#filter0_iii_5504_28852)"><path d="M4.373 8.322c.17-1.646 1.248-2.949 2.867-3.293C9.794 4.485 14.609 3.832 23 3.832c8.393 0 13.207.653 15.762 1.197 1.618.344 2.697 1.647 2.867 3.293.252 2.44.538 6.92.538 14.677 0 7.756-.286 12.237-.538 14.677-.17 1.645-1.25 2.948-2.867 3.292-2.555.544-7.37 1.197-15.761 1.197-8.392 0-13.207-.653-15.761-1.197-1.619-.344-2.697-1.647-2.867-3.292-.252-2.44-.539-6.92-.539-14.677s.287-12.237.539-14.677z" fill="#D0E2F3"/></g><g filter="url(#filter1_i_5504_28852)"><path fill-rule="evenodd" clip-rule="evenodd" d="M41.935 12.457H4.066c.093-1.781.203-3.131.307-4.135.17-1.646 1.249-2.949 2.867-3.293C9.794 4.485 14.609 3.832 23 3.832c8.393 0 13.208.653 15.762 1.197 1.618.344 2.697 1.647 2.867 3.293.104 1.004.213 2.354.306 4.135z" fill="url(#paint0_linear_5504_28852)"/></g><g filter="url(#filter2_i_5504_28852)"><path d="M20.214 29.58c.96.452 1.78 1.326 1.51 2.353a2.498 2.498 0 01-.371.823c-.616.85-1.778.873-2.644.515a28.43 28.43 0 01-1.335-.678l-4.98-2.612c-.77-.404-1.507-.964-1.713-1.808a5.236 5.236 0 01-.138-1.245c0-1.075.239-2.246 1.23-2.737l5.826-3.027c1.286-.668 3.061-1.067 3.87.135.205.302.329.666.329 1.103 0 1.274-.816 1.954-1.806 2.466l-5.235 2.142 5.457 2.57z" fill="url(#paint1_linear_5504_28852)"/><path d="M25.816 24.163c-.977-.449-1.814-1.332-1.533-2.369.081-.3.205-.578.367-.802.636-.879 1.82-.872 2.696-.46.401.162.829.361 1.282.596l4.958 2.556c.785.405 1.535.972 1.741 1.83.088.37.133.778.133 1.224 0 1.101-.25 2.208-1.23 2.738l-5.711 3.007c-1.292.68-3.104 1.11-3.9-.115a1.979 1.979 0 01-.31-1.103c0-1.277.81-1.951 1.807-2.467l5.13-2.14-5.43-2.495z" fill="url(#paint2_linear_5504_28852)"/></g><defs><linearGradient id="paint0_linear_5504_28852" x1="5.851" y1="3.832" x2="17.786" y2="25.18" gradientUnits="userSpaceOnUse"><stop stop-color="#0050EC"/><stop offset="1" stop-color="#39C7EC"/></linearGradient><linearGradient id="paint1_linear_5504_28852" x1="11.717" y1="20.125" x2="32.69" y2="35.993" gradientUnits="userSpaceOnUse"><stop stop-color="#0050EC"/><stop offset="1" stop-color="#39C7EC"/></linearGradient><linearGradient id="paint2_linear_5504_28852" x1="11.717" y1="20.125" x2="32.69" y2="35.993" gradientUnits="userSpaceOnUse"><stop stop-color="#0050EC"/><stop offset="1" stop-color="#39C7EC"/></linearGradient><filter id="filter0_iii_5504_28852" x="2.834" y="1.832" width="40.334" height="41.334" filterUnits="userSpaceOnUse" color-interpolation-filters="sRGB"><feFlood flood-opacity="0" result="BackgroundImageFix"/><feBlend in="SourceGraphic" in2="BackgroundImageFix" result="shape"/><feColorMatrix in="SourceAlpha" values="0 0 0 0 0 0 0 0 0 0 0 0 0 0 0 0 0 0 127 0" result="hardAlpha"/><feOffset dx="1" dy="1"/><feGaussianBlur stdDeviation="1"/><feComposite in2="hardAlpha" operator="arithmetic" k2="-1" k3="1"/><feColorMatrix values="0 0 0 0 0.534167 0 0 0 0 0.645967 0 0 0 0 0.749167 0 0 0 0.6 0"/><feBlend in2="shape" result="effect1_innerShadow_5504_28852"/><feColorMatrix in="SourceAlpha" values="0 0 0 0 0 0 0 0 0 0 0 0 0 0 0 0 0 0 127 0" result="hardAlpha"/><feOffset dx="-1" dy="-2"/><feGaussianBlur stdDeviation="1"/><feComposite in2="hardAlpha" operator="arithmetic" k2="-1" k3="1"/><feColorMatrix values="0 0 0 0 0.533333 0 0 0 0 0.647059 0 0 0 0 0.74902 0 0 0 0.3 0"/><feBlend in2="effect1_innerShadow_5504_28852" result="effect2_innerShadow_5504_28852"/><feColorMatrix in="SourceAlpha" values="0 0 0 0 0 0 0 0 0 0 0 0 0 0 0 0 0 0 127 0" result="hardAlpha"/><feOffset dx="-1" dy="-2"/><feGaussianBlur stdDeviation="1.5"/><feComposite in2="hardAlpha" operator="arithmetic" k2="-1" k3="1"/><feColorMatrix values="0 0 0 0 1 0 0 0 0 1 0 0 0 0 1 0 0 0 0.4 0"/><feBlend mode="screen" in2="effect2_innerShadow_5504_28852" result="effect3_innerShadow_5504_28852"/></filter><filter id="filter1_i_5504_28852" x="4.066" y="3.832" width="39.222" height="9.978" filterUnits="userSpaceOnUse" color-interpolation-filters="sRGB"><feFlood flood-opacity="0" result="BackgroundImageFix"/><feBlend in="SourceGraphic" in2="BackgroundImageFix" result="shape"/><feColorMatrix in="SourceAlpha" values="0 0 0 0 0 0 0 0 0 0 0 0 0 0 0 0 0 0 127 0" result="hardAlpha"/><feOffset dx="1.353" dy="1.353"/><feGaussianBlur stdDeviation=".676"/><feComposite in2="hardAlpha" operator="arithmetic" k2="-1" k3="1"/><feColorMatrix values="0 0 0 0 0 0 0 0 0 0.37028 0 0 0 0 0.74056 0 0 0 0.5 0"/><feBlend mode="multiply" in2="shape" result="effect1_innerShadow_5504_28852"/></filter><filter id="filter2_i_5504_28852" x="10.543" y="20.262" width="26.269" height="14.582" filterUnits="userSpaceOnUse" color-interpolation-filters="sRGB"><feFlood flood-opacity="0" result="BackgroundImageFix"/><feBlend in="SourceGraphic" in2="BackgroundImageFix" result="shape"/><feColorMatrix in="SourceAlpha" values="0 0 0 0 0 0 0 0 0 0 0 0 0 0 0 0 0 0 127 0" result="hardAlpha"/><feOffset dx="1.353" dy="1.353"/><feGaussianBlur stdDeviation=".676"/><feComposite in2="hardAlpha" operator="arithmetic" k2="-1" k3="1"/><feColorMatrix values="0 0 0 0 0 0 0 0 0 0.37028 0 0 0 0 0.74056 0 0 0 0.5 0"/><feBlend mode="multiply" in2="shape" result="effect1_innerShadow_5504_28852"/></filter></defs></svg>