<svg width="46" height="46" fill="none" xmlns="http://www.w3.org/2000/svg"><g filter="url(#filter0_iii_5504_28861)"><path d="M4.369 8.322c.17-1.646 1.249-2.949 2.867-3.293 2.554-.544 7.369-1.197 15.76-1.197 8.393 0 13.207.653 15.762 1.197 1.618.344 2.697 1.647 2.867 3.293.252 2.44.538 6.92.538 14.677 0 7.756-.286 12.237-.538 14.677-.17 1.645-1.25 2.948-2.867 3.292-2.555.544-7.37 1.197-15.761 1.197-8.392 0-13.207-.653-15.761-1.197-1.618-.344-2.697-1.647-2.867-3.292-.252-2.44-.539-6.92-.539-14.677s.287-12.237.539-14.677z" fill="#D0E2F3"/></g><g filter="url(#filter1_i_5504_28861)"><path fill-rule="evenodd" clip-rule="evenodd" d="M41.98 13.416H4.017c.101-2.265.23-3.917.352-5.094.17-1.646 1.25-2.949 2.867-3.293 2.555-.544 7.37-1.197 15.761-1.197 8.392 0 13.207.653 15.761 1.197 1.619.344 2.698 1.647 2.867 3.293a89.06 89.06 0 01.353 5.094z" fill="url(#paint0_linear_5504_28861)"/></g><g filter="url(#filter2_i_5504_28861)"><path d="M8.794 34.873c.065.995.637 1.836 1.608 2.061.98.227 2.541.443 4.93.443 2.387 0 3.948-.216 4.928-.443.972-.225 1.544-1.066 1.61-2.06.082-1.27.17-3.462.17-7.08 0-3.619-.088-5.811-.17-7.08-.066-.995-.638-1.836-1.61-2.06-.98-.228-2.54-.444-4.929-.444-2.388 0-3.948.216-4.929.443-.971.225-1.543 1.066-1.608 2.061-.084 1.269-.171 3.461-.171 7.08 0 3.618.087 5.81.17 7.08z" fill="url(#paint1_linear_5504_28861)"/></g><g filter="url(#filter3_i_5504_28861)"><path d="M25.945 24.176c.067.845.676 1.443 1.52 1.53.843.089 2.164.171 4.158.171 1.994 0 3.315-.082 4.159-.17.843-.088 1.452-.686 1.52-1.531.04-.512.071-1.205.071-2.132 0-.928-.03-1.62-.072-2.132-.067-.845-.676-1.444-1.52-1.532-.843-.088-2.164-.17-4.158-.17-1.994 0-3.315.082-4.159.17-.843.088-1.452.687-1.52 1.532-.04.511-.071 1.204-.071 2.132 0 .927.03 1.62.072 2.132z" fill="url(#paint2_linear_5504_28861)"/></g><g filter="url(#filter4_i_5504_28861)"><path d="M25.945 35.676c.067.845.676 1.443 1.52 1.53.843.089 2.164.171 4.158.171 1.994 0 3.315-.082 4.159-.17.843-.088 1.452-.686 1.52-1.531.04-.512.071-1.205.071-2.132s-.03-1.62-.072-2.132c-.067-.845-.676-1.444-1.52-1.532-.843-.088-2.164-.17-4.158-.17-1.994 0-3.315.082-4.159.17-.843.088-1.452.687-1.52 1.532-.04.511-.071 1.205-.071 2.132s.03 1.62.072 2.132z" fill="url(#paint3_linear_5504_28861)"/></g><defs><filter id="filter0_iii_5504_28861" x="2.83" y="1.832" width="40.334" height="41.334" filterUnits="userSpaceOnUse" color-interpolation-filters="sRGB"><feFlood flood-opacity="0" result="BackgroundImageFix"/><feBlend in="SourceGraphic" in2="BackgroundImageFix" result="shape"/><feColorMatrix in="SourceAlpha" values="0 0 0 0 0 0 0 0 0 0 0 0 0 0 0 0 0 0 127 0" result="hardAlpha"/><feOffset dx="1" dy="1"/><feGaussianBlur stdDeviation="1"/><feComposite in2="hardAlpha" operator="arithmetic" k2="-1" k3="1"/><feColorMatrix values="0 0 0 0 0.534167 0 0 0 0 0.645967 0 0 0 0 0.749167 0 0 0 0.6 0"/><feBlend in2="shape" result="effect1_innerShadow_5504_28861"/><feColorMatrix in="SourceAlpha" values="0 0 0 0 0 0 0 0 0 0 0 0 0 0 0 0 0 0 127 0" result="hardAlpha"/><feOffset dx="-1" dy="-2"/><feGaussianBlur stdDeviation="1"/><feComposite in2="hardAlpha" operator="arithmetic" k2="-1" k3="1"/><feColorMatrix values="0 0 0 0 0.533333 0 0 0 0 0.647059 0 0 0 0 0.74902 0 0 0 0.3 0"/><feBlend in2="effect1_innerShadow_5504_28861" result="effect2_innerShadow_5504_28861"/><feColorMatrix in="SourceAlpha" values="0 0 0 0 0 0 0 0 0 0 0 0 0 0 0 0 0 0 127 0" result="hardAlpha"/><feOffset dx="-1" dy="-2"/><feGaussianBlur stdDeviation="1.5"/><feComposite in2="hardAlpha" operator="arithmetic" k2="-1" k3="1"/><feColorMatrix values="0 0 0 0 1 0 0 0 0 1 0 0 0 0 1 0 0 0 0.4 0"/><feBlend mode="screen" in2="effect2_innerShadow_5504_28861" result="effect3_innerShadow_5504_28861"/></filter><filter id="filter1_i_5504_28861" x="4.018" y="3.832" width="39.314" height="10.937" filterUnits="userSpaceOnUse" color-interpolation-filters="sRGB"><feFlood flood-opacity="0" result="BackgroundImageFix"/><feBlend in="SourceGraphic" in2="BackgroundImageFix" result="shape"/><feColorMatrix in="SourceAlpha" values="0 0 0 0 0 0 0 0 0 0 0 0 0 0 0 0 0 0 127 0" result="hardAlpha"/><feOffset dx="1.353" dy="1.353"/><feGaussianBlur stdDeviation=".676"/><feComposite in2="hardAlpha" operator="arithmetic" k2="-1" k3="1"/><feColorMatrix values="0 0 0 0 0 0 0 0 0 0.37028 0 0 0 0 0.74056 0 0 0 0.5 0"/><feBlend mode="multiply" in2="shape" result="effect1_innerShadow_5504_28861"/></filter><filter id="filter2_i_5504_28861" x="8.623" y="18.211" width="14.769" height="20.519" filterUnits="userSpaceOnUse" color-interpolation-filters="sRGB"><feFlood flood-opacity="0" result="BackgroundImageFix"/><feBlend in="SourceGraphic" in2="BackgroundImageFix" result="shape"/><feColorMatrix in="SourceAlpha" values="0 0 0 0 0 0 0 0 0 0 0 0 0 0 0 0 0 0 127 0" result="hardAlpha"/><feOffset dx="1.353" dy="1.353"/><feGaussianBlur stdDeviation=".676"/><feComposite in2="hardAlpha" operator="arithmetic" k2="-1" k3="1"/><feColorMatrix values="0 0 0 0 0 0 0 0 0 0.37028 0 0 0 0 0.74056 0 0 0 0.5 0"/><feBlend mode="multiply" in2="shape" result="effect1_innerShadow_5504_28861"/></filter><filter id="filter3_i_5504_28861" x="25.873" y="18.211" width="12.853" height="9.019" filterUnits="userSpaceOnUse" color-interpolation-filters="sRGB"><feFlood flood-opacity="0" result="BackgroundImageFix"/><feBlend in="SourceGraphic" in2="BackgroundImageFix" result="shape"/><feColorMatrix in="SourceAlpha" values="0 0 0 0 0 0 0 0 0 0 0 0 0 0 0 0 0 0 127 0" result="hardAlpha"/><feOffset dx="1.353" dy="1.353"/><feGaussianBlur stdDeviation=".676"/><feComposite in2="hardAlpha" operator="arithmetic" k2="-1" k3="1"/><feColorMatrix values="0 0 0 0 0 0 0 0 0 0.37028 0 0 0 0 0.74056 0 0 0 0.5 0"/><feBlend mode="multiply" in2="shape" result="effect1_innerShadow_5504_28861"/></filter><filter id="filter4_i_5504_28861" x="25.873" y="29.711" width="12.853" height="9.019" filterUnits="userSpaceOnUse" color-interpolation-filters="sRGB"><feFlood flood-opacity="0" result="BackgroundImageFix"/><feBlend in="SourceGraphic" in2="BackgroundImageFix" result="shape"/><feColorMatrix in="SourceAlpha" values="0 0 0 0 0 0 0 0 0 0 0 0 0 0 0 0 0 0 127 0" result="hardAlpha"/><feOffset dx="1.353" dy="1.353"/><feGaussianBlur stdDeviation=".676"/><feComposite in2="hardAlpha" operator="arithmetic" k2="-1" k3="1"/><feColorMatrix values="0 0 0 0 0 0 0 0 0 0.37028 0 0 0 0 0.74056 0 0 0 0.5 0"/><feBlend mode="multiply" in2="shape" result="effect1_innerShadow_5504_28861"/></filter><linearGradient id="paint0_linear_5504_28861" x1="5.807" y1="3.832" x2="19.748" y2="26.329" gradientUnits="userSpaceOnUse"><stop stop-color="#0050EC"/><stop offset="1" stop-color="#39C7EC"/></linearGradient><linearGradient id="paint1_linear_5504_28861" x1="9.255" y1="37.377" x2="25.677" y2="32.694" gradientUnits="userSpaceOnUse"><stop stop-color="#0050EC"/><stop offset="1" stop-color="#39C7EC"/></linearGradient><linearGradient id="paint2_linear_5504_28861" x1="26.415" y1="25.877" x2="37.497" y2="19.105" gradientUnits="userSpaceOnUse"><stop stop-color="#0050EC"/><stop offset="1" stop-color="#39C7EC"/></linearGradient><linearGradient id="paint3_linear_5504_28861" x1="26.415" y1="37.377" x2="37.497" y2="30.605" gradientUnits="userSpaceOnUse"><stop stop-color="#0050EC"/><stop offset="1" stop-color="#39C7EC"/></linearGradient></defs></svg>