<svg width="34" height="34" fill="none" xmlns="http://www.w3.org/2000/svg"><g filter="url(#filter0_iii_5504_29093)" fill="#D0E2F3"><path d="M14.3 11.858l.803 2.906c.756 2.738 1.134 4.108 2.246 4.73 1.113.624 2.524.256 5.348-.477l2.995-.78c2.824-.733 4.236-1.1 4.879-2.178.643-1.08.265-2.45-.493-5.187l-.802-2.905c-.757-2.74-1.136-4.11-2.247-4.732-1.113-.624-2.525-.255-5.349.48l-2.995.776c-2.824.734-4.236 1.102-4.877 2.181-.643 1.078-.265 2.448.491 5.186z"/><path d="M2.931 6.424a1.17 1.17 0 011.442-.815l2.656.737a4.223 4.223 0 012.958 2.93l3.356 12.146.246.854a4.618 4.618 0 012.375 1.976l.484-.15 13.837-3.596a1.17 1.17 0 11.59 2.266l-13.786 3.582-.515.159c-.01 1.98-1.378 3.794-3.448 4.33-2.48.646-5.031-.783-5.696-3.188-.664-2.408.808-4.882 3.289-5.526a5.24 5.24 0 01.37-.081L7.73 9.898a1.883 1.883 0 00-1.326-1.296l-2.658-.738a1.17 1.17 0 01-.816-1.44z"/></g><g filter="url(#filter1_i_5504_29093)"><path d="M21.669 7.457a1.8 1.8 0 011.273-2.204l2.419-.648a1.8 1.8 0 012.205 1.272l.648 2.42A1.8 1.8 0 0126.94 10.5l-2.42.649a1.8 1.8 0 01-2.204-1.273l-.648-2.42z" fill="url(#paint0_linear_5504_29093)"/></g><defs><filter id="filter0_iii_5504_29093" x="1.889" y=".918" width="30.861" height="31.08" filterUnits="userSpaceOnUse" color-interpolation-filters="sRGB"><feFlood flood-opacity="0" result="BackgroundImageFix"/><feBlend in="SourceGraphic" in2="BackgroundImageFix" result="shape"/><feColorMatrix in="SourceAlpha" values="0 0 0 0 0 0 0 0 0 0 0 0 0 0 0 0 0 0 127 0" result="hardAlpha"/><feOffset dx="1" dy="1"/><feGaussianBlur stdDeviation="1"/><feComposite in2="hardAlpha" operator="arithmetic" k2="-1" k3="1"/><feColorMatrix values="0 0 0 0 0.534167 0 0 0 0 0.645967 0 0 0 0 0.749167 0 0 0 0.6 0"/><feBlend in2="shape" result="effect1_innerShadow_5504_29093"/><feColorMatrix in="SourceAlpha" values="0 0 0 0 0 0 0 0 0 0 0 0 0 0 0 0 0 0 127 0" result="hardAlpha"/><feOffset dx="-1" dy="-2"/><feGaussianBlur stdDeviation="1"/><feComposite in2="hardAlpha" operator="arithmetic" k2="-1" k3="1"/><feColorMatrix values="0 0 0 0 0.533333 0 0 0 0 0.647059 0 0 0 0 0.74902 0 0 0 0.3 0"/><feBlend in2="effect1_innerShadow_5504_29093" result="effect2_innerShadow_5504_29093"/><feColorMatrix in="SourceAlpha" values="0 0 0 0 0 0 0 0 0 0 0 0 0 0 0 0 0 0 127 0" result="hardAlpha"/><feOffset dx="-1" dy="-2"/><feGaussianBlur stdDeviation="1.5"/><feComposite in2="hardAlpha" operator="arithmetic" k2="-1" k3="1"/><feColorMatrix values="0 0 0 0 1 0 0 0 0 1 0 0 0 0 1 0 0 0 0.4 0"/><feBlend mode="screen" in2="effect2_innerShadow_5504_29093" result="effect3_innerShadow_5504_29093"/></filter><filter id="filter1_i_5504_29093" x="21.607" y="4.543" width="8.021" height="8.021" filterUnits="userSpaceOnUse" color-interpolation-filters="sRGB"><feFlood flood-opacity="0" result="BackgroundImageFix"/><feBlend in="SourceGraphic" in2="BackgroundImageFix" result="shape"/><feColorMatrix in="SourceAlpha" values="0 0 0 0 0 0 0 0 0 0 0 0 0 0 0 0 0 0 127 0" result="hardAlpha"/><feOffset dx="1.353" dy="1.353"/><feGaussianBlur stdDeviation="2.029"/><feComposite in2="hardAlpha" operator="arithmetic" k2="-1" k3="1"/><feColorMatrix values="0 0 0 0 0 0 0 0 0 0.37028 0 0 0 0 0.74056 0 0 0 0.4 0"/><feBlend mode="multiply" in2="shape" result="effect1_innerShadow_5504_29093"/></filter><linearGradient id="paint0_linear_5504_29093" x1="21.481" y1="5.644" x2="28.905" y2="6.578" gradientUnits="userSpaceOnUse"><stop stop-color="#39C7EC"/><stop offset="0" stop-color="#39C7EC"/><stop offset="1" stop-color="#0050EC"/></linearGradient></defs></svg>