<svg width="46" height="46" fill="none" xmlns="http://www.w3.org/2000/svg"><g filter="url(#filter0_iii_5504_28891)"><path d="M14.828 28.459a1.924 1.924 0 00-1.957-1.624c-2.752.097-5.48.203-7.222.273a1.895 1.895 0 00-1.815 1.99c.125 2.715.433 7.67 1.11 10.545.31 1.318 1.455 2.06 2.788 2.159 2.239.166 6.712.365 15.267.365s13.027-.2 15.266-.365c1.333-.1 2.479-.841 2.79-2.16.675-2.874.984-7.83 1.108-10.543a1.895 1.895 0 00-1.815-1.991c-1.742-.07-4.47-.176-7.222-.273a1.924 1.924 0 00-1.956 1.624l-.227 1.38a1.927 1.927 0 01-1.893 1.626H16.948a1.927 1.927 0 01-1.893-1.626l-.227-1.38z" fill="#D0E2F3"/></g><g filter="url(#filter1_i_5504_28891)"><path d="M27.134 14.905c1.398.035 2.531.086 3.444.144 1.813.114 2.6 1.827 1.495 3.267a75.17 75.17 0 01-3.048 3.691c-1.938 2.217-3.41 3.518-4.413 4.27-.986.74-2.244.74-3.23 0-1.004-.752-2.475-2.052-4.413-4.27a75.21 75.21 0 01-3.047-3.69c-1.105-1.44-.319-3.154 1.495-3.268a91.943 91.943 0 013.444-.144c-.005-.64-.008-1.342-.008-2.115 0-3.005.042-4.958.088-6.188.045-1.22.634-2.336 1.834-2.577.563-.112 1.29-.193 2.222-.193.932 0 1.66.08 2.222.193 1.2.24 1.79 1.357 1.834 2.577.046 1.23.089 3.183.089 6.188 0 .773-.003 1.476-.008 2.115z" fill="url(#paint0_linear_5504_28891)"/></g><defs><filter id="filter0_iii_5504_28891" x="2.832" y="24.834" width="40.334" height="18.334" filterUnits="userSpaceOnUse" color-interpolation-filters="sRGB"><feFlood flood-opacity="0" result="BackgroundImageFix"/><feBlend in="SourceGraphic" in2="BackgroundImageFix" result="shape"/><feColorMatrix in="SourceAlpha" values="0 0 0 0 0 0 0 0 0 0 0 0 0 0 0 0 0 0 127 0" result="hardAlpha"/><feOffset dx="1" dy="1"/><feGaussianBlur stdDeviation="1"/><feComposite in2="hardAlpha" operator="arithmetic" k2="-1" k3="1"/><feColorMatrix values="0 0 0 0 0.534167 0 0 0 0 0.645967 0 0 0 0 0.749167 0 0 0 0.6 0"/><feBlend in2="shape" result="effect1_innerShadow_5504_28891"/><feColorMatrix in="SourceAlpha" values="0 0 0 0 0 0 0 0 0 0 0 0 0 0 0 0 0 0 127 0" result="hardAlpha"/><feOffset dx="-1" dy="-2"/><feGaussianBlur stdDeviation="1"/><feComposite in2="hardAlpha" operator="arithmetic" k2="-1" k3="1"/><feColorMatrix values="0 0 0 0 0.533333 0 0 0 0 0.647059 0 0 0 0 0.74902 0 0 0 0.3 0"/><feBlend in2="effect1_innerShadow_5504_28891" result="effect2_innerShadow_5504_28891"/><feColorMatrix in="SourceAlpha" values="0 0 0 0 0 0 0 0 0 0 0 0 0 0 0 0 0 0 127 0" result="hardAlpha"/><feOffset dx="-1" dy="-2"/><feGaussianBlur stdDeviation="1.5"/><feComposite in2="hardAlpha" operator="arithmetic" k2="-1" k3="1"/><feColorMatrix values="0 0 0 0 1 0 0 0 0 1 0 0 0 0 1 0 0 0 0.4 0"/><feBlend mode="screen" in2="effect2_innerShadow_5504_28891" result="effect3_innerShadow_5504_28891"/></filter><filter id="filter1_i_5504_28891" x="13.414" y="3.832" width="20.519" height="24.353" filterUnits="userSpaceOnUse" color-interpolation-filters="sRGB"><feFlood flood-opacity="0" result="BackgroundImageFix"/><feBlend in="SourceGraphic" in2="BackgroundImageFix" result="shape"/><feColorMatrix in="SourceAlpha" values="0 0 0 0 0 0 0 0 0 0 0 0 0 0 0 0 0 0 127 0" result="hardAlpha"/><feOffset dx="1.353" dy="1.353"/><feGaussianBlur stdDeviation=".676"/><feComposite in2="hardAlpha" operator="arithmetic" k2="-1" k3="1"/><feColorMatrix values="0 0 0 0 0 0 0 0 0 0.37028 0 0 0 0 0.74056 0 0 0 0.5 0"/><feBlend mode="multiply" in2="shape" result="effect1_innerShadow_5504_28891"/></filter><linearGradient id="paint0_linear_5504_28891" x1="14.318" y1="3.832" x2="37.064" y2="11.555" gradientUnits="userSpaceOnUse"><stop stop-color="#0050EC"/><stop offset="1" stop-color="#39C7EC"/></linearGradient></defs></svg>