<svg width="46" height="46" fill="none" xmlns="http://www.w3.org/2000/svg"><g filter="url(#filter0_i_5504_28999)"><path d="M7.463 6.882l2.062-.935c.774-.351 1.713-.244 2.185.413.228.316.46.705.65 1.161.321.773-.18 1.581-.995 1.95l-1.98.899c-1.297.588-2.107 1.693-2.171 2.905-.132 2.493-.186 6.683.056 12.418a8.587 8.587 0 015.188-1.735 8.622 8.622 0 017.454 4.283A10.782 10.782 0 0123 27.79c1.073 0 2.11.157 3.088.45a8.621 8.621 0 017.454-4.283c1.947 0 3.744.646 5.188 1.735.242-5.735.188-9.925.056-12.418-.064-1.212-.874-2.317-2.172-2.905l-1.979-.898c-.814-.37-1.316-1.178-.995-1.951a5.81 5.81 0 01.65-1.161c.472-.657 1.412-.764 2.185-.413l2.062.935c2.585 1.172 4.399 3.484 4.543 6.205.188 3.553-.233 10.012-.907 19.496h-.006a8.625 8.625 0 01-17.245.316A5.983 5.983 0 0023 32.582c-.672 0-1.319.111-1.922.316a8.625 8.625 0 01-17.245-.316h-.006C3.153 23.1 2.732 16.64 2.92 13.087c.144-2.72 1.958-5.033 4.543-6.205z" fill="url(#paint0_linear_5504_28999)"/></g><g filter="url(#filter1_iii_5504_28999)"><circle cx="12.458" cy="32.585" r="4.792" fill="#D0E2F3"/></g><g filter="url(#filter2_iii_5504_28999)"><circle cx="33.542" cy="32.585" r="4.792" fill="#D0E2F3"/></g><defs><filter id="filter0_i_5504_28999" x="2.875" y="5.75" width="41.603" height="36.812" filterUnits="userSpaceOnUse" color-interpolation-filters="sRGB"><feFlood flood-opacity="0" result="BackgroundImageFix"/><feBlend in="SourceGraphic" in2="BackgroundImageFix" result="shape"/><feColorMatrix in="SourceAlpha" values="0 0 0 0 0 0 0 0 0 0 0 0 0 0 0 0 0 0 127 0" result="hardAlpha"/><feOffset dx="1.353" dy="1.353"/><feGaussianBlur stdDeviation=".676"/><feComposite in2="hardAlpha" operator="arithmetic" k2="-1" k3="1"/><feColorMatrix values="0 0 0 0 0 0 0 0 0 0.37028 0 0 0 0 0.74056 0 0 0 0.5 0"/><feBlend mode="multiply" in2="shape" result="effect1_innerShadow_5504_28999"/></filter><filter id="filter1_iii_5504_28999" x="6.666" y="25.793" width="11.584" height="12.584" filterUnits="userSpaceOnUse" color-interpolation-filters="sRGB"><feFlood flood-opacity="0" result="BackgroundImageFix"/><feBlend in="SourceGraphic" in2="BackgroundImageFix" result="shape"/><feColorMatrix in="SourceAlpha" values="0 0 0 0 0 0 0 0 0 0 0 0 0 0 0 0 0 0 127 0" result="hardAlpha"/><feOffset dx="1" dy="1"/><feGaussianBlur stdDeviation="1"/><feComposite in2="hardAlpha" operator="arithmetic" k2="-1" k3="1"/><feColorMatrix values="0 0 0 0 0.534167 0 0 0 0 0.645967 0 0 0 0 0.749167 0 0 0 0.6 0"/><feBlend in2="shape" result="effect1_innerShadow_5504_28999"/><feColorMatrix in="SourceAlpha" values="0 0 0 0 0 0 0 0 0 0 0 0 0 0 0 0 0 0 127 0" result="hardAlpha"/><feOffset dx="-1" dy="-2"/><feGaussianBlur stdDeviation="1"/><feComposite in2="hardAlpha" operator="arithmetic" k2="-1" k3="1"/><feColorMatrix values="0 0 0 0 0.533333 0 0 0 0 0.647059 0 0 0 0 0.74902 0 0 0 0.3 0"/><feBlend in2="effect1_innerShadow_5504_28999" result="effect2_innerShadow_5504_28999"/><feColorMatrix in="SourceAlpha" values="0 0 0 0 0 0 0 0 0 0 0 0 0 0 0 0 0 0 127 0" result="hardAlpha"/><feOffset dx="-1" dy="-2"/><feGaussianBlur stdDeviation="1.5"/><feComposite in2="hardAlpha" operator="arithmetic" k2="-1" k3="1"/><feColorMatrix values="0 0 0 0 1 0 0 0 0 1 0 0 0 0 1 0 0 0 0.4 0"/><feBlend mode="screen" in2="effect2_innerShadow_5504_28999" result="effect3_innerShadow_5504_28999"/></filter><filter id="filter2_iii_5504_28999" x="27.75" y="25.793" width="11.584" height="12.584" filterUnits="userSpaceOnUse" color-interpolation-filters="sRGB"><feFlood flood-opacity="0" result="BackgroundImageFix"/><feBlend in="SourceGraphic" in2="BackgroundImageFix" result="shape"/><feColorMatrix in="SourceAlpha" values="0 0 0 0 0 0 0 0 0 0 0 0 0 0 0 0 0 0 127 0" result="hardAlpha"/><feOffset dx="1" dy="1"/><feGaussianBlur stdDeviation="1"/><feComposite in2="hardAlpha" operator="arithmetic" k2="-1" k3="1"/><feColorMatrix values="0 0 0 0 0.534167 0 0 0 0 0.645967 0 0 0 0 0.749167 0 0 0 0.6 0"/><feBlend in2="shape" result="effect1_innerShadow_5504_28999"/><feColorMatrix in="SourceAlpha" values="0 0 0 0 0 0 0 0 0 0 0 0 0 0 0 0 0 0 127 0" result="hardAlpha"/><feOffset dx="-1" dy="-2"/><feGaussianBlur stdDeviation="1"/><feComposite in2="hardAlpha" operator="arithmetic" k2="-1" k3="1"/><feColorMatrix values="0 0 0 0 0.533333 0 0 0 0 0.647059 0 0 0 0 0.74902 0 0 0 0.3 0"/><feBlend in2="effect1_innerShadow_5504_28999" result="effect2_innerShadow_5504_28999"/><feColorMatrix in="SourceAlpha" values="0 0 0 0 0 0 0 0 0 0 0 0 0 0 0 0 0 0 127 0" result="hardAlpha"/><feOffset dx="-1" dy="-2"/><feGaussianBlur stdDeviation="1.5"/><feComposite in2="hardAlpha" operator="arithmetic" k2="-1" k3="1"/><feColorMatrix values="0 0 0 0 1 0 0 0 0 1 0 0 0 0 1 0 0 0 0.4 0"/><feBlend mode="screen" in2="effect2_innerShadow_5504_28999" result="effect3_innerShadow_5504_28999"/></filter><linearGradient id="paint0_linear_5504_28999" x1="4.772" y1="5.75" x2="48.659" y2="26.046" gradientUnits="userSpaceOnUse"><stop stop-color="#0050EC"/><stop offset="1" stop-color="#39C7EC"/></linearGradient></defs></svg>