<svg width="46" height="46" fill="none" xmlns="http://www.w3.org/2000/svg"><g filter="url(#filter0_iii_5504_28945)"><path d="M11.861 2.892c1.763-.143 3.474.605 4.632 1.95l1.621 1.885a3.824 3.824 0 002.898 1.333h12.605c2.992 0 5.483 2.309 5.578 5.318.058 1.835.095 4.014.095 6.591 0 6.764-.251 10.784-.483 13.055-.17 1.67-1.276 2.973-2.914 3.296-2.465.487-7.012 1.055-14.812 1.055-7.799 0-12.346-.568-14.812-1.055-1.637-.323-2.743-1.626-2.913-3.296-.232-2.27-.483-6.291-.483-13.055 0-6.764.251-10.784.483-13.055.17-1.67 1.277-2.973 2.915-3.296 1.264-.25 3.075-.52 5.59-.726z" fill="#D0E2F3"/></g><g filter="url(#filter1_i_5504_28945)"><g filter="url(#filter2_i_5504_28945)"><path d="M23.185 27.392c.14-1.584 1.124-2.846 2.698-3.069 1.378-.195 3.494-.362 6.698-.362 3.205 0 5.32.167 6.699.362 1.573.223 2.558 1.485 2.697 3.069.1 1.138.188 2.6.188 4.236 0 4.326-2.283 8.374-6.13 10.353-1.285.662-2.539 1.147-3.454 1.147-.914 0-2.168-.485-3.453-1.147-3.847-1.98-6.13-6.027-6.13-10.353 0-1.637.087-3.098.187-4.236z" fill="url(#paint0_linear_5504_28945)"/></g><path fill-rule="evenodd" clip-rule="evenodd" d="M37.932 29.47c.46.479.533 1.223.16 1.776-1.899 2.813-3.611 4.682-4.615 5.677-.545.54-1.363.613-1.973.15a18.285 18.285 0 01-3.442-3.452 1.39 1.39 0 01-.05-1.583l.445-.705c.385-.607 1.206-.728 1.712-.223a36.637 36.637 0 012.185 2.398s1.452-2.07 3.58-4.39a1.128 1.128 0 011.653-.008l.345.36z" fill="#D0E2F3"/></g><defs><filter id="filter0_iii_5504_28945" x="1.873" y=".875" width="38.416" height="37.5" filterUnits="userSpaceOnUse" color-interpolation-filters="sRGB"><feFlood flood-opacity="0" result="BackgroundImageFix"/><feBlend in="SourceGraphic" in2="BackgroundImageFix" result="shape"/><feColorMatrix in="SourceAlpha" values="0 0 0 0 0 0 0 0 0 0 0 0 0 0 0 0 0 0 127 0" result="hardAlpha"/><feOffset dx="1" dy="1"/><feGaussianBlur stdDeviation="1"/><feComposite in2="hardAlpha" operator="arithmetic" k2="-1" k3="1"/><feColorMatrix values="0 0 0 0 0.534167 0 0 0 0 0.645967 0 0 0 0 0.749167 0 0 0 0.6 0"/><feBlend in2="shape" result="effect1_innerShadow_5504_28945"/><feColorMatrix in="SourceAlpha" values="0 0 0 0 0 0 0 0 0 0 0 0 0 0 0 0 0 0 127 0" result="hardAlpha"/><feOffset dx="-1" dy="-2"/><feGaussianBlur stdDeviation="1"/><feComposite in2="hardAlpha" operator="arithmetic" k2="-1" k3="1"/><feColorMatrix values="0 0 0 0 0.533333 0 0 0 0 0.647059 0 0 0 0 0.74902 0 0 0 0.3 0"/><feBlend in2="effect1_innerShadow_5504_28945" result="effect2_innerShadow_5504_28945"/><feColorMatrix in="SourceAlpha" values="0 0 0 0 0 0 0 0 0 0 0 0 0 0 0 0 0 0 127 0" result="hardAlpha"/><feOffset dx="-1" dy="-2"/><feGaussianBlur stdDeviation="1.5"/><feComposite in2="hardAlpha" operator="arithmetic" k2="-1" k3="1"/><feColorMatrix values="0 0 0 0 1 0 0 0 0 1 0 0 0 0 1 0 0 0 0.4 0"/><feBlend mode="screen" in2="effect2_innerShadow_5504_28945" result="effect3_innerShadow_5504_28945"/></filter><filter id="filter1_i_5504_28945" x="22.998" y="23.961" width="20.519" height="20.519" filterUnits="userSpaceOnUse" color-interpolation-filters="sRGB"><feFlood flood-opacity="0" result="BackgroundImageFix"/><feBlend in="SourceGraphic" in2="BackgroundImageFix" result="shape"/><feColorMatrix in="SourceAlpha" values="0 0 0 0 0 0 0 0 0 0 0 0 0 0 0 0 0 0 127 0" result="hardAlpha"/><feOffset dx="1.353" dy="1.353"/><feGaussianBlur stdDeviation="2.029"/><feComposite in2="hardAlpha" operator="arithmetic" k2="-1" k3="1"/><feColorMatrix values="0 0 0 0 0 0 0 0 0 0.37028 0 0 0 0 0.74056 0 0 0 0.4 0"/><feBlend mode="multiply" in2="shape" result="effect1_innerShadow_5504_28945"/></filter><filter id="filter2_i_5504_28945" x="22.998" y="23.961" width="20.519" height="20.519" filterUnits="userSpaceOnUse" color-interpolation-filters="sRGB"><feFlood flood-opacity="0" result="BackgroundImageFix"/><feBlend in="SourceGraphic" in2="BackgroundImageFix" result="shape"/><feColorMatrix in="SourceAlpha" values="0 0 0 0 0 0 0 0 0 0 0 0 0 0 0 0 0 0 127 0" result="hardAlpha"/><feOffset dx="1.353" dy="1.353"/><feGaussianBlur stdDeviation=".676"/><feComposite in2="hardAlpha" operator="arithmetic" k2="-1" k3="1"/><feColorMatrix values="0 0 0 0 0 0 0 0 0 0.37028 0 0 0 0 0.74056 0 0 0 0.5 0"/><feBlend mode="multiply" in2="shape" result="effect1_innerShadow_5504_28945"/></filter><linearGradient id="paint0_linear_5504_28945" x1="23.901" y1="23.961" x2="45.658" y2="32.825" gradientUnits="userSpaceOnUse"><stop stop-color="#0050EC"/><stop offset="1" stop-color="#39C7EC"/></linearGradient></defs></svg>