<svg width="46" height="46" fill="none" xmlns="http://www.w3.org/2000/svg"><g filter="url(#filter0_i_5504_28962)"><path fill-rule="evenodd" clip-rule="evenodd" d="M39.294 28.754c.794 0 1.438.643 1.438 1.437 0 7.675-6.222 13.896-13.896 13.896a1.438 1.438 0 010-2.875c6.087 0 11.02-4.934 11.02-11.02 0-.794.644-1.438 1.438-1.438z" fill="url(#paint0_linear_5504_28962)"/></g><g filter="url(#filter1_i_5504_28962)"><path fill-rule="evenodd" clip-rule="evenodd" d="M22.01 9.586a10.542 10.542 0 00-10.413 8.897l-1.087 6.885a2.875 2.875 0 01-5.68-.897l1.088-6.884A16.292 16.292 0 0122.01 3.836h1.987a16.292 16.292 0 0116.093 13.75l1.087 6.885a2.875 2.875 0 11-5.68.897l-1.087-6.884a10.542 10.542 0 00-10.412-8.898H22.01z" fill="url(#paint1_linear_5504_28962)"/></g><g filter="url(#filter2_iii_5504_28962)"><path d="M6.67 33.856c-1.015-.199-1.898-.815-2.191-1.807-.317-1.075-.641-2.77-.641-5.213 0-2.442.324-4.138.641-5.213.293-.992 1.176-1.609 2.19-1.807 1.527-.299 3.997-.778 6.698-1.289 1.07-.202 2.077.188 2.338 1.247.3 1.22.591 3.359.591 7.062 0 3.703-.29 5.841-.591 7.062-.26 1.058-1.268 1.449-2.338 1.246-2.701-.51-5.17-.99-6.697-1.288z" fill="#D0E2F3"/></g><g filter="url(#filter3_i_5504_28962)"><path d="M11.773 34.843c-.128-1.388-.27-3.854-.27-8.006 0-4.153.142-6.619.27-8.007l1.593-.302c1.07-.202 2.078.188 2.338 1.246.3 1.221.592 3.36.592 7.063s-.291 5.841-.592 7.062c-.26 1.058-1.267 1.448-2.338 1.246l-1.593-.302z" fill="url(#paint2_linear_5504_28962)"/></g><g filter="url(#filter4_iii_5504_28962)"><path d="M39.34 19.816c1.015.198 1.898.815 2.19 1.807.318 1.075.642 2.77.642 5.213 0 2.442-.324 4.138-.641 5.213-.293.992-1.176 1.608-2.191 1.807-1.527.299-3.996.778-6.697 1.288-1.07.203-2.078-.188-2.338-1.246-.3-1.22-.591-3.359-.591-7.062 0-3.703.29-5.841.59-7.062.261-1.059 1.268-1.449 2.34-1.247 2.7.51 5.17.99 6.696 1.289z" fill="#D0E2F3"/></g><g filter="url(#filter5_i_5504_28962)"><path d="M34.235 18.83c.129 1.388.27 3.854.27 8.007 0 4.152-.141 6.618-.27 8.006l-1.592.302c-1.071.202-2.078-.188-2.339-1.246-.3-1.221-.591-3.36-.591-7.062 0-3.704.29-5.842.591-7.063.26-1.058 1.268-1.448 2.339-1.246l1.592.302z" fill="url(#paint3_linear_5504_28962)"/></g><defs><filter id="filter0_i_5504_28962" x="25.398" y="28.754" width="16.687" height="16.687" filterUnits="userSpaceOnUse" color-interpolation-filters="sRGB"><feFlood flood-opacity="0" result="BackgroundImageFix"/><feBlend in="SourceGraphic" in2="BackgroundImageFix" result="shape"/><feColorMatrix in="SourceAlpha" values="0 0 0 0 0 0 0 0 0 0 0 0 0 0 0 0 0 0 127 0" result="hardAlpha"/><feOffset dx="1.353" dy="1.353"/><feGaussianBlur stdDeviation="2.029"/><feComposite in2="hardAlpha" operator="arithmetic" k2="-1" k3="1"/><feColorMatrix values="0 0 0 0 0 0 0 0 0 0.37028 0 0 0 0 0.74056 0 0 0 0.4 0"/><feBlend mode="multiply" in2="shape" result="effect1_innerShadow_5504_28962"/></filter><filter id="filter1_i_5504_28962" x="4.795" y="3.836" width="37.771" height="25.312" filterUnits="userSpaceOnUse" color-interpolation-filters="sRGB"><feFlood flood-opacity="0" result="BackgroundImageFix"/><feBlend in="SourceGraphic" in2="BackgroundImageFix" result="shape"/><feColorMatrix in="SourceAlpha" values="0 0 0 0 0 0 0 0 0 0 0 0 0 0 0 0 0 0 127 0" result="hardAlpha"/><feOffset dx="1.353" dy="1.353"/><feGaussianBlur stdDeviation=".676"/><feComposite in2="hardAlpha" operator="arithmetic" k2="-1" k3="1"/><feColorMatrix values="0 0 0 0 0 0 0 0 0 0.37028 0 0 0 0 0.74056 0 0 0 0.5 0"/><feBlend mode="multiply" in2="shape" result="effect1_innerShadow_5504_28962"/></filter><filter id="filter2_iii_5504_28962" x="2.838" y="16.477" width="14.459" height="19.719" filterUnits="userSpaceOnUse" color-interpolation-filters="sRGB"><feFlood flood-opacity="0" result="BackgroundImageFix"/><feBlend in="SourceGraphic" in2="BackgroundImageFix" result="shape"/><feColorMatrix in="SourceAlpha" values="0 0 0 0 0 0 0 0 0 0 0 0 0 0 0 0 0 0 127 0" result="hardAlpha"/><feOffset dx="1" dy="1"/><feGaussianBlur stdDeviation="1"/><feComposite in2="hardAlpha" operator="arithmetic" k2="-1" k3="1"/><feColorMatrix values="0 0 0 0 0.534167 0 0 0 0 0.645967 0 0 0 0 0.749167 0 0 0 0.6 0"/><feBlend in2="shape" result="effect1_innerShadow_5504_28962"/><feColorMatrix in="SourceAlpha" values="0 0 0 0 0 0 0 0 0 0 0 0 0 0 0 0 0 0 127 0" result="hardAlpha"/><feOffset dx="-1" dy="-2"/><feGaussianBlur stdDeviation="1"/><feComposite in2="hardAlpha" operator="arithmetic" k2="-1" k3="1"/><feColorMatrix values="0 0 0 0 0.533333 0 0 0 0 0.647059 0 0 0 0 0.74902 0 0 0 0.3 0"/><feBlend in2="effect1_innerShadow_5504_28962" result="effect2_innerShadow_5504_28962"/><feColorMatrix in="SourceAlpha" values="0 0 0 0 0 0 0 0 0 0 0 0 0 0 0 0 0 0 127 0" result="hardAlpha"/><feOffset dx="-1" dy="-2"/><feGaussianBlur stdDeviation="1.5"/><feComposite in2="hardAlpha" operator="arithmetic" k2="-1" k3="1"/><feColorMatrix values="0 0 0 0 0.533333 0 0 0 0 0.647059 0 0 0 0 0.74902 0 0 0 0.4 0"/><feBlend in2="effect2_innerShadow_5504_28962" result="effect3_innerShadow_5504_28962"/></filter><filter id="filter3_i_5504_28962" x="11.504" y="18.477" width="6.144" height="18.074" filterUnits="userSpaceOnUse" color-interpolation-filters="sRGB"><feFlood flood-opacity="0" result="BackgroundImageFix"/><feBlend in="SourceGraphic" in2="BackgroundImageFix" result="shape"/><feColorMatrix in="SourceAlpha" values="0 0 0 0 0 0 0 0 0 0 0 0 0 0 0 0 0 0 127 0" result="hardAlpha"/><feOffset dx="1.353" dy="1.353"/><feGaussianBlur stdDeviation=".676"/><feComposite in2="hardAlpha" operator="arithmetic" k2="-1" k3="1"/><feColorMatrix values="0 0 0 0 0 0 0 0 0 0.37028 0 0 0 0 0.74056 0 0 0 0.5 0"/><feBlend mode="multiply" in2="shape" result="effect1_innerShadow_5504_28962"/></filter><filter id="filter4_iii_5504_28962" x="28.713" y="16.477" width="14.459" height="19.719" filterUnits="userSpaceOnUse" color-interpolation-filters="sRGB"><feFlood flood-opacity="0" result="BackgroundImageFix"/><feBlend in="SourceGraphic" in2="BackgroundImageFix" result="shape"/><feColorMatrix in="SourceAlpha" values="0 0 0 0 0 0 0 0 0 0 0 0 0 0 0 0 0 0 127 0" result="hardAlpha"/><feOffset dx="1" dy="1"/><feGaussianBlur stdDeviation="1"/><feComposite in2="hardAlpha" operator="arithmetic" k2="-1" k3="1"/><feColorMatrix values="0 0 0 0 0.534167 0 0 0 0 0.645967 0 0 0 0 0.749167 0 0 0 0.6 0"/><feBlend in2="shape" result="effect1_innerShadow_5504_28962"/><feColorMatrix in="SourceAlpha" values="0 0 0 0 0 0 0 0 0 0 0 0 0 0 0 0 0 0 127 0" result="hardAlpha"/><feOffset dx="-1" dy="-2"/><feGaussianBlur stdDeviation="1"/><feComposite in2="hardAlpha" operator="arithmetic" k2="-1" k3="1"/><feColorMatrix values="0 0 0 0 0.533333 0 0 0 0 0.647059 0 0 0 0 0.74902 0 0 0 0.3 0"/><feBlend in2="effect1_innerShadow_5504_28962" result="effect2_innerShadow_5504_28962"/><feColorMatrix in="SourceAlpha" values="0 0 0 0 0 0 0 0 0 0 0 0 0 0 0 0 0 0 127 0" result="hardAlpha"/><feOffset dx="-1" dy="-2"/><feGaussianBlur stdDeviation="1.5"/><feComposite in2="hardAlpha" operator="arithmetic" k2="-1" k3="1"/><feColorMatrix values="0 0 0 0 0.533333 0 0 0 0 0.647059 0 0 0 0 0.74902 0 0 0 0.4 0"/><feBlend in2="effect2_innerShadow_5504_28962" result="effect3_innerShadow_5504_28962"/></filter><filter id="filter5_i_5504_28962" x="29.713" y="18.477" width="6.144" height="18.074" filterUnits="userSpaceOnUse" color-interpolation-filters="sRGB"><feFlood flood-opacity="0" result="BackgroundImageFix"/><feBlend in="SourceGraphic" in2="BackgroundImageFix" result="shape"/><feColorMatrix in="SourceAlpha" values="0 0 0 0 0 0 0 0 0 0 0 0 0 0 0 0 0 0 127 0" result="hardAlpha"/><feOffset dx="1.353" dy="1.353"/><feGaussianBlur stdDeviation="2.029"/><feComposite in2="hardAlpha" operator="arithmetic" k2="-1" k3="1"/><feColorMatrix values="0 0 0 0 0 0 0 0 0 0.37028 0 0 0 0 0.74056 0 0 0 0.4 0"/><feBlend mode="multiply" in2="shape" result="effect1_innerShadow_5504_28962"/></filter><linearGradient id="paint0_linear_5504_28962" x1="26.121" y1="28.754" x2="43.527" y2="35.845" gradientUnits="userSpaceOnUse"><stop stop-color="#0050EC"/><stop offset="1" stop-color="#39C7EC"/></linearGradient><linearGradient id="paint1_linear_5504_28962" x1="6.511" y1="3.836" x2="41.351" y2="25.411" gradientUnits="userSpaceOnUse"><stop stop-color="#0050EC"/><stop offset="1" stop-color="#39C7EC"/></linearGradient><linearGradient id="paint2_linear_5504_28962" x1="11.73" y1="18.477" x2="17.986" y2="19.207" gradientUnits="userSpaceOnUse"><stop stop-color="#0050EC"/><stop offset="1" stop-color="#39C7EC"/></linearGradient><linearGradient id="paint3_linear_5504_28962" x1="29.939" y1="18.477" x2="36.196" y2="19.207" gradientUnits="userSpaceOnUse"><stop stop-color="#0050EC"/><stop offset="1" stop-color="#39C7EC"/></linearGradient></defs></svg>