<svg width="46" height="46" fill="none" xmlns="http://www.w3.org/2000/svg"><g filter="url(#filter0_iii_5504_28978)"><circle cx="23" cy="23" r="20.125" fill="#D0E2F3"/></g><g filter="url(#filter1_i_5504_28978)"><path d="M17.25 42.292V37.8c0-1.525-.933-2.868-2.205-3.71-3.87-2.565-6.42-6.947-6.42-11.922 0-5.173 2.758-9.704 6.89-12.218 1.145-.697 2.482.23 2.48 1.571-.005 3.064.038 6.158.176 8.563.022.383.162.749.423 1.03.63.679 1.994 1.977 3.81 2.738.38.16.81.16 1.191 0 1.77-.741 3.11-1.993 3.76-2.684.294-.312.436-.729.436-1.157v-8.632c0-1.322 1.311-2.238 2.453-1.573 4.266 2.482 7.131 7.09 7.131 12.363 0 4.974-2.55 9.356-6.42 11.92-1.272.843-2.205 2.186-2.205 3.712v4.491a20.13 20.13 0 01-5.75.834 20.13 20.13 0 01-5.75-.834z" fill="url(#paint0_linear_5504_28978)"/></g><defs><filter id="filter0_iii_5504_28978" x="1.875" y=".875" width="42.25" height="43.25" filterUnits="userSpaceOnUse" color-interpolation-filters="sRGB"><feFlood flood-opacity="0" result="BackgroundImageFix"/><feBlend in="SourceGraphic" in2="BackgroundImageFix" result="shape"/><feColorMatrix in="SourceAlpha" values="0 0 0 0 0 0 0 0 0 0 0 0 0 0 0 0 0 0 127 0" result="hardAlpha"/><feOffset dx="1" dy="1"/><feGaussianBlur stdDeviation="1"/><feComposite in2="hardAlpha" operator="arithmetic" k2="-1" k3="1"/><feColorMatrix values="0 0 0 0 0.534167 0 0 0 0 0.645967 0 0 0 0 0.749167 0 0 0 0.6 0"/><feBlend in2="shape" result="effect1_innerShadow_5504_28978"/><feColorMatrix in="SourceAlpha" values="0 0 0 0 0 0 0 0 0 0 0 0 0 0 0 0 0 0 127 0" result="hardAlpha"/><feOffset dx="-1" dy="-2"/><feGaussianBlur stdDeviation="1"/><feComposite in2="hardAlpha" operator="arithmetic" k2="-1" k3="1"/><feColorMatrix values="0 0 0 0 0.533333 0 0 0 0 0.647059 0 0 0 0 0.74902 0 0 0 0.3 0"/><feBlend in2="effect1_innerShadow_5504_28978" result="effect2_innerShadow_5504_28978"/><feColorMatrix in="SourceAlpha" values="0 0 0 0 0 0 0 0 0 0 0 0 0 0 0 0 0 0 127 0" result="hardAlpha"/><feOffset dx="-1" dy="-2"/><feGaussianBlur stdDeviation="1.5"/><feComposite in2="hardAlpha" operator="arithmetic" k2="-1" k3="1"/><feColorMatrix values="0 0 0 0 1 0 0 0 0 1 0 0 0 0 1 0 0 0 0.4 0"/><feBlend mode="screen" in2="effect2_innerShadow_5504_28978" result="effect3_innerShadow_5504_28978"/></filter><filter id="filter1_i_5504_28978" x="8.625" y="9.584" width="30.103" height="34.894" filterUnits="userSpaceOnUse" color-interpolation-filters="sRGB"><feFlood flood-opacity="0" result="BackgroundImageFix"/><feBlend in="SourceGraphic" in2="BackgroundImageFix" result="shape"/><feColorMatrix in="SourceAlpha" values="0 0 0 0 0 0 0 0 0 0 0 0 0 0 0 0 0 0 127 0" result="hardAlpha"/><feOffset dx="1.353" dy="1.353"/><feGaussianBlur stdDeviation=".676"/><feComposite in2="hardAlpha" operator="arithmetic" k2="-1" k3="1"/><feColorMatrix values="0 0 0 0 0 0 0 0 0 0.37028 0 0 0 0 0.74056 0 0 0 0.5 0"/><feBlend mode="multiply" in2="shape" result="effect1_innerShadow_5504_28978"/></filter><linearGradient id="paint0_linear_5504_28978" x1="9.98" y1="9.584" x2="43.896" y2="21.428" gradientUnits="userSpaceOnUse"><stop stop-color="#0050EC"/><stop offset="1" stop-color="#39C7EC"/></linearGradient></defs></svg>