<svg width="46" height="46" fill="none" xmlns="http://www.w3.org/2000/svg"><g filter="url(#filter0_iii_5504_28972)"><path d="M4.375 37.678c.17 1.646 1.248 2.949 2.867 3.293 2.554.544 7.369 1.197 15.76 1.197 8.393 0 13.207-.653 15.762-1.197 1.618-.344 2.697-1.647 2.867-3.293.252-2.44.538-6.92.538-14.677 0-7.756-.286-12.237-.538-14.677-.17-1.645-1.25-2.948-2.867-3.292-2.555-.544-7.37-1.197-15.761-1.197-8.392 0-13.207.653-15.761 1.197-1.619.344-2.698 1.647-2.867 3.292-.252 2.44-.54 6.92-.54 14.677s.288 12.237.54 14.677z" fill="#D0E2F3"/></g><g filter="url(#filter1_i_5504_28972)" fill-rule="evenodd" clip-rule="evenodd"><path d="M35.181 25.883V23.8h-.767c-1.723 0-2.586.529-2.586 1.587 0 .918.457 1.377 1.373 1.377.63 0 1.29-.294 1.98-.882zM37 27.912h-1.427l-.142-.953c-.88.754-1.796 1.13-2.747 1.13-1.783 0-2.675-.812-2.675-2.436 0-.929.363-1.652 1.088-2.17.785-.553 1.932-.83 3.442-.83h.642v-.794c0-1.047-.613-1.57-1.837-1.57-.797 0-1.665.17-2.604.51l-.267-1.11a8.352 8.352 0 013.37-.725c2.105 0 3.157.89 3.157 2.665v6.283zm-7.526-8.788c-.582 3.247-1.498 6.176-2.747 8.788h-2.264l-2.729-8.788h1.98l1.694 5.4.375 1.624c.88-2.4 1.468-4.742 1.765-7.024h1.926zm-10.736 6.759V23.8h-.767c-1.724 0-2.586.529-2.586 1.587 0 .918.458 1.377 1.374 1.377.63 0 1.29-.294 1.979-.882zm1.82 2.029H19.13l-.143-.953c-.88.754-1.796 1.13-2.747 1.13-1.784 0-2.675-.812-2.675-2.436 0-.929.362-1.652 1.087-2.17.785-.553 1.932-.83 3.443-.83h.642v-.794c0-1.047-.612-1.57-1.837-1.57-.797 0-1.664.17-2.604.51l-.268-1.11a8.357 8.357 0 013.372-.725c2.104 0 3.157.89 3.157 2.665v6.283zm-8.651-1.235c0 1.917-.654 3.36-1.962 4.323L9 30.206a3.812 3.812 0 00.838-1.73c.095-.459.143-1.093.143-1.905V16h1.926v10.677z" fill="#fff"/><path d="M35.181 25.883V23.8h-.767c-1.723 0-2.586.529-2.586 1.587 0 .918.457 1.377 1.373 1.377.63 0 1.29-.294 1.98-.882zM37 27.912h-1.427l-.142-.953c-.88.754-1.796 1.13-2.747 1.13-1.783 0-2.675-.812-2.675-2.436 0-.929.363-1.652 1.088-2.17.785-.553 1.932-.83 3.442-.83h.642v-.794c0-1.047-.613-1.57-1.837-1.57-.797 0-1.665.17-2.604.51l-.267-1.11a8.352 8.352 0 013.37-.725c2.105 0 3.157.89 3.157 2.665v6.283zm-7.526-8.788c-.582 3.247-1.498 6.176-2.747 8.788h-2.264l-2.729-8.788h1.98l1.694 5.4.375 1.624c.88-2.4 1.468-4.742 1.765-7.024h1.926zm-10.736 6.759V23.8h-.767c-1.724 0-2.586.529-2.586 1.587 0 .918.458 1.377 1.374 1.377.63 0 1.29-.294 1.979-.882zm1.82 2.029H19.13l-.143-.953c-.88.754-1.796 1.13-2.747 1.13-1.784 0-2.675-.812-2.675-2.436 0-.929.362-1.652 1.087-2.17.785-.553 1.932-.83 3.443-.83h.642v-.794c0-1.047-.612-1.57-1.837-1.57-.797 0-1.664.17-2.604.51l-.268-1.11a8.357 8.357 0 013.372-.725c2.104 0 3.157.89 3.157 2.665v6.283zm-8.651-1.235c0 1.917-.654 3.36-1.962 4.323L9 30.206a3.812 3.812 0 00.838-1.73c.095-.459.143-1.093.143-1.905V16h1.926v10.677z" fill="url(#paint0_linear_5504_28972)"/></g><defs><filter id="filter0_iii_5504_28972" x="2.836" y="1.834" width="40.334" height="41.334" filterUnits="userSpaceOnUse" color-interpolation-filters="sRGB"><feFlood flood-opacity="0" result="BackgroundImageFix"/><feBlend in="SourceGraphic" in2="BackgroundImageFix" result="shape"/><feColorMatrix in="SourceAlpha" values="0 0 0 0 0 0 0 0 0 0 0 0 0 0 0 0 0 0 127 0" result="hardAlpha"/><feOffset dx="1" dy="1"/><feGaussianBlur stdDeviation="1"/><feComposite in2="hardAlpha" operator="arithmetic" k2="-1" k3="1"/><feColorMatrix values="0 0 0 0 0.534167 0 0 0 0 0.645967 0 0 0 0 0.749167 0 0 0 0.6 0"/><feBlend in2="shape" result="effect1_innerShadow_5504_28972"/><feColorMatrix in="SourceAlpha" values="0 0 0 0 0 0 0 0 0 0 0 0 0 0 0 0 0 0 127 0" result="hardAlpha"/><feOffset dx="-1" dy="-2"/><feGaussianBlur stdDeviation="1"/><feComposite in2="hardAlpha" operator="arithmetic" k2="-1" k3="1"/><feColorMatrix values="0 0 0 0 0.533333 0 0 0 0 0.647059 0 0 0 0 0.74902 0 0 0 0.3 0"/><feBlend in2="effect1_innerShadow_5504_28972" result="effect2_innerShadow_5504_28972"/><feColorMatrix in="SourceAlpha" values="0 0 0 0 0 0 0 0 0 0 0 0 0 0 0 0 0 0 127 0" result="hardAlpha"/><feOffset dx="-1" dy="-2"/><feGaussianBlur stdDeviation="1.5"/><feComposite in2="hardAlpha" operator="arithmetic" k2="-1" k3="1"/><feColorMatrix values="0 0 0 0 1 0 0 0 0 1 0 0 0 0 1 0 0 0 0.4 0"/><feBlend mode="screen" in2="effect2_innerShadow_5504_28972" result="effect3_innerShadow_5504_28972"/></filter><filter id="filter1_i_5504_28972" x="9" y="16" width="29.353" height="16.353" filterUnits="userSpaceOnUse" color-interpolation-filters="sRGB"><feFlood flood-opacity="0" result="BackgroundImageFix"/><feBlend in="SourceGraphic" in2="BackgroundImageFix" result="shape"/><feColorMatrix in="SourceAlpha" values="0 0 0 0 0 0 0 0 0 0 0 0 0 0 0 0 0 0 127 0" result="hardAlpha"/><feOffset dx="1.353" dy="1.353"/><feGaussianBlur stdDeviation=".676"/><feComposite in2="hardAlpha" operator="arithmetic" k2="-1" k3="1"/><feColorMatrix values="0 0 0 0 0 0 0 0 0 0.37028 0 0 0 0 0.74056 0 0 0 0.5 0"/><feBlend mode="multiply" in2="shape" result="effect1_innerShadow_5504_28972"/></filter><linearGradient id="paint0_linear_5504_28972" x1="10.32" y1="31" x2="33.8" y2="13.144" gradientUnits="userSpaceOnUse"><stop stop-color="#0050EC"/><stop offset="1" stop-color="#39C7EC"/></linearGradient></defs></svg>