<svg width="46" height="46" fill="none" xmlns="http://www.w3.org/2000/svg"><g filter="url(#filter0_iii_5504_29052)" fill="#D0E2F3"><path d="M21 19a7 7 0 100-14 7 7 0 000 14zM9 38.286V41h24v-2.714c0-5.059 0-7.588-.609-9.584-.812-2.66-2.37-4.774-4.33-5.876C26.591 22 24.727 22 21 22s-5.591 0-7.062.826c-1.96 1.102-3.517 3.216-4.329 5.876C9 30.697 9 33.227 9 38.286z"/></g><g filter="url(#filter1_i_5504_29052)"><path d="M34.02 25.2l-1.8-.95C30.64 23.417 29.85 23 29 23c-.85 0-1.64.416-3.22 1.25l-.29.153 8.032 4.61 3.614-1.817c-.581-.662-1.52-1.157-3.116-1.998m3.753 3.195l-3.598 1.81v2.745a.68.68 0 01-.675.678.673.673 0 01-.675-.678V30.88l-3.15 1.583V41c.646-.162 1.381-.549 2.545-1.163l1.8-.95c1.936-1.02 2.904-1.53 3.443-2.449.537-.916.537-2.059.537-4.34v-.106c0-1.712 0-2.783-.227-3.599zM28.325 41v-8.537l-8.098-4.07C20 29.21 20 30.28 20 31.99v.106c0 2.283 0 3.426.537 4.343.539.917 1.507 1.428 3.443 2.45l1.8.948c1.163.614 1.899 1.001 2.545 1.163zm-7.461-13.803L29 31.285l3.07-1.542-7.997-4.592-.093.048c-1.596.841-2.535 1.336-3.116 1.999" fill="url(#paint0_linear_5504_29052)"/></g><defs><filter id="filter0_iii_5504_29052" x="8" y="3" width="26" height="39" filterUnits="userSpaceOnUse" color-interpolation-filters="sRGB"><feFlood flood-opacity="0" result="BackgroundImageFix"/><feBlend in="SourceGraphic" in2="BackgroundImageFix" result="shape"/><feColorMatrix in="SourceAlpha" values="0 0 0 0 0 0 0 0 0 0 0 0 0 0 0 0 0 0 127 0" result="hardAlpha"/><feOffset dx="1" dy="1"/><feGaussianBlur stdDeviation="1"/><feComposite in2="hardAlpha" operator="arithmetic" k2="-1" k3="1"/><feColorMatrix values="0 0 0 0 0.534167 0 0 0 0 0.645967 0 0 0 0 0.749167 0 0 0 0.6 0"/><feBlend in2="shape" result="effect1_innerShadow_5504_29052"/><feColorMatrix in="SourceAlpha" values="0 0 0 0 0 0 0 0 0 0 0 0 0 0 0 0 0 0 127 0" result="hardAlpha"/><feOffset dx="-1" dy="-2"/><feGaussianBlur stdDeviation="1"/><feComposite in2="hardAlpha" operator="arithmetic" k2="-1" k3="1"/><feColorMatrix values="0 0 0 0 0.533333 0 0 0 0 0.647059 0 0 0 0 0.74902 0 0 0 0.3 0"/><feBlend in2="effect1_innerShadow_5504_29052" result="effect2_innerShadow_5504_29052"/><feColorMatrix in="SourceAlpha" values="0 0 0 0 0 0 0 0 0 0 0 0 0 0 0 0 0 0 127 0" result="hardAlpha"/><feOffset dx="-1" dy="-2"/><feGaussianBlur stdDeviation="1.5"/><feComposite in2="hardAlpha" operator="arithmetic" k2="-1" k3="1"/><feColorMatrix values="0 0 0 0 1 0 0 0 0 1 0 0 0 0 1 0 0 0 0.4 0"/><feBlend mode="screen" in2="effect2_innerShadow_5504_29052" result="effect3_innerShadow_5504_29052"/></filter><filter id="filter1_i_5504_29052" x="20" y="23" width="19.353" height="19.353" filterUnits="userSpaceOnUse" color-interpolation-filters="sRGB"><feFlood flood-opacity="0" result="BackgroundImageFix"/><feBlend in="SourceGraphic" in2="BackgroundImageFix" result="shape"/><feColorMatrix in="SourceAlpha" values="0 0 0 0 0 0 0 0 0 0 0 0 0 0 0 0 0 0 127 0" result="hardAlpha"/><feOffset dx="1.353" dy="1.353"/><feGaussianBlur stdDeviation="2.029"/><feComposite in2="hardAlpha" operator="arithmetic" k2="-1" k3="1"/><feColorMatrix values="0 0 0 0 0 0 0 0 0 0.37028 0 0 0 0 0.74056 0 0 0 0.4 0"/><feBlend mode="multiply" in2="shape" result="effect1_innerShadow_5504_29052"/></filter><linearGradient id="paint0_linear_5504_29052" x1="20.848" y1="23" x2="41.281" y2="31.324" gradientUnits="userSpaceOnUse"><stop stop-color="#39C7EC"/><stop offset="0" stop-color="#39C7EC"/><stop offset="1" stop-color="#0050EC"/></linearGradient></defs></svg>