<svg width="46" height="46" fill="none" xmlns="http://www.w3.org/2000/svg"><g filter="url(#filter0_iii_5504_29045)"><path d="M21 19a7 7 0 100-14 7 7 0 000 14z" fill="#D0E2F3"/></g><g filter="url(#filter1_iii_5504_29045)"><path d="M9 38.286V41h24v-2.714c0-5.059 0-7.588-.609-9.584-.812-2.66-2.37-4.774-4.33-5.876C26.591 22 24.727 22 21 22s-5.591 0-7.062.826c-1.96 1.102-3.517 3.216-4.329 5.876C9 30.697 9 33.227 9 38.286z" fill="#D0E2F3"/></g><g filter="url(#filter2_i_5504_29045)"><path d="M36.223 29.966c0-.758-.254-1.371-.762-1.841s-1.176-.704-2.004-.704h-3.75v5.09h3.75c.828 0 1.496-.235 2.004-.704.508-.47.762-1.083.762-1.841zm2.777 0c0 1.462-.494 2.655-1.482 3.58-.989.924-2.264 1.386-3.827 1.386h-3.984v1.34h5.918c.11 0 .2.035.27.103.07.068.105.155.105.261v1.455a.348.348 0 01-.105.261.37.37 0 01-.27.103h-5.918v2.181a.34.34 0 01-.111.262.377.377 0 01-.264.102h-1.957c-.11 0-.2-.034-.27-.102a.348.348 0 01-.105-.262v-2.181h-2.625a.37.37 0 01-.27-.103.348.348 0 01-.105-.261v-1.455c0-.106.035-.193.105-.261a.371.371 0 01.27-.102H27v-1.341h-2.625c-.11 0-.2-.034-.27-.102a.348.348 0 01-.105-.262v-1.693c0-.099.035-.184.105-.256a.36.36 0 01.27-.108H27v-7.147a.35.35 0 01.105-.262.371.371 0 01.27-.102h6.316c1.563 0 2.838.462 3.827 1.386.988.925 1.482 2.118 1.482 3.58z" fill="url(#paint0_linear_5504_29045)"/></g><defs><filter id="filter0_iii_5504_29045" x="13" y="3" width="16" height="17" filterUnits="userSpaceOnUse" color-interpolation-filters="sRGB"><feFlood flood-opacity="0" result="BackgroundImageFix"/><feBlend in="SourceGraphic" in2="BackgroundImageFix" result="shape"/><feColorMatrix in="SourceAlpha" values="0 0 0 0 0 0 0 0 0 0 0 0 0 0 0 0 0 0 127 0" result="hardAlpha"/><feOffset dx="1" dy="1"/><feGaussianBlur stdDeviation="1"/><feComposite in2="hardAlpha" operator="arithmetic" k2="-1" k3="1"/><feColorMatrix values="0 0 0 0 0.534167 0 0 0 0 0.645967 0 0 0 0 0.749167 0 0 0 0.6 0"/><feBlend in2="shape" result="effect1_innerShadow_5504_29045"/><feColorMatrix in="SourceAlpha" values="0 0 0 0 0 0 0 0 0 0 0 0 0 0 0 0 0 0 127 0" result="hardAlpha"/><feOffset dx="-1" dy="-2"/><feGaussianBlur stdDeviation="1"/><feComposite in2="hardAlpha" operator="arithmetic" k2="-1" k3="1"/><feColorMatrix values="0 0 0 0 0.533333 0 0 0 0 0.647059 0 0 0 0 0.74902 0 0 0 0.3 0"/><feBlend in2="effect1_innerShadow_5504_29045" result="effect2_innerShadow_5504_29045"/><feColorMatrix in="SourceAlpha" values="0 0 0 0 0 0 0 0 0 0 0 0 0 0 0 0 0 0 127 0" result="hardAlpha"/><feOffset dx="-1" dy="-2"/><feGaussianBlur stdDeviation="1.5"/><feComposite in2="hardAlpha" operator="arithmetic" k2="-1" k3="1"/><feColorMatrix values="0 0 0 0 1 0 0 0 0 1 0 0 0 0 1 0 0 0 0.4 0"/><feBlend mode="screen" in2="effect2_innerShadow_5504_29045" result="effect3_innerShadow_5504_29045"/></filter><filter id="filter1_iii_5504_29045" x="8" y="20" width="26" height="22" filterUnits="userSpaceOnUse" color-interpolation-filters="sRGB"><feFlood flood-opacity="0" result="BackgroundImageFix"/><feBlend in="SourceGraphic" in2="BackgroundImageFix" result="shape"/><feColorMatrix in="SourceAlpha" values="0 0 0 0 0 0 0 0 0 0 0 0 0 0 0 0 0 0 127 0" result="hardAlpha"/><feOffset dx="1" dy="1"/><feGaussianBlur stdDeviation="1"/><feComposite in2="hardAlpha" operator="arithmetic" k2="-1" k3="1"/><feColorMatrix values="0 0 0 0 0.534167 0 0 0 0 0.645967 0 0 0 0 0.749167 0 0 0 0.6 0"/><feBlend in2="shape" result="effect1_innerShadow_5504_29045"/><feColorMatrix in="SourceAlpha" values="0 0 0 0 0 0 0 0 0 0 0 0 0 0 0 0 0 0 127 0" result="hardAlpha"/><feOffset dx="-1" dy="-2"/><feGaussianBlur stdDeviation="1"/><feComposite in2="hardAlpha" operator="arithmetic" k2="-1" k3="1"/><feColorMatrix values="0 0 0 0 0.533333 0 0 0 0 0.647059 0 0 0 0 0.74902 0 0 0 0.3 0"/><feBlend in2="effect1_innerShadow_5504_29045" result="effect2_innerShadow_5504_29045"/><feColorMatrix in="SourceAlpha" values="0 0 0 0 0 0 0 0 0 0 0 0 0 0 0 0 0 0 127 0" result="hardAlpha"/><feOffset dx="-1" dy="-2"/><feGaussianBlur stdDeviation="1.5"/><feComposite in2="hardAlpha" operator="arithmetic" k2="-1" k3="1"/><feColorMatrix values="0 0 0 0 1 0 0 0 0 1 0 0 0 0 1 0 0 0 0.4 0"/><feBlend mode="screen" in2="effect2_innerShadow_5504_29045" result="effect3_innerShadow_5504_29045"/></filter><filter id="filter2_i_5504_29045" x="24" y="25" width="16.353" height="17.353" filterUnits="userSpaceOnUse" color-interpolation-filters="sRGB"><feFlood flood-opacity="0" result="BackgroundImageFix"/><feBlend in="SourceGraphic" in2="BackgroundImageFix" result="shape"/><feColorMatrix in="SourceAlpha" values="0 0 0 0 0 0 0 0 0 0 0 0 0 0 0 0 0 0 127 0" result="hardAlpha"/><feOffset dx="1.353" dy="1.353"/><feGaussianBlur stdDeviation="2.029"/><feComposite in2="hardAlpha" operator="arithmetic" k2="-1" k3="1"/><feColorMatrix values="0 0 0 0 0 0 0 0 0 0.37028 0 0 0 0 0.74056 0 0 0 0.4 0"/><feBlend mode="multiply" in2="shape" result="effect1_innerShadow_5504_29045"/></filter><linearGradient id="paint0_linear_5504_29045" x1="24.707" y1="25" x2="42.033" y2="31.617" gradientUnits="userSpaceOnUse"><stop stop-color="#39C7EC"/><stop offset="0" stop-color="#39C7EC"/><stop offset="1" stop-color="#0050EC"/></linearGradient></defs></svg>