<svg width="46" height="46" fill="none" xmlns="http://www.w3.org/2000/svg"><g filter="url(#filter0_i_5504_28918)"><path d="M40.171 11.596c-.095 1.893-1.896 2.605-3.293 1.323-.635-.583-1.396-1.3-2.3-2.181a1249.8 1249.8 0 00-8.992 8.267c-.992.922-2.604.819-3.47-.222h-.002c-1.7-2.036-3.415-4.063-5.188-6.036-2.073 1.522-5.793 4.422-9.484 8.113a2.396 2.396 0 01-3.389-3.388c3.622-3.622 7.596-7.019 11.858-9.877l.006-.005h.001a2.396 2.396 0 013.024.299c1.855 1.855 3.531 3.896 5.228 5.896a1224.9 1224.9 0 017.02-6.443 104.022 104.022 0 01-1.944-2.055c-1.282-1.398-.57-3.2 1.323-3.294 2.417-.122 4.897-.194 7.284.253a2.53 2.53 0 012.065 2.064c.446 2.388.375 4.869.253 7.286z" fill="url(#paint0_linear_5504_28918)"/></g><g filter="url(#filter1_iii_5504_28918)"><path d="M4.999 44.052c-1.604-.04-2.818-1.005-2.949-2.604-.079-.957-.136-2.273-.136-4.074 0-1.802.057-3.117.136-4.075.131-1.598 1.345-2.563 2.949-2.604.701-.017 1.578-.03 2.665-.03s1.964.013 2.665.03c1.604.041 2.818 1.006 2.95 2.604.078.958.135 2.273.135 4.075 0 1.8-.057 3.117-.136 4.074-.13 1.599-1.345 2.563-2.949 2.604-.701.018-1.578.03-2.665.03S5.7 44.07 5 44.052z" fill="#D0E2F3"/></g><g filter="url(#filter2_iii_5504_28918)"><path d="M36.123 44.042c-1.868-.073-3.178-1.387-3.299-3.252-.125-1.935-.238-5.077-.238-10.125 0-5.047.113-8.19.238-10.124.121-1.866 1.431-3.179 3.3-3.253a56.37 56.37 0 012.212-.04c.864 0 1.596.016 2.213.04 1.868.074 3.178 1.387 3.299 3.253.125 1.934.238 5.076.238 10.124 0 5.048-.113 8.19-.238 10.125-.121 1.865-1.431 3.179-3.3 3.252a54.96 54.96 0 01-2.212.04c-.865 0-1.596-.015-2.213-.04z" fill="#D0E2F3"/></g><g filter="url(#filter3_iii_5504_28918)"><path d="M20.657 44.05c-1.79-.055-3.095-1.23-3.223-3.016-.101-1.403-.182-3.48-.182-6.535s.08-5.132.182-6.536c.128-1.786 1.433-2.96 3.223-3.015a77.71 77.71 0 012.345-.033c.927 0 1.702.013 2.345.033 1.79.054 3.095 1.229 3.223 3.015.101 1.404.182 3.481.182 6.536 0 3.054-.08 5.132-.182 6.535-.128 1.787-1.433 2.961-3.223 3.016-.643.02-1.418.032-2.345.032a77.71 77.71 0 01-2.345-.032z" fill="#D0E2F3"/></g><defs><filter id="filter0_i_5504_28918" x="3.352" y="1.9" width="38.265" height="21.015" filterUnits="userSpaceOnUse" color-interpolation-filters="sRGB"><feFlood flood-opacity="0" result="BackgroundImageFix"/><feBlend in="SourceGraphic" in2="BackgroundImageFix" result="shape"/><feColorMatrix in="SourceAlpha" values="0 0 0 0 0 0 0 0 0 0 0 0 0 0 0 0 0 0 127 0" result="hardAlpha"/><feOffset dx="1.353" dy="1.353"/><feGaussianBlur stdDeviation=".676"/><feComposite in2="hardAlpha" operator="arithmetic" k2="-1" k3="1"/><feColorMatrix values="0 0 0 0 0 0 0 0 0 0.37028 0 0 0 0 0.74056 0 0 0 0.5 0"/><feBlend mode="multiply" in2="shape" result="effect1_innerShadow_5504_28918"/></filter><filter id="filter1_iii_5504_28918" x=".914" y="28.666" width="13.5" height="16.416" filterUnits="userSpaceOnUse" color-interpolation-filters="sRGB"><feFlood flood-opacity="0" result="BackgroundImageFix"/><feBlend in="SourceGraphic" in2="BackgroundImageFix" result="shape"/><feColorMatrix in="SourceAlpha" values="0 0 0 0 0 0 0 0 0 0 0 0 0 0 0 0 0 0 127 0" result="hardAlpha"/><feOffset dx="1" dy="1"/><feGaussianBlur stdDeviation="1"/><feComposite in2="hardAlpha" operator="arithmetic" k2="-1" k3="1"/><feColorMatrix values="0 0 0 0 0.534167 0 0 0 0 0.645967 0 0 0 0 0.749167 0 0 0 0.6 0"/><feBlend in2="shape" result="effect1_innerShadow_5504_28918"/><feColorMatrix in="SourceAlpha" values="0 0 0 0 0 0 0 0 0 0 0 0 0 0 0 0 0 0 127 0" result="hardAlpha"/><feOffset dx="-1" dy="-2"/><feGaussianBlur stdDeviation="1"/><feComposite in2="hardAlpha" operator="arithmetic" k2="-1" k3="1"/><feColorMatrix values="0 0 0 0 0.533333 0 0 0 0 0.647059 0 0 0 0 0.74902 0 0 0 0.3 0"/><feBlend in2="effect1_innerShadow_5504_28918" result="effect2_innerShadow_5504_28918"/><feColorMatrix in="SourceAlpha" values="0 0 0 0 0 0 0 0 0 0 0 0 0 0 0 0 0 0 127 0" result="hardAlpha"/><feOffset dx="-1" dy="-2"/><feGaussianBlur stdDeviation="1.5"/><feComposite in2="hardAlpha" operator="arithmetic" k2="-1" k3="1"/><feColorMatrix values="0 0 0 0 1 0 0 0 0 1 0 0 0 0 1 0 0 0 0.4 0"/><feBlend mode="screen" in2="effect2_innerShadow_5504_28918" result="effect3_innerShadow_5504_28918"/></filter><filter id="filter2_iii_5504_28918" x="31.586" y="15.248" width="13.5" height="29.834" filterUnits="userSpaceOnUse" color-interpolation-filters="sRGB"><feFlood flood-opacity="0" result="BackgroundImageFix"/><feBlend in="SourceGraphic" in2="BackgroundImageFix" result="shape"/><feColorMatrix in="SourceAlpha" values="0 0 0 0 0 0 0 0 0 0 0 0 0 0 0 0 0 0 127 0" result="hardAlpha"/><feOffset dx="1" dy="1"/><feGaussianBlur stdDeviation="1"/><feComposite in2="hardAlpha" operator="arithmetic" k2="-1" k3="1"/><feColorMatrix values="0 0 0 0 0.534167 0 0 0 0 0.645967 0 0 0 0 0.749167 0 0 0 0.6 0"/><feBlend in2="shape" result="effect1_innerShadow_5504_28918"/><feColorMatrix in="SourceAlpha" values="0 0 0 0 0 0 0 0 0 0 0 0 0 0 0 0 0 0 127 0" result="hardAlpha"/><feOffset dx="-1" dy="-2"/><feGaussianBlur stdDeviation="1"/><feComposite in2="hardAlpha" operator="arithmetic" k2="-1" k3="1"/><feColorMatrix values="0 0 0 0 0.533333 0 0 0 0 0.647059 0 0 0 0 0.74902 0 0 0 0.3 0"/><feBlend in2="effect1_innerShadow_5504_28918" result="effect2_innerShadow_5504_28918"/><feColorMatrix in="SourceAlpha" values="0 0 0 0 0 0 0 0 0 0 0 0 0 0 0 0 0 0 127 0" result="hardAlpha"/><feOffset dx="-1" dy="-2"/><feGaussianBlur stdDeviation="1.5"/><feComposite in2="hardAlpha" operator="arithmetic" k2="-1" k3="1"/><feColorMatrix values="0 0 0 0 1 0 0 0 0 1 0 0 0 0 1 0 0 0 0.4 0"/><feBlend mode="screen" in2="effect2_innerShadow_5504_28918" result="effect3_innerShadow_5504_28918"/></filter><filter id="filter3_iii_5504_28918" x="16.252" y="22.916" width="13.5" height="22.166" filterUnits="userSpaceOnUse" color-interpolation-filters="sRGB"><feFlood flood-opacity="0" result="BackgroundImageFix"/><feBlend in="SourceGraphic" in2="BackgroundImageFix" result="shape"/><feColorMatrix in="SourceAlpha" values="0 0 0 0 0 0 0 0 0 0 0 0 0 0 0 0 0 0 127 0" result="hardAlpha"/><feOffset dx="1" dy="1"/><feGaussianBlur stdDeviation="1"/><feComposite in2="hardAlpha" operator="arithmetic" k2="-1" k3="1"/><feColorMatrix values="0 0 0 0 0.534167 0 0 0 0 0.645967 0 0 0 0 0.749167 0 0 0 0.6 0"/><feBlend in2="shape" result="effect1_innerShadow_5504_28918"/><feColorMatrix in="SourceAlpha" values="0 0 0 0 0 0 0 0 0 0 0 0 0 0 0 0 0 0 127 0" result="hardAlpha"/><feOffset dx="-1" dy="-2"/><feGaussianBlur stdDeviation="1"/><feComposite in2="hardAlpha" operator="arithmetic" k2="-1" k3="1"/><feColorMatrix values="0 0 0 0 0.533333 0 0 0 0 0.647059 0 0 0 0 0.74902 0 0 0 0.3 0"/><feBlend in2="effect1_innerShadow_5504_28918" result="effect2_innerShadow_5504_28918"/><feColorMatrix in="SourceAlpha" values="0 0 0 0 0 0 0 0 0 0 0 0 0 0 0 0 0 0 127 0" result="hardAlpha"/><feOffset dx="-1" dy="-2"/><feGaussianBlur stdDeviation="1.5"/><feComposite in2="hardAlpha" operator="arithmetic" k2="-1" k3="1"/><feColorMatrix values="0 0 0 0 1 0 0 0 0 1 0 0 0 0 1 0 0 0 0.4 0"/><feBlend mode="screen" in2="effect2_innerShadow_5504_28918" result="effect3_innerShadow_5504_28918"/></filter><linearGradient id="paint0_linear_5504_28918" x1="5.091" y1="1.9" x2="35.915" y2="25.476" gradientUnits="userSpaceOnUse"><stop stop-color="#0050EC"/><stop offset="1" stop-color="#39C7EC"/></linearGradient></defs></svg>