<svg width="46" height="46" fill="none" xmlns="http://www.w3.org/2000/svg"><g filter="url(#filter0_i_5504_28923)"><path d="M35.253 29.234c-1.646.941-3.217-.192-2.89-2.06.147-.849.341-1.876.595-3.113a1233.95 1233.95 0 00-11.812-3.112c-1.31-.339-2.093-1.751-1.685-3.043.797-2.53 1.58-5.067 2.284-7.625-2.4-.924-6.848-2.493-11.948-3.61a2.396 2.396 0 011.026-4.68C15.826 3.085 20.83 4.6 25.536 6.646l.007.003h.002a2.396 2.396 0 011.378 2.708c-.561 2.563-1.376 5.075-2.144 7.582 3.802.99 6.985 1.838 9.21 2.436.255-1.082.483-1.988.683-2.745.485-1.834 2.386-2.206 3.488-.662 1.406 1.969 2.804 4.019 3.716 6.27a2.53 2.53 0 01-.625 2.852c-1.77 1.663-3.897 2.941-5.998 4.143z" fill="url(#paint0_linear_5504_28923)"/></g><g filter="url(#filter1_iii_5504_28923)"><path d="M5.515 43.965c-1.87-.071-3.17-1.397-3.286-3.266C2.109 38.754 2 35.59 2 30.5s.108-8.254.229-10.2c.115-1.868 1.415-3.194 3.286-3.265A52.267 52.267 0 017.5 17c.766 0 1.424.013 1.985.035 1.87.071 3.17 1.397 3.286 3.266.12 1.945.229 5.11.229 10.199 0 5.09-.108 8.254-.229 10.2-.115 1.868-1.415 3.194-3.286 3.265-.561.022-1.219.035-1.985.035s-1.424-.013-1.985-.035z" fill="#D0E2F3"/></g><g filter="url(#filter2_iii_5504_28923)"><path d="M35.984 43.974c-1.559-.036-2.745-.957-2.87-2.51A44.042 44.042 0 0133 38c0-1.5.048-2.624.115-3.463.124-1.554 1.31-2.474 2.87-2.51C36.65 32.01 37.477 32 38.5 32s1.85.01 2.516.026c1.559.036 2.745.957 2.87 2.51.066.84.114 1.964.114 3.464s-.048 2.624-.115 3.463c-.124 1.554-1.31 2.474-2.87 2.51-.665.016-1.493.027-2.515.027s-1.85-.01-2.516-.026z" fill="#D0E2F3"/></g><g filter="url(#filter3_iii_5504_28923)"><path d="M20.657 44.05c-1.79-.055-3.095-1.23-3.223-3.016-.101-1.403-.182-3.48-.182-6.535s.08-5.132.182-6.536c.128-1.786 1.433-2.96 3.223-3.015a77.71 77.71 0 012.345-.033c.927 0 1.702.013 2.345.033 1.79.054 3.095 1.229 3.223 3.015.101 1.404.182 3.481.182 6.536 0 3.054-.08 5.132-.182 6.535-.128 1.787-1.433 2.961-3.223 3.016-.643.02-1.418.032-2.345.032a77.71 77.71 0 01-2.345-.032z" fill="#D0E2F3"/></g><defs><filter id="filter0_i_5504_28923" x="7.914" y="1.934" width="35.513" height="28.992" filterUnits="userSpaceOnUse" color-interpolation-filters="sRGB"><feFlood flood-opacity="0" result="BackgroundImageFix"/><feBlend in="SourceGraphic" in2="BackgroundImageFix" result="shape"/><feColorMatrix in="SourceAlpha" values="0 0 0 0 0 0 0 0 0 0 0 0 0 0 0 0 0 0 127 0" result="hardAlpha"/><feOffset dx="1.353" dy="1.353"/><feGaussianBlur stdDeviation=".676"/><feComposite in2="hardAlpha" operator="arithmetic" k2="-1" k3="1"/><feColorMatrix values="0 0 0 0 0 0 0 0 0 0.37028 0 0 0 0 0.74056 0 0 0 0.5 0"/><feBlend mode="multiply" in2="shape" result="effect1_innerShadow_5504_28923"/></filter><filter id="filter1_iii_5504_28923" x="1" y="15" width="13" height="30" filterUnits="userSpaceOnUse" color-interpolation-filters="sRGB"><feFlood flood-opacity="0" result="BackgroundImageFix"/><feBlend in="SourceGraphic" in2="BackgroundImageFix" result="shape"/><feColorMatrix in="SourceAlpha" values="0 0 0 0 0 0 0 0 0 0 0 0 0 0 0 0 0 0 127 0" result="hardAlpha"/><feOffset dx="1" dy="1"/><feGaussianBlur stdDeviation="1"/><feComposite in2="hardAlpha" operator="arithmetic" k2="-1" k3="1"/><feColorMatrix values="0 0 0 0 0.534167 0 0 0 0 0.645967 0 0 0 0 0.749167 0 0 0 0.6 0"/><feBlend in2="shape" result="effect1_innerShadow_5504_28923"/><feColorMatrix in="SourceAlpha" values="0 0 0 0 0 0 0 0 0 0 0 0 0 0 0 0 0 0 127 0" result="hardAlpha"/><feOffset dx="-1" dy="-2"/><feGaussianBlur stdDeviation="1"/><feComposite in2="hardAlpha" operator="arithmetic" k2="-1" k3="1"/><feColorMatrix values="0 0 0 0 0.533333 0 0 0 0 0.647059 0 0 0 0 0.74902 0 0 0 0.3 0"/><feBlend in2="effect1_innerShadow_5504_28923" result="effect2_innerShadow_5504_28923"/><feColorMatrix in="SourceAlpha" values="0 0 0 0 0 0 0 0 0 0 0 0 0 0 0 0 0 0 127 0" result="hardAlpha"/><feOffset dx="-1" dy="-2"/><feGaussianBlur stdDeviation="1.5"/><feComposite in2="hardAlpha" operator="arithmetic" k2="-1" k3="1"/><feColorMatrix values="0 0 0 0 1 0 0 0 0 1 0 0 0 0 1 0 0 0 0.4 0"/><feBlend mode="screen" in2="effect2_innerShadow_5504_28923" result="effect3_innerShadow_5504_28923"/></filter><filter id="filter2_iii_5504_28923" x="32" y="30" width="13" height="15" filterUnits="userSpaceOnUse" color-interpolation-filters="sRGB"><feFlood flood-opacity="0" result="BackgroundImageFix"/><feBlend in="SourceGraphic" in2="BackgroundImageFix" result="shape"/><feColorMatrix in="SourceAlpha" values="0 0 0 0 0 0 0 0 0 0 0 0 0 0 0 0 0 0 127 0" result="hardAlpha"/><feOffset dx="1" dy="1"/><feGaussianBlur stdDeviation="1"/><feComposite in2="hardAlpha" operator="arithmetic" k2="-1" k3="1"/><feColorMatrix values="0 0 0 0 0.534167 0 0 0 0 0.645967 0 0 0 0 0.749167 0 0 0 0.6 0"/><feBlend in2="shape" result="effect1_innerShadow_5504_28923"/><feColorMatrix in="SourceAlpha" values="0 0 0 0 0 0 0 0 0 0 0 0 0 0 0 0 0 0 127 0" result="hardAlpha"/><feOffset dx="-1" dy="-2"/><feGaussianBlur stdDeviation="1"/><feComposite in2="hardAlpha" operator="arithmetic" k2="-1" k3="1"/><feColorMatrix values="0 0 0 0 0.533333 0 0 0 0 0.647059 0 0 0 0 0.74902 0 0 0 0.3 0"/><feBlend in2="effect1_innerShadow_5504_28923" result="effect2_innerShadow_5504_28923"/><feColorMatrix in="SourceAlpha" values="0 0 0 0 0 0 0 0 0 0 0 0 0 0 0 0 0 0 127 0" result="hardAlpha"/><feOffset dx="-1" dy="-2"/><feGaussianBlur stdDeviation="1.5"/><feComposite in2="hardAlpha" operator="arithmetic" k2="-1" k3="1"/><feColorMatrix values="0 0 0 0 1 0 0 0 0 1 0 0 0 0 1 0 0 0 0.4 0"/><feBlend mode="screen" in2="effect2_innerShadow_5504_28923" result="effect3_innerShadow_5504_28923"/></filter><filter id="filter3_iii_5504_28923" x="16.252" y="22.916" width="13.5" height="22.166" filterUnits="userSpaceOnUse" color-interpolation-filters="sRGB"><feFlood flood-opacity="0" result="BackgroundImageFix"/><feBlend in="SourceGraphic" in2="BackgroundImageFix" result="shape"/><feColorMatrix in="SourceAlpha" values="0 0 0 0 0 0 0 0 0 0 0 0 0 0 0 0 0 0 127 0" result="hardAlpha"/><feOffset dx="1" dy="1"/><feGaussianBlur stdDeviation="1"/><feComposite in2="hardAlpha" operator="arithmetic" k2="-1" k3="1"/><feColorMatrix values="0 0 0 0 0.534167 0 0 0 0 0.645967 0 0 0 0 0.749167 0 0 0 0.6 0"/><feBlend in2="shape" result="effect1_innerShadow_5504_28923"/><feColorMatrix in="SourceAlpha" values="0 0 0 0 0 0 0 0 0 0 0 0 0 0 0 0 0 0 127 0" result="hardAlpha"/><feOffset dx="-1" dy="-2"/><feGaussianBlur stdDeviation="1"/><feComposite in2="hardAlpha" operator="arithmetic" k2="-1" k3="1"/><feColorMatrix values="0 0 0 0 0.533333 0 0 0 0 0.647059 0 0 0 0 0.74902 0 0 0 0.3 0"/><feBlend in2="effect1_innerShadow_5504_28923" result="effect2_innerShadow_5504_28923"/><feColorMatrix in="SourceAlpha" values="0 0 0 0 0 0 0 0 0 0 0 0 0 0 0 0 0 0 127 0" result="hardAlpha"/><feOffset dx="-1" dy="-2"/><feGaussianBlur stdDeviation="1.5"/><feComposite in2="hardAlpha" operator="arithmetic" k2="-1" k3="1"/><feColorMatrix values="0 0 0 0 1 0 0 0 0 1 0 0 0 0 1 0 0 0 0.4 0"/><feBlend mode="screen" in2="effect2_innerShadow_5504_28923" result="effect3_innerShadow_5504_28923"/></filter><linearGradient id="paint0_linear_5504_28923" x1="24.495" y1="-5.535" x2="21.269" y2="33.136" gradientUnits="userSpaceOnUse"><stop stop-color="#0050EC"/><stop offset="1" stop-color="#39C7EC"/></linearGradient></defs></svg>