<svg width="46" height="46" fill="none" xmlns="http://www.w3.org/2000/svg"><g filter="url(#filter0_i_5504_28900)"><path fill-rule="evenodd" clip-rule="evenodd" d="M35.715 30.228a17.17 17.17 0 002.619-9.142c0-9.527-7.723-17.25-17.25-17.25-9.527 0-17.25 7.723-17.25 17.25 0 9.527 7.723 17.25 17.25 17.25 3.35 0 6.476-.955 9.122-2.607l.451.543c1.542 1.856 3.056 3.68 4.8 5.476 1.057 1.089 2.635 1.246 3.765.232.4-.36.868-.801 1.41-1.343a37.44 37.44 0 001.346-1.409c1.016-1.127.858-2.703-.233-3.758-1.799-1.74-3.625-3.252-5.485-4.791l-.545-.451z" fill="url(#paint0_linear_5504_28900)"/></g><g filter="url(#filter1_iii_5504_28900)"><circle cx="21.086" cy="21.082" r="11.5" fill="#D0E2F3"/></g><g filter="url(#filter2_i_5504_28900)"><path fill-rule="evenodd" clip-rule="evenodd" d="M28.189 17.33a1.917 1.917 0 010 2.712l-5.75 5.75a1.917 1.917 0 01-2.711 0l-3.436-3.437-5.833 5.832a1.917 1.917 0 01-2.71-2.71l7.187-7.188a1.917 1.917 0 012.711 0l3.436 3.437 4.395-4.395a1.917 1.917 0 012.71 0z" fill="url(#paint1_linear_5504_28900)"/></g><defs><filter id="filter0_i_5504_28900" x="3.834" y="3.836" width="40.177" height="40.177" filterUnits="userSpaceOnUse" color-interpolation-filters="sRGB"><feFlood flood-opacity="0" result="BackgroundImageFix"/><feBlend in="SourceGraphic" in2="BackgroundImageFix" result="shape"/><feColorMatrix in="SourceAlpha" values="0 0 0 0 0 0 0 0 0 0 0 0 0 0 0 0 0 0 127 0" result="hardAlpha"/><feOffset dx="1.353" dy="1.353"/><feGaussianBlur stdDeviation=".676"/><feComposite in2="hardAlpha" operator="arithmetic" k2="-1" k3="1"/><feColorMatrix values="0 0 0 0 0 0 0 0 0 0.37028 0 0 0 0 0.74056 0 0 0 0.5 0"/><feBlend mode="multiply" in2="shape" result="effect1_innerShadow_5504_28900"/></filter><filter id="filter1_iii_5504_28900" x="8.586" y="7.582" width="25" height="26" filterUnits="userSpaceOnUse" color-interpolation-filters="sRGB"><feFlood flood-opacity="0" result="BackgroundImageFix"/><feBlend in="SourceGraphic" in2="BackgroundImageFix" result="shape"/><feColorMatrix in="SourceAlpha" values="0 0 0 0 0 0 0 0 0 0 0 0 0 0 0 0 0 0 127 0" result="hardAlpha"/><feOffset dx="1" dy="1"/><feGaussianBlur stdDeviation="1"/><feComposite in2="hardAlpha" operator="arithmetic" k2="-1" k3="1"/><feColorMatrix values="0 0 0 0 0.534167 0 0 0 0 0.645967 0 0 0 0 0.749167 0 0 0 0.6 0"/><feBlend in2="shape" result="effect1_innerShadow_5504_28900"/><feColorMatrix in="SourceAlpha" values="0 0 0 0 0 0 0 0 0 0 0 0 0 0 0 0 0 0 127 0" result="hardAlpha"/><feOffset dx="-1" dy="-2"/><feGaussianBlur stdDeviation="1"/><feComposite in2="hardAlpha" operator="arithmetic" k2="-1" k3="1"/><feColorMatrix values="0 0 0 0 0.533333 0 0 0 0 0.647059 0 0 0 0 0.74902 0 0 0 0.3 0"/><feBlend in2="effect1_innerShadow_5504_28900" result="effect2_innerShadow_5504_28900"/><feColorMatrix in="SourceAlpha" values="0 0 0 0 0 0 0 0 0 0 0 0 0 0 0 0 0 0 127 0" result="hardAlpha"/><feOffset dx="-1" dy="-2"/><feGaussianBlur stdDeviation="1.5"/><feComposite in2="hardAlpha" operator="arithmetic" k2="-1" k3="1"/><feColorMatrix values="0 0 0 0 1 0 0 0 0 1 0 0 0 0 1 0 0 0 0.4 0"/><feBlend mode="screen" in2="effect2_innerShadow_5504_28900" result="effect3_innerShadow_5504_28900"/></filter><filter id="filter2_i_5504_28900" x="7.188" y="16.77" width="22.915" height="13.332" filterUnits="userSpaceOnUse" color-interpolation-filters="sRGB"><feFlood flood-opacity="0" result="BackgroundImageFix"/><feBlend in="SourceGraphic" in2="BackgroundImageFix" result="shape"/><feColorMatrix in="SourceAlpha" values="0 0 0 0 0 0 0 0 0 0 0 0 0 0 0 0 0 0 127 0" result="hardAlpha"/><feOffset dx="1.353" dy="1.353"/><feGaussianBlur stdDeviation=".676"/><feComposite in2="hardAlpha" operator="arithmetic" k2="-1" k3="1"/><feColorMatrix values="0 0 0 0 0 0 0 0 0 0.37028 0 0 0 0 0.74056 0 0 0 0.5 0"/><feBlend mode="multiply" in2="shape" result="effect1_innerShadow_5504_28900"/></filter><linearGradient id="paint0_linear_5504_28900" x1="5.664" y1="3.836" x2="49.735" y2="21.791" gradientUnits="userSpaceOnUse"><stop stop-color="#0050EC"/><stop offset="1" stop-color="#39C7EC"/></linearGradient><linearGradient id="paint1_linear_5504_28900" x1="8.204" y1="16.77" x2="26.762" y2="30.379" gradientUnits="userSpaceOnUse"><stop stop-color="#0050EC"/><stop offset="1" stop-color="#39C7EC"/></linearGradient></defs></svg>