<svg width="46" height="46" fill="none" xmlns="http://www.w3.org/2000/svg"><g filter="url(#filter0_iii_5504_29059)"><path d="M4.375 37.678c.17 1.646 1.248 2.949 2.867 3.293 2.554.544 7.369 1.197 15.76 1.197 8.393 0 13.207-.653 15.762-1.197 1.618-.344 2.697-1.647 2.867-3.293.252-2.44.538-6.92.538-14.677 0-7.756-.286-12.237-.538-14.677-.17-1.645-1.25-2.948-2.867-3.292-2.555-.544-7.37-1.197-15.761-1.197-8.392 0-13.207.653-15.761 1.197-1.619.344-2.698 1.647-2.867 3.292-.252 2.44-.54 6.92-.54 14.677s.288 12.237.54 14.677z" fill="#D0E2F3"/></g><g filter="url(#filter1_i_5504_29059)"><path d="M23.005 19.552a3.7 3.7 0 00-2.613 1.063 3.576 3.576 0 000 5.127 3.716 3.716 0 002.613 1.063c.988 0 1.913-.379 2.614-1.063a3.575 3.575 0 000-5.127 3.671 3.671 0 00-1.198-.79 3.73 3.73 0 00-1.416-.273zm13.623 7.633l-2.161-1.812a11.432 11.432 0 000-3.74l2.16-1.812a1.018 1.018 0 00.307-1.14l-.029-.085a14.28 14.28 0 00-2.63-4.464l-.06-.068a1.08 1.08 0 00-1.16-.308l-2.682.937a11.594 11.594 0 00-3.29-1.864l-.52-2.751a1.033 1.033 0 00-.293-.547 1.066 1.066 0 00-.559-.286l-.089-.016a15.173 15.173 0 00-5.247 0l-.089.016a1.066 1.066 0 00-.558.286 1.03 1.03 0 00-.294.547l-.522 2.764a11.734 11.734 0 00-3.268 1.858l-2.703-.944a1.077 1.077 0 00-1.16.308l-.059.068a14.39 14.39 0 00-2.63 4.464l-.03.084c-.148.405-.026.859.308 1.14l2.187 1.832a11.236 11.236 0 000 3.695l-2.18 1.831a1.02 1.02 0 00-.307 1.14l.029.085a14.316 14.316 0 002.63 4.463l.06.068a1.07 1.07 0 001.159.308l2.703-.943a11.498 11.498 0 003.267 1.857l.522 2.765a1.043 1.043 0 00.853.833l.089.016c1.735.307 3.512.307 5.247 0l.089-.016a1.06 1.06 0 00.558-.286 1.03 1.03 0 00.294-.547l.52-2.752a11.666 11.666 0 003.29-1.863l2.683.936a1.077 1.077 0 001.16-.308l.059-.068a14.39 14.39 0 002.63-4.463l.03-.084c.142-.402.02-.852-.314-1.134zm-13.623 1.692c-3.208 0-5.808-2.551-5.808-5.698 0-3.148 2.6-5.698 5.808-5.698 3.209 0 5.809 2.55 5.809 5.697 0 3.148-2.6 5.698-5.809 5.698z" fill="url(#paint0_linear_5504_29059)"/></g><defs><filter id="filter0_iii_5504_29059" x="2.836" y="1.834" width="40.334" height="41.334" filterUnits="userSpaceOnUse" color-interpolation-filters="sRGB"><feFlood flood-opacity="0" result="BackgroundImageFix"/><feBlend in="SourceGraphic" in2="BackgroundImageFix" result="shape"/><feColorMatrix in="SourceAlpha" values="0 0 0 0 0 0 0 0 0 0 0 0 0 0 0 0 0 0 127 0" result="hardAlpha"/><feOffset dx="1" dy="1"/><feGaussianBlur stdDeviation="1"/><feComposite in2="hardAlpha" operator="arithmetic" k2="-1" k3="1"/><feColorMatrix values="0 0 0 0 0.534167 0 0 0 0 0.645967 0 0 0 0 0.749167 0 0 0 0.6 0"/><feBlend in2="shape" result="effect1_innerShadow_5504_29059"/><feColorMatrix in="SourceAlpha" values="0 0 0 0 0 0 0 0 0 0 0 0 0 0 0 0 0 0 127 0" result="hardAlpha"/><feOffset dx="-1" dy="-2"/><feGaussianBlur stdDeviation="1"/><feComposite in2="hardAlpha" operator="arithmetic" k2="-1" k3="1"/><feColorMatrix values="0 0 0 0 0.533333 0 0 0 0 0.647059 0 0 0 0 0.74902 0 0 0 0.3 0"/><feBlend in2="effect1_innerShadow_5504_29059" result="effect2_innerShadow_5504_29059"/><feColorMatrix in="SourceAlpha" values="0 0 0 0 0 0 0 0 0 0 0 0 0 0 0 0 0 0 127 0" result="hardAlpha"/><feOffset dx="-1" dy="-2"/><feGaussianBlur stdDeviation="1.5"/><feComposite in2="hardAlpha" operator="arithmetic" k2="-1" k3="1"/><feColorMatrix values="0 0 0 0 1 0 0 0 0 1 0 0 0 0 1 0 0 0 0.4 0"/><feBlend mode="screen" in2="effect2_innerShadow_5504_29059" result="effect3_innerShadow_5504_29059"/></filter><filter id="filter1_i_5504_29059" x="9" y="9" width="29.353" height="30.353" filterUnits="userSpaceOnUse" color-interpolation-filters="sRGB"><feFlood flood-opacity="0" result="BackgroundImageFix"/><feBlend in="SourceGraphic" in2="BackgroundImageFix" result="shape"/><feColorMatrix in="SourceAlpha" values="0 0 0 0 0 0 0 0 0 0 0 0 0 0 0 0 0 0 127 0" result="hardAlpha"/><feOffset dx="1.353" dy="1.353"/><feGaussianBlur stdDeviation="2.029"/><feComposite in2="hardAlpha" operator="arithmetic" k2="-1" k3="1"/><feColorMatrix values="0 0 0 0 0 0 0 0 0 0.37028 0 0 0 0 0.74056 0 0 0 0.4 0"/><feBlend mode="multiply" in2="shape" result="effect1_innerShadow_5504_29059"/></filter><linearGradient id="paint0_linear_5504_29059" x1="10.32" y1="9" x2="42.413" y2="21.624" gradientUnits="userSpaceOnUse"><stop stop-color="#39C7EC"/><stop offset="0" stop-color="#39C7EC"/><stop offset="1" stop-color="#0050EC"/></linearGradient></defs></svg>