<svg width="46" height="46" fill="none" xmlns="http://www.w3.org/2000/svg"><g filter="url(#filter0_iii_5504_28849)"><path d="M4.46 8.215c.184-1.58 1.142-2.882 2.693-3.226 2.421-.535 7.113-1.157 15.848-1.157 8.734 0 13.426.622 15.847 1.157 1.552.344 2.51 1.647 2.693 3.226.277 2.387.626 6.319.626 10.95 0 8.653-4.566 16.749-12.26 20.708-2.57 1.323-5.077 2.292-6.906 2.292-1.83 0-4.338-.97-6.908-2.292C8.4 35.913 3.834 27.818 3.834 19.165c0-4.631.35-8.563.627-10.95z" fill="#D0E2F3"/></g><g filter="url(#filter1_i_5504_28849)"><path fill-rule="evenodd" clip-rule="evenodd" d="M17.484 14.86a5.523 5.523 0 0111.036 0l.114 2.574.133.011c1.538.133 2.624 1.203 2.74 2.743.069.905.12 2.13.12 3.769 0 1.64-.051 2.864-.12 3.77-.116 1.539-1.202 2.609-2.74 2.742-1.242.107-3.082.196-5.765.196s-4.523-.089-5.765-.196c-1.538-.133-2.624-1.203-2.74-2.743-.07-.905-.12-2.13-.12-3.769 0-1.498.036-2.649.087-3.527.098-1.667 1.248-2.85 2.906-2.997l.114-2.573zm7.206.17l.1 2.233a105.803 105.803 0 00-3.576 0l.1-2.233a1.69 1.69 0 013.376 0zm.23 7.97c0 .783-.47 1.457-1.145 1.754l.135 1.2c.034.297-.015.62-.283.752a1.402 1.402 0 01-.624.127c-.277 0-.48-.056-.624-.127-.268-.131-.317-.455-.283-.752l.135-1.2A1.917 1.917 0 1124.919 23z" fill="url(#paint0_linear_5504_28849)"/></g><defs><filter id="filter0_iii_5504_28849" x="2.834" y="1.832" width="40.334" height="41.334" filterUnits="userSpaceOnUse" color-interpolation-filters="sRGB"><feFlood flood-opacity="0" result="BackgroundImageFix"/><feBlend in="SourceGraphic" in2="BackgroundImageFix" result="shape"/><feColorMatrix in="SourceAlpha" values="0 0 0 0 0 0 0 0 0 0 0 0 0 0 0 0 0 0 127 0" result="hardAlpha"/><feOffset dx="1" dy="1"/><feGaussianBlur stdDeviation="1"/><feComposite in2="hardAlpha" operator="arithmetic" k2="-1" k3="1"/><feColorMatrix values="0 0 0 0 0.534167 0 0 0 0 0.645967 0 0 0 0 0.749167 0 0 0 0.6 0"/><feBlend in2="shape" result="effect1_innerShadow_5504_28849"/><feColorMatrix in="SourceAlpha" values="0 0 0 0 0 0 0 0 0 0 0 0 0 0 0 0 0 0 127 0" result="hardAlpha"/><feOffset dx="-1" dy="-2"/><feGaussianBlur stdDeviation="1"/><feComposite in2="hardAlpha" operator="arithmetic" k2="-1" k3="1"/><feColorMatrix values="0 0 0 0 0.533333 0 0 0 0 0.647059 0 0 0 0 0.74902 0 0 0 0.3 0"/><feBlend in2="effect1_innerShadow_5504_28849" result="effect2_innerShadow_5504_28849"/><feColorMatrix in="SourceAlpha" values="0 0 0 0 0 0 0 0 0 0 0 0 0 0 0 0 0 0 127 0" result="hardAlpha"/><feOffset dx="-1" dy="-2"/><feGaussianBlur stdDeviation="1.5"/><feComposite in2="hardAlpha" operator="arithmetic" k2="-1" k3="1"/><feColorMatrix values="0 0 0 0 1 0 0 0 0 1 0 0 0 0 1 0 0 0 0.4 0"/><feBlend mode="screen" in2="effect2_innerShadow_5504_28849" result="effect3_innerShadow_5504_28849"/></filter><filter id="filter1_i_5504_28849" x="14.377" y="9.582" width="18.603" height="22.437" filterUnits="userSpaceOnUse" color-interpolation-filters="sRGB"><feFlood flood-opacity="0" result="BackgroundImageFix"/><feBlend in="SourceGraphic" in2="BackgroundImageFix" result="shape"/><feColorMatrix in="SourceAlpha" values="0 0 0 0 0 0 0 0 0 0 0 0 0 0 0 0 0 0 127 0" result="hardAlpha"/><feOffset dx="1.353" dy="1.353"/><feGaussianBlur stdDeviation=".676"/><feComposite in2="hardAlpha" operator="arithmetic" k2="-1" k3="1"/><feColorMatrix values="0 0 0 0 0 0 0 0 0 0.37028 0 0 0 0 0.74056 0 0 0 0.5 0"/><feBlend mode="multiply" in2="shape" result="effect1_innerShadow_5504_28849"/></filter><linearGradient id="paint0_linear_5504_28849" x1="15.19" y1="9.582" x2="35.738" y2="16.431" gradientUnits="userSpaceOnUse"><stop stop-color="#0050EC"/><stop offset="1" stop-color="#39C7EC"/></linearGradient></defs></svg>