<svg width="117" height="46" viewBox="0 0 117 46" fill="none" xmlns="http://www.w3.org/2000/svg">
<path d="M27.0646 0.585521V44.9674C27.0664 45.0687 27.0427 45.1687 26.9956 45.2576C26.9485 45.3465 26.8797 45.4212 26.7961 45.4743C26.7125 45.5274 26.6169 45.5571 26.5188 45.5604C26.4206 45.5637 26.3234 45.5406 26.2365 45.4933L18.1301 41.3046C18.0356 41.2568 17.956 41.1827 17.9002 41.0907C17.8444 40.9987 17.8146 40.8925 17.8143 40.784V4.77158C17.8146 4.66305 17.8444 4.55679 17.9002 4.46478C17.956 4.37278 18.0356 4.29869 18.1301 4.25088L26.234 0.0673947C26.3205 0.0203009 26.4173 -0.00282707 26.515 0.000275741C26.6127 0.00337855 26.708 0.0326058 26.7915 0.0850951C26.8749 0.137584 26.9438 0.211536 26.9912 0.299709C27.0386 0.387881 27.0631 0.487251 27.0621 0.588086L27.0646 0.585521ZM90.9264 16.4936V44.9726C90.9261 45.0721 90.9011 45.1698 90.8538 45.2566C90.8066 45.3433 90.7387 45.4162 90.6566 45.4683C90.5744 45.5205 90.4807 45.5501 90.3843 45.5545C90.288 45.5588 90.1921 45.5378 90.1059 45.4933L81.9895 41.3046C81.8955 41.2565 81.8164 41.1822 81.761 41.0903C81.7057 40.9983 81.6763 40.8922 81.6762 40.784V16.4936C81.6762 16.3391 81.7356 16.191 81.8415 16.0818C81.9473 15.9726 82.0909 15.9113 82.2406 15.9113H90.362C90.5117 15.9113 90.6553 15.9726 90.7611 16.0818C90.867 16.191 90.9264 16.3391 90.9264 16.4936ZM79.8186 43.9722L79.6595 44.0953C78.7247 44.8018 77.6656 45.3141 76.5412 45.6036C75.1751 45.9677 73.7462 46.0044 72.3642 45.7108C70.9822 45.4172 69.6836 44.8011 68.5682 43.9097C67.4527 43.0183 66.5499 41.8754 65.9289 40.5684C65.308 39.2614 64.9854 37.8251 64.9858 36.3696V16.5705C64.9858 16.4165 65.045 16.2688 65.1503 16.1597C65.2556 16.0506 65.3985 15.9889 65.5478 15.9883L70.7548 16.0755H73.6543C73.6865 16.0722 73.719 16.0722 73.7512 16.0755C73.8787 16.1021 73.9934 16.1733 74.0759 16.277C74.1583 16.3808 74.2035 16.5107 74.2038 16.6449V23.5267C74.2009 23.5634 74.2009 23.6003 74.2038 23.637V39.1475C74.2051 40.3206 74.6575 41.4452 75.4616 42.2747C76.2658 43.1041 77.356 43.5707 78.4933 43.5721H79.6147C79.651 43.5645 79.6885 43.5662 79.724 43.5769C79.7596 43.5876 79.792 43.607 79.8187 43.6335C79.8454 43.6599 79.8654 43.6927 79.8771 43.7289C79.8887 43.7651 79.8917 43.8037 79.8858 43.8414C79.8772 43.8905 79.8537 43.938 79.8186 43.9722ZM15.7777 19.5074C15.2717 19.2982 14.7314 19.1911 14.1863 19.1919H13.5398C12.9743 19.1919 12.4144 19.307 11.8921 19.5305C11.3699 19.754 10.8955 20.0816 10.4961 20.4945C10.0967 20.9074 9.78024 21.3975 9.56476 21.9367C9.34929 22.476 9.23904 23.0538 9.24035 23.637V39.1475C9.24364 40.3215 9.69807 41.4462 10.504 42.2751C11.3099 43.104 12.4016 43.5695 13.5398 43.5695H14.6612C14.6974 43.565 14.7342 43.5696 14.7683 43.5831C14.8024 43.5965 14.8327 43.6183 14.8568 43.6467C14.8808 43.675 14.8977 43.7089 14.9061 43.7456C14.9145 43.7822 14.9141 43.8204 14.9049 43.8568C14.8934 43.905 14.8672 43.9481 14.8303 43.9799L14.6737 44.103C13.2939 45.1354 11.6643 45.7541 9.96501 45.891C8.26569 46.0279 6.56276 45.6775 5.04439 44.8786C3.52602 44.0797 2.25131 42.8634 1.3611 41.364C0.470891 39.8647 -0.000157232 38.1406 3.93688e-08 36.3824V25.7788C3.93688e-08 20.5001 4.18999 16.0447 9.305 16.0729C10.5698 16.0813 11.8194 16.358 12.9761 16.8858C14.1328 17.4135 15.1719 18.181 16.0289 19.1406C16.0593 19.18 16.0765 19.2284 16.078 19.2787C16.0795 19.3291 16.0652 19.3785 16.0373 19.4198C16.0093 19.461 15.9692 19.4918 15.9229 19.5076C15.8765 19.5234 15.824 19.5233 15.7777 19.5074ZM116.996 35.9618C116.996 38.5781 116.308 40.7429 114.927 42.4563C114.721 42.7026 114.53 42.9308 114.288 43.1617C112.655 44.8033 110.558 45.6856 108.012 45.8549C108.005 45.859 107.997 45.8611 107.989 45.8611C107.98 45.8611 107.972 45.859 107.965 45.8549L107.726 45.8729H106.741C105.102 45.8151 103.471 45.6083 101.868 45.2547L101.639 45.2034C100.455 44.8877 99.2949 44.4839 98.1675 43.9953C97.7594 43.8106 97.4105 43.5099 97.1618 43.1284C96.913 42.7469 96.7746 42.3003 96.7626 41.8407L96.5388 36.3029C96.5371 36.2611 96.5437 36.2194 96.558 36.1802C96.5724 36.1411 96.5943 36.1053 96.6224 36.0751C96.6505 36.0449 96.6842 36.0209 96.7216 36.0045C96.7589 35.9881 96.7991 35.9797 96.8397 35.9797C97.0685 35.9797 97.2773 36.1131 97.3818 36.3209C98.5085 38.5489 99.9828 40.5706 101.746 42.305C103.238 43.767 104.794 44.634 106.421 44.9085C106.799 44.9726 107.182 45.0059 107.565 45.0033C107.756 45.0033 107.962 45.0033 108.136 44.9777H108.231C108.299 44.977 108.368 44.9701 108.435 44.9572C108.79 44.9264 109.144 44.8469 109.479 44.7263C109.623 44.6827 109.763 44.634 109.9 44.5724C110.006 44.5288 110.113 44.4827 110.213 44.4288C110.844 44.1013 111.401 43.6397 111.847 43.0745C111.936 42.9719 112.021 42.8642 112.095 42.7513C112.172 42.6333 112.252 42.5204 112.319 42.4076C112.568 41.8074 112.687 41.161 112.675 40.5095C112.707 39.8312 112.57 39.1558 112.278 38.5474C111.985 37.939 111.547 37.418 111.004 37.0339C109.535 36.0693 107.923 35.3597 106.232 34.9332C104.718 34.5268 103.234 34.0073 101.793 33.3788C101.055 33.0268 100.357 32.5934 99.7093 32.0861C99.5228 31.9476 99.3363 31.786 99.1498 31.6321C97.4663 30.1931 96.6233 27.9642 96.6233 24.94C96.6184 23.9654 96.7676 22.9958 97.066 22.0698C97.1058 21.9595 97.1455 21.8492 97.1928 21.7364C97.332 21.3619 97.4937 20.9977 97.6777 20.6411C97.6777 20.6206 97.6976 20.5975 97.71 20.5719C98.1153 19.8486 98.6126 19.1817 99.1846 18.5917C100.405 17.3385 101.966 16.4976 103.661 16.1806C104.486 16.0113 105.327 15.9293 106.167 15.9344C106.64 15.9344 107.134 15.96 107.624 16.0062C108.744 16.1193 109.851 16.3391 110.931 16.6628C112.329 17.0989 113.692 17.6529 115 18.3173C115.006 18.3207 115.011 18.3259 115.015 18.3322C115.018 18.3386 115.02 18.3458 115.019 18.3532L115.136 21.7415L115.226 24.4886C115.227 24.5288 115.221 24.5688 115.207 24.6062C115.193 24.6437 115.171 24.6778 115.144 24.7066C115.117 24.7354 115.084 24.7581 115.048 24.7736C115.012 24.789 114.974 24.7968 114.935 24.7964C114.831 24.7962 114.729 24.7673 114.639 24.7127C114.55 24.6582 114.476 24.5799 114.425 24.486C113.704 23.1471 112.883 21.8698 111.971 20.6642C111.558 20.1201 111.118 19.5995 110.65 19.1047L110.541 18.9944C109.131 17.5375 107.599 16.8116 105.946 16.8116C104.292 16.8116 103.007 17.2041 102.091 17.9915C101.651 18.3782 101.301 18.8631 101.068 19.4096C100.836 19.9562 100.726 20.55 100.749 21.1464C100.729 21.7576 100.869 22.363 101.156 22.8982C101.443 23.4334 101.865 23.8784 102.377 24.1859C103.628 24.9601 104.982 25.5416 106.396 25.9122L107.192 26.1353C108.343 26.4585 109.119 26.6894 109.531 26.8279C110.029 26.992 110.65 27.2178 111.389 27.5102C112.023 27.7461 112.632 28.0539 113.204 28.4233C113.729 28.785 114.229 29.1877 114.696 29.6288C115.194 30.0828 115.611 30.6266 115.922 31.2345C116.671 32.6889 117.041 34.3176 116.996 35.9643V35.9618ZM60.3681 31.2781V30.9447V30.5035V30.1854C60.3681 29.9597 60.3433 29.7289 60.3209 29.5032L60.296 29.2518L60.2737 29.0594C60.2728 28.9346 60.2561 28.8104 60.2239 28.6901C60.2239 28.5669 60.1891 28.4438 60.1667 28.3258C60.1419 28.2078 60.1394 28.1668 60.122 28.0847L60.0598 27.7564C59.9992 27.4616 59.9287 27.169 59.8484 26.8792L59.7539 26.5406L59.642 26.1918C59.6047 26.0789 59.5674 25.966 59.5252 25.8532C59.4458 25.6254 59.3612 25.3997 59.2715 25.176L59.1646 24.9144C59.108 24.7741 59.0441 24.6371 58.9731 24.504C58.906 24.3809 58.819 24.1654 58.7294 24.0064C58.502 23.5456 58.2479 23.0994 57.9685 22.67C57.8578 22.4973 57.7434 22.3271 57.6254 22.1596L57.4538 21.9185L57.3469 21.7749C57.0032 21.3137 56.6328 20.8742 56.2378 20.459L56.0215 20.2359C55.7682 19.9765 55.5044 19.7284 55.2307 19.492L55.1711 19.4382C55.013 19.3 54.8539 19.1632 54.6936 19.0278L54.4201 18.8123C54.1423 18.5993 53.8561 18.3982 53.5622 18.2095C53.4652 18.148 53.3658 18.0813 53.2663 18.0248L52.9679 17.8453C52.8676 17.7849 52.7656 17.7276 52.662 17.6734C52.5601 17.6221 52.4606 17.5632 52.3562 17.5093L52.0429 17.3503C51.9387 17.2965 51.8325 17.2469 51.7246 17.2015L51.4063 17.0578C51.1898 16.9646 50.9709 16.8774 50.7498 16.7962L50.4191 16.6757L50.0809 16.5654L49.7427 16.4628C49.5155 16.3967 49.2867 16.3368 49.0564 16.2832L48.7779 16.2217L48.3552 16.1396C48.1177 16.0945 47.8789 16.0577 47.639 16.0293L47.281 15.9831L46.7588 15.937H45.1623C42.8896 16.038 40.6713 16.6863 38.6848 17.83C36.6984 18.9736 34.999 20.5809 33.7226 22.5233C32.4461 24.4656 31.628 26.6891 31.3337 29.016C31.0394 31.3428 31.2771 33.7084 32.0277 35.9236C32.7783 38.1387 34.021 40.1419 35.6565 41.773C37.292 43.4041 39.2748 44.6177 41.4464 45.3169C43.6179 46.0161 45.918 46.1814 48.1625 45.7996C50.4071 45.4178 52.5339 44.4995 54.3729 43.1181L54.6041 42.9385C54.7906 42.7898 54.9771 42.6461 55.1512 42.4948C55.2109 42.4486 55.268 42.3999 55.3252 42.346L55.4695 42.2075L55.5142 42.169C56.5719 41.1913 57.4873 40.0614 58.2321 38.814C58.2396 38.7987 58.2446 38.7781 58.2321 38.7627C58.2266 38.7562 58.2198 38.751 58.2122 38.7474C58.2037 38.7434 58.1943 38.7416 58.1849 38.7422C58.1759 38.7436 58.1674 38.7471 58.16 38.7525L58.1103 38.791L57.6527 39.2219C56.7162 40.1914 55.5997 40.9562 54.3701 41.4705C53.1404 41.9849 51.8229 42.2381 50.4962 42.2152C48.9379 42.2165 47.4013 41.8377 46.012 41.1098C44.6226 40.3819 43.4198 39.3254 42.5016 38.0266C41.255 36.2802 40.584 34.1676 40.5869 31.9989V31.2807H60.3681V31.2781ZM45.5552 17.3092C46.8672 17.3119 48.1246 17.8514 49.0514 18.8094C49.9782 19.7673 50.4987 21.0653 50.4987 22.4187V30.6933H40.6018V22.4187C40.6025 21.0638 41.1246 19.7646 42.0534 18.8065C42.9822 17.8484 44.2417 17.3099 45.5552 17.3092Z" fill="#0056FE"/>
</svg>
