<svg width="90" height="24" viewBox="0 0 90 24" fill="none" xmlns="http://www.w3.org/2000/svg">
<path fill-rule="evenodd" clip-rule="evenodd" d="M0 0V22.4L22.4 0H0Z" fill="#92CFAE"/>
<path fill-rule="evenodd" clip-rule="evenodd" d="M1.60156 24.0006H24.0016V1.60059L1.60156 24.0006Z" fill="#2A8288"/>
<path fill-rule="evenodd" clip-rule="evenodd" d="M36.5813 11.4798C39.1857 11.4798 40.5703 10.2043 40.5703 7.82125V7.6866C40.5703 5.13572 39.1196 4.12879 36.5813 4.12879H33.8778V11.4798H36.5813ZM28.5703 0H36.7131C42.4493 0 45.7132 2.58445 45.7132 7.65343V7.7873C45.7132 12.8559 42.2517 15.2729 36.8777 15.2729H33.8778V24H28.5703V0Z" fill="black"/>
<path fill-rule="evenodd" clip-rule="evenodd" d="M56.2804 19.8712C58.8357 19.8712 60.1297 18.73 60.1297 16.548V16.4141C60.1297 14.2656 58.8357 13.0908 56.151 13.0908H53.1751V19.8712H56.2804ZM56.4745 24H48V0H63.073V4.22948H53.2077L53.1751 9.26413H56.6361C61.9732 9.26413 65.1429 11.6476 65.1429 16.4473V16.5819C65.1429 21.2809 62.1996 24 56.4745 24Z" fill="black"/>
<path fill-rule="evenodd" clip-rule="evenodd" d="M69 0.0335174H74.5729V10.3576L83.1729 0H89.0898L79.3545 11.3632L89.5714 24H83.0696L74.5729 13.2401V24H69V0.0335174Z" fill="black"/>
</svg>
