<svg width="46" height="46" viewBox="0 0 46 46" fill="none" xmlns="http://www.w3.org/2000/svg">
<g filter="url(#filter0_iii_5504_29037)">
<path d="M31.5881 13.5434L28.6881 12.0136C26.1419 10.6717 24.8688 10 23.5 10C22.1312 10 20.8581 10.6702 18.3119 12.0136L17.8465 12.2598L30.7848 19.689L36.608 16.7605C35.6713 15.6939 34.1604 14.897 31.5881 13.5405M37.6346 18.6895L31.8375 21.6035V26.0269C31.8375 26.3167 31.7229 26.5947 31.519 26.7996C31.315 27.0045 31.0384 27.1197 30.75 27.1197C30.4616 27.1197 30.185 27.0045 29.981 26.7996C29.7771 26.5947 29.6625 26.3167 29.6625 26.0269V22.6962L24.5875 25.246V39C25.6286 38.7392 26.8133 38.1156 28.6881 37.1263L31.5881 35.5965C34.7071 33.9515 36.2673 33.1298 37.1343 31.6509C38 30.1735 38 28.3334 38 24.6574V24.4869C38 21.7288 38 20.0037 37.6346 18.6895ZM22.4125 39V25.246L9.3654 18.6895C9 20.0037 9 21.7288 9 24.484V24.6544C9 28.3334 9 30.1735 9.86565 31.6509C10.7327 33.1298 12.293 33.953 15.4119 35.5979L18.3119 37.1263C20.1868 38.1156 21.3714 38.7392 22.4125 39ZM10.392 16.7619L23.5 23.3475L28.446 20.8633L15.5613 13.4647L15.4119 13.5434C12.8411 14.8984 11.3287 15.6954 10.392 16.7634" fill="#D0E2F3"/>
</g>
<g filter="url(#filter1_i_5504_29037)">
<path d="M36.0031 30.1854C35.4386 30.1854 34.9099 30.4058 34.5097 30.8086C34.1113 31.2114 33.8904 31.7434 33.8904 32.3115C33.8904 32.8796 34.1113 33.4116 34.5097 33.8144C34.9099 34.2153 35.4386 34.4376 36.0031 34.4376C36.5676 34.4376 37.0962 34.2153 37.4965 33.8144C37.8948 33.4116 38.1157 32.8796 38.1157 32.3115C38.1157 31.7434 37.8948 31.2114 37.4965 30.8086C37.301 30.6104 37.0683 30.4532 36.8119 30.3462C36.5555 30.2392 36.2806 30.1846 36.0031 30.1854ZM43.7873 34.6599L42.5525 33.5978C42.6111 33.2368 42.6413 32.8682 42.6413 32.5015C42.6413 32.1348 42.6111 31.7643 42.5525 31.4052L43.7873 30.3431C43.8806 30.2628 43.9473 30.1558 43.9787 30.0363C44.0101 29.9168 44.0045 29.7906 43.9629 29.6743L43.9459 29.6249C43.6061 28.6687 43.0969 27.7822 42.443 27.0086L42.4091 26.9687C42.3297 26.8748 42.2238 26.8073 42.1055 26.775C41.9872 26.7428 41.862 26.7474 41.7464 26.7882L40.2133 27.3373C39.6469 26.8699 39.0163 26.5013 38.3329 26.2448L38.0364 24.6317C38.0141 24.5102 37.9555 24.3984 37.8685 24.3112C37.7815 24.224 37.6702 24.1655 37.5493 24.1434L37.4984 24.1339C36.5166 23.9554 35.482 23.9554 34.5002 24.1339L34.4492 24.1434C34.3284 24.1655 34.2171 24.224 34.1301 24.3112C34.0431 24.3984 33.9845 24.5102 33.9621 24.6317L33.6638 26.2524C32.9869 26.511 32.3562 26.8787 31.7966 27.3411L30.2522 26.7882C30.1366 26.7471 30.0113 26.7423 29.8929 26.7746C29.7746 26.8068 29.6687 26.8745 29.5895 26.9687L29.5555 27.0086C28.9028 27.7831 28.3938 28.6693 28.0527 29.6249L28.0357 29.6743C27.9507 29.9118 28.0206 30.1778 28.2113 30.3431L29.4611 31.4166C29.4026 31.7738 29.3743 32.1386 29.3743 32.4996C29.3743 32.8644 29.4026 33.2292 29.4611 33.5826L28.2151 34.6561C28.1218 34.7365 28.055 34.8435 28.0237 34.963C27.9923 35.0825 27.9978 35.2087 28.0395 35.3249L28.0565 35.3743C28.3982 36.33 28.9023 37.2135 29.5593 37.9906L29.5933 38.0305C29.6727 38.1245 29.7785 38.192 29.8968 38.2242C30.0151 38.2565 30.1403 38.2519 30.256 38.211L31.8004 37.6581C32.363 38.1236 32.9898 38.4922 33.6676 38.7468L33.9659 40.3675C33.9883 40.489 34.0469 40.6008 34.1339 40.6881C34.2209 40.7753 34.3322 40.8338 34.453 40.8558L34.504 40.8653C35.4954 41.0449 36.5107 41.0449 37.5021 40.8653L37.5531 40.8558C37.674 40.8338 37.7853 40.7753 37.8723 40.6881C37.9593 40.6008 38.0179 40.489 38.0402 40.3675L38.3366 38.7544C39.0201 38.496 39.6507 38.1293 40.2171 37.6619L41.7501 38.211C41.8658 38.2522 41.9911 38.257 42.1094 38.2247C42.2278 38.1925 42.3336 38.1247 42.4128 38.0305L42.4468 37.9906C43.1038 37.2097 43.6079 36.33 43.9497 35.3743L43.9667 35.3249C44.0478 35.0893 43.978 34.8252 43.7873 34.6599ZM36.0031 35.6517C34.1698 35.6517 32.684 34.1564 32.684 32.3115C32.684 30.4666 34.1698 28.9713 36.0031 28.9713C37.8363 28.9713 39.3222 30.4666 39.3222 32.3115C39.3222 34.1564 37.8363 35.6517 36.0031 35.6517Z" fill="url(#paint0_linear_5504_29037)"/>
</g>
<g filter="url(#filter2_i_5504_29037)">
<path fill-rule="evenodd" clip-rule="evenodd" d="M6.32246 14.553H8.25837C9.08258 14.553 9.55292 15.4941 9.05816 16.1533L5.42988 20.9874C5.02987 21.5204 4.23032 21.5204 3.83031 20.9874L0.20203 16.1533C-0.29273 15.4941 0.177608 14.553 1.00182 14.553H3.39488C4.57798 7.58749 10.8806 2.52553 18.075 3.03535C18.8669 3.09146 19.4634 3.77894 19.4073 4.57086C19.3511 5.36278 18.6637 5.95927 17.8717 5.90315C12.3342 5.51074 7.46274 9.28048 6.32246 14.553Z" fill="url(#paint1_linear_5504_29037)"/>
</g>
<defs>
<filter id="filter0_iii_5504_29037" x="8" y="8" width="31" height="32" filterUnits="userSpaceOnUse" color-interpolation-filters="sRGB">
<feFlood flood-opacity="0" result="BackgroundImageFix"/>
<feBlend mode="normal" in="SourceGraphic" in2="BackgroundImageFix" result="shape"/>
<feColorMatrix in="SourceAlpha" type="matrix" values="0 0 0 0 0 0 0 0 0 0 0 0 0 0 0 0 0 0 127 0" result="hardAlpha"/>
<feOffset dx="1" dy="1"/>
<feGaussianBlur stdDeviation="1"/>
<feComposite in2="hardAlpha" operator="arithmetic" k2="-1" k3="1"/>
<feColorMatrix type="matrix" values="0 0 0 0 0.534167 0 0 0 0 0.645967 0 0 0 0 0.749167 0 0 0 0.6 0"/>
<feBlend mode="normal" in2="shape" result="effect1_innerShadow_5504_29037"/>
<feColorMatrix in="SourceAlpha" type="matrix" values="0 0 0 0 0 0 0 0 0 0 0 0 0 0 0 0 0 0 127 0" result="hardAlpha"/>
<feOffset dx="-1" dy="-2"/>
<feGaussianBlur stdDeviation="1"/>
<feComposite in2="hardAlpha" operator="arithmetic" k2="-1" k3="1"/>
<feColorMatrix type="matrix" values="0 0 0 0 0.533333 0 0 0 0 0.647059 0 0 0 0 0.74902 0 0 0 0.3 0"/>
<feBlend mode="normal" in2="effect1_innerShadow_5504_29037" result="effect2_innerShadow_5504_29037"/>
<feColorMatrix in="SourceAlpha" type="matrix" values="0 0 0 0 0 0 0 0 0 0 0 0 0 0 0 0 0 0 127 0" result="hardAlpha"/>
<feOffset dx="-1" dy="-2"/>
<feGaussianBlur stdDeviation="1.5"/>
<feComposite in2="hardAlpha" operator="arithmetic" k2="-1" k3="1"/>
<feColorMatrix type="matrix" values="0 0 0 0 1 0 0 0 0 1 0 0 0 0 1 0 0 0 0.4 0"/>
<feBlend mode="screen" in2="effect2_innerShadow_5504_29037" result="effect3_innerShadow_5504_29037"/>
</filter>
<filter id="filter1_i_5504_29037" x="28" y="24" width="17.3529" height="18.3529" filterUnits="userSpaceOnUse" color-interpolation-filters="sRGB">
<feFlood flood-opacity="0" result="BackgroundImageFix"/>
<feBlend mode="normal" in="SourceGraphic" in2="BackgroundImageFix" result="shape"/>
<feColorMatrix in="SourceAlpha" type="matrix" values="0 0 0 0 0 0 0 0 0 0 0 0 0 0 0 0 0 0 127 0" result="hardAlpha"/>
<feOffset dx="1.35294" dy="1.35294"/>
<feGaussianBlur stdDeviation="2.02941"/>
<feComposite in2="hardAlpha" operator="arithmetic" k2="-1" k3="1"/>
<feColorMatrix type="matrix" values="0 0 0 0 0 0 0 0 0 0.37028 0 0 0 0 0.74056 0 0 0 0.4 0"/>
<feBlend mode="multiply" in2="shape" result="effect1_innerShadow_5504_29037"/>
</filter>
<filter id="filter2_i_5504_29037" x="0" y="3" width="20.7631" height="19.7397" filterUnits="userSpaceOnUse" color-interpolation-filters="sRGB">
<feFlood flood-opacity="0" result="BackgroundImageFix"/>
<feBlend mode="normal" in="SourceGraphic" in2="BackgroundImageFix" result="shape"/>
<feColorMatrix in="SourceAlpha" type="matrix" values="0 0 0 0 0 0 0 0 0 0 0 0 0 0 0 0 0 0 127 0" result="hardAlpha"/>
<feOffset dx="1.35294" dy="1.35294"/>
<feGaussianBlur stdDeviation="2.02941"/>
<feComposite in2="hardAlpha" operator="arithmetic" k2="-1" k3="1"/>
<feColorMatrix type="matrix" values="0 0 0 0 0 0 0 0 0 0.37028 0 0 0 0 0.74056 0 0 0 0.4 0"/>
<feBlend mode="multiply" in2="shape" result="effect1_innerShadow_5504_29037"/>
</filter>
<linearGradient id="paint0_linear_5504_29037" x1="28.7542" y1="24" x2="47.2165" y2="31.0793" gradientUnits="userSpaceOnUse">
<stop stop-color="#39C7EC"/>
<stop offset="0.0001" stop-color="#39C7EC"/>
<stop offset="1" stop-color="#0050EC"/>
</linearGradient>
<linearGradient id="paint1_linear_5504_29037" x1="0.914942" y1="3" x2="22.5959" y2="12.3247" gradientUnits="userSpaceOnUse">
<stop stop-color="#39C7EC"/>
<stop offset="0.0001" stop-color="#39C7EC"/>
<stop offset="1" stop-color="#0050EC"/>
</linearGradient>
</defs>
</svg>
