<svg width="46" height="46" viewBox="0 0 46 46" fill="none" xmlns="http://www.w3.org/2000/svg">
<g filter="url(#filter0_iii_5504_28978)">
<circle cx="23" cy="23" r="20.125" fill="#D0E2F3"/>
</g>
<g filter="url(#filter1_i_5504_28978)">
<path d="M17.25 42.2924V37.8005C17.25 36.2746 16.3167 34.932 15.0447 34.0891C11.175 31.5248 8.625 27.1431 8.625 22.1685C8.625 16.9954 11.3825 12.4635 15.5141 9.94978C16.6601 9.25252 17.9974 10.1798 17.9953 11.5213C17.9905 14.5848 18.0332 17.6792 18.1713 20.084C18.1933 20.4672 18.3327 20.833 18.5938 21.1143C19.2239 21.7928 20.5876 23.0912 22.4041 23.8524C22.7849 24.012 23.2143 24.012 23.5952 23.8524C25.3651 23.1107 26.7052 21.859 27.3555 21.1676C27.6488 20.8559 27.7913 20.439 27.7913 20.011V11.379C27.7913 10.0574 29.1022 9.14135 30.2445 9.80609C34.5097 12.2883 37.375 16.8953 37.375 22.1685C37.375 27.1431 34.825 31.5248 30.9553 34.0891C29.6833 34.932 28.75 36.2746 28.75 37.8005V42.2924C26.9281 42.8346 24.998 43.1258 23 43.1258C21.002 43.1258 19.0719 42.8346 17.25 42.2924Z" fill="url(#paint0_linear_5504_28978)"/>
</g>
<defs>
<filter id="filter0_iii_5504_28978" x="1.875" y="0.875" width="42.25" height="43.25" filterUnits="userSpaceOnUse" color-interpolation-filters="sRGB">
<feFlood flood-opacity="0" result="BackgroundImageFix"/>
<feBlend mode="normal" in="SourceGraphic" in2="BackgroundImageFix" result="shape"/>
<feColorMatrix in="SourceAlpha" type="matrix" values="0 0 0 0 0 0 0 0 0 0 0 0 0 0 0 0 0 0 127 0" result="hardAlpha"/>
<feOffset dx="1" dy="1"/>
<feGaussianBlur stdDeviation="1"/>
<feComposite in2="hardAlpha" operator="arithmetic" k2="-1" k3="1"/>
<feColorMatrix type="matrix" values="0 0 0 0 0.534167 0 0 0 0 0.645967 0 0 0 0 0.749167 0 0 0 0.6 0"/>
<feBlend mode="normal" in2="shape" result="effect1_innerShadow_5504_28978"/>
<feColorMatrix in="SourceAlpha" type="matrix" values="0 0 0 0 0 0 0 0 0 0 0 0 0 0 0 0 0 0 127 0" result="hardAlpha"/>
<feOffset dx="-1" dy="-2"/>
<feGaussianBlur stdDeviation="1"/>
<feComposite in2="hardAlpha" operator="arithmetic" k2="-1" k3="1"/>
<feColorMatrix type="matrix" values="0 0 0 0 0.533333 0 0 0 0 0.647059 0 0 0 0 0.74902 0 0 0 0.3 0"/>
<feBlend mode="normal" in2="effect1_innerShadow_5504_28978" result="effect2_innerShadow_5504_28978"/>
<feColorMatrix in="SourceAlpha" type="matrix" values="0 0 0 0 0 0 0 0 0 0 0 0 0 0 0 0 0 0 127 0" result="hardAlpha"/>
<feOffset dx="-1" dy="-2"/>
<feGaussianBlur stdDeviation="1.5"/>
<feComposite in2="hardAlpha" operator="arithmetic" k2="-1" k3="1"/>
<feColorMatrix type="matrix" values="0 0 0 0 1 0 0 0 0 1 0 0 0 0 1 0 0 0 0.4 0"/>
<feBlend mode="screen" in2="effect2_innerShadow_5504_28978" result="effect3_innerShadow_5504_28978"/>
</filter>
<filter id="filter1_i_5504_28978" x="8.625" y="9.58398" width="30.1029" height="34.894" filterUnits="userSpaceOnUse" color-interpolation-filters="sRGB">
<feFlood flood-opacity="0" result="BackgroundImageFix"/>
<feBlend mode="normal" in="SourceGraphic" in2="BackgroundImageFix" result="shape"/>
<feColorMatrix in="SourceAlpha" type="matrix" values="0 0 0 0 0 0 0 0 0 0 0 0 0 0 0 0 0 0 127 0" result="hardAlpha"/>
<feOffset dx="1.35294" dy="1.35294"/>
<feGaussianBlur stdDeviation="0.676471"/>
<feComposite in2="hardAlpha" operator="arithmetic" k2="-1" k3="1"/>
<feColorMatrix type="matrix" values="0 0 0 0 0 0 0 0 0 0.37028 0 0 0 0 0.74056 0 0 0 0.5 0"/>
<feBlend mode="multiply" in2="shape" result="effect1_innerShadow_5504_28978"/>
</filter>
<linearGradient id="paint0_linear_5504_28978" x1="9.98014" y1="9.58398" x2="43.8964" y2="21.4277" gradientUnits="userSpaceOnUse">
<stop stop-color="#0050EC"/>
<stop offset="1" stop-color="#39C7EC"/>
</linearGradient>
</defs>
</svg>
