<svg width="46" height="46" viewBox="0 0 46 46" fill="none" xmlns="http://www.w3.org/2000/svg">
<g filter="url(#filter0_i_5504_28900)">
<path fill-rule="evenodd" clip-rule="evenodd" d="M35.7151 30.2278C37.3746 27.5774 38.334 24.4437 38.334 21.0859C38.334 11.559 30.6109 3.83594 21.084 3.83594C11.5571 3.83594 3.83398 11.559 3.83398 21.0859C3.83398 30.6129 11.5571 38.3359 21.084 38.3359C24.4336 38.3359 27.5602 37.3812 30.2065 35.7291C30.3571 35.9103 30.5073 36.0911 30.6572 36.2716C32.1986 38.1281 33.7129 39.9519 35.4564 41.7477C36.5139 42.8369 38.0923 42.9944 39.2217 41.9797C39.6218 41.6202 40.0899 41.1785 40.6325 40.6368C41.1751 40.0951 41.6176 39.6278 41.9777 39.2284C42.9942 38.101 42.8364 36.5253 41.7453 35.4697C39.9464 33.7292 38.1195 32.2175 36.2598 30.6787C36.0785 30.5288 35.8969 30.3785 35.7151 30.2278Z" fill="url(#paint0_linear_5504_28900)"/>
</g>
<g filter="url(#filter1_iii_5504_28900)">
<circle cx="21.0859" cy="21.082" r="11.5" fill="#D0E2F3"/>
</g>
<g filter="url(#filter2_i_5504_28900)">
<path fill-rule="evenodd" clip-rule="evenodd" d="M28.1886 17.3309C28.9371 18.0794 28.9371 19.293 28.1886 20.0415L22.4386 25.7915C21.6901 26.54 20.4765 26.54 19.728 25.7915L16.2917 22.3551L10.4595 28.1873C9.71095 28.9358 8.49738 28.9358 7.74888 28.1873C7.00037 27.4388 7.00037 26.2252 7.74888 25.4767L14.9364 18.2892C15.6849 17.5407 16.8984 17.5407 17.647 18.2892L21.0833 21.7256L25.478 17.3309C26.2265 16.5824 27.4401 16.5824 28.1886 17.3309Z" fill="url(#paint1_linear_5504_28900)"/>
</g>
<defs>
<filter id="filter0_i_5504_28900" x="3.83398" y="3.83594" width="40.1772" height="40.1772" filterUnits="userSpaceOnUse" color-interpolation-filters="sRGB">
<feFlood flood-opacity="0" result="BackgroundImageFix"/>
<feBlend mode="normal" in="SourceGraphic" in2="BackgroundImageFix" result="shape"/>
<feColorMatrix in="SourceAlpha" type="matrix" values="0 0 0 0 0 0 0 0 0 0 0 0 0 0 0 0 0 0 127 0" result="hardAlpha"/>
<feOffset dx="1.35294" dy="1.35294"/>
<feGaussianBlur stdDeviation="0.676471"/>
<feComposite in2="hardAlpha" operator="arithmetic" k2="-1" k3="1"/>
<feColorMatrix type="matrix" values="0 0 0 0 0 0 0 0 0 0.37028 0 0 0 0 0.74056 0 0 0 0.5 0"/>
<feBlend mode="multiply" in2="shape" result="effect1_innerShadow_5504_28900"/>
</filter>
<filter id="filter1_iii_5504_28900" x="8.58594" y="7.58203" width="25" height="26" filterUnits="userSpaceOnUse" color-interpolation-filters="sRGB">
<feFlood flood-opacity="0" result="BackgroundImageFix"/>
<feBlend mode="normal" in="SourceGraphic" in2="BackgroundImageFix" result="shape"/>
<feColorMatrix in="SourceAlpha" type="matrix" values="0 0 0 0 0 0 0 0 0 0 0 0 0 0 0 0 0 0 127 0" result="hardAlpha"/>
<feOffset dx="1" dy="1"/>
<feGaussianBlur stdDeviation="1"/>
<feComposite in2="hardAlpha" operator="arithmetic" k2="-1" k3="1"/>
<feColorMatrix type="matrix" values="0 0 0 0 0.534167 0 0 0 0 0.645967 0 0 0 0 0.749167 0 0 0 0.6 0"/>
<feBlend mode="normal" in2="shape" result="effect1_innerShadow_5504_28900"/>
<feColorMatrix in="SourceAlpha" type="matrix" values="0 0 0 0 0 0 0 0 0 0 0 0 0 0 0 0 0 0 127 0" result="hardAlpha"/>
<feOffset dx="-1" dy="-2"/>
<feGaussianBlur stdDeviation="1"/>
<feComposite in2="hardAlpha" operator="arithmetic" k2="-1" k3="1"/>
<feColorMatrix type="matrix" values="0 0 0 0 0.533333 0 0 0 0 0.647059 0 0 0 0 0.74902 0 0 0 0.3 0"/>
<feBlend mode="normal" in2="effect1_innerShadow_5504_28900" result="effect2_innerShadow_5504_28900"/>
<feColorMatrix in="SourceAlpha" type="matrix" values="0 0 0 0 0 0 0 0 0 0 0 0 0 0 0 0 0 0 127 0" result="hardAlpha"/>
<feOffset dx="-1" dy="-2"/>
<feGaussianBlur stdDeviation="1.5"/>
<feComposite in2="hardAlpha" operator="arithmetic" k2="-1" k3="1"/>
<feColorMatrix type="matrix" values="0 0 0 0 1 0 0 0 0 1 0 0 0 0 1 0 0 0 0.4 0"/>
<feBlend mode="screen" in2="effect2_innerShadow_5504_28900" result="effect3_innerShadow_5504_28900"/>
</filter>
<filter id="filter2_i_5504_28900" x="7.1875" y="16.7695" width="22.9154" height="13.3315" filterUnits="userSpaceOnUse" color-interpolation-filters="sRGB">
<feFlood flood-opacity="0" result="BackgroundImageFix"/>
<feBlend mode="normal" in="SourceGraphic" in2="BackgroundImageFix" result="shape"/>
<feColorMatrix in="SourceAlpha" type="matrix" values="0 0 0 0 0 0 0 0 0 0 0 0 0 0 0 0 0 0 127 0" result="hardAlpha"/>
<feOffset dx="1.35294" dy="1.35294"/>
<feGaussianBlur stdDeviation="0.676471"/>
<feComposite in2="hardAlpha" operator="arithmetic" k2="-1" k3="1"/>
<feColorMatrix type="matrix" values="0 0 0 0 0 0 0 0 0 0.37028 0 0 0 0 0.74056 0 0 0 0.5 0"/>
<feBlend mode="multiply" in2="shape" result="effect1_innerShadow_5504_28900"/>
</filter>
<linearGradient id="paint0_linear_5504_28900" x1="5.664" y1="3.83593" x2="49.7351" y2="21.7914" gradientUnits="userSpaceOnUse">
<stop stop-color="#0050EC"/>
<stop offset="1" stop-color="#39C7EC"/>
</linearGradient>
<linearGradient id="paint1_linear_5504_28900" x1="8.20386" y1="16.7695" x2="26.7625" y2="30.3792" gradientUnits="userSpaceOnUse">
<stop stop-color="#0050EC"/>
<stop offset="1" stop-color="#39C7EC"/>
</linearGradient>
</defs>
</svg>
