<svg width="34" height="34" viewBox="0 0 34 34" fill="none" xmlns="http://www.w3.org/2000/svg">
<g filter="url(#filter0_iii_5504_29078)">
<path d="M11.7864 3.04452C11.7864 3.04452 10.0726 3.7 6.92261 6.85C3.78415 9.98846 3.12599 11.7052 3.12121 11.7178C3.04472 13.2133 2.99726 14.9623 2.99726 17C2.99726 23.0799 3.41972 26.5892 3.7754 28.4665C4.00389 29.6724 4.94489 30.499 6.16524 30.6307C7.81251 30.8084 10.7193 31 15.5973 31C20.4752 31 23.382 30.8084 25.0293 30.6307C26.2496 30.499 27.1906 29.6724 27.4191 28.4665C27.7748 26.5892 28.1973 23.0799 28.1973 17C28.1973 10.9201 27.7748 7.41077 27.4191 5.53354C27.1906 4.32757 26.2496 3.50099 25.0293 3.36931C23.382 3.19156 20.4752 3 15.5973 3C14.1625 3 12.8982 3.0166 11.7864 3.04452Z" fill="#D0E2F3"/>
</g>
<g filter="url(#filter1_i_5504_29078)">
<path d="M3.1216 11.7202C5.13728 12.2272 7.51716 12.2608 9.57271 11.6329C10.4417 11.3674 11.1194 10.6904 11.4127 9.83037C12.1433 7.68791 12.3238 5.06544 11.7868 3.04688C11.7868 3.04688 10.073 3.70236 6.92303 6.85236C3.77302 10.0024 3.1216 11.7202 3.1216 11.7202Z" fill="url(#paint0_linear_5504_29078)"/>
</g>
<g filter="url(#filter2_i_5504_29078)">
<path fill-rule="evenodd" clip-rule="evenodd" d="M30.5344 17.887C31.0043 18.2471 31.1412 18.936 30.8425 19.4669C28.5246 23.5859 26.4156 26.3266 25.1693 27.7936C24.499 28.5827 23.4211 28.6839 22.661 27.9954C21.5758 27.0125 19.981 25.3438 18.4547 22.9132C18.167 22.4551 18.2294 21.8444 18.5878 21.4483L19.5068 20.4328C19.9346 19.96 20.638 19.947 21.0695 20.4159C22.5891 22.0673 23.7677 23.5647 23.7677 23.5647C23.7677 23.5647 25.4995 20.7833 28.1889 17.4109C28.5606 16.9447 29.2019 16.8659 29.6668 17.2222L30.5344 17.887Z" fill="url(#paint1_linear_5504_29078)"/>
</g>
<defs>
<filter id="filter0_iii_5504_29078" x="1.99805" y="1" width="27.1992" height="31" filterUnits="userSpaceOnUse" color-interpolation-filters="sRGB">
<feFlood flood-opacity="0" result="BackgroundImageFix"/>
<feBlend mode="normal" in="SourceGraphic" in2="BackgroundImageFix" result="shape"/>
<feColorMatrix in="SourceAlpha" type="matrix" values="0 0 0 0 0 0 0 0 0 0 0 0 0 0 0 0 0 0 127 0" result="hardAlpha"/>
<feOffset dx="1" dy="1"/>
<feGaussianBlur stdDeviation="1"/>
<feComposite in2="hardAlpha" operator="arithmetic" k2="-1" k3="1"/>
<feColorMatrix type="matrix" values="0 0 0 0 0.534167 0 0 0 0 0.645967 0 0 0 0 0.749167 0 0 0 0.6 0"/>
<feBlend mode="normal" in2="shape" result="effect1_innerShadow_5504_29078"/>
<feColorMatrix in="SourceAlpha" type="matrix" values="0 0 0 0 0 0 0 0 0 0 0 0 0 0 0 0 0 0 127 0" result="hardAlpha"/>
<feOffset dx="-1" dy="-2"/>
<feGaussianBlur stdDeviation="1"/>
<feComposite in2="hardAlpha" operator="arithmetic" k2="-1" k3="1"/>
<feColorMatrix type="matrix" values="0 0 0 0 0.533333 0 0 0 0 0.647059 0 0 0 0 0.74902 0 0 0 0.3 0"/>
<feBlend mode="normal" in2="effect1_innerShadow_5504_29078" result="effect2_innerShadow_5504_29078"/>
<feColorMatrix in="SourceAlpha" type="matrix" values="0 0 0 0 0 0 0 0 0 0 0 0 0 0 0 0 0 0 127 0" result="hardAlpha"/>
<feOffset dx="-1" dy="-2"/>
<feGaussianBlur stdDeviation="1.5"/>
<feComposite in2="hardAlpha" operator="arithmetic" k2="-1" k3="1"/>
<feColorMatrix type="matrix" values="0 0 0 0 1 0 0 0 0 1 0 0 0 0 1 0 0 0 0.4 0"/>
<feBlend mode="screen" in2="effect2_innerShadow_5504_29078" result="effect3_innerShadow_5504_29078"/>
</filter>
<filter id="filter1_i_5504_29078" x="3.12109" y="3.04688" width="10.3295" height="10.4076" filterUnits="userSpaceOnUse" color-interpolation-filters="sRGB">
<feFlood flood-opacity="0" result="BackgroundImageFix"/>
<feBlend mode="normal" in="SourceGraphic" in2="BackgroundImageFix" result="shape"/>
<feColorMatrix in="SourceAlpha" type="matrix" values="0 0 0 0 0 0 0 0 0 0 0 0 0 0 0 0 0 0 127 0" result="hardAlpha"/>
<feOffset dx="1.35294" dy="1.35294"/>
<feGaussianBlur stdDeviation="0.676471"/>
<feComposite in2="hardAlpha" operator="arithmetic" k2="-1" k3="1"/>
<feColorMatrix type="matrix" values="0 0 0 0 0 0 0 0 0 0.37028 0 0 0 0 0.74056 0 0 0 0.5 0"/>
<feBlend mode="multiply" in2="shape" result="effect1_innerShadow_5504_29078"/>
</filter>
<filter id="filter2_i_5504_29078" x="18.2734" y="17" width="14.0795" height="12.808" filterUnits="userSpaceOnUse" color-interpolation-filters="sRGB">
<feFlood flood-opacity="0" result="BackgroundImageFix"/>
<feBlend mode="normal" in="SourceGraphic" in2="BackgroundImageFix" result="shape"/>
<feColorMatrix in="SourceAlpha" type="matrix" values="0 0 0 0 0 0 0 0 0 0 0 0 0 0 0 0 0 0 127 0" result="hardAlpha"/>
<feOffset dx="1.35294" dy="1.35294"/>
<feGaussianBlur stdDeviation="0.676471"/>
<feComposite in2="hardAlpha" operator="arithmetic" k2="-1" k3="1"/>
<feColorMatrix type="matrix" values="0 0 0 0 0 0 0 0 0 0.37028 0 0 0 0 0.74056 0 0 0 0.5 0"/>
<feBlend mode="multiply" in2="shape" result="effect1_innerShadow_5504_29078"/>
</filter>
<linearGradient id="paint0_linear_5504_29078" x1="11.6746" y1="3.04687" x2="1.46007" y2="7.17183" gradientUnits="userSpaceOnUse">
<stop stop-color="#0050EC"/>
<stop offset="1" stop-color="#39C7EC"/>
</linearGradient>
<linearGradient id="paint1_linear_5504_29078" x1="18.8733" y1="17" x2="32.8536" y2="23.3285" gradientUnits="userSpaceOnUse">
<stop stop-color="#0050EC"/>
<stop offset="1" stop-color="#39C7EC"/>
</linearGradient>
</defs>
</svg>
